<svg width="52" height="42" viewBox="0 0 52 42" fill="none" xmlns="http://www.w3.org/2000/svg">
<path d="M51.2281 9.31523L26.2531 0.793359C26.1266 0.751172 26 0.751172 25.8734 0.793359L0.560937 10.623C0.392187 10.7074 0.265625 10.8762 0.265625 11.1293C0.265625 11.3402 0.392188 11.5512 0.603125 11.5934L11.1078 15.1793L10.7281 27.0762C10.7281 27.2027 10.7703 27.3715 10.8969 27.4559C11.0656 27.6246 15.0734 31.548 23.4266 31.548C23.8484 31.548 24.2703 31.548 24.6922 31.5059C33.8469 31.084 38.9516 27.1184 39.2047 26.9496C39.3313 26.8652 39.4156 26.6965 39.4156 26.5699L39.6266 14.673L51.2703 10.3277C51.4813 10.2434 51.6078 10.0746 51.6078 9.82148C51.5656 9.56836 51.4391 9.35742 51.2281 9.31523ZM38.3609 26.2746C37.3484 26.9918 32.4969 30.1137 24.65 30.4934C16.8453 30.8309 12.6266 27.5824 11.7828 26.8652L12.1203 15.5168L25.0719 19.9465C25.1141 19.9465 25.1984 19.9887 25.2406 19.9887C25.2828 19.9887 25.3672 19.9887 25.4094 19.9465L38.5719 15.0105L38.3609 26.2746ZM25.2406 18.934L2.29063 11.0871L26.0844 1.80586L49.5406 9.82148L25.2406 18.934Z" fill="#58595B"/>
<path d="M49.2883 26.1906V26.1484C49.3727 25.9797 49.457 25.7687 49.5414 25.5578C49.7945 24.7562 49.7102 23.9125 49.3727 23.1953C48.993 22.4359 48.4023 21.9297 47.643 21.7188C47.5586 21.6766 47.4742 21.6766 47.432 21.6766L47.7695 11.2562C47.7695 10.9609 47.5586 10.75 47.2633 10.7078L25.7477 9.90625C25.4523 9.90625 25.2414 10.1172 25.1992 10.4125C25.1992 10.7078 25.4102 10.9188 25.7055 10.9609L46.7148 11.7625L46.4195 21.7188C45.3227 21.9297 44.3102 22.7734 43.9727 23.9969C43.7195 24.7984 43.8039 25.6422 44.1414 26.3594C44.3102 26.6547 44.4789 26.95 44.732 27.1609L43.2133 40.7453C43.2133 40.9141 43.2555 41.0828 43.382 41.1672C43.4664 41.2516 43.593 41.2937 43.7195 41.2937C43.7617 41.2937 43.7617 41.2937 43.8039 41.2937L50.3008 40.1125C50.5539 40.0703 50.7648 39.8172 50.7227 39.5641L49.2883 26.1906ZM44.9008 24.2078C45.1961 23.2375 45.9977 22.6047 46.8414 22.6047C47.0102 22.6047 47.1789 22.6469 47.3055 22.6891C47.7695 22.8156 48.1914 23.1531 48.4023 23.6594C48.6555 24.1656 48.6977 24.7141 48.5289 25.3047C48.1914 26.4438 47.0945 27.1187 46.082 26.8234C45.618 26.6969 45.1961 26.3594 44.9852 25.8531C44.7742 25.3469 44.732 24.7562 44.9008 24.2078ZM44.268 40.1125L45.6602 27.7094C45.7023 27.7516 45.7867 27.7516 45.8289 27.7937C46.082 27.8781 46.3352 27.9203 46.5883 27.9203C47.2211 27.9203 47.8539 27.7094 48.3602 27.2875L49.6258 39.1844L44.268 40.1125Z" fill="#FF9900"/>
</svg>
