<svg width="40" height="40" viewBox="0 0 40 40" fill="none" xmlns="http://www.w3.org/2000/svg">
<g clip-path="url(#clip0_98_2789)">
<path d="M29.2188 30.1869H28.5938C29.9062 28.6869 30.6562 26.7494 30.6562 24.7494C30.6562 21.2494 28.4688 18.1556 25.1875 16.9994C25.0312 15.4056 23.9062 14.0931 22.4062 13.6869L22.8125 12.8431C23.0625 12.3744 22.875 11.7806 22.4062 11.5306L22.875 10.5931C23.125 10.7181 23.375 10.7181 23.625 10.6244C23.875 10.5306 24.0938 10.3431 24.2188 10.1244L25.125 8.28063C25.25 8.03063 25.25 7.74938 25.1875 7.49938C25.0938 7.21813 24.9062 6.99938 24.6875 6.87438L21.0625 5.09313C20.5625 4.84313 19.9688 5.06188 19.7188 5.56188L18.8125 7.40563C18.6875 7.65563 18.6875 7.93688 18.75 8.18688C18.8438 8.43688 19 8.62438 19.2188 8.74938L18.75 9.68688C18.25 9.43688 17.6562 9.65563 17.4062 10.1556L12.5 20.1556C12.375 20.4056 12.375 20.6869 12.4375 20.9369C12.5312 21.1869 12.7188 21.4056 12.9375 21.5306L16.5625 23.2806C16.7188 23.3431 16.8438 23.3744 17 23.3744C17.125 23.3744 17.2188 23.3431 17.3125 23.3119C17.5625 23.2181 17.7812 23.0306 17.9062 22.8119L19.0938 20.3744C19.7188 20.8744 20.5312 21.1556 21.4062 21.1556C22.4688 21.1556 23.4375 20.7181 24.125 19.9994C25.875 20.9681 26.9375 22.8119 26.9375 24.8119C26.9375 27.3119 25.25 29.5306 22.8438 30.1556C22.8125 30.1556 22.8125 30.1869 22.7812 30.1869H16.8125V28.6869C16.8125 28.4681 16.6562 28.3119 16.4375 28.3119H11.4688C11.25 28.3119 11.0938 28.4681 11.0938 28.6869V30.1869H10.8125C9.59375 30.1869 8.59375 31.1869 8.59375 32.4056V34.5931C8.59375 34.8431 8.75 34.9994 8.96875 34.9994H31.0625C31.2812 34.9994 31.4375 34.8431 31.4375 34.6244V32.4369C31.4375 31.1869 30.4375 30.1869 29.2188 30.1869ZM17.25 22.4681C17.2188 22.5306 17.1562 22.5619 17.0938 22.5931C17.0312 22.6244 16.9688 22.6244 16.9062 22.5931L13.2812 20.8119C13.2188 20.7806 13.1875 20.7181 13.1562 20.6556C13.125 20.5931 13.125 20.5306 13.1562 20.4681L18.0625 10.4994C18.125 10.3744 18.2812 10.3119 18.4062 10.3744L18.75 10.5306C18.8438 10.5931 18.9688 10.5931 19.0625 10.5306C19.1562 10.4994 19.25 10.4056 19.2812 10.3119V10.2806L20.0625 8.71813C20.1562 8.53063 20.0625 8.31188 19.875 8.21813L19.5625 8.06188C19.5 8.03063 19.4688 7.96813 19.4375 7.90563C19.4062 7.84313 19.4062 7.78063 19.4375 7.71813L20.3438 5.87438C20.4062 5.74938 20.5625 5.68688 20.6875 5.74938L24.3125 7.53063C24.4375 7.59313 24.5 7.74938 24.4375 7.87438L23.5312 9.71813C23.5 9.78063 23.4375 9.81188 23.375 9.84313C23.3125 9.87438 23.25 9.87438 23.1875 9.84313L22.875 9.68688C22.6875 9.59313 22.4688 9.68688 22.375 9.87438L21.625 11.4369L21.5938 11.4681C21.5312 11.5619 21.5 11.6869 21.5312 11.7806C21.5625 11.8744 21.625 11.9681 21.7188 12.0306L22 12.1869C22.125 12.2494 22.1875 12.4056 22.125 12.5306L21.5938 13.5931C21.5312 13.5931 21.4688 13.5931 21.375 13.5931C19.2813 13.5931 17.5625 15.3119 17.5625 17.4056C17.5625 18.3431 17.9062 19.2181 18.5 19.8744L17.25 22.4681ZM21.4062 20.4056C19.7188 20.4056 18.375 19.0306 18.375 17.3744C18.375 15.7181 19.75 14.3431 21.4062 14.3431C23.0625 14.3431 24.4375 15.7181 24.4375 17.3744C24.4375 19.0306 23.0938 20.4056 21.4062 20.4056ZM27.7188 24.8119C27.7188 22.5619 26.5312 20.5306 24.625 19.4056C24.9375 18.9369 25.125 18.3744 25.1875 17.8119C28.0312 18.9369 29.9062 21.6556 29.9062 24.7494C29.9062 26.8119 29.0312 28.7806 27.5312 30.1869H24.6875C26.5312 29.0619 27.7188 27.0619 27.7188 24.8119ZM11.8438 29.0931H16.0625V30.1869H11.8438V29.0931ZM30.6875 34.2494H9.34375V32.4369C9.34375 31.6244 10 30.9681 10.8125 30.9681H11.4375H16.4062H27.625H27.6562H27.6875H29.1875C30 30.9681 30.6562 31.6244 30.6562 32.4369V34.2494H30.6875Z" fill="#58595B"/>
<path d="M18.1562 29.0928H8.8125C8.59375 29.0928 8.4375 28.9365 8.4375 28.7178C8.4375 28.499 8.59375 28.3428 8.8125 28.3428H18.1562C18.375 28.3428 18.5312 28.499 18.5312 28.7178C18.5312 28.9053 18.375 29.0928 18.1562 29.0928Z" fill="#FF9900"/>
</g>
<defs>
<clipPath id="clip0_98_2789">
<rect width="23" height="30" fill="white" transform="translate(8.4375 5)"/>
</clipPath>
</defs>
</svg>
