<svg width="40" height="40" viewBox="0 0 40 40" fill="none" xmlns="http://www.w3.org/2000/svg">
<g clip-path="url(#clip0_184_7084)">
<path d="M36.4063 31.4062H33.2813V30.375C33.2813 29.5625 32.9063 28.8438 32.3751 28.4375V15.8438C32.3751 15.625 32.2188 15.4688 32.0001 15.4688C31.7813 15.4688 31.6251 15.625 31.6251 15.8438V28.125C31.5626 28.125 31.4688 28.0938 31.4063 28.0938H29.1876V15.7813C29.1876 15.5625 29.0313 15.4062 28.8126 15.4062C28.5938 15.4062 28.4376 15.5625 28.4376 15.7813V28.125H25.6876V15.8125C25.6876 15.5937 25.5313 15.4375 25.3126 15.4375C25.0938 15.4375 24.9376 15.5937 24.9376 15.8125V28.125H22.5001V15.7813C22.5001 15.5625 22.3438 15.4062 22.1251 15.4062C21.9063 15.4062 21.7501 15.5625 21.7501 15.7813V28.125H18.3438V15.875C18.3438 15.6562 18.1876 15.5 17.9688 15.5C17.7501 15.5 17.5938 15.6562 17.5938 15.875V28.125H15.1563V15.8125C15.1563 15.5937 15.0001 15.4375 14.7813 15.4375C14.5626 15.4375 14.4063 15.5937 14.4063 15.8125V28.125H11.6563V15.875C11.6563 15.6562 11.5001 15.5 11.2813 15.5C11.0626 15.5 10.9063 15.6562 10.9063 15.875V28.125H8.46883V15.8125C8.46883 15.5937 8.31258 15.4375 8.09383 15.4375C7.87508 15.4375 7.71883 15.5937 7.71883 15.8125V28.375C7.09383 28.75 6.65633 29.5 6.65633 30.4063V31.4375H3.53133C3.31258 31.4375 3.15633 31.5938 3.15633 31.8125V34.625C3.12508 34.8438 3.28133 35 3.50008 35H36.4063C36.6251 35 36.7813 34.8438 36.7813 34.625V31.8125C36.7813 31.5938 36.6251 31.4062 36.4063 31.4062ZM7.37508 30.375C7.37508 29.5312 7.87508 28.875 8.53133 28.875H31.3751C32.0001 28.875 32.5313 29.5625 32.5313 30.375V31.4062H7.37508V30.375ZM36.0313 34.25H3.87508V32.1875H36.0001V34.25H36.0313Z" fill="#58595B"/>
<path d="M34.6255 16.0938H5.71924C5.25049 16.0938 4.87549 15.7188 4.87549 15.2188V11.9687C4.87549 11.75 5.03174 11.5938 5.25049 11.5938C5.46924 11.5938 5.62549 11.75 5.62549 11.9687V15.2188C5.62549 15.2813 5.68799 15.3125 5.71924 15.3125H34.6255C34.688 15.3125 34.7192 15.25 34.7192 15.2188V12.125C34.7192 11.9062 34.8755 11.75 35.0942 11.75C35.313 11.75 35.4692 11.9062 35.4692 12.125V15.2188C35.5005 15.6875 35.0942 16.0938 34.6255 16.0938Z" fill="#FF9900"/>
<path d="M35.2499 12.3438H5.18738C4.99988 12.3438 4.84363 12.2188 4.81238 12.0312C4.78113 11.8438 4.87488 11.6875 5.03113 11.5938L19.9999 5.03125C20.0936 5 20.2186 5 20.3124 5.03125L35.4061 11.625C35.5624 11.6875 35.6561 11.875 35.6249 12.0625C35.5624 12.2188 35.4061 12.3438 35.2499 12.3438ZM6.99988 11.5938H33.4374L20.1561 5.78125L6.99988 11.5938Z" fill="#58595B"/>
</g>
<defs>
<clipPath id="clip0_184_7084">
<rect width="33.6562" height="30" fill="white" transform="translate(3.125 5)"/>
</clipPath>
</defs>
</svg>
