<svg width="53" height="49" viewBox="0 0 53 49" fill="none" xmlns="http://www.w3.org/2000/svg">
<g clip-path="url(#clip0_444_231)">
<path d="M15.5722 23.9078C15.0308 24.4985 13.3574 25.0891 11.9793 24.9907C11.4871 24.9414 10.8472 24.7938 10.5519 24.3508C10.0597 23.6125 10.6011 22.3821 11.1425 21.3977C11.5363 20.6594 12.0285 19.9703 12.5207 19.2321C12.7175 18.9367 12.9636 18.5922 13.1605 18.2969C13.259 18.1985 13.3574 18.0016 13.4066 17.7063C13.4066 17.4602 13.3574 17.3125 13.3082 17.1649C13.2097 16.9188 13.0129 16.6235 12.8652 16.3282C12.7175 16.1313 12.5699 15.8852 12.5207 15.7375C12.4715 15.6391 12.4222 15.5407 12.3238 15.4914C12.2746 15.4422 12.2746 15.3438 12.1761 15.2946C12.0285 15.0977 11.7824 15.0485 11.5363 14.95C10.7488 14.7039 9.86286 14.7039 9.02614 14.9008C8.73083 14.95 8.33708 15.0977 8.18942 15.393C8.04176 15.6391 7.89411 16.0821 8.09098 16.3282C8.1402 16.3774 8.18942 16.4266 8.28786 16.4266C8.78005 16.6235 9.27223 16.4758 9.76442 16.3774C10.355 16.2789 10.8965 16.2789 11.4871 16.4266C11.5855 16.6235 11.684 16.8203 11.8316 17.0172C11.8808 17.1157 11.9793 17.2633 12.0285 17.3617C10.798 16.6727 9.86286 16.525 8.87848 16.8696C8.58317 16.968 8.3863 17.3125 8.53395 17.6078C8.63239 17.9032 8.97692 18.1 9.27223 17.9524C9.32145 17.9524 9.32145 17.9524 9.37067 17.9031C9.32145 18.0016 9.32145 18.1 9.32145 18.1492C9.32145 18.5922 9.66598 18.9367 10.109 18.9367C10.5519 18.9367 10.8965 18.5922 10.8965 18.1492C10.8965 18.1 10.8965 18.0508 10.8965 18.0016C11.0933 18.1 11.3394 18.1985 11.6347 18.3953C11.6347 18.4446 11.5855 18.4446 11.5855 18.4938C11.0933 19.2321 10.5519 19.9703 10.109 20.7578C9.66598 21.5946 8.63239 23.5141 9.56755 24.9414C10.0105 25.6305 10.798 26.0242 11.8808 26.0735C12.0285 26.0735 12.1761 26.0735 12.3238 26.0735C13.8988 26.0735 15.6707 25.4336 16.4582 24.5969C16.7043 24.3508 16.655 23.9571 16.409 23.7602C16.1629 23.6617 15.7691 23.6617 15.5722 23.9078Z" fill="#58595B"/>
<path d="M14.7358 27.5498C14.1944 27.8452 12.3241 27.6975 11.1428 27.5006C10.7983 27.4514 10.503 27.6483 10.4538 27.9928C10.4046 28.3373 10.6014 28.6327 10.946 28.6819C11.2905 28.7311 12.4225 28.928 13.4561 28.928C14.1452 28.928 14.785 28.8788 15.228 28.6327C15.5233 28.485 15.6217 28.1405 15.4741 27.8452C15.3756 27.5006 15.0311 27.4022 14.7358 27.5498Z" fill="#58595B"/>
<path d="M19.7559 17.5585C17.1965 15.9835 15.2278 17.3124 15.1293 17.3617C14.8832 17.5585 14.7848 17.9031 14.9817 18.1984C15.1786 18.4445 15.5231 18.5429 15.8184 18.346C15.8676 18.346 16.1137 18.1492 16.6059 18.0507C16.6059 18.1 16.5567 18.1984 16.5567 18.2476C16.5567 18.6906 16.9012 19.0351 17.3442 19.0351C17.7872 19.0351 18.1317 18.6906 18.1317 18.2476C18.1317 18.1984 18.1317 18.1492 18.1317 18.0999C18.427 18.1984 18.7715 18.346 19.1653 18.5429C19.2637 18.5921 19.3622 18.6414 19.4606 18.6414C19.6575 18.6414 19.8543 18.5429 19.9528 18.346C20.1004 18.0999 20.002 17.7554 19.7559 17.5585Z" fill="#58595B"/>
<path d="M20.2975 15.6889C19.8053 15.2951 19.3131 14.9014 18.7225 14.6553C18.1811 14.4092 17.6396 14.3107 17.049 14.36C16.5568 14.36 16.0646 14.4584 15.5725 14.6061C15.3264 14.6553 15.0803 14.7537 14.9326 14.9506C14.7357 15.1967 14.6865 15.492 14.6865 15.7873C14.6865 15.8365 14.6865 15.8857 14.7357 15.935C14.785 15.9842 14.8342 16.0334 14.8834 16.0334C15.6217 16.3287 16.4092 15.8857 17.1475 15.8365C17.8857 15.7381 18.6732 15.8857 19.3623 16.2303C19.5592 16.3287 21.0357 17.2146 21.1342 16.8701C21.2818 16.3779 20.642 15.9842 20.2975 15.6889Z" fill="#58595B"/>
<path d="M42.9886 32.9168C41.955 32.1785 40.823 31.6863 39.7402 31.2434C38.0175 30.5051 36.3933 29.7668 35.2613 28.2903C35.1628 28.1426 35.0152 28.0442 34.8183 27.9949C34.7691 27.9949 34.7691 27.9949 34.7198 27.9949C34.7198 27.9949 34.5722 27.9949 34.4245 27.8473C34.2277 27.6504 33.9323 27.109 34.08 25.6324C34.1292 25.2879 33.8831 24.9926 33.5386 24.9926C33.1941 24.9434 32.8987 25.1895 32.8987 25.534C32.8003 27.0598 33.0464 28.0934 33.637 28.684C33.637 28.684 33.637 28.684 33.6862 28.7332C28.2722 33.2613 18.9206 36.8543 18.8222 36.9035C18.5269 37.002 18.3792 37.3465 18.4777 37.691C18.5761 37.9371 18.773 38.0848 19.0191 38.0848C19.0683 38.0848 19.1667 38.0848 19.2159 38.0356C19.6097 37.8879 29.1581 34.1965 34.7198 29.4715C34.9167 29.7176 35.1628 29.9145 35.3597 30.1114C27.5831 37.8879 18.8222 46.1567 17.6409 46.5012C17.3456 46.5996 17.1487 46.8949 17.198 47.2395C17.2472 47.5348 17.4933 47.6824 17.7886 47.6824C17.8378 47.6824 17.887 47.6824 17.9362 47.6824C19.905 47.1903 33.0464 34.0981 36.3441 30.8496C37.2792 31.4895 38.3128 31.9324 39.3464 32.3754C40.38 32.8184 41.4628 33.3106 42.398 33.9504C46.237 36.6082 48.698 41.9731 48.698 47.584C48.698 47.9285 48.9441 48.1746 49.2886 48.1746C49.6331 48.1746 49.8792 47.9285 49.8792 47.584C49.83 41.5301 47.123 35.7715 42.9886 32.9168Z" fill="#58595B"/>
<path d="M13.2111 38.8731C9.02754 41.6786 6.12363 43.9918 3.46582 46.6497C3.21973 46.8958 3.21973 47.2403 3.46582 47.4864C3.56426 47.5848 3.71191 47.634 3.85957 47.634C4.00723 47.634 4.15488 47.5848 4.30254 47.4372C6.91113 44.8286 9.76582 42.5645 13.851 39.8575C14.1463 39.6606 14.1955 39.3161 13.9986 39.0208C13.851 38.7747 13.4572 38.7254 13.2111 38.8731Z" fill="#58595B"/>
<path d="M16.7544 48.1249C16.459 48.1249 16.1637 47.8788 16.1637 47.5342L15.9176 41.8741C15.9176 41.6772 16.0161 41.4803 16.213 41.3327C17.5911 40.4467 18.5262 39.61 19.0184 39.1671C17.0005 36.5092 16.0653 36.5585 15.8684 36.6569C14.9825 36.9522 14.638 39.6592 14.6872 41.3327C14.6872 41.4311 14.6872 41.5296 14.638 41.628L11.6356 47.2881C11.488 47.5835 11.1434 47.6819 10.8481 47.5342C10.5528 47.3866 10.4544 47.042 10.602 46.7467L13.4075 41.2342C13.4075 40.1022 13.4567 36.2139 15.4255 35.5249C16.7051 35.0819 18.2801 36.1647 20.2489 38.8717C20.3965 39.1178 20.3965 39.4131 20.1997 39.61C20.1505 39.6592 19.0676 40.8405 17.0989 42.1202L17.345 47.4358C17.3942 47.8296 17.0989 48.1249 16.7544 48.1249Z" fill="#FF9900"/>
<path d="M41.4129 14.2621C41.4129 14.2129 41.3636 14.1636 41.3636 14.1636L40.1332 12.4902C40.6746 11.3582 41.9051 7.76521 38.3613 4.27068C36.048 1.95739 32.9472 0.726926 30.1418 0.923801C28.8621 1.02224 27.6808 1.41599 26.6472 2.05583C26.6472 2.05583 26.598 2.05583 26.598 2.00661C26.4996 2.00661 22.0699 0.97302 17.3449 2.84333C15.3762 2.20349 13.7027 2.25271 12.3246 3.13864C11.2418 3.77849 10.4543 4.71365 9.61756 5.6488C8.04256 7.51911 6.27068 9.78318 5.77849 12.4902C5.68006 13.0808 5.97537 16.8215 7.05818 17.3136C7.1074 18.2488 7.15662 19.184 7.45193 20.0699C7.74724 21.0051 7.64881 22.0879 7.55037 23.1215C7.50115 23.6629 7.45193 24.2043 7.45193 24.7457C7.45193 27.059 7.74724 28.8801 8.43631 30.4058C8.97771 31.5871 9.76521 32.5715 10.7496 33.2605C10.848 33.3097 10.9465 33.359 11.0449 33.359C11.2418 33.9496 11.4879 34.5402 11.8816 34.9832C12.6199 35.8691 13.6043 36.3613 14.8347 36.4597C14.9824 36.4597 15.1301 36.4597 15.2777 36.4597C18.2308 36.4597 21.6269 34.2941 23.0051 33.0636C23.2512 32.8668 23.3004 32.473 23.0543 32.2269C22.8574 31.9808 22.4637 31.9316 22.2176 32.1777C20.6426 33.5558 17.3449 35.4754 14.884 35.2785C13.9488 35.1801 13.2597 34.8355 12.7183 34.1957C11.9308 33.2605 11.6847 31.4886 11.8816 30.209C11.9308 29.8644 11.6847 29.5691 11.3894 29.5199C11.0449 29.4707 10.7496 29.7168 10.7004 30.0121C10.6512 30.5043 10.6019 31.0457 10.6512 31.5871C10.159 31.0949 9.76521 30.5043 9.42068 29.8152C8.78084 28.4863 8.53474 26.8621 8.53474 24.6965C8.53474 24.2043 8.58396 23.7121 8.63318 23.1707C8.73162 21.9894 8.87928 20.759 8.48553 19.6269C8.19021 18.6918 8.19021 17.609 8.14099 16.5754V16.2801C10.1097 9.09411 13.7519 5.6488 17.2957 4.0738C17.4433 4.0738 17.591 4.02458 17.6894 3.92614C20.8886 2.64646 23.9402 2.79411 25.3676 3.04021C25.1215 3.2863 24.8754 3.58161 24.6293 3.87693C24.4324 4.12302 24.4816 4.46755 24.7277 4.71364C24.8262 4.81208 27.3363 7.02693 25.5152 12.441C24.8754 14.3605 24.9738 15.8863 25.8105 17.0676C27.2379 19.0363 30.1418 19.1347 30.4863 19.1347C30.9785 19.1347 31.3722 18.8886 31.6676 18.6426C31.766 18.5933 31.8644 18.4949 31.9137 18.4457C32.4551 18.1504 32.9965 17.9535 33.5871 17.8551C33.9808 17.7566 34.7191 17.7074 35.0637 18.0519C35.2605 18.298 35.359 18.6918 35.359 18.9871C35.4082 20.2176 34.8668 21.3988 34.2762 22.6293C33.9808 23.2691 33.6363 23.9582 33.3902 24.6472C32.8488 25.4347 31.8152 26.4191 31.323 26.3207C31.0769 26.2715 30.8801 25.8777 30.7324 25.2379H30.6832C30.9785 24.6472 31.2246 24.0074 31.323 23.2691C31.3722 22.9246 31.1261 22.6293 30.8308 22.5801C30.4863 22.5308 30.191 22.7769 30.1418 23.0722C29.6988 26.1238 26.598 27.5019 26.5488 27.5511C26.2535 27.6988 26.1058 28.0433 26.2535 28.3386C26.3519 28.5847 26.5488 28.6832 26.7949 28.6832C26.8933 28.6832 26.9426 28.6832 27.041 28.634C27.1394 28.5847 28.6652 27.8957 29.8957 26.4191C30.191 27.0097 30.5847 27.3543 31.1262 27.4527C31.2246 27.4527 31.323 27.5019 31.4215 27.5019C32.7504 27.5019 34.0793 25.7793 34.4238 25.2871C34.6699 25.0902 35.0637 24.6965 35.5066 24.2535C36.1465 23.6629 36.8355 22.9738 37.1801 22.7277C37.2785 22.6785 37.5246 22.5308 37.7707 22.3832C39.3949 21.5465 43.7262 19.3808 41.4129 14.2621ZM7.25506 15.2957C7.05818 14.4097 6.86131 13.1301 6.95974 12.6871C7.40271 10.2754 9.02693 8.15896 10.5035 6.38708C11.2418 5.50115 11.9801 4.66443 12.9152 4.12302C13.5058 3.72927 14.1949 3.58161 14.9332 3.58161C15.1301 3.58161 15.3761 3.58161 15.573 3.63083C12.3246 5.45193 9.07615 8.94646 7.25506 15.2957ZM37.2293 21.3004C36.8847 21.4972 36.5894 21.5957 36.4418 21.7433C36.2449 21.891 35.9988 22.1371 35.7035 22.3832C36.1957 21.3004 36.6386 20.1191 36.5894 18.8394C36.5402 18.1011 36.3433 17.5597 35.9496 17.166C35.5558 16.723 34.9652 16.5261 34.2269 16.5261C33.9808 16.5261 33.6855 16.5754 33.3902 16.6246C32.7012 16.7722 32.0121 17.0183 31.4215 17.3629C31.323 17.4121 31.1754 17.5105 31.0277 17.609C30.8801 17.7074 30.634 17.9043 30.5355 17.9043C30.4863 17.9043 27.9269 17.8551 26.8441 16.3293C26.2535 15.4926 26.2043 14.2621 26.6965 12.7855C28.3207 7.86365 26.7457 5.15661 25.9582 4.17224C27.041 2.94177 28.5176 2.20349 30.2402 2.10505C32.7504 1.90818 35.4574 3.04021 37.5246 5.1074C41.0683 8.65115 39.0011 12.0965 38.9027 12.2441C38.7551 12.441 38.8043 12.7363 38.9519 12.9332L40.3793 14.8527C42.1511 18.8394 38.9519 20.4636 37.2293 21.3004Z" fill="#58595B"/>
<path d="M52.1922 46.9434H0.414062V48.1246H52.1922V46.9434Z" fill="#58595B"/>
</g>
<defs>
<clipPath id="clip0_444_231">
<rect width="51.7781" height="47.25" fill="white" transform="translate(0.414062 0.875)"/>
</clipPath>
</defs>
</svg>
