<svg width="40" height="51" viewBox="0 0 40 51" fill="none" xmlns="http://www.w3.org/2000/svg">
<g clip-path="url(#clip0_444_1139)">
<path d="M38.5255 17.5614C37.285 16.6827 37.0782 15.804 37.8535 14.5634C38.3188 13.8397 38.3704 12.961 38.0086 12.1856C37.6985 11.4103 37.0265 10.8417 36.1478 10.6349C34.8038 10.3248 34.3386 9.65282 34.5454 8.30887C34.6487 7.48183 34.3903 6.65478 33.77 6.0345C33.2014 5.46591 32.3744 5.20746 31.4956 5.31084C30.1517 5.5176 29.4797 5.05238 29.1696 3.70844C28.9628 2.88139 28.3942 2.20942 27.6189 1.89927C26.8435 1.58913 25.9648 1.64082 25.2411 2.05435C23.9488 2.8297 23.1218 2.62294 22.1914 1.38237C21.6745 0.710398 20.8991 0.296875 20.0721 0.296875C19.245 0.296875 18.418 0.710398 17.9011 1.38237C16.9707 2.62294 16.1436 2.8297 14.8514 2.05435C14.1277 1.64082 13.249 1.53744 12.4736 1.89927C11.6982 2.20942 11.1297 2.88139 10.9229 3.70844C10.6127 5.05238 9.94077 5.5176 8.59682 5.31084C7.76978 5.20746 6.89104 5.46591 6.32245 6.0345C5.70217 6.65478 5.44372 7.48183 5.5471 8.30887C5.75386 9.65282 5.28864 10.3248 3.9447 10.6349C3.11765 10.8417 2.44568 11.4103 2.08385 12.1856C1.7737 12.961 1.82539 13.8397 2.23892 14.5634C3.01427 15.804 2.80751 16.6827 1.56694 17.5614C0.843277 18.0783 0.481445 18.8537 0.481445 19.6807C0.481445 20.5595 0.894968 21.3348 1.56694 21.8C2.80751 22.6788 3.01427 23.5575 2.23892 24.7981C1.7737 25.5217 1.72201 26.4005 2.08385 27.1758C2.39399 27.9512 3.06596 28.5198 3.9447 28.7265C5.28864 29.0367 5.75386 29.7087 5.5471 31.0526C5.44372 31.8797 5.70217 32.7067 6.32245 33.327C6.68428 33.6888 7.20119 33.9473 7.71809 34.0507L2.70413 44.4404C2.60075 44.6472 2.65244 44.8539 2.75582 45.009C2.91089 45.1641 3.11765 45.2675 3.32441 45.2158L9.83739 43.9752L12.9905 49.7645C13.0939 49.9196 13.249 50.023 13.404 50.023H13.4557C13.6625 50.023 13.8692 49.8679 13.9726 49.7128L19.1416 38.9095C19.4001 39.0129 19.7102 39.0646 19.9687 39.0646C20.0721 39.0646 20.1755 39.0646 20.2788 39.0646L25.3962 49.7645C25.4996 49.9713 25.6546 50.0746 25.9131 50.0746H25.9648C26.1198 50.0746 26.2749 49.9713 26.3783 49.8162L29.5314 44.0269L36.1478 45.2158C36.3545 45.2675 36.5613 45.1641 36.7164 45.009C36.8197 44.8539 36.8714 44.6472 36.768 44.4404L31.8058 34.1023C32.5294 34.1023 33.2531 33.8439 33.77 33.327C34.3903 32.7067 34.6487 31.8797 34.5454 31.0526C34.3386 29.7087 34.8038 29.0367 36.1478 28.7265C36.9748 28.5198 37.6468 27.9512 38.0086 27.1758C38.3188 26.4005 38.2671 25.5217 37.8535 24.7981C37.0782 23.5575 37.285 22.6788 38.5255 21.8C39.2492 21.2831 39.611 20.5078 39.611 19.6807C39.611 18.802 39.1975 18.0267 38.5255 17.5614ZM13.4557 48.2655L10.6127 43.0965C10.5094 42.8897 10.2509 42.7863 9.99246 42.7863L4.20315 43.9235L8.95866 33.999C10.0958 33.9473 10.6644 34.4125 10.9229 35.6014C11.1297 36.4284 11.6982 37.1004 12.4736 37.4105C13.249 37.7207 14.1277 37.669 14.8514 37.2555C16.1436 36.4801 16.9707 36.6869 17.9011 37.9274C18.0045 38.0825 18.1078 38.1859 18.2112 38.2893L13.4557 48.2655ZM29.4797 42.838C29.2213 42.7863 29.0145 42.8897 28.8594 43.1481L26.0165 48.3172L21.416 38.7028C21.7262 38.5477 21.9846 38.2893 22.1914 37.9791C23.1218 36.7385 23.9488 36.5318 25.2411 37.3071C25.9648 37.7207 26.8435 37.824 27.6189 37.4622C28.3942 37.1521 28.9628 36.4801 29.1696 35.6531C29.3763 34.6709 29.7899 34.154 30.5652 34.0507L35.3207 43.9235L29.4797 42.838ZM37.8019 20.9213C36.9231 21.5416 36.4579 22.2136 36.2511 22.9372C36.0961 23.7126 36.2511 24.4879 36.768 25.3667C37.0265 25.7802 37.0782 26.2454 36.8714 26.7106C36.6647 27.1758 36.3028 27.486 35.8376 27.5894C34.8555 27.7961 34.1835 28.2096 33.77 28.8299C33.3565 29.4502 33.2014 30.2256 33.3565 31.156C33.4599 31.6212 33.3048 32.0864 32.943 32.4483C32.5811 32.8101 32.1159 32.9652 31.6507 32.8618C30.6686 32.7067 29.8932 32.8618 29.273 33.2753C28.6527 33.6888 28.2391 34.3608 28.0324 35.3429C27.929 35.8081 27.6189 36.2216 27.1536 36.3767C26.6884 36.5835 26.2232 36.5318 25.8097 36.2733C24.931 35.7564 24.1039 35.5497 23.3286 35.7047C22.5532 35.8598 21.8812 36.3767 21.261 37.2038C20.9508 37.6173 20.4856 37.824 20.0204 37.824C19.5035 37.824 19.09 37.6173 18.7798 37.2038C18.1595 36.325 17.4876 35.8598 16.7122 35.7047C16.5054 35.653 16.3504 35.6531 16.1436 35.6531C15.5233 35.6531 14.903 35.8598 14.2311 36.2733C13.8175 36.5318 13.3006 36.5318 12.8871 36.3767C12.4219 36.17 12.1118 35.8081 12.0084 35.3429C11.8016 34.4125 11.3881 33.6888 10.7678 33.2753C10.1475 32.8618 9.37218 32.7584 8.39006 32.8618C7.92485 32.9135 7.40795 32.8101 7.09781 32.4483C6.73597 32.0864 6.5809 31.6212 6.68428 31.156C6.83935 30.1739 6.68428 29.4502 6.27076 28.8299C5.85724 28.2096 5.18526 27.8478 4.20315 27.5894C3.73794 27.486 3.32441 27.1758 3.16934 26.7106C2.96258 26.2454 3.01427 25.7802 3.27272 25.3667C3.78963 24.4879 3.99639 23.6609 3.78963 22.9372C3.63455 22.1619 3.11765 21.5416 2.23892 20.9213C1.82539 20.6112 1.61863 20.1976 1.61863 19.6807C1.61863 19.1638 1.82539 18.7503 2.23892 18.4402C3.11765 17.8199 3.58286 17.1479 3.78963 16.4243C3.9447 15.7006 3.78963 14.8735 3.27272 13.9948C3.01427 13.5813 2.96258 13.1161 3.16934 12.6509C3.3761 12.1856 3.73794 11.8755 4.20315 11.7721C5.18526 11.5654 5.85724 11.1518 6.27076 10.5316C6.68428 9.91127 6.83935 9.13592 6.68428 8.20549C6.5809 7.74028 6.73597 7.27507 7.09781 6.91324C7.45964 6.5514 7.92485 6.39633 8.39006 6.49971C9.37218 6.65478 10.1475 6.49971 10.7678 6.08619C11.3881 5.67267 11.8016 5.00069 12.0084 4.01858C12.1118 3.55336 12.4219 3.13984 12.8871 2.98477C13.3523 2.77801 13.8175 2.8297 14.2311 3.08815C15.1098 3.60506 15.9368 3.81182 16.7122 3.65675C17.4876 3.50167 18.1595 2.98477 18.7798 2.15773C19.09 1.7442 19.5552 1.53744 20.0204 1.53744C20.5373 1.53744 20.9508 1.7442 21.261 2.15773C21.8812 3.03646 22.5532 3.50167 23.3286 3.65675C24.1039 3.81182 24.8793 3.65675 25.8097 3.08815C26.2232 2.8297 26.7401 2.8297 27.1536 2.98477C27.6189 3.19153 27.929 3.55336 28.0324 4.01858C28.2391 4.949 28.6527 5.67267 29.273 6.08619C29.8932 6.49971 30.6686 6.60309 31.6507 6.49971C32.1159 6.39633 32.6328 6.5514 32.943 6.91324C33.3048 7.27507 33.4599 7.74028 33.3565 8.20549C33.2014 9.18761 33.3565 9.91127 33.77 10.5316C34.1835 11.1518 34.8555 11.5137 35.8376 11.7721C36.3028 11.8755 36.7164 12.1856 36.8714 12.6509C37.0782 13.1161 37.0265 13.5813 36.768 13.9948C36.2511 14.8735 36.0444 15.7006 36.2511 16.4243C36.4062 17.1996 36.9231 17.8199 37.8019 18.4402C38.2154 18.7503 38.4221 19.1638 38.4221 19.6807C38.4738 20.1976 38.2154 20.6629 37.8019 20.9213Z" fill="#58595B"/>
<path d="M32.6336 14.4091C31.9616 12.8067 30.9795 11.3594 29.6873 10.1188C28.4467 8.87826 26.9477 7.89614 25.3453 7.22417C23.6395 6.5005 21.882 6.13867 20.0212 6.13867C18.1603 6.13867 16.4029 6.5005 14.6971 7.22417C13.043 7.89614 11.5957 8.87826 10.3551 10.1188C9.11452 11.3594 8.1324 12.8067 7.40874 14.4091C6.68507 16.0632 6.32324 17.8207 6.32324 19.6815C6.32324 21.4907 6.68507 23.2999 7.40874 24.9539C8.08071 26.5563 9.06283 28.0037 10.3551 29.2442C11.5957 30.4848 13.0947 31.4669 14.6971 32.1389C16.4029 32.8626 18.1603 33.2244 20.0212 33.2244C21.882 33.2244 23.6395 32.8626 25.3453 32.1389C26.9994 31.4669 28.4467 30.4848 29.6873 29.2442C30.9278 28.0037 31.91 26.5563 32.6336 24.9539C33.3573 23.2999 33.7191 21.4907 33.7191 19.6815C33.7191 17.8724 33.3573 16.1149 32.6336 14.4091ZM32.5302 19.6815C32.5302 22.9897 31.238 26.0911 28.8602 28.4172C26.5342 30.7433 23.381 32.0355 20.0212 32.0355C16.713 32.0355 13.5599 30.7433 11.1821 28.4172C8.80438 26.0911 7.51212 22.9897 7.51212 19.6815C7.51212 16.3734 8.80438 13.2719 11.1821 10.9459C13.5599 8.61981 16.6613 7.32755 20.0212 7.32755C23.3294 7.32755 26.4825 8.61981 28.8602 10.9459C31.1863 13.2719 32.5302 16.3734 32.5302 19.6815Z" fill="#58595B"/>
<path d="M19.1413 25.7288H19.0896C18.8311 25.7288 18.5727 25.6771 18.4176 25.5221L12.9901 20.5598C12.6283 20.2497 12.6283 19.6811 12.9384 19.3192C13.2486 18.9574 13.8172 18.9574 14.179 19.2675L18.8828 23.5578L25.4992 14.8739C25.8093 14.512 26.3262 14.4087 26.7397 14.7188C27.1016 15.0289 27.205 15.5458 26.8948 15.9594L19.6582 25.367C19.5548 25.5738 19.348 25.6771 19.1413 25.7288Z" fill="#FF9900"/>
</g>
<defs>
<clipPath id="clip0_444_1139">
<rect width="39.1296" height="49.7778" fill="white" transform="translate(0.481445 0.295898)"/>
</clipPath>
</defs>
</svg>
