<svg width="45" height="35" viewBox="0 0 45 35" fill="none" xmlns="http://www.w3.org/2000/svg">
<g clip-path="url(#clip0_447_98)">
<path d="M3.3125 34.6748C2.45 34.6748 1.62344 34.3514 1.0125 33.7404C0.401562 33.1295 0.078125 32.3029 0.078125 31.4404V3.40918C0.078125 1.6123 1.51562 0.174805 3.3125 0.174805H36.8781C38.675 0.174805 40.1125 1.6123 40.1125 3.40918V5.74512H40.8672C42.6641 5.74512 44.1016 7.00293 44.1016 8.51231V31.8357C44.1016 33.3811 42.6641 34.6029 40.8672 34.6029L3.3125 34.6748ZM3.3125 1.0373C2.01875 1.0373 0.940625 2.11543 0.940625 3.40918V31.4404C0.940625 32.0873 1.19219 32.6623 1.62344 33.1295C2.05469 33.5607 2.66562 33.8123 3.27656 33.8123L40.8312 33.7764C42.125 33.7764 43.2031 32.9139 43.2031 31.8717V8.51231C43.2031 7.47012 42.1609 6.60762 40.8312 6.60762H40.0766V30.0389C40.0766 30.2904 39.8969 30.4701 39.6453 30.4701C39.3937 30.4701 39.2141 30.2904 39.2141 30.0389V3.40918C39.2141 2.11543 38.1719 1.0373 36.8422 1.0373H3.3125Z" fill="#58595B"/>
<path d="M34.9377 7.72187H7.01426C6.76269 7.72187 6.58301 7.54219 6.58301 7.29062C6.58301 7.03906 6.76269 6.85938 7.01426 6.85938H34.9377C35.1893 6.85938 35.3689 7.03906 35.3689 7.29062C35.3689 7.50625 35.1533 7.72187 34.9377 7.72187Z" fill="#58595B"/>
<path d="M32.9252 12.6086H22.2877C22.0361 12.6086 21.8564 12.4289 21.8564 12.1773C21.8564 11.9258 22.0361 11.7461 22.2877 11.7461H32.9252C33.1768 11.7461 33.3564 11.9258 33.3564 12.1773C33.3564 12.4289 33.1768 12.6086 32.9252 12.6086Z" fill="#58595B"/>
<path d="M32.9252 17.9279H22.2877C22.0361 17.9279 21.8564 17.7482 21.8564 17.4967C21.8564 17.2451 22.0361 17.0654 22.2877 17.0654H32.9252C33.1768 17.0654 33.3564 17.2451 33.3564 17.4967C33.3564 17.7123 33.1768 17.9279 32.9252 17.9279Z" fill="#58595B"/>
<path d="M32.9252 23.2102H22.2877C22.0361 23.2102 21.8564 23.0305 21.8564 22.7789C21.8564 22.5273 22.0361 22.3477 22.2877 22.3477H32.9252C33.1768 22.3477 33.3564 22.5273 33.3564 22.7789C33.3564 23.0305 33.1768 23.2102 32.9252 23.2102Z" fill="#58595B"/>
<path d="M32.9252 28.5295H22.2877C22.0361 28.5295 21.8564 28.3498 21.8564 28.0982C21.8564 27.8467 22.0361 27.667 22.2877 27.667H32.9252C33.1768 27.667 33.3564 27.8467 33.3564 28.0982C33.3564 28.3498 33.1768 28.5295 32.9252 28.5295Z" fill="#58595B"/>
<path d="M16.9693 28.5656H6.36777C6.11621 28.5656 5.93652 28.3859 5.93652 28.1344C5.93652 27.8828 6.11621 27.7031 6.36777 27.7031H16.9693C17.2209 27.7031 17.4006 27.8828 17.4006 28.1344C17.4006 28.3859 17.2209 28.5656 16.9693 28.5656Z" fill="#58595B"/>
<path d="M15.46 22.5279H7.87715C7.19434 22.5279 6.65527 21.917 6.65527 21.1982V12.6451C6.65527 11.9264 7.19434 11.3154 7.87715 11.3154H15.46C16.1428 11.3154 16.6818 11.9264 16.6818 12.6451V21.1982C16.6818 21.917 16.1428 22.5279 15.46 22.5279ZM7.87715 12.1779C7.69746 12.1779 7.51777 12.3936 7.51777 12.6451V21.1982C7.51777 21.4498 7.69746 21.6654 7.87715 21.6654H15.46C15.6396 21.6654 15.8193 21.4498 15.8193 21.1982V12.6451C15.8193 12.3936 15.6396 12.1779 15.46 12.1779H7.87715Z" fill="#FF9900"/>
</g>
<defs>
<clipPath id="clip0_447_98">
<rect width="44.0234" height="34.5" fill="white" transform="translate(0.078125 0.174805)"/>
</clipPath>
</defs>
</svg>
