<svg width="38" height="35" viewBox="0 0 38 35" fill="none" xmlns="http://www.w3.org/2000/svg">
<g clip-path="url(#clip0_447_1122)">
<path d="M21.6958 28.3863C21.4802 28.3863 21.2645 28.3504 21.0848 28.2426L18.9645 27.0926L16.8442 28.2066C16.413 28.4582 15.8739 28.3863 15.4786 28.0988C15.0833 27.8113 14.9036 27.3082 14.9755 26.8051L15.3708 24.3254L13.6458 22.5645C13.2864 22.2051 13.1786 21.702 13.3223 21.2348C13.4661 20.7316 13.8614 20.4082 14.3645 20.3363L16.7364 19.977L17.8145 17.7488C18.0302 17.2816 18.4614 16.9941 18.9645 16.9941C19.4677 16.9941 19.8989 17.2816 20.1145 17.7488L21.1927 19.977L23.5645 20.3363C24.0677 20.4082 24.463 20.7676 24.6067 21.2348C24.7505 21.702 24.6427 22.241 24.2833 22.5645L22.5583 24.3254L22.9536 26.8051C23.0255 27.3082 22.8458 27.7754 22.4505 28.0988C22.2348 28.2785 21.9473 28.3863 21.6958 28.3863ZM18.9645 26.1223C19.0364 26.1223 19.1083 26.1223 19.1802 26.1582L21.4802 27.416C21.6239 27.4879 21.7677 27.4879 21.9114 27.3801C22.0552 27.2723 22.127 27.0926 22.0911 26.9488L21.6598 24.2895C21.6239 24.1098 21.6958 23.966 21.8036 23.8582L23.6723 21.9535C23.7802 21.8457 23.852 21.666 23.7802 21.4863C23.7442 21.3066 23.6005 21.1988 23.4567 21.1988L20.9052 20.8035C20.7614 20.8035 20.6177 20.6957 20.5458 20.552L19.3958 18.1082C19.3239 17.9645 19.1802 17.8566 19.0364 17.8566C18.8927 17.8566 18.7489 17.9645 18.677 18.1082L17.527 20.552C17.4192 20.7316 17.2755 20.8035 17.1317 20.8395L14.5802 21.2348C14.4364 21.2707 14.2927 21.3785 14.2567 21.5223C14.2208 21.702 14.2567 21.8816 14.3645 21.9895L16.2333 23.8941C16.3411 24.002 16.413 24.1816 16.377 24.3254L15.9458 26.9848C15.9098 27.1645 15.9817 27.3441 16.1255 27.416C16.2333 27.5238 16.413 27.5238 16.5567 27.452L18.8567 26.1941C18.8208 26.1582 18.8927 26.1223 18.9645 26.1223ZM16.952 19.941C16.952 19.941 16.9161 19.941 16.952 19.941V19.941ZM20.977 19.941C21.013 19.941 20.977 19.941 20.977 19.941V19.941Z" fill="#FF9900"/>
<path d="M34.2734 3.3373H29.925V0.893555C29.925 0.498242 29.6016 0.174805 29.1703 0.174805H25.6125C25.1812 0.174805 24.8578 0.498242 24.8578 0.893555V2.79824H13.1062V0.893555C13.1062 0.498242 12.7828 0.174805 12.3516 0.174805H8.79375C8.3625 0.174805 8.03906 0.498242 8.03906 0.893555V3.30137H3.65469C2.00156 3.3373 0.671875 4.66699 0.671875 6.28418V31.692C0.671875 32.4826 0.995313 33.2373 1.53438 33.7764C2.10938 34.3514 2.86406 34.6748 3.65469 34.6748L19.5391 34.6389H34.2734C35.9266 34.6389 37.2563 33.3092 37.2563 31.6561V6.28418C37.2563 4.66699 35.9266 3.3373 34.2734 3.3373ZM25.7203 1.0373H29.0625V6.46387H25.7203V1.0373ZM8.90156 1.0373H12.2438V6.46387H8.90156V1.0373ZM3.65469 4.1998H8.03906V6.60762C8.03906 7.00293 8.3625 7.32637 8.79375 7.32637H12.3516C12.7828 7.32637 13.1062 7.00293 13.1062 6.60762V3.66074H24.8219V6.60762C24.8219 7.00293 25.1453 7.32637 25.5766 7.32637H29.1344C29.5656 7.32637 29.8891 7.00293 29.8891 6.60762V4.1998H34.2375C35.3875 4.1998 36.3578 5.13418 36.3578 6.28418V11.2076H1.49844V6.28418C1.53438 5.13418 2.50469 4.1998 3.65469 4.1998ZM34.2734 33.7404H19.5391L3.65469 33.8123C3.07969 33.8123 2.54062 33.5967 2.14531 33.2014C1.75 32.8061 1.53438 32.267 1.53438 31.7279V12.0701H36.3937V31.6561C36.3937 32.8061 35.4594 33.7404 34.2734 33.7404Z" fill="#58595B"/>
</g>
<defs>
<clipPath id="clip0_447_1122">
<rect width="36.5844" height="34.5" fill="white" transform="translate(0.671875 0.174805)"/>
</clipPath>
</defs>
</svg>
