<svg width="44" height="37" viewBox="0 0 44 37" fill="none" xmlns="http://www.w3.org/2000/svg">
<g clip-path="url(#clip0_447_634)">
<path d="M16.5737 10.7703C16.5019 10.7703 16.4659 10.7703 16.3941 10.7344C14.1659 9.72813 11.7222 9.72813 9.49405 10.7344C9.27843 10.8422 8.99093 10.7344 8.88312 10.5187C8.7753 10.3031 8.88312 10.0156 9.09874 9.90781C11.5784 8.79375 14.2737 8.79375 16.7534 9.90781C16.9691 10.0156 17.0769 10.2672 16.9691 10.5187C16.9331 10.6984 16.7534 10.7703 16.5737 10.7703Z" fill="#FF9900"/>
<path d="M41.0109 4.73276C40.975 4.51713 40.7953 4.33744 40.5797 4.33744H38.675H38.6391L38.4953 1.82182C38.4953 1.64213 38.3516 1.46244 38.1719 1.42651C36.0156 0.815569 33.8594 0.635882 31.7031 0.995257C27.4266 1.71401 23.0422 5.52338 21.8562 6.63744C20.6344 5.52338 16.25 1.71401 12.0094 0.995257C9.85313 0.635882 7.69688 0.779632 5.57656 1.42651C5.39687 1.49838 5.25312 1.64213 5.25312 1.82182L5.10938 4.37338C5.0375 4.33744 5.00156 4.33744 4.92969 4.33744H2.80938C2.55781 4.33744 2.37813 4.51713 2.37813 4.76869L0.4375 35.7468C0.4375 35.8546 0.473438 35.9984 0.545313 36.0703C0.617188 36.1781 0.760938 36.214 0.86875 36.214H43.275C43.4188 36.214 43.5266 36.1781 43.5984 36.0703C43.6703 35.9624 43.7422 35.8546 43.7062 35.7109L41.0109 4.73276ZM31.8469 1.89369C33.7516 1.57026 35.6922 1.67807 37.5609 2.21713L39.3578 32.189C37.3453 31.2906 34.4344 30.4999 31.0203 31.039C27.175 31.6499 24.0125 32.764 22.2875 34.0578V7.46401C23.15 6.67338 27.6422 2.57651 31.8469 1.89369ZM6.11562 2.21713C8.02031 1.67807 9.925 1.57026 11.8656 1.89369C16.0344 2.57651 20.5625 6.67338 21.3891 7.46401V34.0218C19.6641 32.7281 16.5016 31.6499 12.6562 31.0031C11.8656 30.8593 11.1109 30.8234 10.3922 30.8234C7.94844 30.8234 5.86406 31.4703 4.31875 32.1531L6.11562 2.21713ZM3.24063 5.23588H4.92969C4.96562 5.23588 5.0375 5.23588 5.07344 5.19994L3.42031 32.8718C3.42031 33.0156 3.49219 33.1953 3.63594 33.2671C3.77969 33.339 3.95937 33.3749 4.10312 33.3031C5.97187 32.3328 8.99062 31.3265 12.5844 31.9015C17.6516 32.7281 20.5625 34.2015 21.5688 35.3156H1.37187L3.24063 5.23588ZM22.1797 35.3156C23.1859 34.2015 26.0969 32.7281 31.1641 31.9015C34.7578 31.3265 37.7406 32.3328 39.6453 33.3031C39.7891 33.3749 39.9688 33.3749 40.1125 33.2671C40.2563 33.1953 40.3281 33.0156 40.3281 32.8718L38.675 5.23588H40.1484L42.8078 35.3156H22.1797Z" fill="#58595B"/>
<path d="M27.1747 10.7344C29.4028 9.72813 31.8466 9.72813 34.0747 10.7344C34.1466 10.7703 34.1825 10.7703 34.2544 10.7703C34.4341 10.7703 34.5778 10.6625 34.6497 10.5187C34.7575 10.3031 34.6497 10.0156 34.4341 9.90781C31.9544 8.79375 29.2591 8.79375 26.7794 9.90781C26.5638 10.0156 26.456 10.2672 26.5638 10.5187C26.7075 10.7344 26.9591 10.8422 27.1747 10.7344Z" fill="#FF9900"/>
<path d="M9.49405 10.7344C11.7222 9.72813 14.1659 9.72813 16.3941 10.7344C16.4659 10.7703 16.5019 10.7703 16.5737 10.7703C16.7534 10.7703 16.8972 10.6625 16.9691 10.5187C17.0769 10.3031 16.9691 10.0156 16.7534 9.90781C14.2737 8.79375 11.5784 8.79375 9.09874 9.90781C8.88312 10.0156 8.7753 10.2672 8.88312 10.5187C8.99093 10.7344 9.27843 10.8422 9.49405 10.7344Z" fill="#FF9900"/>
<path d="M34.4712 15.442C31.9915 14.3279 29.2962 14.3279 26.8165 15.442C26.6009 15.5498 26.4931 15.8014 26.6009 16.0529C26.6728 16.2326 26.8525 16.3045 26.9962 16.3045C27.0681 16.3045 27.104 16.3045 27.1759 16.2686C29.404 15.2623 31.8478 15.2623 34.0759 16.2686C34.2915 16.3764 34.579 16.2686 34.6868 16.0529C34.7946 15.8014 34.6868 15.5498 34.4712 15.442Z" fill="#FF9900"/>
<path d="M9.31456 16.3045C9.38644 16.3045 9.42237 16.3045 9.49425 16.2686C11.7224 15.2623 14.1661 15.2623 16.3942 16.2686C16.6099 16.3764 16.8974 16.2686 17.0052 16.0529C17.113 15.8373 17.0052 15.5498 16.7896 15.442C14.3099 14.3279 11.6146 14.3279 9.13487 15.442C8.91925 15.5498 8.81144 15.8014 8.91925 16.0529C8.95519 16.1967 9.13487 16.3045 9.31456 16.3045Z" fill="#FF9900"/>
<path d="M9.31358 16.3045C9.1339 16.3045 8.99015 16.1967 8.91827 16.0529C8.81046 15.8373 8.91827 15.5498 9.1339 15.442C11.6136 14.3279 14.3089 14.3279 16.7886 15.442C17.0042 15.5498 17.112 15.8014 17.0042 16.0529C16.8964 16.2686 16.6448 16.3764 16.3933 16.2686C14.1651 15.2623 11.7214 15.2623 9.49327 16.2686C9.4214 16.2686 9.34952 16.3045 9.31358 16.3045Z" fill="#FF9900"/>
</g>
<defs>
<clipPath id="clip0_447_634">
<rect width="43.3047" height="35.3984" fill="white" transform="translate(0.4375 0.81543)"/>
</clipPath>
</defs>
</svg>
