<svg width="129" height="129" viewBox="0 0 129 129" fill="none" xmlns="http://www.w3.org/2000/svg">
<path fill-rule="evenodd" clip-rule="evenodd" d="M18.25 18.4707H78.47V20.4707H20.25V108.531H87.79V29.3107H89.79V110.531H18.25V18.4707Z" fill="#58595B"/>
<path fill-rule="evenodd" clip-rule="evenodd" d="M78.0791 18.5603C78.4481 18.4033 78.8751 18.4819 79.1641 18.7599L89.4841 28.6899C89.778 28.9728 89.8707 29.4059 89.7182 29.7843C89.5657 30.1627 89.1987 30.4105 88.7907 30.4105H78.4707C77.9184 30.4105 77.4707 29.9628 77.4707 29.4105V19.4805C77.4707 19.0795 77.7102 18.7173 78.0791 18.5603ZM79.4707 21.8305V28.4105H86.3092L79.4707 21.8305Z" fill="#58595B"/>
<path fill-rule="evenodd" clip-rule="evenodd" d="M99.8301 41.5C98.1724 41.5 96.8301 42.8423 96.8301 44.5V86.91H108.19V44.5C108.19 42.8423 106.848 41.5 105.19 41.5H99.8301ZM94.8301 44.5C94.8301 41.7377 97.0678 39.5 99.8301 39.5H105.19C107.952 39.5 110.19 41.7377 110.19 44.5V87.91C110.19 88.4623 109.742 88.91 109.19 88.91H95.8301C95.2778 88.91 94.8301 88.4623 94.8301 87.91V44.5Z" fill="#58595B"/>
<path fill-rule="evenodd" clip-rule="evenodd" d="M102.722 99.6339L108.282 87.4941L110.1 88.3269L104.54 100.467L104.54 100.467C103.744 102.205 101.278 102.205 100.482 100.467L100.482 100.467L94.9219 88.3269L96.7402 87.4941L102.3 99.6339C102.3 99.634 102.3 99.6341 102.3 99.6341M102.722 99.6339L102.722 99.6341L102.722 99.6339Z" fill="#58595B"/>
<path fill-rule="evenodd" clip-rule="evenodd" d="M106.253 95.2724C106.254 95.2729 106.254 95.2735 105.51 95.9408C104.765 96.6082 104.765 96.6087 104.766 96.6093L104.767 96.6103L104.769 96.6122L104.771 96.6153L104.775 96.6193C104.777 96.621 104.777 96.6208 104.775 96.6187C104.771 96.6147 104.759 96.6037 104.741 96.5872C104.705 96.5542 104.641 96.5002 104.55 96.4367C104.367 96.3097 104.08 96.1476 103.686 96.0381C102.927 95.8273 101.636 95.773 99.7543 96.8156L98.7852 95.0661C101.073 93.7986 102.902 93.7444 104.221 94.1111C104.866 94.2903 105.356 94.5613 105.693 94.7953C105.861 94.9123 105.991 95.0207 106.084 95.105C106.131 95.1472 106.168 95.1835 106.196 95.2122C106.211 95.2265 106.222 95.2389 106.232 95.2492L106.245 95.263L106.25 95.2687L106.252 95.2712L106.253 95.2724Z" fill="#58595B"/>
<path fill-rule="evenodd" clip-rule="evenodd" d="M74.8672 42.4297C74.8672 41.8774 75.277 41.4297 75.7826 41.4297H81.275C81.7806 41.4297 82.1904 41.8774 82.1904 42.4297C82.1904 42.982 81.7806 43.4297 81.275 43.4297H75.7826C75.277 43.4297 74.8672 42.982 74.8672 42.4297Z" fill="#FF9900"/>
<path fill-rule="evenodd" clip-rule="evenodd" d="M39.5508 42.4297C39.5508 41.8774 39.9606 41.4297 40.4662 41.4297H61.6579C62.1634 41.4297 62.5733 41.8774 62.5733 42.4297C62.5733 42.982 62.1634 43.4297 61.6579 43.4297H40.4662C39.9606 43.4297 39.5508 42.982 39.5508 42.4297Z" fill="#FF9900"/>
<path fill-rule="evenodd" clip-rule="evenodd" d="M27 42.4297C27 41.8774 27.4098 41.4297 27.9154 41.4297H33.4079C33.9134 41.4297 34.3233 41.8774 34.3233 42.4297C34.3233 42.982 33.9134 43.4297 33.4079 43.4297H27.9154C27.4098 43.4297 27 42.982 27 42.4297Z" fill="#FF9900"/>
<path fill-rule="evenodd" clip-rule="evenodd" d="M77.1543 51.4395C77.1543 50.8872 77.5641 50.4395 78.0697 50.4395H81.2736C81.7792 50.4395 82.189 50.8872 82.189 51.4395C82.189 51.9917 81.7792 52.4395 81.2736 52.4395H78.0697C77.5641 52.4395 77.1543 51.9917 77.1543 51.4395Z" fill="#FF9900"/>
<path fill-rule="evenodd" clip-rule="evenodd" d="M33.5547 51.4395C33.5547 50.8872 33.9645 50.4395 34.4701 50.4395H71.361C71.8666 50.4395 72.2764 50.8872 72.2764 51.4395C72.2764 51.9917 71.8666 52.4395 71.361 52.4395H34.4701C33.9645 52.4395 33.5547 51.9917 33.5547 51.4395Z" fill="#FF9900"/>
<path fill-rule="evenodd" clip-rule="evenodd" d="M27 51.4395C27 50.8872 27.4098 50.4395 27.9154 50.4395H31.1193C31.6249 50.4395 32.0347 50.8872 32.0347 51.4395C32.0347 51.9917 31.6249 52.4395 31.1193 52.4395H27.9154C27.4098 52.4395 27 51.9917 27 51.4395Z" fill="#FF9900"/>
<path fill-rule="evenodd" clip-rule="evenodd" d="M74.8672 60.4492C74.8672 59.8969 75.277 59.4492 75.7826 59.4492H81.275C81.7806 59.4492 82.1904 59.8969 82.1904 60.4492C82.1904 61.0015 81.7806 61.4492 81.275 61.4492H75.7826C75.277 61.4492 74.8672 61.0015 74.8672 60.4492Z" fill="#FF9900"/>
<path fill-rule="evenodd" clip-rule="evenodd" d="M39.5508 60.4492C39.5508 59.8969 39.9606 59.4492 40.4662 59.4492H61.6579C62.1634 59.4492 62.5733 59.8969 62.5733 60.4492C62.5733 61.0015 62.1634 61.4492 61.6579 61.4492H40.4662C39.9606 61.4492 39.5508 61.0015 39.5508 60.4492Z" fill="#FF9900"/>
<path fill-rule="evenodd" clip-rule="evenodd" d="M27 60.4492C27 59.8969 27.4098 59.4492 27.9154 59.4492H33.4079C33.9134 59.4492 34.3233 59.8969 34.3233 60.4492C34.3233 61.0015 33.9134 61.4492 33.4079 61.4492H27.9154C27.4098 61.4492 27 61.0015 27 60.4492Z" fill="#FF9900"/>
<path fill-rule="evenodd" clip-rule="evenodd" d="M77.1543 69.4609C77.1543 68.9087 77.5641 68.4609 78.0697 68.4609H81.2736C81.7792 68.4609 82.189 68.9087 82.189 69.4609C82.189 70.0132 81.7792 70.4609 81.2736 70.4609H78.0697C77.5641 70.4609 77.1543 70.0132 77.1543 69.4609Z" fill="#FF9900"/>
<path fill-rule="evenodd" clip-rule="evenodd" d="M33.5547 69.4609C33.5547 68.9087 33.9645 68.4609 34.4701 68.4609H71.361C71.8666 68.4609 72.2764 68.9087 72.2764 69.4609C72.2764 70.0132 71.8666 70.4609 71.361 70.4609H34.4701C33.9645 70.4609 33.5547 70.0132 33.5547 69.4609Z" fill="#FF9900"/>
<path fill-rule="evenodd" clip-rule="evenodd" d="M27 69.4609C27 68.9087 27.4098 68.4609 27.9154 68.4609H31.1193C31.6249 68.4609 32.0347 68.9087 32.0347 69.4609C32.0347 70.0132 31.6249 70.4609 31.1193 70.4609H27.9154C27.4098 70.4609 27 70.0132 27 69.4609Z" fill="#FF9900"/>
<path fill-rule="evenodd" clip-rule="evenodd" d="M74.8672 78.4707C74.8672 77.9184 75.277 77.4707 75.7826 77.4707H81.275C81.7806 77.4707 82.1904 77.9184 82.1904 78.4707C82.1904 79.023 81.7806 79.4707 81.275 79.4707H75.7826C75.277 79.4707 74.8672 79.023 74.8672 78.4707Z" fill="#FF9900"/>
<path fill-rule="evenodd" clip-rule="evenodd" d="M39.5508 78.4707C39.5508 77.9184 39.9606 77.4707 40.4662 77.4707H61.6579C62.1634 77.4707 62.5733 77.9184 62.5733 78.4707C62.5733 79.023 62.1634 79.4707 61.6579 79.4707H40.4662C39.9606 79.4707 39.5508 79.023 39.5508 78.4707Z" fill="#FF9900"/>
<path fill-rule="evenodd" clip-rule="evenodd" d="M27 78.4707C27 77.9184 27.4098 77.4707 27.9154 77.4707H33.4079C33.9134 77.4707 34.3233 77.9184 34.3233 78.4707C34.3233 79.023 33.9134 79.4707 33.4079 79.4707H27.9154C27.4098 79.4707 27 79.023 27 78.4707Z" fill="#FF9900"/>
<path fill-rule="evenodd" clip-rule="evenodd" d="M77.1543 87.4805C77.1543 86.9282 77.5641 86.4805 78.0697 86.4805H81.2736C81.7792 86.4805 82.189 86.9282 82.189 87.4805C82.189 88.0328 81.7792 88.4805 81.2736 88.4805H78.0697C77.5641 88.4805 77.1543 88.0328 77.1543 87.4805Z" fill="#FF9900"/>
<path fill-rule="evenodd" clip-rule="evenodd" d="M33.5547 87.4805C33.5547 86.9282 33.9645 86.4805 34.4701 86.4805H71.361C71.8666 86.4805 72.2764 86.9282 72.2764 87.4805C72.2764 88.0328 71.8666 88.4805 71.361 88.4805H34.4701C33.9645 88.4805 33.5547 88.0328 33.5547 87.4805Z" fill="#FF9900"/>
<path fill-rule="evenodd" clip-rule="evenodd" d="M27 87.4805C27 86.9282 27.4098 86.4805 27.9154 86.4805H31.1193C31.6249 86.4805 32.0347 86.9282 32.0347 87.4805C32.0347 88.0328 31.6249 88.4805 31.1193 88.4805H27.9154C27.4098 88.4805 27 88.0328 27 87.4805Z" fill="#FF9900"/>
<path fill-rule="evenodd" clip-rule="evenodd" d="M74.8672 96.4902C74.8672 95.9379 75.277 95.4902 75.7826 95.4902H81.275C81.7806 95.4902 82.1904 95.9379 82.1904 96.4902C82.1904 97.0425 81.7806 97.4902 81.275 97.4902H75.7826C75.277 97.4902 74.8672 97.0425 74.8672 96.4902Z" fill="#FF9900"/>
<path fill-rule="evenodd" clip-rule="evenodd" d="M39.5508 96.4902C39.5508 95.9379 39.9606 95.4902 40.4662 95.4902H61.6579C62.1634 95.4902 62.5733 95.9379 62.5733 96.4902C62.5733 97.0425 62.1634 97.4902 61.6579 97.4902H40.4662C39.9606 97.4902 39.5508 97.0425 39.5508 96.4902Z" fill="#FF9900"/>
<path fill-rule="evenodd" clip-rule="evenodd" d="M27 96.4902C27 95.9379 27.4098 95.4902 27.9154 95.4902H33.4079C33.9134 95.4902 34.3233 95.9379 34.3233 96.4902C34.3233 97.0425 33.9134 97.4902 33.4079 97.4902H27.9154C27.4098 97.4902 27 97.0425 27 96.4902Z" fill="#FF9900"/>
</svg>
