<svg width="128" height="128" viewBox="0 0 128 128" fill="none" xmlns="http://www.w3.org/2000/svg">
<path fill-rule="evenodd" clip-rule="evenodd" d="M80 65C71.7157 65 65 71.7157 65 80C65 88.2843 71.7157 95 80 95C88.2843 95 95 88.2843 95 80C95 71.7157 88.2843 65 80 65ZM63 80C63 70.6112 70.6112 63 80 63C89.3888 63 97 70.6112 97 80C97 89.3888 89.3888 97 80 97C70.6112 97 63 89.3888 63 80Z" fill="#FF9900"/>
<path fill-rule="evenodd" clip-rule="evenodd" d="M69.334 91C69.8863 91 70.334 91.4477 70.334 92V114L79.4007 107.2C79.7562 106.933 80.2451 106.933 80.6007 107.2L89.6673 114V92C89.6673 91.4477 90.115 91 90.6673 91C91.2196 91 91.6673 91.4477 91.6673 92V116C91.6673 116.379 91.4533 116.725 91.1145 116.894C90.7757 117.064 90.3703 117.027 90.0673 116.8L80.0007 109.25L69.934 116.8C69.631 117.027 69.2256 117.064 68.8868 116.894C68.548 116.725 68.334 116.379 68.334 116V92C68.334 91.4477 68.7817 91 69.334 91Z" fill="#FF9900"/>
<path fill-rule="evenodd" clip-rule="evenodd" d="M26.6667 27.667C21.3523 27.667 17 32.0193 17 37.3337V90.667C17 93.2308 18.0184 95.6895 19.8313 97.5024C21.6442 99.3152 24.1029 100.334 26.6667 100.334H53.3333C53.8856 100.334 54.3333 100.781 54.3333 101.334C54.3333 101.886 53.8856 102.334 53.3333 102.334H26.6667C23.5725 102.334 20.605 101.104 18.4171 98.9166C16.2292 96.7286 15 93.7612 15 90.667V37.3337C15 30.9147 20.2477 25.667 26.6667 25.667H101.333C104.428 25.667 107.395 26.8962 109.583 29.0841C111.771 31.272 113 34.2395 113 37.3337V90.668C112.998 92.7139 112.458 94.7233 111.434 96.4946C110.41 98.2658 108.938 99.7367 107.167 100.76C106.688 101.036 106.077 100.872 105.801 100.394C105.524 99.9154 105.688 99.3038 106.167 99.0276C107.635 98.18 108.854 96.9613 109.702 95.4937C110.551 94.026 110.998 92.3611 111 90.666V37.3337C111 34.7699 109.982 32.3111 108.169 30.4983C106.356 28.6854 103.897 27.667 101.333 27.667H26.6667Z" fill="#58595B"/>
<path fill-rule="evenodd" clip-rule="evenodd" d="M31 48C31 47.4477 31.4477 47 32 47H96C96.5523 47 97 47.4477 97 48C97 48.5523 96.5523 49 96 49H32C31.4477 49 31 48.5523 31 48Z" fill="#58595B"/>
<path fill-rule="evenodd" clip-rule="evenodd" d="M31 64C31 63.4477 31.4477 63 32 63H48C48.5523 63 49 63.4477 49 64C49 64.5523 48.5523 65 48 65H32C31.4477 65 31 64.5523 31 64Z" fill="#58595B"/>
<path fill-rule="evenodd" clip-rule="evenodd" d="M31 80C31 79.4477 31.4477 79 32 79H42.6667C43.219 79 43.6667 79.4477 43.6667 80C43.6667 80.5523 43.219 81 42.6667 81H32C31.4477 81 31 80.5523 31 80Z" fill="#58595B"/>
</svg>
