<svg width="24" height="24" viewBox="0 0 24 24" fill="none" xmlns="http://www.w3.org/2000/svg">
<path d="M8.875 11.1756H11.6516L10.8504 14.0497L10.4418 15.5151L11.6401 14.5777L15.9889 11.1756H21.8637H22.3637V10.6756V3V2.5H21.8637H8.875H8.375V3V10.6756V11.1756H8.875Z" stroke="#333333" stroke-miterlimit="10"/>
<path fill-rule="evenodd" clip-rule="evenodd" d="M6.40099 7.9646H2.07129H1.07129V8.9646V16.6402V17.6402H2.07129H7.77367L11.9868 20.9361L14.3833 22.8109L13.5662 19.88L12.9418 17.6402H15.0599H16.0599V16.6402V14.1839H15.0599V15.6402V16.6402H14.0599H12.6631H11.6249L11.9037 17.6402L12.1503 18.5248L12.6029 20.1485L11.2753 19.1099L8.11835 16.6402H3.07129H2.07129V15.6402V9.9646V8.9646H3.07129H6.40099V7.9646Z" fill="#333333"/>
<path d="M20 5H11" stroke="#FF9900"/>
<path d="M6 11H4" stroke="#FF9900"/>
<path d="M19 8L14 8" stroke="#FF9900"/>
<path d="M8 14H4" stroke="#FF9900"/>
</svg>
