<svg width="7" height="11" viewBox="0 0 7 11" fill="none" xmlns="http://www.w3.org/2000/svg">
<path d="M6.38599 1.12769C6.54861 0.974112 6.55593 0.717784 6.40235 0.555169C6.24877 0.392555 5.99244 0.385231 5.82983 0.538812L6.38599 1.12769ZM1.16673 5.49992L0.888651 5.20548L0.576891 5.49992L0.888651 5.79436L1.16673 5.49992ZM5.82983 10.461C5.99244 10.6146 6.24877 10.6073 6.40235 10.4447C6.55593 10.2821 6.54861 10.0257 6.38599 9.87214L5.82983 10.461ZM5.82983 0.538812L0.888651 5.20548L1.44482 5.79436L6.38599 1.12769L5.82983 0.538812ZM0.888651 5.79436L5.82983 10.461L6.38599 9.87214L1.44482 5.20548L0.888651 5.79436Z" fill="#333333"/>
</svg>
