<svg width="25" height="17" viewBox="0 0 25 17" xmlns="http://www.w3.org/2000/svg">
<path fill-rule="evenodd" clip-rule="evenodd" d="M0 8.50014C0 8.29399 0.0859375 8.0971 0.228905 7.94885L7.9625 0.22845C8.26797 -0.076536 8.7625 -0.0757639 9.06719 0.22845C9.37266 0.532665 9.37266 1.02682 9.06719 1.33103L2.66641 7.72031H24.2188C24.65 7.72031 25 8.0693 25 8.50014C25 8.93099 24.65 9.27998 24.2188 9.27998H2.66719L9.06719 15.6693C9.37266 15.9735 9.37188 16.4676 9.06719 16.7718C8.76172 17.0761 8.26719 17.0761 7.9625 16.7718L0.228905 9.05144C0.0828114 8.90551 0.00234413 8.70476 0 8.50014Z"/>
</svg>
