<svg width="11" height="20" viewBox="0 0 11 20" fill="none" xmlns="http://www.w3.org/2000/svg">
<path d="M0.322704 18.3035C0.121945 18.4931 0.112903 18.8095 0.302509 19.0103C0.492115 19.2111 0.808568 19.2201 1.00933 19.0305L0.322704 18.3035ZM9.84249 10.0003L10.1858 10.3638L10.5707 10.0003L10.1858 9.63682L9.84249 10.0003ZM1.00933 0.970154C0.808568 0.780548 0.492115 0.789589 0.302509 0.990349C0.112903 1.19111 0.121945 1.50756 0.322704 1.69717L1.00933 0.970154ZM1.00933 19.0305L10.1858 10.3638L9.49917 9.63682L0.322704 18.3035L1.00933 19.0305ZM10.1858 9.63682L1.00933 0.970154L0.322704 1.69717L9.49917 10.3638L10.1858 9.63682Z" fill="#333333"/>
</svg>
