<svg width="9" height="15" viewBox="0 0 9 15" fill="none" xmlns="http://www.w3.org/2000/svg">
<path d="M0.313377 12.773C-0.0881418 13.1522 -0.106225 13.7851 0.272987 14.1866C0.652198 14.5881 1.28511 14.6062 1.68662 14.227L0.313377 12.773ZM7.35294 7.5L8.03957 8.22701L8.80934 7.5L8.03957 6.77299L7.35294 7.5ZM1.68662 0.772987C1.28511 0.393776 0.652198 0.41186 0.272987 0.813377C-0.106225 1.2149 -0.0881418 1.8478 0.313377 2.22701L1.68662 0.772987ZM1.68662 14.227L8.03957 8.22701L6.66632 6.77299L0.313377 12.773L1.68662 14.227ZM8.03957 6.77299L1.68662 0.772987L0.313377 2.22701L6.66632 8.22701L8.03957 6.77299Z" fill="#333333"/>
</svg>
