<svg width="128" height="128" viewBox="0 0 128 128" fill="none" xmlns="http://www.w3.org/2000/svg">
<g clip-path="url(#clip0_629_16321)">
<path d="M23.0008 24.1H27.4008V28.6C27.4008 29.3 27.9008 29.8 28.6008 29.8C29.3008 29.8 29.8008 29.3 29.8008 28.6V24.1H34.2008C34.9008 24.1 35.4008 23.6 35.4008 22.9C35.4008 22.2 35.0008 21.7 34.3008 21.7H29.9008V17.2C29.9008 16.5 29.4008 16 28.7008 16C28.0008 16 27.5008 16.5 27.5008 17.2V21.7H23.0008C22.3008 21.7 21.8008 22.2 21.8008 22.9C21.8008 23.6 22.3008 24.1 23.0008 24.1Z" fill="#FF9900"/>
<path d="M61.5014 29.7996C61.6014 29.7996 61.7014 29.7996 61.8014 29.7996C62.4014 29.7996 62.9014 29.3996 63.0014 28.7996L65.4014 17.3996C65.5014 16.6996 65.1014 16.0996 64.5014 15.9996C63.8014 15.8996 63.1014 16.2996 63.0014 16.9996L60.6014 28.3996C60.4014 28.9996 60.9014 29.5996 61.5014 29.7996Z" fill="#58595B"/>
<path d="M99.7016 24.1H104.102V28.6C104.102 29.3 104.602 29.8 105.302 29.8C106.002 29.8 106.502 29.3 106.502 28.6V24.1H111.002C111.702 24.1 112.202 23.6 112.202 22.9C112.202 22.2 111.702 21.7 111.002 21.7H106.602V17.2C106.602 16.5 106.102 16 105.402 16C104.702 16 104.202 16.5 104.202 17.2V21.7H99.8016C99.1016 21.7 98.6016 22.2 98.6016 22.9C98.6016 23.6 99.1016 24.1 99.7016 24.1Z" fill="#FF9900"/>
<path d="M82.7 43.8984L77 49.5984C76.5 50.0984 76.5 50.7984 77 51.2984C77.2 51.4984 77.5 51.6984 77.9 51.6984C78.2 51.6984 78.5 51.5984 78.8 51.2984L84.5 45.5984C85 45.0984 85 44.3984 84.5 43.8984C84 43.3984 83.2 43.3984 82.7 43.8984Z" fill="#58595B"/>
<path d="M110.802 62.9996L99.5023 65.3996C98.8023 65.4996 98.4023 66.1996 98.6023 66.7996C98.7023 67.3996 99.2023 67.7996 99.8023 67.7996C99.9023 67.7996 100.002 67.7996 100.102 67.7996L111.402 65.3996C112.102 65.2996 112.502 64.5996 112.302 63.9996C112.102 63.2996 111.502 62.8996 110.802 62.9996Z" fill="#58595B"/>
<path d="M111.002 98.7H106.602V94.2C106.602 93.5 106.102 93 105.402 93C104.702 93 104.202 93.5 104.202 94.2V98.7H99.8016C99.1016 98.7 98.6016 99.2 98.6016 99.9C98.6016 100.6 99.1016 101.1 99.8016 101.1H104.202V105.6C104.202 106.3 104.702 106.8 105.402 106.8C106.102 106.8 106.602 106.3 106.602 105.6V101.1H111.002C111.702 101.1 112.202 100.6 112.202 99.9C112.202 99.2 111.702 98.7 111.002 98.7Z" fill="#FF9900"/>
<path d="M42.8014 49.0992C42.5014 48.7992 42.1014 48.6992 41.7014 48.7992C41.3014 48.8992 41.0014 49.0992 40.8014 49.4992L16.6014 102.499C16.0014 103.799 15.9014 105.099 16.1014 106.499C16.4014 107.799 17.0014 108.999 18.0014 109.999C19.0014 110.999 20.2014 111.599 21.6014 111.899C21.9014 111.999 22.3014 111.999 22.7014 111.999C23.7014 111.999 24.6014 111.799 25.5014 111.399L78.3014 87.0992C78.7014 86.8992 79.0014 86.4992 79.0014 85.9992C79.0014 85.6992 78.9014 85.3992 78.6014 85.0992L42.8014 49.0992ZM42.5014 52.2992C42.4014 52.2992 42.3014 52.2992 42.2014 52.2992L42.3014 52.0992L42.5014 52.2992ZM41.3014 54.0992L52.1014 95.4992C52.2014 95.7992 52.4014 95.9992 52.6014 96.1992L38.2014 102.799C38.2014 102.599 38.2014 102.499 38.2014 102.299L31.8014 76.9992C31.7014 76.6992 31.5014 76.3992 31.2014 76.1992L41.3014 54.0992ZM24.5014 109.199C23.7014 109.599 22.8014 109.699 21.9014 109.499C21.0014 109.299 20.2014 108.899 19.6014 108.299C19.0014 107.699 18.6014 106.899 18.4014 105.999C18.2014 105.099 18.4014 104.199 18.7014 103.399L29.7014 79.1992L35.7014 102.899C35.8014 103.199 36.0014 103.499 36.3014 103.599L24.5014 109.199ZM54.6014 95.3992C54.6014 95.1992 54.6014 95.0992 54.6014 94.8992L43.7014 53.4992L75.7014 85.5992L54.6014 95.3992Z" fill="#58595B"/>
</g>
<defs>
<clipPath id="clip0_629_16321">
<rect width="96.3" height="96" fill="white" transform="translate(16 16)"/>
</clipPath>
</defs>
</svg>
