<svg width="128" height="128" viewBox="0 0 128 128" fill="none" xmlns="http://www.w3.org/2000/svg">
<path fill-rule="evenodd" clip-rule="evenodd" d="M62.9015 74.162L17.8311 49.0361L62.9015 23.9102L107.972 49.0361L62.9015 74.162Z" stroke="#58595B" stroke-width="2" stroke-linecap="round" stroke-linejoin="round"/>
<path d="M102.113 53.3027V77.0064" stroke="#58595B" stroke-width="2" stroke-linecap="round" stroke-linejoin="round"/>
<path d="M62.9014 33.3926L88.5834 49.3604" stroke="#FF9900" stroke-width="2" stroke-linecap="round"/>
<path fill-rule="evenodd" clip-rule="evenodd" d="M34.1543 58.0449C34.1543 57.4926 33.7066 57.0449 33.1543 57.0449C32.602 57.0449 32.1543 57.4926 32.1543 58.0449V75.4408C32.1543 75.7935 32.3401 76.1201 32.6433 76.3004L62.3926 93.986C62.7075 94.1732 63.0997 94.1732 63.4146 93.9859L69.1484 90.5766C68.9416 89.9185 68.7708 89.2431 68.6385 88.553L62.9035 91.963L34.1543 74.8719V58.0449ZM91.6473 68.9821C92.3397 69.2998 93.0076 69.6656 93.6473 70.0753V58.0449C93.6473 57.4926 93.1995 57.0449 92.6473 57.0449C92.095 57.0449 91.6473 57.4926 91.6473 58.0449V68.9821Z" fill="#58595B"/>
<path d="M86.7882 103.555C94.5047 103.555 100.76 96.9749 100.76 88.8584C100.76 80.7419 94.5047 74.1621 86.7882 74.1621C79.0718 74.1621 72.8164 80.7419 72.8164 88.8584C72.8164 96.9749 79.0718 103.555 86.7882 103.555Z" stroke="#58595B" stroke-width="2" stroke-linecap="round" stroke-linejoin="round"/>
<path d="M107.07 107.348L97.1543 98.8145" stroke="#58595B" stroke-width="2" stroke-linecap="round" stroke-linejoin="round"/>
<path d="M85.4324 98.0899C85.3921 98.508 85.0175 98.8286 84.5742 98.8137C84.4178 98.8094 80.7142 98.6613 78.4255 95.6566C75.2439 91.4836 76.7878 87.1985 76.8546 87.0174C77.0101 86.6026 77.4878 86.3857 77.9212 86.536C78.3553 86.6832 78.5819 87.139 78.4259 87.5564C78.3726 87.7032 77.126 91.2424 79.7725 94.7153C81.5864 97.0947 84.5978 97.2159 84.6282 97.2172C85.0888 97.2305 85.4495 97.5999 85.4356 98.041C85.4347 98.0589 85.4338 98.0748 85.4324 98.0899Z" fill="#FF9900"/>
</svg>
