<svg width="83" height="67" viewBox="0 0 83 67" fill="none" xmlns="http://www.w3.org/2000/svg">
<path d="M41.4977 37.8992C40.8304 37.8992 40.1491 37.8024 39.4818 37.5895C36.1937 36.5572 34.4211 33.2279 35.5333 30.1761C36.0755 28.6986 37.2017 27.4986 38.7102 26.8082C40.2186 26.1178 41.9287 26.0081 43.5206 26.5114C46.8086 27.5437 48.5812 30.873 47.469 33.9248C46.5792 36.3572 44.1254 37.8992 41.4977 37.8992ZM41.4977 27.7695C40.7956 27.7695 40.1074 27.9179 39.4609 28.2147C38.3556 28.718 37.5354 29.5955 37.1391 30.6794C36.3258 32.9118 37.6188 35.3442 40.024 36.0991C42.4292 36.854 45.0499 35.6539 45.8702 33.4215C46.6835 31.1891 45.3905 28.7567 42.9853 28.0018C42.4987 27.847 41.9982 27.776 41.5046 27.776L41.4977 27.7695Z" fill="#FF9900"/>
<mask id="path-2-outside-1_1224_65020" maskUnits="userSpaceOnUse" x="0" y="0" width="83" height="67" fill="black">
<rect fill="white" width="83" height="67"/>
<path d="M80.2274 44.2555C80.2274 44.2555 80.2138 44.2488 80.207 44.242C80.166 44.215 80.1319 44.188 80.0978 44.1678C80.0637 44.1475 80.0296 44.1408 80.0023 44.1273C79.9955 44.1273 79.9886 44.1205 79.9818 44.1138C79.4837 43.864 75.3899 41.4612 54.2792 28.5561C54.3201 27.5437 53.8425 26.8215 52.744 26.1465C51.4066 25.3231 50.5128 24.1824 50.0079 22.6705C49.5508 21.3139 48.5068 20.6389 47.0399 20.7672C45.4774 20.9089 44.0923 20.5512 42.8095 19.6872C42.4615 19.451 42.1477 19.2823 41.8543 19.1608C41.7724 19.127 41.6905 19.1 41.6087 19.073C40.9878 18.884 40.4078 18.9583 39.7664 19.3093C39.7323 19.2688 39.6982 19.2215 39.6572 19.1878C38.1425 18.1011 36.3549 16.8187 34.5672 15.5363C32.8069 14.2809 31.0465 13.0187 29.5591 11.9455L16.2199 2.35445C14.9644 1.45001 13.4633 0.545572 11.4301 1.25427C6.07392 3.12389 2.28028 10.1097 1.29775 14.4698C0.710963 17.0684 0.99071 18.9313 2.14381 20.153C2.68284 20.7199 5.43255 22.3938 11.9418 26.1263L12.4535 26.4233C16.6907 28.8531 21.3372 31.4719 27.014 34.6442L18.6284 38.7411C18.2941 38.9031 18.1167 39.2609 18.1781 39.6186C18.2395 39.9763 18.5397 40.253 18.9082 40.2935C20.4297 40.4555 21.576 41.1237 22.3129 42.2711C23.2818 43.783 23.4251 46.0441 22.6882 48.1567C22.5722 48.4875 22.6814 48.8519 22.9543 49.0679C23.1044 49.1894 23.2886 49.2502 23.4728 49.2502C23.6229 49.2502 23.7731 49.2097 23.9095 49.1287L33.4073 43.3713C33.4892 43.3173 33.5574 43.2498 33.612 43.1823C33.7484 43.3308 33.9054 43.4658 34.0691 43.5738L31.9267 54.994C31.8584 55.3585 32.0427 55.7162 32.377 55.8782C32.7113 56.0402 33.1139 55.9659 33.3595 55.696C34.3898 54.5755 35.6248 54.0491 36.9894 54.1368C38.7975 54.2516 40.7285 55.4597 42.018 57.2889C42.175 57.5116 42.4343 57.6398 42.7004 57.6398C42.7686 57.6398 42.8368 57.6331 42.9119 57.6128C43.2462 57.5251 43.4918 57.2416 43.5328 56.8974L44.5767 46.7393C47.4151 48.9464 50.1853 51.302 52.8804 53.5969C55.753 56.0469 58.721 58.5848 61.7778 60.9336C62.2758 61.3183 62.7808 61.73 63.2857 62.1553C64.698 63.3297 66.165 64.5378 67.8367 65.3005C68.4712 65.5908 69.2422 65.8 69.9996 65.8C70.6614 65.8 71.3165 65.6245 71.8691 65.2263C74.2845 64.1329 76.9865 61.3791 79.1494 57.5318C82.4995 51.5923 82.943 45.9429 80.2343 44.2623L80.2274 44.2555ZM13.2928 24.9924L12.781 24.6954C10.6113 23.4535 3.9997 19.667 3.35833 19.0258C2.61461 18.2428 2.47132 16.8322 2.92165 14.8276C3.96558 10.2041 7.73194 4.29156 11.9896 2.80666C13.1427 2.40169 14.0228 2.80666 15.2442 3.6841L28.5697 13.2819C30.0571 14.3551 31.8175 15.6105 33.5847 16.8727C35.2563 18.0673 36.9212 19.2553 38.3609 20.2947C37.3306 20.9696 36.1843 21.3139 34.8743 21.3274C33.3391 21.3476 32.4179 22.0766 32.0495 23.5682C31.6742 25.1139 30.8554 26.3355 29.5522 27.3209C28.3172 28.2524 28.0375 29.3728 28.6721 30.8645C29.0678 31.7824 29.2247 32.6868 29.1633 33.5913L28.6516 33.841C28.5833 33.6993 28.481 33.571 28.3309 33.4833C22.4221 30.1895 17.6459 27.4964 13.2859 24.9991L13.2928 24.9924ZM32.5408 41.9674L24.7419 46.6921C25.0012 44.7347 24.6532 42.8449 23.7185 41.387C23.118 40.4488 22.2993 39.7333 21.3099 39.2609L28.7471 35.6229C28.5015 36.9458 28.9382 37.7557 30.2823 38.6129C31.5514 39.4161 32.4043 40.4825 32.8956 41.8527C32.7727 41.8662 32.6567 41.8932 32.5476 41.9607L32.5408 41.9674ZM42.0726 54.832C40.6193 53.4619 38.8317 52.6047 37.1054 52.4899C35.9864 52.4224 34.9357 52.6452 33.9736 53.1514L35.6998 43.945C35.7476 43.945 35.7954 43.945 35.8431 43.945C37.4329 43.7965 38.8726 44.1678 40.2304 45.0722C40.8854 45.5177 41.4585 45.7404 42.018 45.7404C42.3456 45.7404 42.6662 45.6594 42.9937 45.5109C43.0074 45.5244 43.0142 45.5379 43.0279 45.5447L42.0726 54.832ZM43.8262 42.9461C43.6692 42.9866 43.5396 43.0878 43.4304 43.2093C43.253 43.3376 43.0825 43.4658 42.9119 43.6076C42.1409 44.2488 41.9635 44.2555 41.1652 43.7155C39.7118 42.7436 38.1903 42.2711 36.5391 42.2711C36.2593 42.2711 35.9796 42.2846 35.693 42.3116C35.0721 42.3656 34.7514 42.1497 34.5467 41.5287C33.9463 39.6996 32.8478 38.2957 31.1898 37.2428C30.2414 36.6353 30.1868 36.4868 30.5143 35.4204C31.0601 33.6723 30.9646 31.9714 30.2141 30.23C29.8456 29.3728 29.9821 29.0826 30.5689 28.6439C32.1928 27.4289 33.2094 25.8968 33.6802 23.9732C33.8644 23.2172 34.1305 23.0013 34.9084 22.9945C36.8802 22.9675 38.5656 22.36 40.053 21.1316C40.7558 20.5512 40.9809 20.6187 41.131 20.6659C41.172 20.6794 41.2061 20.6929 41.2402 20.7064C41.4176 20.7739 41.6291 20.8954 41.8748 21.0641C43.485 22.1576 45.2249 22.603 47.19 22.4275C47.8996 22.3668 48.2202 22.5693 48.4318 23.2105C49.0663 25.1004 50.1853 26.5245 51.8706 27.5639C52.6826 28.0634 52.7644 28.2726 52.4915 29.1703C51.932 31.0332 52.0344 32.8353 52.8122 34.6712C53.0988 35.3529 53.0169 35.6499 52.4096 36.0953C50.7312 37.3305 49.7009 38.9031 49.2574 40.901C49.1482 41.4005 48.9367 41.6232 48.4591 41.7312L48.2885 41.7514H48.2202C48.2202 41.7514 48.152 41.7717 48.1179 41.7717C46.5554 41.7379 45.1362 42.1362 43.8262 42.9731V42.9461ZM62.7944 59.6377C59.7718 57.3158 56.8174 54.7915 53.9653 52.3549C51.0041 49.8239 47.9405 47.2186 44.7746 44.809L44.8292 44.2623C45.8322 43.6481 46.9102 43.3578 48.0838 43.3916C48.1998 43.3916 48.3158 43.3848 48.4795 43.3646L48.691 43.3376C48.691 43.3376 48.7388 43.3308 48.7661 43.3241C49.9124 43.0811 50.622 42.3791 50.8744 41.2317C51.2224 39.6388 52.048 38.3902 53.3922 37.398C54.6067 36.5003 54.9137 35.4001 54.3337 34.0232C53.8015 32.7678 53.6651 31.5394 53.9175 30.284C67.4751 38.5724 73.7796 42.3926 76.7681 44.161C74.264 45.1262 71.3915 47.961 69.1058 52.0107C66.8405 56.0267 65.9126 59.9077 66.3765 62.5265C65.6806 62.0203 65.0051 61.4601 64.3364 60.9066C63.811 60.4746 63.2993 60.0494 62.7808 59.6512L62.7944 59.6377ZM77.6961 56.7286C74.653 62.1283 70.6614 64.8551 68.9693 63.9236C67.284 62.9922 67.5228 58.1933 70.5659 52.8004C73.2133 48.1027 76.5839 45.4232 78.5285 45.4232C78.8151 45.4232 79.0743 45.4839 79.2927 45.6054C80.978 46.5369 80.7392 51.329 77.6961 56.7286Z"/>
</mask>
<path d="M80.2274 44.2555C80.2274 44.2555 80.2138 44.2488 80.207 44.242C80.166 44.215 80.1319 44.188 80.0978 44.1678C80.0637 44.1475 80.0296 44.1408 80.0023 44.1273C79.9955 44.1273 79.9886 44.1205 79.9818 44.1138C79.4837 43.864 75.3899 41.4612 54.2792 28.5561C54.3201 27.5437 53.8425 26.8215 52.744 26.1465C51.4066 25.3231 50.5128 24.1824 50.0079 22.6705C49.5508 21.3139 48.5068 20.6389 47.0399 20.7672C45.4774 20.9089 44.0923 20.5512 42.8095 19.6872C42.4615 19.451 42.1477 19.2823 41.8543 19.1608C41.7724 19.127 41.6905 19.1 41.6087 19.073C40.9878 18.884 40.4078 18.9583 39.7664 19.3093C39.7323 19.2688 39.6982 19.2215 39.6572 19.1878C38.1425 18.1011 36.3549 16.8187 34.5672 15.5363C32.8069 14.2809 31.0465 13.0187 29.5591 11.9455L16.2199 2.35445C14.9644 1.45001 13.4633 0.545572 11.4301 1.25427C6.07392 3.12389 2.28028 10.1097 1.29775 14.4698C0.710963 17.0684 0.99071 18.9313 2.14381 20.153C2.68284 20.7199 5.43255 22.3938 11.9418 26.1263L12.4535 26.4233C16.6907 28.8531 21.3372 31.4719 27.014 34.6442L18.6284 38.7411C18.2941 38.9031 18.1167 39.2609 18.1781 39.6186C18.2395 39.9763 18.5397 40.253 18.9082 40.2935C20.4297 40.4555 21.576 41.1237 22.3129 42.2711C23.2818 43.783 23.4251 46.0441 22.6882 48.1567C22.5722 48.4875 22.6814 48.8519 22.9543 49.0679C23.1044 49.1894 23.2886 49.2502 23.4728 49.2502C23.6229 49.2502 23.7731 49.2097 23.9095 49.1287L33.4073 43.3713C33.4892 43.3173 33.5574 43.2498 33.612 43.1823C33.7484 43.3308 33.9054 43.4658 34.0691 43.5738L31.9267 54.994C31.8584 55.3585 32.0427 55.7162 32.377 55.8782C32.7113 56.0402 33.1139 55.9659 33.3595 55.696C34.3898 54.5755 35.6248 54.0491 36.9894 54.1368C38.7975 54.2516 40.7285 55.4597 42.018 57.2889C42.175 57.5116 42.4343 57.6398 42.7004 57.6398C42.7686 57.6398 42.8368 57.6331 42.9119 57.6128C43.2462 57.5251 43.4918 57.2416 43.5328 56.8974L44.5767 46.7393C47.4151 48.9464 50.1853 51.302 52.8804 53.5969C55.753 56.0469 58.721 58.5848 61.7778 60.9336C62.2758 61.3183 62.7808 61.73 63.2857 62.1553C64.698 63.3297 66.165 64.5378 67.8367 65.3005C68.4712 65.5908 69.2422 65.8 69.9996 65.8C70.6614 65.8 71.3165 65.6245 71.8691 65.2263C74.2845 64.1329 76.9865 61.3791 79.1494 57.5318C82.4995 51.5923 82.943 45.9429 80.2343 44.2623L80.2274 44.2555ZM13.2928 24.9924L12.781 24.6954C10.6113 23.4535 3.9997 19.667 3.35833 19.0258C2.61461 18.2428 2.47132 16.8322 2.92165 14.8276C3.96558 10.2041 7.73194 4.29156 11.9896 2.80666C13.1427 2.40169 14.0228 2.80666 15.2442 3.6841L28.5697 13.2819C30.0571 14.3551 31.8175 15.6105 33.5847 16.8727C35.2563 18.0673 36.9212 19.2553 38.3609 20.2947C37.3306 20.9696 36.1843 21.3139 34.8743 21.3274C33.3391 21.3476 32.4179 22.0766 32.0495 23.5682C31.6742 25.1139 30.8554 26.3355 29.5522 27.3209C28.3172 28.2524 28.0375 29.3728 28.6721 30.8645C29.0678 31.7824 29.2247 32.6868 29.1633 33.5913L28.6516 33.841C28.5833 33.6993 28.481 33.571 28.3309 33.4833C22.4221 30.1895 17.6459 27.4964 13.2859 24.9991L13.2928 24.9924ZM32.5408 41.9674L24.7419 46.6921C25.0012 44.7347 24.6532 42.8449 23.7185 41.387C23.118 40.4488 22.2993 39.7333 21.3099 39.2609L28.7471 35.6229C28.5015 36.9458 28.9382 37.7557 30.2823 38.6129C31.5514 39.4161 32.4043 40.4825 32.8956 41.8527C32.7727 41.8662 32.6567 41.8932 32.5476 41.9607L32.5408 41.9674ZM42.0726 54.832C40.6193 53.4619 38.8317 52.6047 37.1054 52.4899C35.9864 52.4224 34.9357 52.6452 33.9736 53.1514L35.6998 43.945C35.7476 43.945 35.7954 43.945 35.8431 43.945C37.4329 43.7965 38.8726 44.1678 40.2304 45.0722C40.8854 45.5177 41.4585 45.7404 42.018 45.7404C42.3456 45.7404 42.6662 45.6594 42.9937 45.5109C43.0074 45.5244 43.0142 45.5379 43.0279 45.5447L42.0726 54.832ZM43.8262 42.9461C43.6692 42.9866 43.5396 43.0878 43.4304 43.2093C43.253 43.3376 43.0825 43.4658 42.9119 43.6076C42.1409 44.2488 41.9635 44.2555 41.1652 43.7155C39.7118 42.7436 38.1903 42.2711 36.5391 42.2711C36.2593 42.2711 35.9796 42.2846 35.693 42.3116C35.0721 42.3656 34.7514 42.1497 34.5467 41.5287C33.9463 39.6996 32.8478 38.2957 31.1898 37.2428C30.2414 36.6353 30.1868 36.4868 30.5143 35.4204C31.0601 33.6723 30.9646 31.9714 30.2141 30.23C29.8456 29.3728 29.9821 29.0826 30.5689 28.6439C32.1928 27.4289 33.2094 25.8968 33.6802 23.9732C33.8644 23.2172 34.1305 23.0013 34.9084 22.9945C36.8802 22.9675 38.5656 22.36 40.053 21.1316C40.7558 20.5512 40.9809 20.6187 41.131 20.6659C41.172 20.6794 41.2061 20.6929 41.2402 20.7064C41.4176 20.7739 41.6291 20.8954 41.8748 21.0641C43.485 22.1576 45.2249 22.603 47.19 22.4275C47.8996 22.3668 48.2202 22.5693 48.4318 23.2105C49.0663 25.1004 50.1853 26.5245 51.8706 27.5639C52.6826 28.0634 52.7644 28.2726 52.4915 29.1703C51.932 31.0332 52.0344 32.8353 52.8122 34.6712C53.0988 35.3529 53.0169 35.6499 52.4096 36.0953C50.7312 37.3305 49.7009 38.9031 49.2574 40.901C49.1482 41.4005 48.9367 41.6232 48.4591 41.7312L48.2885 41.7514H48.2202C48.2202 41.7514 48.152 41.7717 48.1179 41.7717C46.5554 41.7379 45.1362 42.1362 43.8262 42.9731V42.9461ZM62.7944 59.6377C59.7718 57.3158 56.8174 54.7915 53.9653 52.3549C51.0041 49.8239 47.9405 47.2186 44.7746 44.809L44.8292 44.2623C45.8322 43.6481 46.9102 43.3578 48.0838 43.3916C48.1998 43.3916 48.3158 43.3848 48.4795 43.3646L48.691 43.3376C48.691 43.3376 48.7388 43.3308 48.7661 43.3241C49.9124 43.0811 50.622 42.3791 50.8744 41.2317C51.2224 39.6388 52.048 38.3902 53.3922 37.398C54.6067 36.5003 54.9137 35.4001 54.3337 34.0232C53.8015 32.7678 53.6651 31.5394 53.9175 30.284C67.4751 38.5724 73.7796 42.3926 76.7681 44.161C74.264 45.1262 71.3915 47.961 69.1058 52.0107C66.8405 56.0267 65.9126 59.9077 66.3765 62.5265C65.6806 62.0203 65.0051 61.4601 64.3364 60.9066C63.811 60.4746 63.2993 60.0494 62.7808 59.6512L62.7944 59.6377ZM77.6961 56.7286C74.653 62.1283 70.6614 64.8551 68.9693 63.9236C67.284 62.9922 67.5228 58.1933 70.5659 52.8004C73.2133 48.1027 76.5839 45.4232 78.5285 45.4232C78.8151 45.4232 79.0743 45.4839 79.2927 45.6054C80.978 46.5369 80.7392 51.329 77.6961 56.7286Z" fill="#58595B"/>
<path d="M80.2274 44.2555C80.2274 44.2555 80.2138 44.2488 80.207 44.242C80.166 44.215 80.1319 44.188 80.0978 44.1678C80.0637 44.1475 80.0296 44.1408 80.0023 44.1273C79.9955 44.1273 79.9886 44.1205 79.9818 44.1138C79.4837 43.864 75.3899 41.4612 54.2792 28.5561C54.3201 27.5437 53.8425 26.8215 52.744 26.1465C51.4066 25.3231 50.5128 24.1824 50.0079 22.6705C49.5508 21.3139 48.5068 20.6389 47.0399 20.7672C45.4774 20.9089 44.0923 20.5512 42.8095 19.6872C42.4615 19.451 42.1477 19.2823 41.8543 19.1608C41.7724 19.127 41.6905 19.1 41.6087 19.073C40.9878 18.884 40.4078 18.9583 39.7664 19.3093C39.7323 19.2688 39.6982 19.2215 39.6572 19.1878C38.1425 18.1011 36.3549 16.8187 34.5672 15.5363C32.8069 14.2809 31.0465 13.0187 29.5591 11.9455L16.2199 2.35445C14.9644 1.45001 13.4633 0.545572 11.4301 1.25427C6.07392 3.12389 2.28028 10.1097 1.29775 14.4698C0.710963 17.0684 0.99071 18.9313 2.14381 20.153C2.68284 20.7199 5.43255 22.3938 11.9418 26.1263L12.4535 26.4233C16.6907 28.8531 21.3372 31.4719 27.014 34.6442L18.6284 38.7411C18.2941 38.9031 18.1167 39.2609 18.1781 39.6186C18.2395 39.9763 18.5397 40.253 18.9082 40.2935C20.4297 40.4555 21.576 41.1237 22.3129 42.2711C23.2818 43.783 23.4251 46.0441 22.6882 48.1567C22.5722 48.4875 22.6814 48.8519 22.9543 49.0679C23.1044 49.1894 23.2886 49.2502 23.4728 49.2502C23.6229 49.2502 23.7731 49.2097 23.9095 49.1287L33.4073 43.3713C33.4892 43.3173 33.5574 43.2498 33.612 43.1823C33.7484 43.3308 33.9054 43.4658 34.0691 43.5738L31.9267 54.994C31.8584 55.3585 32.0427 55.7162 32.377 55.8782C32.7113 56.0402 33.1139 55.9659 33.3595 55.696C34.3898 54.5755 35.6248 54.0491 36.9894 54.1368C38.7975 54.2516 40.7285 55.4597 42.018 57.2889C42.175 57.5116 42.4343 57.6398 42.7004 57.6398C42.7686 57.6398 42.8368 57.6331 42.9119 57.6128C43.2462 57.5251 43.4918 57.2416 43.5328 56.8974L44.5767 46.7393C47.4151 48.9464 50.1853 51.302 52.8804 53.5969C55.753 56.0469 58.721 58.5848 61.7778 60.9336C62.2758 61.3183 62.7808 61.73 63.2857 62.1553C64.698 63.3297 66.165 64.5378 67.8367 65.3005C68.4712 65.5908 69.2422 65.8 69.9996 65.8C70.6614 65.8 71.3165 65.6245 71.8691 65.2263C74.2845 64.1329 76.9865 61.3791 79.1494 57.5318C82.4995 51.5923 82.943 45.9429 80.2343 44.2623L80.2274 44.2555ZM13.2928 24.9924L12.781 24.6954C10.6113 23.4535 3.9997 19.667 3.35833 19.0258C2.61461 18.2428 2.47132 16.8322 2.92165 14.8276C3.96558 10.2041 7.73194 4.29156 11.9896 2.80666C13.1427 2.40169 14.0228 2.80666 15.2442 3.6841L28.5697 13.2819C30.0571 14.3551 31.8175 15.6105 33.5847 16.8727C35.2563 18.0673 36.9212 19.2553 38.3609 20.2947C37.3306 20.9696 36.1843 21.3139 34.8743 21.3274C33.3391 21.3476 32.4179 22.0766 32.0495 23.5682C31.6742 25.1139 30.8554 26.3355 29.5522 27.3209C28.3172 28.2524 28.0375 29.3728 28.6721 30.8645C29.0678 31.7824 29.2247 32.6868 29.1633 33.5913L28.6516 33.841C28.5833 33.6993 28.481 33.571 28.3309 33.4833C22.4221 30.1895 17.6459 27.4964 13.2859 24.9991L13.2928 24.9924ZM32.5408 41.9674L24.7419 46.6921C25.0012 44.7347 24.6532 42.8449 23.7185 41.387C23.118 40.4488 22.2993 39.7333 21.3099 39.2609L28.7471 35.6229C28.5015 36.9458 28.9382 37.7557 30.2823 38.6129C31.5514 39.4161 32.4043 40.4825 32.8956 41.8527C32.7727 41.8662 32.6567 41.8932 32.5476 41.9607L32.5408 41.9674ZM42.0726 54.832C40.6193 53.4619 38.8317 52.6047 37.1054 52.4899C35.9864 52.4224 34.9357 52.6452 33.9736 53.1514L35.6998 43.945C35.7476 43.945 35.7954 43.945 35.8431 43.945C37.4329 43.7965 38.8726 44.1678 40.2304 45.0722C40.8854 45.5177 41.4585 45.7404 42.018 45.7404C42.3456 45.7404 42.6662 45.6594 42.9937 45.5109C43.0074 45.5244 43.0142 45.5379 43.0279 45.5447L42.0726 54.832ZM43.8262 42.9461C43.6692 42.9866 43.5396 43.0878 43.4304 43.2093C43.253 43.3376 43.0825 43.4658 42.9119 43.6076C42.1409 44.2488 41.9635 44.2555 41.1652 43.7155C39.7118 42.7436 38.1903 42.2711 36.5391 42.2711C36.2593 42.2711 35.9796 42.2846 35.693 42.3116C35.0721 42.3656 34.7514 42.1497 34.5467 41.5287C33.9463 39.6996 32.8478 38.2957 31.1898 37.2428C30.2414 36.6353 30.1868 36.4868 30.5143 35.4204C31.0601 33.6723 30.9646 31.9714 30.2141 30.23C29.8456 29.3728 29.9821 29.0826 30.5689 28.6439C32.1928 27.4289 33.2094 25.8968 33.6802 23.9732C33.8644 23.2172 34.1305 23.0013 34.9084 22.9945C36.8802 22.9675 38.5656 22.36 40.053 21.1316C40.7558 20.5512 40.9809 20.6187 41.131 20.6659C41.172 20.6794 41.2061 20.6929 41.2402 20.7064C41.4176 20.7739 41.6291 20.8954 41.8748 21.0641C43.485 22.1576 45.2249 22.603 47.19 22.4275C47.8996 22.3668 48.2202 22.5693 48.4318 23.2105C49.0663 25.1004 50.1853 26.5245 51.8706 27.5639C52.6826 28.0634 52.7644 28.2726 52.4915 29.1703C51.932 31.0332 52.0344 32.8353 52.8122 34.6712C53.0988 35.3529 53.0169 35.6499 52.4096 36.0953C50.7312 37.3305 49.7009 38.9031 49.2574 40.901C49.1482 41.4005 48.9367 41.6232 48.4591 41.7312L48.2885 41.7514H48.2202C48.2202 41.7514 48.152 41.7717 48.1179 41.7717C46.5554 41.7379 45.1362 42.1362 43.8262 42.9731V42.9461ZM62.7944 59.6377C59.7718 57.3158 56.8174 54.7915 53.9653 52.3549C51.0041 49.8239 47.9405 47.2186 44.7746 44.809L44.8292 44.2623C45.8322 43.6481 46.9102 43.3578 48.0838 43.3916C48.1998 43.3916 48.3158 43.3848 48.4795 43.3646L48.691 43.3376C48.691 43.3376 48.7388 43.3308 48.7661 43.3241C49.9124 43.0811 50.622 42.3791 50.8744 41.2317C51.2224 39.6388 52.048 38.3902 53.3922 37.398C54.6067 36.5003 54.9137 35.4001 54.3337 34.0232C53.8015 32.7678 53.6651 31.5394 53.9175 30.284C67.4751 38.5724 73.7796 42.3926 76.7681 44.161C74.264 45.1262 71.3915 47.961 69.1058 52.0107C66.8405 56.0267 65.9126 59.9077 66.3765 62.5265C65.6806 62.0203 65.0051 61.4601 64.3364 60.9066C63.811 60.4746 63.2993 60.0494 62.7808 59.6512L62.7944 59.6377ZM77.6961 56.7286C74.653 62.1283 70.6614 64.8551 68.9693 63.9236C67.284 62.9922 67.5228 58.1933 70.5659 52.8004C73.2133 48.1027 76.5839 45.4232 78.5285 45.4232C78.8151 45.4232 79.0743 45.4839 79.2927 45.6054C80.978 46.5369 80.7392 51.329 77.6961 56.7286Z" stroke="#58595B" mask="url(#path-2-outside-1_1224_65020)"/>
</svg>
