<svg width="129" height="128" viewBox="0 0 129 128" fill="none" xmlns="http://www.w3.org/2000/svg">
<rect x="25.5" y="30" width="29" height="29" rx="14.5" stroke="#58595B" stroke-width="2"/>
<path fill-rule="evenodd" clip-rule="evenodd" d="M78.4488 99.9904C78.6316 99.9968 78.8151 100 78.9995 100C87.5599 100 94.4995 93.0604 94.4995 84.5C94.4995 75.9396 87.5599 69 78.9995 69C75.171 69 71.6666 70.388 68.9623 72.6883L68.2568 73.9103C68.9616 72.7166 69.9716 71.7695 71.0726 71.2718C72.1928 70.7654 73.3153 70.7658 74.1933 71.2727C74.3921 71.3874 74.5746 71.526 74.7395 71.6859C76.0786 71.2409 77.5109 71 78.9995 71C86.4553 71 92.4995 77.0442 92.4995 84.5C92.4995 91.6082 87.0058 97.4333 80.0326 97.9611C79.5633 98.6871 79.0327 99.3656 78.4488 99.9904Z" fill="#58595B"/>
<path fill-rule="evenodd" clip-rule="evenodd" d="M63.5 19H64.5H103.5H104.5V20V59V60H103.5H75.8177C75.8371 59.6462 75.8057 59.2906 75.722 58.9446C75.6405 58.6076 75.5117 58.2899 75.3418 58H102.5V21H65.5V58H69.4265C69.3802 58.0693 69.3361 58.1402 69.2942 58.2128L68.2623 60H64.5H63.5V59V20V19Z" fill="#FF9900"/>
<path fill-rule="evenodd" clip-rule="evenodd" d="M50.4327 69H25.5H24.5V70V99V100H25.5H54.5H55.5V99.7397C54.764 99.2225 54.0781 98.64 53.4503 98H26.5V71H49.2973C49.4352 70.2988 49.7777 69.6491 50.2892 69.1363C50.3359 69.0894 50.3838 69.044 50.4327 69Z" fill="#58595B"/>
<path d="M58.9564 76.122L69.2951 58.2148C69.779 57.3767 70.5602 56.756 71.4667 56.4892C72.3733 56.2224 73.331 56.3314 74.1292 56.7923C74.9274 57.2531 75.5007 58.028 75.723 58.9465C75.9452 59.865 75.7983 60.8519 75.3144 61.69L66.192 77.4905" stroke="#FF9900" stroke-width="2" stroke-linecap="round" stroke-linejoin="round"/>
<path d="M66.6262 76.7368L69.0588 72.5234C69.5427 71.6853 70.3556 71.0829 71.3186 70.8487C72.2816 70.6145 73.3159 70.7677 74.1939 71.2746C75.0719 71.7816 75.7217 72.6007 76.0004 73.5517C76.2791 74.5028 76.1639 75.508 75.68 76.3461L72.6392 81.6129" stroke="#FF9900" stroke-width="2" stroke-linecap="round" stroke-linejoin="round"/>
<path d="M74.5506 78.3028C75.0575 77.4247 75.8607 76.7658 76.7836 76.4708C77.7064 76.1758 78.6733 76.2689 79.4715 76.7298C80.2697 77.1906 80.8339 77.9814 81.0398 78.9281C81.2458 79.8748 81.0767 80.8999 80.5698 81.778L78.6584 85.0885" stroke="#FF9900" stroke-width="2" stroke-linecap="round" stroke-linejoin="round"/>
<path d="M79.5321 84.1878C80.0159 83.3497 80.8148 82.7392 81.7529 82.4907C82.6911 82.2421 83.6916 82.3758 84.5344 82.8624C85.3772 83.349 85.9933 84.1487 86.2471 85.0854C86.501 86.0221 86.3717 87.0192 85.8878 87.8573L80.4144 97.3376C78.4788 100.69 75.2833 103.132 71.5308 104.126C67.7784 105.12 63.7762 104.585 60.4049 102.639L56.1678 100.193L56.6084 100.447C54.5031 99.232 52.7307 97.516 51.4506 95.4531C50.1705 93.3903 49.4226 91.0452 49.2742 88.6284L49.2238 87.7566C49.1454 86.3659 49.1475 81.0047 49.2292 71.6699C49.2375 70.7184 49.6178 69.8094 50.2892 69.1363C50.9605 68.4632 51.87 68.0791 52.8242 68.0657C53.8407 68.0511 54.8347 68.3757 55.6481 68.9878C56.4616 69.6 57.0479 70.4646 57.314 71.4444L58.6403 76.3394" stroke="#FF9900" stroke-width="2" stroke-linecap="round" stroke-linejoin="round"/>
<path d="M71.5 39.2857L79.3072 47L95.5 31" stroke="#58595B" stroke-width="2" stroke-linecap="round"/>
</svg>
