<svg width="128" height="128" viewBox="0 0 128 128" fill="none" xmlns="http://www.w3.org/2000/svg">
<path d="M109.303 110.538H18.1145C17.4496 110.538 16.9746 109.968 16.9746 109.398V73.8726C16.9746 73.5876 17.0696 73.3027 17.3546 73.0177L42.6214 47.7508C42.7164 47.6558 42.7164 47.6558 42.8114 47.5608C42.9064 47.4658 43.0014 47.4658 43.0964 47.3709C43.1914 47.3709 43.3814 47.2759 43.4763 47.2759C43.5713 47.2759 43.7613 47.2759 43.8563 47.3709C43.9513 47.3709 44.0463 47.4658 44.1413 47.4658C44.2362 47.5608 44.3312 47.5608 44.3312 47.6558L47.3709 50.6954V23.1488C47.3709 21.4391 48.0358 19.9192 49.1756 18.6844C50.4105 17.6395 51.9303 16.9746 53.6401 16.9746H104.269C105.979 16.9746 107.498 17.6395 108.733 18.7794C109.873 19.9192 110.538 21.534 110.538 23.2438V109.398C110.538 109.968 109.968 110.538 109.303 110.538ZM69.9781 108.163H108.163V23.2438C108.163 22.199 107.783 21.2491 107.023 20.4892C106.264 19.7293 105.314 19.3493 104.269 19.3493H53.6401C52.5952 19.3493 51.6453 19.7293 50.8854 20.4892C50.1255 21.2491 49.7456 22.199 49.7456 23.2438V53.1651L69.6931 73.1127C69.8831 73.3027 70.0731 73.6826 70.0731 73.9676V108.163H69.9781ZM44.7112 108.163H67.6984V74.3475L44.7112 51.4554V108.163ZM19.3493 108.163H42.3365V51.4554L19.3493 74.3475V108.163Z" fill="#58595B"/>
<path d="M68.8377 36.0665C67.5079 36.0665 66.463 37.1114 66.463 38.4412C66.463 39.7711 67.5079 40.8159 68.8377 40.8159C70.1676 40.8159 71.2124 39.7711 71.2124 38.4412C71.2124 37.1114 70.1676 36.0665 68.8377 36.0665Z" fill="#FF9900"/>
<path d="M68.8377 56.8694C67.5079 56.8694 66.463 57.9143 66.463 59.2441C66.463 60.5739 67.5079 61.6188 68.8377 61.6188C70.1676 61.6188 71.2124 60.5739 71.2124 59.2441C71.2124 57.9143 70.1676 56.8694 68.8377 56.8694Z" fill="#FF9900"/>
<path d="M89.07 36.0665C87.7402 36.0665 86.6953 37.1114 86.6953 38.4412C86.6953 39.7711 87.7402 40.8159 89.07 40.8159C90.3999 40.8159 91.4447 39.7711 91.4447 38.4412C91.4447 37.1114 90.3999 36.0665 89.07 36.0665Z" fill="#FF9900"/>
<path d="M89.07 56.2988C87.7402 56.2988 86.6953 57.3437 86.6953 58.6735C86.6953 60.0034 87.7402 61.0482 89.07 61.0482C90.3999 61.0482 91.4447 60.0034 91.4447 58.6735C91.4447 57.3437 90.3999 56.2988 89.07 56.2988Z" fill="#FF9900"/>
<path d="M89.0701 76.6271C87.7403 76.6271 86.6954 77.6719 86.6954 79.0018C86.6954 80.3316 87.7403 81.3765 89.0701 81.3765C90.4 81.3765 91.4448 80.3316 91.4448 79.0018C91.4448 77.6719 90.4 76.6271 89.0701 76.6271Z" fill="#FF9900"/>
</svg>
