<svg width="128" height="128" viewBox="0 0 128 128" fill="none" xmlns="http://www.w3.org/2000/svg">
<g clip-path="url(#clip0_629_16217)">
<path d="M103.5 69.5H92.1004C91.4004 69.5 90.9004 70 90.9004 70.7C90.9004 71.4 91.4004 71.9 92.1004 71.9H103.5C104.2 71.9 104.7 71.4 104.7 70.7C104.7 70 104.2 69.5 103.5 69.5Z" fill="#58595B"/>
<path d="M115 16H31C26.1 16 22.2 20 22.2 24.9V62C11.7 65.1 4 74.9 4 86.4C4 100.5 15.5 112 29.6 112C42.1 112 52.6 102.9 54.7 91H115C119.9 91 123.9 87 123.9 82.1V24.9C123.8 20 119.8 16 115 16ZM31 18.4H115C118.5 18.4 121.4 21.3 121.4 24.8V42.7H24.6V24.9C24.6 21.3 27.5 18.4 31 18.4ZM29.6 109.6C16.9 109.6 6.5 99.2 6.5 86.5C6.5 73.7 16.9 63.4 29.6 63.4C42.3 63.4 52.7 73.8 52.7 86.5C52.7 99.2 42.3 109.6 29.6 109.6ZM115 88.6H55C55.1 87.9 55.1 87.2 55.1 86.4C55.1 72.3 43.6 60.8 29.5 60.8C27.8 60.8 26.2 61 24.6 61.3V45.2H121.4V82.2C121.4 85.7 118.5 88.6 115 88.6Z" fill="#58595B"/>
<path d="M22.7002 96.1008C22.4002 96.1008 22.0002 96.0008 21.8002 95.7008L17.1002 90.6008C16.6002 90.1008 16.7002 89.3008 17.2002 88.9008C17.7002 88.4008 18.5002 88.5008 18.9002 89.0008L22.8002 93.1008L39.0002 76.3008C39.5002 75.8008 40.2002 75.8008 40.7002 76.3008C41.2002 76.8008 41.2002 77.5008 40.7002 78.0008L23.6002 95.8008C23.4002 96.0008 23.1002 96.1008 22.7002 96.1008Z" fill="#FF9900"/>
</g>
<defs>
<clipPath id="clip0_629_16217">
<rect width="119.8" height="96" fill="white" transform="translate(4 16)"/>
</clipPath>
</defs>
</svg>
