<svg width="128" height="128" viewBox="0 0 128 128" fill="none" xmlns="http://www.w3.org/2000/svg">
<g clip-path="url(#clip0_629_16227)">
<path d="M104.211 48.1615L102.164 39.9747C102.067 39.3899 101.58 39.0975 100.995 39.0975H99.2406V33.3473C99.2406 32.86 98.9482 32.4701 98.5584 32.2752L62.6924 16.0965C62.4 15.9991 62.0102 15.9991 61.7178 16.0965L24.6822 32.2752C24.2924 32.4701 24 32.9574 24 33.4448C24 33.9321 24.2924 34.4194 24.7797 34.5168L38.9117 39.9747L37.9371 48.8437C30.5299 55.7635 26.3391 65.4123 26.3391 75.5483C26.3391 95.6255 42.7127 111.999 62.7898 111.999C82.867 111.999 99.2406 95.6255 99.2406 75.5483C99.2406 65.2173 94.8548 55.3737 87.1553 48.4539L85.4985 39.8772L96.8041 35.1991V39.0975H95.2447C94.6599 39.0975 94.1726 39.4874 94.0751 39.9747L91.736 48.1615C91.6386 48.5514 91.736 48.9412 91.931 49.2336C92.1259 49.526 92.5157 49.7209 92.9056 49.7209H102.944C103.334 49.7209 103.626 49.526 103.919 49.2336C104.211 48.9412 104.309 48.5514 104.211 48.1615ZM82.9645 39.3899L84.6213 47.8691L40.4711 48.3564L41.4457 39.8772C47.4883 35.0041 55.0904 32.2752 62.7898 32.2752C70.0995 32.2752 77.1168 34.6143 82.9645 38.9026C82.867 39.0975 82.867 39.195 82.9645 39.3899ZM96.8041 75.5483C96.8041 94.261 81.5025 109.563 62.7898 109.563C44.0772 109.563 28.7756 94.261 28.7756 75.5483C28.7756 66.192 32.6741 57.2255 39.4964 50.793L85.5959 50.3057C92.7107 56.7382 96.8041 65.8996 96.8041 75.5483ZM85.0112 37.4407C78.5787 32.4701 70.8792 29.8387 62.6924 29.8387C54.4081 29.8387 46.4162 32.6651 39.9838 37.7331L28.3858 33.3473L62.2051 18.5331L94.9523 33.3473L85.0112 37.4407ZM94.5624 47.2843L96.1218 41.5341H100.02L101.482 47.2843H94.5624Z" fill="#58595B"/>
<path d="M52.7516 86.5619C52.0693 86.5619 51.582 85.9772 51.582 85.3924V65.9C51.582 65.2178 52.1668 64.7305 52.7516 64.7305H64.7394C67.0785 64.7305 69.0277 66.6797 69.0277 69.0188V76.1335C69.0277 76.8157 68.4429 77.3031 67.8582 77.3031C67.2734 77.3031 66.6886 76.7183 66.6886 76.1335V69.0188C66.6886 67.9467 65.8115 67.167 64.8369 67.167H54.0186V85.2949C54.0186 85.9772 53.4338 86.5619 52.7516 86.5619Z" fill="#FF9900"/>
<path d="M75.4597 86.5619H63.4719C61.1328 86.5619 59.1836 84.6127 59.1836 82.2736V75.1589C59.1836 74.4767 59.7684 73.9894 60.3531 73.9894C60.9379 73.9894 61.5227 74.5741 61.5227 75.1589V82.2736C61.5227 83.3457 62.3998 84.1254 63.3745 84.1254H74.1927V65.9C74.1927 65.2178 74.7775 64.7305 75.3623 64.7305C75.947 64.7305 76.5318 65.3152 76.5318 65.9V85.2949C76.7267 85.9772 76.142 86.5619 75.4597 86.5619Z" fill="#FF9900"/>
</g>
<defs>
<clipPath id="clip0_629_16227">
<rect width="80.2112" height="96" fill="white" transform="translate(24 16)"/>
</clipPath>
</defs>
</svg>
