<svg width="128" height="128" viewBox="0 0 128 128" fill="none" xmlns="http://www.w3.org/2000/svg">
<g clip-path="url(#clip0_629_16334)">
<path d="M30.5218 69.2142L41.1452 82.469C41.8274 83.2487 42.7046 83.736 43.6792 83.736C44.069 83.736 44.3614 83.6386 44.7513 83.5411C46.1157 83.0538 46.8954 81.8843 46.8954 80.5198V69.3117H51.7685V66.8751H44.4589V80.4223C44.4589 80.9096 44.069 81.1046 43.8741 81.202C43.6792 81.2995 43.2893 81.2995 42.997 80.9096L31.5939 66.7777H23.3096C20.5807 66.7777 18.4365 64.536 18.4365 61.9046V23.3096C18.4365 20.5807 20.5807 18.4365 23.3096 18.4365H104.495C107.224 18.4365 109.369 20.6782 109.369 23.3096V61.9046C109.369 64.6335 107.224 66.8751 104.495 66.8751H84.2234V69.3117H104.495C108.491 69.3117 111.805 65.998 111.805 61.9046V23.3096C111.903 19.3137 108.589 16 104.593 16H23.3096C19.3137 16 16 19.3137 16 23.3096V61.9046C16 65.9005 19.3137 69.2142 23.3096 69.2142H30.5218Z" fill="#58595B"/>
<path d="M91.4367 109.564V100.5C91.4367 91.5338 76.2326 86.9531 67.656 86.9531C59.0793 86.9531 43.8752 91.4364 43.8752 100.5V109.564H20.4844V112.001H112.781V109.564H91.4367ZM89.0001 109.564H81.2032V104.594H78.7666V109.564H56.5453V104.594H54.1087V109.564H46.3118V100.5C46.3118 93.678 60.1514 89.3897 67.656 89.3897C75.1605 89.3897 89.0001 93.5805 89.0001 100.5V109.564Z" fill="#58595B"/>
<path d="M67.6548 83.2487C73.9898 83.2487 79.1553 77.9858 79.1553 71.4558V67.9472C79.1553 61.4172 73.9898 56.1543 67.6548 56.1543C61.3198 56.1543 56.1543 61.4172 56.1543 67.9472V71.5533C56.1543 77.9858 61.3198 83.2487 67.6548 83.2487ZM58.5908 68.0447C58.5908 62.8792 62.6842 58.6883 67.6548 58.6883C72.6254 58.6883 76.7188 62.8792 76.7188 68.0447V71.5533C76.7188 76.7188 72.6254 80.9096 67.6548 80.9096C62.6842 80.9096 58.5908 76.7188 58.5908 71.5533V68.0447Z" fill="#58595B"/>
<path d="M79.9352 40.0719C79.9352 39.3897 79.3504 38.9023 78.7657 38.9023H76.0367C75.3545 38.9023 74.8672 39.4871 74.8672 40.0719C74.8672 40.6567 75.452 41.2414 76.0367 41.2414H78.7657C79.4479 41.3389 79.9352 40.7541 79.9352 40.0719Z" fill="#FF9900"/>
<path d="M57.9083 40.0719C57.9083 39.3897 57.3235 38.9023 56.7387 38.9023H50.3063C49.624 38.9023 49.1367 39.4871 49.1367 40.0719C49.1367 40.6567 49.7215 41.2414 50.3063 41.2414H56.7387C57.421 41.3389 57.9083 40.7541 57.9083 40.0719Z" fill="#FF9900"/>
<path d="M69.604 41.3391C70.2862 41.3391 70.7735 40.7543 70.7735 40.1695C70.7735 39.5848 70.1888 39 69.604 39H63.1715C62.4893 39 62.002 39.5848 62.002 40.1695C62.002 40.7543 62.5867 41.3391 63.1715 41.3391H69.604Z" fill="#FF9900"/>
</g>
<defs>
<clipPath id="clip0_629_16334">
<rect width="96.7797" height="96" fill="white" transform="translate(16 16)"/>
</clipPath>
</defs>
</svg>
