<svg width="129" height="128" viewBox="0 0 129 128" fill="none" xmlns="http://www.w3.org/2000/svg">
<path fill-rule="evenodd" clip-rule="evenodd" d="M80.5 65C72.2157 65 65.5 71.7157 65.5 80C65.5 88.2843 72.2157 95 80.5 95C88.7843 95 95.5 88.2843 95.5 80C95.5 71.7157 88.7843 65 80.5 65ZM63.5 80C63.5 70.6112 71.1112 63 80.5 63C89.8888 63 97.5 70.6112 97.5 80C97.5 89.3888 89.8888 97 80.5 97C71.1112 97 63.5 89.3888 63.5 80Z" fill="#FF9900"/>
<path fill-rule="evenodd" clip-rule="evenodd" d="M69.8335 91C70.3858 91 70.8335 91.4477 70.8335 92V114L79.9002 107.2C80.2557 106.933 80.7446 106.933 81.1002 107.2L90.1668 114V92C90.1668 91.4477 90.6145 91 91.1668 91C91.7191 91 92.1668 91.4477 92.1668 92V116C92.1668 116.379 91.9528 116.725 91.614 116.894C91.2753 117.064 90.8698 117.027 90.5668 116.8L80.5002 109.25L70.4335 116.8C70.1305 117.027 69.7251 117.064 69.3863 116.894C69.0475 116.725 68.8335 116.379 68.8335 116V92C68.8335 91.4477 69.2812 91 69.8335 91Z" fill="#FF9900"/>
<path fill-rule="evenodd" clip-rule="evenodd" d="M27.1667 27.6667C21.8523 27.6667 17.5 32.019 17.5 37.3334V90.6667C17.5 93.2305 18.5184 95.6893 20.3313 97.5021C22.1442 99.315 24.6029 100.333 27.1667 100.333H53.8333C54.3856 100.333 54.8333 100.781 54.8333 101.333C54.8333 101.886 54.3856 102.333 53.8333 102.333H27.1667C24.0725 102.333 21.105 101.104 18.9171 98.9163C16.7292 96.7284 15.5 93.7609 15.5 90.6667V37.3334C15.5 30.9145 20.7477 25.6667 27.1667 25.6667H101.833C104.928 25.6667 107.895 26.8959 110.083 29.0838C112.271 31.2718 113.5 34.2392 113.5 37.3334V90.6678C113.498 92.7137 112.958 94.723 111.934 96.4943C110.91 98.2656 109.438 99.7365 107.667 100.759C107.188 101.036 106.577 100.872 106.301 100.393C106.024 99.9151 106.188 99.3035 106.667 99.0274C108.135 98.1798 109.354 96.9611 110.202 95.4934C111.051 94.0258 111.498 92.3609 111.5 90.6657V37.3334C111.5 34.7697 110.482 32.3109 108.669 30.498C106.856 28.6852 104.397 27.6667 101.833 27.6667H27.1667Z" fill="#58595B"/>
<path fill-rule="evenodd" clip-rule="evenodd" d="M31.5 48C31.5 47.4477 31.9477 47 32.5 47H96.5C97.0523 47 97.5 47.4477 97.5 48C97.5 48.5523 97.0523 49 96.5 49H32.5C31.9477 49 31.5 48.5523 31.5 48Z" fill="#58595B"/>
<path fill-rule="evenodd" clip-rule="evenodd" d="M31.5 64C31.5 63.4477 31.9477 63 32.5 63H48.5C49.0523 63 49.5 63.4477 49.5 64C49.5 64.5523 49.0523 65 48.5 65H32.5C31.9477 65 31.5 64.5523 31.5 64Z" fill="#58595B"/>
<path fill-rule="evenodd" clip-rule="evenodd" d="M31.5 80C31.5 79.4477 31.9477 79 32.5 79H43.1667C43.719 79 44.1667 79.4477 44.1667 80C44.1667 80.5523 43.719 81 43.1667 81H32.5C31.9477 81 31.5 80.5523 31.5 80Z" fill="#58595B"/>
</svg>
