<svg width="129" height="128" viewBox="0 0 129 128" fill="none" xmlns="http://www.w3.org/2000/svg">
<path d="M93.375 26H35.875C27.9359 26 21.5 32.4359 21.5 40.375V88.2917C21.5 96.2308 27.9359 102.667 35.875 102.667H93.375C101.314 102.667 107.75 96.2308 107.75 88.2917V40.375C107.75 32.4359 101.314 26 93.375 26Z" stroke="#58595B" stroke-width="2" stroke-linecap="round" stroke-linejoin="round"/>
<path d="M79 45.1665H88.5833" stroke="#58595B" stroke-width="2" stroke-linecap="round" stroke-linejoin="round"/>
<path d="M79 64.3333H88.5833" stroke="#58595B" stroke-width="2" stroke-linecap="round" stroke-linejoin="round"/>
<path d="M40.6667 83.5H88.5834" stroke="#58595B" stroke-width="2" stroke-linecap="round" stroke-linejoin="round"/>
<path d="M51.5 58C55.9183 58 59.5 54.4183 59.5 50C59.5 45.5817 55.9183 42 51.5 42C47.0817 42 43.5 45.5817 43.5 50C43.5 54.4183 47.0817 58 51.5 58Z" stroke="#FF9900" stroke-width="2" stroke-linecap="round" stroke-linejoin="round"/>
<path d="M39.5 74V70.3333C39.5 68.3884 40.3429 66.5232 41.8431 65.1479C43.3434 63.7726 45.3783 63 47.5 63H55.5C57.6217 63 59.6566 63.7726 61.1569 65.1479C62.6571 66.5232 63.5 68.3884 63.5 70.3333V74" stroke="#FF9900" stroke-width="2" stroke-linecap="round" stroke-linejoin="round"/>
</svg>
