<svg width="106" height="106" viewBox="0 0 106 106" fill="none" xmlns="http://www.w3.org/2000/svg">
<path fill-rule="evenodd" clip-rule="evenodd" d="M66.25 53.8281C59.3896 53.8281 53.8281 59.3896 53.8281 66.25C53.8281 73.1104 59.3896 78.6719 66.25 78.6719C73.1104 78.6719 78.6719 73.1104 78.6719 66.25C78.6719 59.3896 73.1104 53.8281 66.25 53.8281ZM52.1719 66.25C52.1719 58.4749 58.4749 52.1719 66.25 52.1719C74.0251 52.1719 80.3281 58.4749 80.3281 66.25C80.3281 74.0251 74.0251 80.3281 66.25 80.3281C58.4749 80.3281 52.1719 74.0251 52.1719 66.25Z" fill="#FF9900"/>
<path fill-rule="evenodd" clip-rule="evenodd" d="M57.417 75.3594C57.8744 75.3594 58.2451 75.7301 58.2451 76.1875V94.4063L65.7534 88.775C66.0479 88.5542 66.4528 88.5542 66.7472 88.775L74.2555 94.4063V76.1875C74.2555 75.7301 74.6263 75.3594 75.0837 75.3594C75.541 75.3594 75.9118 75.7301 75.9118 76.1875V96.0625C75.9118 96.3762 75.7346 96.6629 75.454 96.8032C75.1734 96.9435 74.8377 96.9132 74.5868 96.725L66.2503 90.4727L57.9139 96.725C57.6629 96.9132 57.3272 96.9435 57.0466 96.8032C56.7661 96.6629 56.5889 96.3762 56.5889 96.0625V76.1875C56.5889 75.7301 56.9596 75.3594 57.417 75.3594Z" fill="#FF9900"/>
<path fill-rule="evenodd" clip-rule="evenodd" d="M22.0833 22.9115C17.6824 22.9115 14.0781 26.5157 14.0781 30.9167V75.0834C14.0781 77.2065 14.9215 79.2426 16.4228 80.7439C17.9241 82.2452 19.9602 83.0886 22.0833 83.0886H44.1667C44.624 83.0886 44.9948 83.4594 44.9948 83.9167C44.9948 84.3741 44.624 84.7448 44.1667 84.7448H22.0833C19.521 84.7448 17.0635 83.7269 15.2517 81.9151C13.4398 80.1032 12.4219 77.6458 12.4219 75.0834V30.9167C12.4219 25.601 16.7676 21.2552 22.0833 21.2552H83.9167C86.479 21.2552 88.9365 22.2731 90.7484 24.085C92.5602 25.8969 93.5781 28.3543 93.5781 30.9167V75.0842C93.5764 76.7785 93.1292 78.4425 92.2813 79.9093C91.4334 81.3762 90.2147 82.5943 88.7474 83.4414C88.3513 83.6701 87.8448 83.5344 87.6162 83.1383C87.3875 82.7422 87.5232 82.2357 87.9193 82.007C89.135 81.3051 90.1448 80.2959 90.8473 79.0805C91.5499 77.8651 91.9204 76.4863 91.9219 75.0825V30.9167C91.9219 28.7936 91.0785 26.7574 89.5772 25.2562C88.0759 23.7549 86.0398 22.9115 83.9167 22.9115H22.0833Z" fill="#58595B" stroke="#58595B" stroke-width="0.3" stroke-linecap="round" stroke-linejoin="round"/>
<path fill-rule="evenodd" clip-rule="evenodd" d="M25.6719 39.75C25.6719 39.2926 26.0426 38.9219 26.5 38.9219H79.5C79.9574 38.9219 80.3281 39.2926 80.3281 39.75C80.3281 40.2074 79.9574 40.5781 79.5 40.5781H26.5C26.0426 40.5781 25.6719 40.2074 25.6719 39.75Z" fill="#58595B"/>
<path fill-rule="evenodd" clip-rule="evenodd" d="M25.6719 53C25.6719 52.5426 26.0426 52.1719 26.5 52.1719H39.75C40.2074 52.1719 40.5781 52.5426 40.5781 53C40.5781 53.4574 40.2074 53.8281 39.75 53.8281H26.5C26.0426 53.8281 25.6719 53.4574 25.6719 53Z" fill="#58595B"/>
<path fill-rule="evenodd" clip-rule="evenodd" d="M25.6719 66.25C25.6719 65.7926 26.0426 65.4219 26.5 65.4219H35.3333C35.7907 65.4219 36.1615 65.7926 36.1615 66.25C36.1615 66.7074 35.7907 67.0781 35.3333 67.0781H26.5C26.0426 67.0781 25.6719 66.7074 25.6719 66.25Z" fill="#58595B"/>
</svg>
