<svg width="128" height="128" viewBox="0 0 128 128" fill="none" xmlns="http://www.w3.org/2000/svg">
<g clip-path="url(#clip0_629_16239)">
<path d="M41.799 62.7992C40.699 63.9992 37.299 65.1992 34.499 64.9992C33.499 64.8992 32.199 64.5992 31.599 63.6992C30.599 62.1992 31.699 59.6992 32.799 57.6992C33.599 56.1992 34.599 54.7992 35.599 53.2992C35.999 52.6992 36.499 51.9992 36.899 51.3992C37.099 51.1992 37.299 50.7992 37.399 50.1992C37.399 49.6992 37.299 49.3992 37.199 49.0992C36.999 48.5992 36.599 47.9992 36.299 47.3992C35.999 46.9992 35.699 46.4992 35.599 46.1992C35.499 45.9992 35.399 45.7992 35.199 45.6992C35.099 45.5992 35.099 45.3992 34.899 45.2992C34.599 44.8992 34.099 44.7992 33.599 44.5992C31.999 44.0992 30.199 44.0992 28.499 44.4992C27.899 44.5992 27.099 44.8992 26.799 45.4992C26.499 45.9992 26.199 46.8992 26.599 47.3992C26.699 47.4992 26.799 47.5992 26.999 47.5992C27.999 47.9992 28.999 47.6992 29.999 47.4992C31.199 47.2992 32.299 47.2992 33.499 47.5992C33.699 47.9992 33.899 48.3992 34.199 48.7992C34.299 48.9992 34.499 49.2992 34.599 49.4992C32.099 48.0992 30.199 47.7992 28.199 48.4992C27.599 48.6992 27.199 49.3992 27.499 49.9992C27.699 50.5992 28.399 50.9992 28.999 50.6992C29.099 50.6992 29.099 50.6992 29.199 50.5992C29.099 50.7992 29.099 50.9992 29.099 51.0992C29.099 51.9992 29.799 52.6992 30.699 52.6992C31.599 52.6992 32.299 51.9992 32.299 51.0992C32.299 50.9992 32.299 50.8992 32.299 50.7992C32.699 50.9992 33.199 51.1992 33.799 51.5992C33.799 51.6992 33.699 51.6992 33.699 51.7992C32.699 53.2992 31.599 54.7992 30.699 56.3992C29.799 58.0992 27.699 61.9992 29.599 64.8992C30.499 66.2992 32.099 67.0992 34.299 67.1992C34.599 67.1992 34.899 67.1992 35.199 67.1992C38.399 67.1992 41.999 65.8992 43.599 64.1992C44.099 63.6992 43.999 62.8992 43.499 62.4992C42.999 62.2992 42.199 62.2992 41.799 62.7992Z" fill="#58595B"/>
<path d="M40.1 70.1992C39 70.7992 35.2 70.4992 32.8 70.0992C32.1 69.9992 31.5 70.3992 31.4 71.0992C31.3 71.7992 31.7 72.3992 32.4 72.4992C33.1 72.5992 35.4 72.9992 37.5 72.9992C38.9 72.9992 40.2 72.8992 41.1 72.3992C41.7 72.0992 41.9 71.3992 41.6 70.7992C41.4 70.0992 40.7 69.8992 40.1 70.1992Z" fill="#58595B"/>
<path d="M50.2995 49.899C45.0995 46.699 41.0995 49.399 40.8995 49.499C40.3995 49.899 40.1995 50.599 40.5995 51.199C40.9995 51.699 41.6995 51.899 42.2995 51.499C42.3995 51.499 42.8995 51.099 43.8995 50.899C43.8995 50.999 43.7995 51.199 43.7995 51.299C43.7995 52.199 44.4995 52.899 45.3995 52.899C46.2995 52.899 46.9995 52.199 46.9995 51.299C46.9995 51.199 46.9995 51.099 46.9995 50.999C47.5995 51.199 48.2995 51.499 49.0995 51.899C49.2995 51.999 49.4995 52.099 49.6995 52.099C50.0995 52.099 50.4995 51.899 50.6995 51.499C50.9995 50.999 50.7995 50.299 50.2995 49.899Z" fill="#58595B"/>
<path d="M51.4 46.0998C50.4 45.2998 49.4 44.4998 48.2 43.9998C47.1 43.4998 46 43.2998 44.8 43.3998C43.8 43.3998 42.8 43.5998 41.8 43.8998C41.3 43.9998 40.8 44.1998 40.5 44.5998C40.1 45.0998 40 45.6998 40 46.2998C40 46.3998 40 46.4998 40.1 46.5998C40.2 46.6998 40.3 46.7998 40.4 46.7998C41.9 47.3998 43.5 46.4998 45 46.3998C46.5 46.1998 48.1 46.4998 49.5 47.1998C49.9 47.3998 52.9 49.1998 53.1 48.4998C53.4 47.4998 52.1 46.6998 51.4 46.0998Z" fill="#58595B"/>
<path d="M97.4992 81.1008C95.3992 79.6008 93.0992 78.6008 90.8992 77.7008C87.3992 76.2008 84.0992 74.7008 81.7992 71.7008C81.5992 71.4008 81.2992 71.2008 80.8992 71.1008C80.7992 71.1008 80.7992 71.1008 80.6992 71.1008C80.6992 71.1008 80.3992 71.1008 80.0992 70.8008C79.6992 70.4008 79.0992 69.3008 79.3992 66.3008C79.4992 65.6008 78.9992 65.0008 78.2992 65.0008C77.5992 64.9008 76.9992 65.4008 76.9992 66.1008C76.7992 69.2008 77.2992 71.3008 78.4992 72.5008C78.4992 72.5008 78.4992 72.5008 78.5992 72.6008C67.5992 81.8008 48.5992 89.1008 48.3992 89.2008C47.7992 89.4008 47.4992 90.1008 47.6992 90.8008C47.8992 91.3008 48.2992 91.6008 48.7992 91.6008C48.8992 91.6008 49.0992 91.6008 49.1992 91.5008C49.9992 91.2008 69.3992 83.7008 80.6992 74.1008C81.0992 74.6008 81.5992 75.0008 81.9992 75.4008C66.1992 91.2008 48.3992 108.001 45.9992 108.701C45.3992 108.901 44.9992 109.501 45.0992 110.201C45.1992 110.801 45.6992 111.101 46.2992 111.101C46.3992 111.101 46.4992 111.101 46.5992 111.101C50.5992 110.101 77.2992 83.5008 83.9992 76.9008C85.8992 78.2008 87.9992 79.1008 90.0992 80.0008C92.1992 80.9008 94.3992 81.9008 96.2992 83.2008C104.099 88.6008 109.099 99.5008 109.099 110.901C109.099 111.601 109.599 112.101 110.299 112.101C110.999 112.101 111.499 111.601 111.499 110.901C111.399 98.6008 105.899 86.9008 97.4992 81.1008Z" fill="#58595B"/>
<path d="M36.9992 93.2017C28.4992 98.9017 22.5992 103.602 17.1992 109.002C16.6992 109.502 16.6992 110.202 17.1992 110.702C17.3992 110.902 17.6992 111.002 17.9992 111.002C18.2992 111.002 18.5992 110.902 18.8992 110.602C24.1992 105.302 29.9992 100.702 38.2992 95.2017C38.8992 94.8017 38.9992 94.1017 38.5992 93.5017C38.2992 93.0017 37.4992 92.9017 36.9992 93.2017Z" fill="#58595B"/>
<path d="M44.2003 112C43.6003 112 43.0003 111.5 43.0003 110.8L42.5003 99.3002C42.5003 98.9002 42.7003 98.5002 43.1003 98.2002C45.9003 96.4002 47.8003 94.7002 48.8003 93.8002C44.7003 88.4002 42.8003 88.5002 42.4003 88.7002C40.6003 89.3002 39.9003 94.8002 40.0003 98.2002C40.0003 98.4002 40.0003 98.6002 39.9003 98.8002L33.8003 110.3C33.5003 110.9 32.8003 111.1 32.2003 110.8C31.6003 110.5 31.4003 109.8 31.7003 109.2L37.4003 98.0002C37.4003 95.7002 37.5003 87.8002 41.5003 86.4002C44.1003 85.5002 47.3003 87.7002 51.3003 93.2002C51.6003 93.7002 51.6003 94.3002 51.2003 94.7002C51.1003 94.8002 48.9003 97.2002 44.9003 99.8002L45.4003 110.6C45.5003 111.4 44.9003 112 44.2003 112Z" fill="#FF9900"/>
<path d="M94.2994 43.2C94.2994 43.1 94.1993 43 94.1993 43L91.6993 39.6C92.7993 37.3 95.2993 30 88.0993 22.9C83.3993 18.2 77.0994 15.7 71.3994 16.1C68.7994 16.3 66.3993 17.1 64.2994 18.4C64.2994 18.4 64.1994 18.4 64.1994 18.3C63.9994 18.3 54.9994 16.2 45.3994 20C41.3994 18.7 37.9993 18.8 35.1994 20.6C32.9994 21.9 31.3994 23.8 29.6994 25.7C26.4994 29.5 22.8993 34.1 21.8993 39.6C21.6993 40.8 22.2993 48.4 24.4993 49.4C24.5993 51.3 24.6993 53.2 25.2993 55C25.8993 56.9 25.6993 59.1 25.4993 61.2C25.3993 62.3 25.2993 63.4 25.2993 64.5C25.2993 69.2 25.8993 72.9 27.2993 76C28.3993 78.4 29.9993 80.4 31.9993 81.8C32.1993 81.9 32.3994 82 32.5993 82C32.9993 83.2 33.4993 84.4 34.2993 85.3C35.7993 87.1 37.7993 88.1 40.2993 88.3C40.5993 88.3 40.8994 88.3 41.1994 88.3C47.1994 88.3 54.0994 83.9 56.8994 81.4C57.3994 81 57.4994 80.2 56.9994 79.7C56.5993 79.2 55.7994 79.1 55.2994 79.6C52.0993 82.4 45.3993 86.3 40.3993 85.9C38.4993 85.7 37.0993 85 35.9993 83.7C34.3993 81.8 33.8993 78.2 34.2993 75.6C34.3993 74.9 33.8993 74.3 33.2993 74.2C32.5993 74.1 31.9993 74.6 31.8993 75.2C31.7993 76.2 31.6993 77.3 31.7993 78.4C30.7993 77.4 29.9993 76.2 29.2993 74.8C27.9993 72.1 27.4993 68.8 27.4993 64.4C27.4993 63.4 27.5994 62.4 27.6994 61.3C27.8994 58.9 28.1993 56.4 27.3993 54.1C26.7993 52.2 26.7993 50 26.6993 47.9V47.3C30.6993 32.7 38.0993 25.7 45.2993 22.5C45.5993 22.5 45.8993 22.4 46.0993 22.2C52.5993 19.6 58.7994 19.9 61.6994 20.4C61.1994 20.9 60.6994 21.5 60.1994 22.1C59.7994 22.6 59.8994 23.3 60.3994 23.8C60.5994 24 65.6994 28.5 61.9994 39.5C60.6994 43.4 60.8993 46.5 62.5993 48.9C65.4994 52.9 71.3993 53.1 72.0993 53.1C73.0993 53.1 73.8994 52.6 74.4994 52.1C74.6994 52 74.8994 51.8 74.9994 51.7C76.0993 51.1 77.1994 50.7 78.3994 50.5C79.1994 50.3 80.6994 50.2 81.3994 50.9C81.7994 51.4 81.9994 52.2 81.9994 52.8C82.0993 55.3 80.9994 57.7 79.7994 60.2C79.1994 61.5 78.4994 62.9 77.9994 64.3C76.8994 65.9 74.7994 67.9 73.7994 67.7C73.2994 67.6 72.8993 66.8 72.5993 65.5H72.4994C73.0993 64.3 73.5993 63 73.7994 61.5C73.8993 60.8 73.3993 60.2 72.7994 60.1C72.0993 60 71.4994 60.5 71.3994 61.1C70.4994 67.3 64.1993 70.1 64.0993 70.2C63.4994 70.5 63.1994 71.2 63.4994 71.8C63.6994 72.3 64.0993 72.5 64.5993 72.5C64.7994 72.5 64.8993 72.5 65.0993 72.4C65.2994 72.3 68.3994 70.9 70.8994 67.9C71.4994 69.1 72.2994 69.8 73.3994 70C73.5994 70 73.7994 70.1 73.9994 70.1C76.6994 70.1 79.3993 66.6 80.0993 65.6C80.5993 65.2 81.3994 64.4 82.2994 63.5C83.5994 62.3 84.9993 60.9 85.6993 60.4C85.8993 60.3 86.3994 60 86.8994 59.7C90.1994 58 98.9994 53.6 94.2994 43.2ZM24.8993 45.3C24.4993 43.5 24.0993 40.9 24.2993 40C25.1993 35.1 28.4993 30.8 31.4993 27.2C32.9993 25.4 34.4993 23.7 36.3993 22.6C37.5993 21.8 38.9993 21.5 40.4993 21.5C40.8993 21.5 41.3993 21.5 41.7993 21.6C35.1993 25.3 28.5993 32.4 24.8993 45.3ZM85.7994 57.5C85.0994 57.9 84.4993 58.1 84.1993 58.4C83.7993 58.7 83.2993 59.2 82.6993 59.7C83.6993 57.5 84.5993 55.1 84.4994 52.5C84.3994 51 83.9993 49.9 83.1993 49.1C82.3993 48.2 81.1993 47.8 79.6993 47.8C79.1993 47.8 78.5993 47.9 77.9994 48C76.5993 48.3 75.1994 48.8 73.9994 49.5C73.7994 49.6 73.4994 49.8 73.1994 50C72.8994 50.2 72.3994 50.6 72.1994 50.6C72.0994 50.6 66.8994 50.5 64.6994 47.4C63.4994 45.7 63.3994 43.2 64.3994 40.2C67.6994 30.2 64.4994 24.7 62.8994 22.7C65.0994 20.2 68.0993 18.7 71.5993 18.5C76.6993 18.1 82.1994 20.4 86.3994 24.6C93.5993 31.8 89.3993 38.8 89.1993 39.1C88.8993 39.5 88.9994 40.1 89.2994 40.5L92.1993 44.4C95.7993 52.5 89.2994 55.8 85.7994 57.5Z" fill="#58595B"/>
<path d="M116.2 109.599H11V111.999H116.2V109.599Z" fill="#58595B"/>
</g>
<defs>
<clipPath id="clip0_629_16239">
<rect width="105.2" height="96" fill="white" transform="translate(11 16)"/>
</clipPath>
</defs>
</svg>
