<svg width="128" height="128" viewBox="0 0 128 128" fill="none" xmlns="http://www.w3.org/2000/svg">
<g clip-path="url(#clip0_1341_49384)">
<path d="M45.656 29.2324C45.1586 28.735 44.3627 28.735 43.8653 29.2324L35.3099 38.0863L31.3306 34.7039C30.8332 34.2065 30.0373 34.306 29.5399 34.8034C29.0425 35.3008 29.142 36.0967 29.6394 36.5941L34.514 40.7723C34.713 40.9713 35.0114 41.0708 35.3099 41.0708C35.6083 41.0708 36.0062 40.9713 36.2052 40.6728L45.5565 31.0231C46.1534 30.5257 46.1534 29.7298 45.656 29.2324Z" fill="#F79231"/>
<path d="M83.857 79.37C83.1606 79.37 82.6632 79.9668 82.6632 80.5637V94.4912H68.9347C68.2383 94.4912 67.7409 95.0881 67.7409 95.685V109.513H20.487V18.487H82.6632V41.5668C82.6632 42.2632 83.2601 42.7606 83.857 42.7606C84.4539 42.7606 85.0508 42.1637 85.0508 41.5668V17.1938C85.0508 16.4974 84.4539 16 83.857 16H19.1938C18.5969 16 18 16.5969 18 17.1938V110.707C18 111.403 18.5969 111.901 19.1938 111.901H68.9347C69.1337 111.901 69.2332 111.901 69.4321 111.801C69.6311 111.702 69.7306 111.602 69.83 111.503L84.7523 96.5803C84.8518 96.4808 84.9513 96.3813 84.9513 96.1824V96.0829C84.9513 95.9834 85.0508 95.8839 85.0508 95.7845C85.0508 95.7845 85.0508 95.7845 85.0508 95.685V80.6632C85.1503 79.9668 84.5534 79.37 83.857 79.37ZM70.228 107.722V97.0777H80.8725L70.228 107.722Z" fill="#58595B"/>
<path d="M28.943 28.9326H37.8964C38.5928 28.9326 39.0902 28.3357 39.0902 27.7388C39.0902 27.1419 38.4933 26.545 37.8964 26.545H28.943C27.0529 26.545 25.4612 28.1368 25.4612 30.0269V42.5616C25.4612 44.4518 27.0529 46.0435 28.943 46.0435H41.4778C43.3679 46.0435 44.9596 44.4518 44.9596 42.5616V39.4777C44.9596 38.7813 44.3627 38.2839 43.7658 38.2839C43.169 38.2839 42.5721 38.8808 42.5721 39.4777V42.5616C42.5721 43.059 42.1741 43.5564 41.5772 43.5564H28.943C28.4456 43.5564 27.9482 43.1585 27.9482 42.5616V29.9274C27.9482 29.3305 28.3462 28.9326 28.943 28.9326Z" fill="#58595B"/>
<path d="M45.656 60.0704C45.1586 59.573 44.3627 59.573 43.8653 60.0704L35.3099 68.9243L31.3306 65.5419C30.8332 65.0445 30.0373 65.144 29.5399 65.6414C29.0425 66.1388 29.142 66.9347 29.6394 67.4321L34.514 71.6103C34.713 71.8093 35.0114 71.9088 35.3099 71.9088C35.6083 71.9088 36.0062 71.8093 36.2052 71.5109L45.5565 61.8611C46.1534 61.3637 46.1534 60.5679 45.656 60.0704Z" fill="#F79231"/>
<path d="M25.4609 73.2024C25.4609 75.0925 27.0526 76.6842 28.9428 76.6842H41.4775C43.3677 76.6842 44.9594 75.0925 44.9594 73.2024V70.1184C44.9594 69.4221 44.3625 68.9247 43.7656 68.9247C43.1687 68.9247 42.5718 69.5216 42.5718 70.1184V73.2024C42.5718 73.6998 42.1739 74.1972 41.577 74.1972H28.9428C28.4454 74.1972 27.948 73.7993 27.948 73.2024V60.7672C27.948 60.2697 28.3459 59.7723 28.9428 59.7723H37.8962C38.5925 59.7723 39.09 59.1754 39.09 58.5785C39.09 57.9817 38.4931 57.3848 37.8962 57.3848H28.9428C27.0526 57.3848 25.4609 58.9765 25.4609 60.8666V73.2024Z" fill="#58595B"/>
<path d="M107.336 37.986C106.142 36.7922 104.65 36.1953 102.958 36.1953C101.267 36.1953 99.775 36.7922 98.5812 37.986L95.0993 41.4679L55.0081 81.6585C54.9086 81.758 54.8091 81.8575 54.8091 81.957V82.0565C54.8091 82.0565 54.8091 82.0565 54.8091 82.1559L51.6257 93.0989C51.5262 93.5963 51.6257 93.9943 52.0237 94.3922C52.2226 94.5912 52.5211 94.6906 52.8195 94.6906C53.0185 94.6906 53.118 94.6906 53.2174 94.5912L63.4641 90.7114C63.5636 90.6119 63.663 90.6119 63.7625 90.5124L103.854 50.4212L107.336 46.9394C108.529 45.7456 109.126 44.1539 109.126 42.5622C109.226 40.7715 108.529 39.1798 107.336 37.986ZM56.5003 84.8419L58.49 86.8316L60.6786 89.0202L54.6102 91.3083L56.5003 84.8419ZM62.8672 87.7269L60.1812 85.0409L57.4952 82.3549L95.7957 44.0544L101.068 49.3269L62.8672 87.7269ZM105.644 45.0492L102.958 47.7352L97.6858 42.4627L100.372 39.7767C101.765 38.3839 104.252 38.3839 105.644 39.7767C106.341 40.473 106.739 41.3684 106.739 42.4627C106.739 43.358 106.341 44.3528 105.644 45.0492Z" fill="#58595B"/>
</g>
<defs>
<clipPath id="clip0_1341_49384">
<rect width="91.2249" height="96" fill="white" transform="translate(18 16)"/>
</clipPath>
</defs>
</svg>
