<svg width="89" height="89" viewBox="0 0 89 89" fill="none" xmlns="http://www.w3.org/2000/svg">
<path fill-rule="evenodd" clip-rule="evenodd" d="M55.625 45.1953C49.8648 45.1953 45.1953 49.8648 45.1953 55.625C45.1953 61.3852 49.8648 66.0547 55.625 66.0547C61.3852 66.0547 66.0547 61.3852 66.0547 55.625C66.0547 49.8648 61.3852 45.1953 55.625 45.1953ZM43.8047 55.625C43.8047 49.0968 49.0968 43.8047 55.625 43.8047C62.1532 43.8047 67.4453 49.0968 67.4453 55.625C67.4453 62.1532 62.1532 67.4453 55.625 67.4453C49.0968 67.4453 43.8047 62.1532 43.8047 55.625Z" fill="#FF9900"/>
<path fill-rule="evenodd" clip-rule="evenodd" d="M48.2084 63.2734C48.5924 63.2734 48.9037 63.5847 48.9037 63.9688V79.2656L55.2079 74.5375C55.4551 74.3521 55.7951 74.3521 56.0423 74.5375L62.3465 79.2656V63.9688C62.3465 63.5847 62.6578 63.2734 63.0418 63.2734C63.4258 63.2734 63.7371 63.5847 63.7371 63.9688V80.6563C63.7371 80.9196 63.5883 81.1604 63.3527 81.2782C63.1172 81.3959 62.8353 81.3705 62.6246 81.2125L55.6251 75.9629L48.6256 81.2125C48.4149 81.3705 48.133 81.3959 47.8975 81.2782C47.6619 81.1604 47.5131 80.9196 47.5131 80.6563V63.9688C47.5131 63.5847 47.8244 63.2734 48.2084 63.2734Z" fill="#FF9900"/>
<path fill-rule="evenodd" clip-rule="evenodd" d="M18.5417 19.237C14.8465 19.237 11.8203 22.2632 11.8203 25.9583V63.0417C11.8203 64.8243 12.5285 66.5339 13.789 67.7944C15.0495 69.0549 16.7591 69.763 18.5417 69.763H37.0833C37.4673 69.763 37.7786 70.0743 37.7786 70.4583C37.7786 70.8423 37.4673 71.1536 37.0833 71.1536H18.5417C16.3902 71.1536 14.3269 70.299 12.8056 68.7777C11.2843 67.2564 10.4297 65.1931 10.4297 63.0417V25.9583C10.4297 21.4951 14.0785 17.8463 18.5417 17.8463H70.4583C72.6098 17.8463 74.6731 18.701 76.1944 20.2223C77.7157 21.7436 78.5703 23.8069 78.5703 25.9583V63.0424C78.5689 64.4649 78.1933 65.8621 77.4814 67.0936C76.7695 68.3252 75.7463 69.348 74.5143 70.0592C74.1818 70.2512 73.7565 70.1373 73.5645 69.8047C73.3725 69.4722 73.4865 69.0469 73.819 68.8549C74.8398 68.2656 75.6876 67.4182 76.2775 66.3977C76.8673 65.3772 77.1785 64.2196 77.1797 63.0409V25.9583C77.1797 24.1757 76.4715 22.4661 75.2111 21.2056C73.9506 19.9451 72.2409 19.237 70.4583 19.237H18.5417Z" fill="#58595B"/>
<path fill-rule="evenodd" clip-rule="evenodd" d="M21.5547 33.375C21.5547 32.991 21.866 32.6797 22.25 32.6797H66.75C67.134 32.6797 67.4453 32.991 67.4453 33.375C67.4453 33.759 67.134 34.0703 66.75 34.0703H22.25C21.866 34.0703 21.5547 33.759 21.5547 33.375Z" fill="#58595B"/>
<path fill-rule="evenodd" clip-rule="evenodd" d="M21.5547 44.5C21.5547 44.116 21.866 43.8047 22.25 43.8047H33.375C33.759 43.8047 34.0703 44.116 34.0703 44.5C34.0703 44.884 33.759 45.1953 33.375 45.1953H22.25C21.866 45.1953 21.5547 44.884 21.5547 44.5Z" fill="#58595B"/>
<path fill-rule="evenodd" clip-rule="evenodd" d="M21.5547 55.625C21.5547 55.241 21.866 54.9297 22.25 54.9297H29.6667C30.0507 54.9297 30.362 55.241 30.362 55.625C30.362 56.009 30.0507 56.3203 29.6667 56.3203H22.25C21.866 56.3203 21.5547 56.009 21.5547 55.625Z" fill="#58595B"/>
</svg>
