<svg width="128" height="128" viewBox="0 0 128 128" fill="none" xmlns="http://www.w3.org/2000/svg">
<rect x="83.0322" y="25.3965" width="11.3338" height="46.8771" transform="rotate(24.4178 83.0322 25.3965)" stroke="#58595B" stroke-width="2"/>
<rect x="89.8945" y="17.6133" width="4.35917" height="9.59018" transform="rotate(24.4178 89.8945 17.6133)" stroke="#58595B" stroke-width="2"/>
<path d="M72.3883 72.1858L65.7173 77.2415L65.1323 68.8916L72.3883 72.1858Z" stroke="#58595B" stroke-width="2"/>
<path d="M93.6845 31.7754L97.6538 33.5774L91.7866 46.501C91.5003 47.1316 90.7571 47.4107 90.1265 47.1244L87.299 45.8407L93.6845 31.7754Z" stroke="#58595B" stroke-width="2"/>
<path fill-rule="evenodd" clip-rule="evenodd" d="M91.8898 35.7285H90.7877L89.8797 37.7285H90.9818L91.8898 35.7285ZM95.0633 39.2835V103.984H39.8164V37.7285H77.4325L78.3405 35.7285H38.8164H37.8164V36.7285V104.984V105.984H38.8164H96.0633H97.0633V104.984V36.7285V35.7285H96.6772L95.0633 39.2835Z" fill="#58595B"/>
<path d="M29.4268 36.5059L15.9998 36.5059" stroke="#FF9900" stroke-width="2" stroke-linecap="round" stroke-linejoin="round"/>
<path d="M27.4609 66.9883L17.9667 76.4826" stroke="#FF9900" stroke-width="2" stroke-linecap="round" stroke-linejoin="round"/>
<path d="M117.196 105.863L103.769 105.863" stroke="#FF9900" stroke-width="2" stroke-linecap="round" stroke-linejoin="round"/>
<path d="M115.229 65.8867L105.735 75.381" stroke="#FF9900" stroke-width="2" stroke-linecap="round" stroke-linejoin="round"/>
<path d="M22.7139 42.8887L22.7139 30.1236" stroke="#FF9900" stroke-width="2" stroke-linecap="round" stroke-linejoin="round"/>
<path d="M27.2266 76.248L18.2003 67.2218" stroke="#FF9900" stroke-width="2" stroke-linecap="round" stroke-linejoin="round"/>
<path d="M110.482 112.246L110.482 99.481" stroke="#FF9900" stroke-width="2" stroke-linecap="round" stroke-linejoin="round"/>
<path d="M114.996 75.1484L105.97 66.1222" stroke="#FF9900" stroke-width="2" stroke-linecap="round" stroke-linejoin="round"/>
<rect x="44.3203" y="45.5352" width="14.3117" height="14.3117" stroke="#58595B" stroke-width="2"/>
<rect x="44.3203" y="64.252" width="14.3117" height="14.3117" stroke="#58595B" stroke-width="2"/>
<rect x="44.3203" y="82.9668" width="14.3117" height="14.3117" stroke="#58595B" stroke-width="2"/>
<path d="M47.5732 52.3277L51.3694 56.1238L61.0322 46.4609" stroke="#FF9900" stroke-width="2" stroke-linecap="round"/>
</svg>
