<svg width="102" height="80" viewBox="0 0 102 80" fill="none" xmlns="http://www.w3.org/2000/svg">
<g clip-path="url(#clip0_5778_3530)">
<path d="M100.522 17.0614L51.4969 0.333228C51.2484 0.250415 51 0.250415 50.7516 0.333228L1.06406 19.6285C0.732812 19.7942 0.484375 20.1254 0.484375 20.6223C0.484375 21.0364 0.732813 21.4504 1.14688 21.5332L21.7672 28.5723L21.0219 51.9254C21.0219 52.1739 21.1047 52.5051 21.3531 52.6707C21.6844 53.002 29.5516 60.7035 45.9484 60.7035C46.7766 60.7035 47.6047 60.7035 48.4328 60.6207C66.4031 59.7926 76.4234 52.0082 76.9203 51.677C77.1688 51.5114 77.3344 51.1801 77.3344 50.9317L77.7484 27.5785L100.605 19.0489C101.019 18.8832 101.267 18.552 101.267 18.0551C101.184 17.5582 100.936 17.1442 100.522 17.0614ZM75.2641 50.352C73.2766 51.7598 63.7531 57.8879 48.35 58.6332C33.0297 59.2957 24.7484 52.9192 23.0922 51.5114L23.7547 29.2348L49.1781 37.9301C49.2609 37.9301 49.4266 38.0129 49.5094 38.0129C49.5922 38.0129 49.7578 38.0129 49.8406 37.9301L75.6781 28.241L75.2641 50.352ZM49.5094 35.9426L4.45938 20.5395L51.1656 2.32073L97.2094 18.0551L49.5094 35.9426Z" fill="#58595B"/>
<path d="M96.7122 50.1868V50.104C96.8778 49.7728 97.0435 49.3587 97.2091 48.9446C97.706 47.3712 97.5403 45.7149 96.8778 44.3071C96.1325 42.8165 94.9731 41.8228 93.4825 41.4087C93.3169 41.3259 93.1513 41.3259 93.0685 41.3259L93.731 20.8712C93.731 20.2915 93.3169 19.8774 92.7372 19.7946L50.5028 18.2212C49.9231 18.2212 49.5091 18.6353 49.4263 19.2149C49.4263 19.7946 49.8403 20.2087 50.42 20.2915L91.6606 21.8649L91.081 41.4087C88.9278 41.8228 86.9403 43.479 86.2778 45.8806C85.781 47.454 85.9466 49.1103 86.6091 50.5181C86.9403 51.0978 87.2716 51.6774 87.7685 52.0915L84.7872 78.7571C84.7872 79.0884 84.87 79.4196 85.1185 79.5853C85.2841 79.7509 85.5325 79.8337 85.781 79.8337C85.8638 79.8337 85.8638 79.8337 85.9466 79.8337L98.6997 77.5149C99.1966 77.4321 99.6106 76.9353 99.5278 76.4384L96.7122 50.1868ZM88.0997 46.2946C88.6794 44.3899 90.2528 43.1478 91.9091 43.1478C92.2403 43.1478 92.5716 43.2306 92.82 43.3134C93.731 43.5618 94.5591 44.2243 94.9731 45.2181C95.47 46.2118 95.5528 47.2884 95.2216 48.4478C94.5591 50.6837 92.406 52.0087 90.4185 51.429C89.5075 51.1806 88.6794 50.5181 88.2653 49.5243C87.8513 48.5306 87.7685 47.3712 88.0997 46.2946ZM86.8575 77.5149L89.5903 53.1681C89.6731 53.2509 89.8388 53.2509 89.9216 53.3337C90.4185 53.4993 90.9153 53.5821 91.4122 53.5821C92.6544 53.5821 93.8966 53.1681 94.8903 52.3399L97.3747 75.6931L86.8575 77.5149Z" fill="#FF9900"/>
</g>
<defs>
<clipPath id="clip0_5778_3530">
<rect width="100.7" height="79.5" fill="white" transform="translate(0.484375 0.25)"/>
</clipPath>
</defs>
</svg>
