<svg width="62" height="64" viewBox="0 0 62 64" fill="none" xmlns="http://www.w3.org/2000/svg">
<path d="M35.0914 57.066V60.9785C36.9868 59.6614 38.9083 58.3056 40.686 57.066H35.0914ZM34.0457 64C33.8888 64 33.7189 63.9612 33.5621 63.8838C33.2222 63.703 33 63.3544 33 62.967V56.033C33 55.4649 33.4706 55 34.0457 55H43.9539C44.4114 55 44.8166 55.2841 44.9473 55.7231C45.0911 56.1492 44.9342 56.6141 44.5552 56.8723C41.7187 58.8737 38.0325 61.4433 34.647 63.8063C34.464 63.9354 34.2548 64 34.0457 64Z" fill="#58595B"/>
<mask id="path-2-inside-1_1224_65034" fill="white">
<path d="M33.899 64H1.05974C0.476875 64 0 63.5266 0 62.948V1.05197C0 0.473376 0.476875 0 1.05974 0H43.9403C44.5231 0 45 0.473376 45 1.05197V17.739C45 18.3176 44.5231 18.791 43.9403 18.791C43.3574 18.791 42.8805 18.3176 42.8805 17.739V2.10395H2.10627V61.896H33.5546L42.8805 55.3474V45.6823C42.8805 45.1037 43.3574 44.6304 43.9403 44.6304C44.5231 44.6304 45 45.1037 45 45.6823V55.8866C45 56.2285 44.841 56.5441 44.5496 56.7413L34.5084 63.8027C34.3229 63.9342 34.111 64 33.899 64Z"/>
</mask>
<path d="M33.899 64H1.05974C0.476875 64 0 63.5266 0 62.948V1.05197C0 0.473376 0.476875 0 1.05974 0H43.9403C44.5231 0 45 0.473376 45 1.05197V17.739C45 18.3176 44.5231 18.791 43.9403 18.791C43.3574 18.791 42.8805 18.3176 42.8805 17.739V2.10395H2.10627V61.896H33.5546L42.8805 55.3474V45.6823C42.8805 45.1037 43.3574 44.6304 43.9403 44.6304C44.5231 44.6304 45 45.1037 45 45.6823V55.8866C45 56.2285 44.841 56.5441 44.5496 56.7413L34.5084 63.8027C34.3229 63.9342 34.111 64 33.899 64Z" fill="#58595B"/>
<path d="M42.8805 2.10395H45.8805V-0.896046H42.8805V2.10395ZM2.10627 2.10395V-0.896046H-0.893735V2.10395H2.10627ZM2.10627 61.896H-0.893735V64.896H2.10627V61.896ZM33.5546 61.896V64.896H34.5027L35.2786 64.3512L33.5546 61.896ZM42.8805 55.3474L44.6045 57.8026L45.8805 56.9066V55.3474H42.8805ZM44.5496 56.7413L42.8681 54.2569L42.8459 54.2719L42.8239 54.2874L44.5496 56.7413ZM34.5084 63.8027L32.7826 61.3488L32.7732 61.3555L34.5084 63.8027ZM33.899 61H1.05974V67H33.899V61ZM1.05974 61C2.11294 61 3 61.849 3 62.948H-3C-3 65.2042 -1.15919 67 1.05974 67V61ZM3 62.948V1.05197H-3V62.948H3ZM3 1.05197C3 2.15102 2.11286 3 1.05974 3V-3C-1.15911 -3 -3 -1.20427 -3 1.05197H3ZM1.05974 3H43.9403V-3H1.05974V3ZM43.9403 3C42.8871 3 42 2.15102 42 1.05197H48C48 -1.20427 46.1591 -3 43.9403 -3V3ZM42 1.05197V17.739H48V1.05197H42ZM42 17.739C42 16.6401 42.8871 15.791 43.9403 15.791V21.791C46.1592 21.791 48 19.9952 48 17.739H42ZM43.9403 15.791C44.9933 15.791 45.8805 16.6399 45.8805 17.739H39.8805C39.8805 19.9954 41.7215 21.791 43.9403 21.791V15.791ZM45.8805 17.739V2.10395H39.8805V17.739H45.8805ZM42.8805 -0.896046H2.10627V5.10395H42.8805V-0.896046ZM-0.893735 2.10395V61.896H5.10627V2.10395H-0.893735ZM2.10627 64.896H33.5546V58.896H2.10627V64.896ZM35.2786 64.3512L44.6045 57.8026L41.1565 52.8923L31.8306 59.4409L35.2786 64.3512ZM45.8805 55.3474V45.6823H39.8805V55.3474H45.8805ZM45.8805 45.6823C45.8805 46.7815 44.9933 47.6304 43.9403 47.6304V41.6304C41.7215 41.6304 39.8805 43.426 39.8805 45.6823H45.8805ZM43.9403 47.6304C42.8871 47.6304 42 46.7813 42 45.6823H48C48 43.4262 46.1592 41.6304 43.9403 41.6304V47.6304ZM42 45.6823V55.8866H48V45.6823H42ZM42 55.8866C42 55.2687 42.3058 54.6375 42.8681 54.2569L46.2311 59.2258C47.3763 58.4507 48 57.1883 48 55.8866H42ZM42.8239 54.2874L32.7826 61.3488L36.2341 66.2567L46.2753 59.1953L42.8239 54.2874ZM32.7732 61.3555C33.0896 61.1312 33.4828 61 33.899 61V67C34.7392 67 35.5563 66.7373 36.2436 66.25L32.7732 61.3555Z" fill="#58595B" mask="url(#path-2-inside-1_1224_65034)"/>
<path d="M22.8841 21.987H8.10213C7.49597 21.987 7 21.5203 7 20.9498V7.03728C7 6.46678 7.49597 6 8.10213 6H20.5422C21.1483 6 21.6443 6.46678 21.6443 7.03728C21.6443 7.60778 21.1483 8.07456 20.5422 8.07456H9.20422V19.9255H21.7958V14.8687C21.7958 14.2982 22.2917 13.8315 22.8979 13.8315C23.5041 13.8315 24 14.2982 24 14.8687V20.9627C24 21.5332 23.5041 22 22.8979 22" fill="#58595B"/>
<path d="M22.8841 42.9862H8.10213C7.49597 42.9862 7 42.4903 7 41.8841V27.1021C7 26.496 7.49597 26 8.10213 26H20.5422C21.1483 26 21.6443 26.496 21.6443 27.1021C21.6443 27.7083 21.1483 28.2042 20.5422 28.2042H9.20422V40.7958H21.7958V35.423C21.7958 34.8169 22.2918 34.3209 22.8979 34.3209C23.5041 34.3209 24 34.8169 24 35.423V41.8979C24 42.504 23.5041 43 22.8979 43" fill="#58595B"/>
<path d="M31.4888 39.8817L34.9016 43.4218L53.5241 24.105L50.0984 20.5649L31.4759 39.8817H31.4888ZM34.9016 46C34.6312 46 34.3736 45.8931 34.1675 45.6928L29.2994 40.6431C28.9002 40.229 28.9002 39.5477 29.2994 39.1336L49.3772 18.3072C49.5704 18.1069 49.828 18 50.0984 18C50.3689 18 50.6393 18.1069 50.8325 18.3072L55.7006 23.3569C56.0998 23.771 56.0998 24.4523 55.7006 24.8664L35.6228 45.6928C35.4168 45.9065 35.1592 46 34.8887 46" fill="#58595B"/>
<path d="M51.5112 18.3761L56.6181 23.4891L57.5018 22.6044L52.3949 17.4914L51.5112 18.3761ZM56.6181 26C56.3453 26 56.0853 25.8959 55.8774 25.7008L49.3021 19.1177C48.8993 18.7144 48.8993 18.0509 49.3021 17.6475L51.6542 15.2927C52.044 14.9024 52.7327 14.9024 53.1226 15.2927L59.6979 21.8758C60.1007 22.2791 60.1007 22.9426 59.6979 23.346L57.3458 25.7008C57.1379 25.9089 56.878 26 56.6051 26" fill="#58595B"/>
<path d="M55.3752 16.7295L58.6323 20.3497L59.5049 19.3798C60.2178 18.5874 60.2178 17.317 59.5049 16.5246L58.8167 15.7596C58.1038 14.9672 56.9607 14.9672 56.2479 15.7596L55.3752 16.7295ZM58.6323 22.9863C58.3742 22.9863 58.1284 22.8771 57.9317 22.6721L53.2858 17.5082C52.9047 17.0847 52.9047 16.388 53.2858 15.9645L54.8467 14.2295C56.3216 12.5902 58.7183 12.5902 60.1932 14.2295L60.8938 15.0082C62.3687 16.6476 62.3687 19.3115 60.8938 20.9508L59.3329 22.6858C59.1362 22.9044 58.8904 23 58.6323 23" fill="#58595B"/>
<path d="M30.9375 41.8723L29.1079 46.1773L33.845 44.5146L30.9375 41.8723ZM27.1365 49C26.8386 49 26.555 48.8969 26.3281 48.7036C26.0161 48.42 25.9167 47.9817 26.0728 47.608L29.4483 39.6553C29.5901 39.3331 29.9021 39.0882 30.2709 39.0237C30.6538 38.9464 31.0367 39.0624 31.3062 39.3073L36.6673 44.1794C36.9368 44.4243 37.0503 44.7723 36.9793 45.1204C36.9084 45.4555 36.639 45.739 36.2844 45.8679L27.5478 48.9355C27.4201 48.9871 27.2783 49 27.1365 49Z" fill="#58595B"/>
<path d="M14.9961 18C14.9961 18 14.9451 18 14.9196 18C14.6646 18 14.4223 17.8826 14.2566 17.7L10.2277 12.9775C9.89622 12.5992 9.93449 12.0252 10.2915 11.686C10.6612 11.3468 11.2222 11.386 11.5537 11.7643L14.9323 15.7301L22.4419 7.30277C22.7734 6.92445 23.3343 6.89835 23.7041 7.23754C24.0738 7.57672 24.0993 8.15072 23.7679 8.52904L15.5953 17.7C15.4423 17.8696 15.2383 17.9739 15.0088 18" fill="#F79231"/>
<path d="M14.9961 18C14.9961 18 14.9451 18 14.9196 18C14.6646 18 14.4223 17.8826 14.2566 17.7L10.2277 12.9775C9.89622 12.5992 9.93449 12.0252 10.2915 11.686C10.6612 11.3468 11.2222 11.386 11.5537 11.7643L14.9323 15.7301L22.4419 7.30277C22.7734 6.92445 23.3343 6.89835 23.7041 7.23754C24.0738 7.57672 24.0993 8.15072 23.7679 8.52904L15.5953 17.7C15.4423 17.8696 15.2383 17.9739 15.0088 18H14.9961Z" stroke="#FF9900" stroke-width="0.4275" stroke-miterlimit="10"/>
<path d="M14.9961 38C14.9961 38 14.9451 38 14.9196 38C14.6646 38 14.4223 37.8863 14.2566 37.6731L10.2277 32.5274C9.89622 32.1152 9.93449 31.4898 10.2915 31.1202C10.6612 30.7506 11.2222 30.7932 11.5537 31.1913L14.9323 35.5125L22.4419 26.3299C22.7734 25.9177 23.3343 25.8892 23.7041 26.2588C24.0738 26.6284 24.0993 27.2538 23.7679 27.6661L15.5953 37.6588C15.4423 37.8436 15.2383 37.9573 15.0088 37.9858" fill="#F79231"/>
<path d="M14.9961 38C14.9961 38 14.9451 38 14.9196 38C14.6646 38 14.4223 37.8863 14.2566 37.6731L10.2277 32.5274C9.89622 32.1152 9.93449 31.4898 10.2915 31.1202C10.6612 30.7506 11.2222 30.7932 11.5537 31.1913L14.9323 35.5125L22.4419 26.3299C22.7734 25.9177 23.3343 25.8892 23.7041 26.2588C24.0738 26.6284 24.0993 27.2538 23.7679 27.6661L15.5953 37.6588C15.4423 37.8436 15.2383 37.9573 15.0088 37.9858L14.9961 38Z" stroke="#FF9900" stroke-width="0.4275" stroke-miterlimit="10"/>
</svg>
