<svg width="31" height="27" viewBox="0 0 31 27" fill="none" xmlns="http://www.w3.org/2000/svg">
<path d="M27.5021 6.305C29.1051 6.305 30.4046 5.00551 30.4046 3.4025C30.4046 1.79949 29.1051 0.5 27.5021 0.5C25.8991 0.5 24.5996 1.79949 24.5996 3.4025C24.5996 5.00551 25.8991 6.305 27.5021 6.305Z" fill="#FF9900"/>
<path d="M27.5021 16.4642C29.1051 16.4642 30.4046 15.1647 30.4046 13.5617C30.4046 11.9587 29.1051 10.6592 27.5021 10.6592C25.8991 10.6592 24.5996 11.9587 24.5996 13.5617C24.5996 15.1647 25.8991 16.4642 27.5021 16.4642Z" fill="#FF9900"/>
<path d="M27.5021 26.6234C29.1051 26.6234 30.4046 25.3239 30.4046 23.7209C30.4046 22.1179 29.1051 20.8184 27.5021 20.8184C25.8991 20.8184 24.5996 22.1179 24.5996 23.7209C24.5996 25.3239 25.8991 26.6234 27.5021 26.6234Z" fill="#FF9900"/>
<path d="M22.0996 2.96875H0.999608M22.0996 13.5575H0.999608M22.0996 24.145H0.999608" stroke="#333333" stroke-width="2" stroke-linecap="round"/>
</svg>
