<svg width="17" height="21" viewBox="0 0 17 21" fill="none" xmlns="http://www.w3.org/2000/svg">
<path fill-rule="evenodd" clip-rule="evenodd" d="M2.12499 1.8253H14.875C15.5244 1.8253 16.0555 2.35403 16.0555 3.01196V17.9296C16.0555 18.5876 15.5244 19.1163 14.875 19.1163H2.12499C1.47555 19.1163 0.944442 18.5876 0.944442 17.9296V3.01196C0.944442 2.35403 1.47554 1.8253 2.12499 1.8253ZM14.875 0.880859H2.12499C0.951392 0.880859 0 1.83498 0 3.01196V17.9296C0 19.1066 0.951392 20.0607 2.12499 20.0607H14.875C16.0486 20.0607 17 19.1066 17 17.9296V3.01196C17 1.83498 16.0486 0.880859 14.875 0.880859ZM3.77759 12.098C3.77759 11.7068 4.09472 11.3896 4.48592 11.3896C4.87712 11.3896 5.19425 11.7068 5.19425 12.098C5.19425 12.4892 4.87712 12.8063 4.48592 12.8063C4.09472 12.8063 3.77759 12.4892 3.77759 12.098ZM3.77759 14.9312C3.77759 14.54 4.09472 14.2229 4.48592 14.2229C4.87712 14.2229 5.19425 14.54 5.19425 14.9312C5.19425 15.3224 4.87712 15.6395 4.48592 15.6395C4.09472 15.6395 3.77759 15.3224 3.77759 14.9312ZM8.26383 11.3896C7.87263 11.3896 7.5555 11.7068 7.5555 12.098C7.5555 12.4892 7.87263 12.8063 8.26383 12.8063C8.65503 12.8063 8.97216 12.4892 8.97216 12.098C8.97216 11.7068 8.65503 11.3896 8.26383 11.3896ZM7.5555 14.9312C7.5555 14.54 7.87263 14.2229 8.26383 14.2229C8.65503 14.2229 8.97216 14.54 8.97216 14.9312C8.97216 15.3224 8.65503 15.6395 8.26383 15.6395C7.87263 15.6395 7.5555 15.3224 7.5555 14.9312ZM12.0415 11.3896C11.6503 11.3896 11.3332 11.7068 11.3332 12.098C11.3332 12.4892 11.6503 12.8063 12.0415 12.8063C12.4327 12.8063 12.7499 12.4892 12.7499 12.098C12.7499 11.7068 12.4327 11.3896 12.0415 11.3896ZM11.3332 14.9312C11.3332 14.54 11.6503 14.2229 12.0415 14.2229C12.4327 14.2229 12.7499 14.54 12.7499 14.9312C12.7499 15.3224 12.4327 15.6395 12.0415 15.6395C11.6503 15.6395 11.3332 15.3224 11.3332 14.9312Z" fill="#333333"/>
<rect x="3.30561" y="5.25068" width="10.3889" height="3.77777" rx="1.41666" stroke="#FF9900" stroke-width="0.944442" stroke-linecap="round" stroke-linejoin="round"/>
</svg>
