<svg width="32" height="32" viewBox="0 0 32 32" fill="none" xmlns="http://www.w3.org/2000/svg">
<path d="M15.2608 25.0002H7.33333C6.71449 25.0002 6.121 24.7543 5.68342 24.3167C5.24583 23.8792 5 23.2857 5 22.6668L5 8.66683C5 8.04799 5.24583 7.4545 5.68342 7.01691C6.121 6.57933 6.71449 6.3335 7.33333 6.3335L21.3333 6.3335C21.9522 6.3335 22.5457 6.57933 22.9832 7.01691C23.4208 7.4545 23.6667 8.04799 23.6667 8.66683V13.3335" stroke="#333333" stroke-linecap="round" stroke-linejoin="round"/>
<path d="M22.5007 26.1668C25.078 26.1668 27.1673 24.0775 27.1673 21.5002C27.1673 18.9228 25.078 16.8335 22.5007 16.8335C19.9233 16.8335 17.834 18.9228 17.834 21.5002C17.834 24.0775 19.9233 26.1668 22.5007 26.1668Z" stroke="#FF9900" stroke-linecap="round" stroke-linejoin="round"/>
<path d="M19 4V8.66667" stroke="#333333" stroke-linecap="round" stroke-linejoin="round"/>
<path d="M9.66602 4V8.66667" stroke="#333333" stroke-linecap="round" stroke-linejoin="round"/>
<path d="M5 13.3335L23.6667 13.3335" stroke="#333333" stroke-linecap="round" stroke-linejoin="round"/>
<path d="M22.5 19.7451V21.4998L23.6667 22.6665" stroke="#FF9900" stroke-linecap="round" stroke-linejoin="round"/>
</svg>
