<svg width="93" height="93" viewBox="0 0 93 93" fill="none" xmlns="http://www.w3.org/2000/svg">
<path fill-rule="evenodd" clip-rule="evenodd" d="M24.6241 26.8704C25.638 26.5662 26.7065 27.1415 27.0108 28.1554L31.491 43.0859C31.7952 44.0998 31.2199 45.1683 30.2061 45.4725C29.1922 45.7768 28.1236 45.2015 27.8194 44.1876L23.3392 29.2571C23.0349 28.2432 23.6102 27.1747 24.6241 26.8704ZM47.5217 62.7955C47.8258 61.7816 48.8943 61.2062 49.9082 61.5103L64.8457 65.9905C65.8597 66.2946 66.4351 67.3631 66.131 68.377C65.8269 69.3909 64.7584 69.9663 63.7445 69.6622L48.8069 65.182C47.793 64.8779 47.2176 63.8094 47.5217 62.7955Z" fill="#9B9DA0"/>
<path fill-rule="evenodd" clip-rule="evenodd" d="M66.9782 26.0223C67.7267 26.7708 67.7267 27.9844 66.9782 28.7329L46.7417 48.9694C45.9932 49.7179 44.7796 49.7179 44.0311 48.9694C43.2826 48.2209 43.2826 47.0073 44.0311 46.2588L64.2676 26.0223C65.0161 25.2738 66.2297 25.2738 66.9782 26.0223Z" fill="#9B9DA0"/>
<path fill-rule="evenodd" clip-rule="evenodd" d="M23.6602 20.306C21.8077 20.306 20.306 21.8077 20.306 23.6602C20.306 25.5126 21.8077 27.0143 23.6602 27.0143C25.5126 27.0143 27.0143 25.5126 27.0143 23.6602C27.0143 21.8077 25.5126 20.306 23.6602 20.306ZM16.4727 23.6602C16.4727 19.6906 19.6906 16.4727 23.6602 16.4727C27.6297 16.4727 30.8477 19.6906 30.8477 23.6602C30.8477 27.6297 27.6297 30.8477 23.6602 30.8477C19.6906 30.8477 16.4727 27.6297 16.4727 23.6602Z" fill="#FF9900"/>
<path fill-rule="evenodd" clip-rule="evenodd" d="M69.3408 20.306C67.4884 20.306 65.9867 21.8077 65.9867 23.6602C65.9867 25.5126 67.4884 27.0143 69.3408 27.0143C71.1933 27.0143 72.695 25.5126 72.695 23.6602C72.695 21.8077 71.1933 20.306 69.3408 20.306ZM62.1533 23.6602C62.1533 19.6906 65.3713 16.4727 69.3408 16.4727C73.3104 16.4727 76.5283 19.6906 76.5283 23.6602C76.5283 27.6297 73.3104 30.8477 69.3408 30.8477C65.3713 30.8477 62.1533 27.6297 62.1533 23.6602Z" fill="#FF9900"/>
<path fill-rule="evenodd" clip-rule="evenodd" d="M69.3408 65.9837C67.4884 65.9837 65.9867 67.4854 65.9867 69.3379C65.9867 71.1903 67.4884 72.6921 69.3408 72.6921C71.1933 72.6921 72.695 71.1903 72.695 69.3379C72.695 67.4854 71.1933 65.9837 69.3408 65.9837ZM62.1533 69.3379C62.1533 65.3683 65.3713 62.1504 69.3408 62.1504C73.3104 62.1504 76.5283 65.3683 76.5283 69.3379C76.5283 73.3074 73.3104 76.5254 69.3408 76.5254C65.3713 76.5254 62.1533 73.3074 62.1533 69.3379Z" fill="#FF9900"/>
<path fill-rule="evenodd" clip-rule="evenodd" d="M34.2018 44.8997C26.5274 44.8997 20.306 51.1211 20.306 58.7956C20.306 66.47 26.5274 72.6914 34.2018 72.6914C41.8763 72.6914 48.0977 66.47 48.0977 58.7956C48.0977 51.1211 41.8763 44.8997 34.2018 44.8997ZM16.4727 58.7956C16.4727 49.004 24.4103 41.0664 34.2018 41.0664C43.9934 41.0664 51.931 49.004 51.931 58.7956C51.931 68.5871 43.9934 76.5247 34.2018 76.5247C24.4103 76.5247 16.4727 68.5871 16.4727 58.7956Z" fill="#9B9DA0"/>
</svg>
