<svg width="93" height="93" viewBox="0 0 93 93" fill="none" xmlns="http://www.w3.org/2000/svg">
<path fill-rule="evenodd" clip-rule="evenodd" d="M54.4859 39.1497C47.7818 39.1497 42.347 44.5845 42.347 51.2886C42.347 57.9928 47.7818 63.4275 54.4859 63.4275C61.19 63.4275 66.6248 57.9928 66.6248 51.2886C66.6248 44.5845 61.19 39.1497 54.4859 39.1497ZM38.5137 51.2886C38.5137 42.4674 45.6647 35.3164 54.4859 35.3164C63.3071 35.3164 70.4581 42.4674 70.4581 51.2886C70.4581 60.1098 63.3071 67.2609 54.4859 67.2609C45.6647 67.2609 38.5137 60.1098 38.5137 51.2886Z" fill="#FF9900"/>
<path fill-rule="evenodd" clip-rule="evenodd" d="M65.4295 62.2313C66.178 61.4828 67.3916 61.4828 68.1401 62.2313L76.9248 71.016C77.6733 71.7645 77.6733 72.9781 76.9248 73.7266C76.1763 74.4751 74.9628 74.4751 74.2143 73.7266L65.4295 64.9419C64.681 64.1934 64.681 62.9798 65.4295 62.2313Z" fill="#FF9900"/>
<path fill-rule="evenodd" clip-rule="evenodd" d="M13.917 19.6647C13.917 18.6062 14.7751 17.748 15.8337 17.748H72.0559C73.1144 17.748 73.9725 18.6062 73.9725 19.6647C73.9725 20.7233 73.1144 21.5814 72.0559 21.5814H15.8337C14.7751 21.5814 13.917 20.7233 13.917 19.6647Z" fill="#9B9DA0"/>
<path fill-rule="evenodd" clip-rule="evenodd" d="M13.917 40.7487C13.917 39.6902 14.7751 38.832 15.8337 38.832H29.8892C30.9478 38.832 31.8059 39.6902 31.8059 40.7487C31.8059 41.8072 30.9478 42.6654 29.8892 42.6654H15.8337C14.7751 42.6654 13.917 41.8072 13.917 40.7487Z" fill="#9B9DA0"/>
<path fill-rule="evenodd" clip-rule="evenodd" d="M13.917 61.8307C13.917 60.7722 14.7751 59.9141 15.8337 59.9141H29.8892C30.9478 59.9141 31.8059 60.7722 31.8059 61.8307C31.8059 62.8893 30.9478 63.7474 29.8892 63.7474H15.8337C14.7751 63.7474 13.917 62.8893 13.917 61.8307Z" fill="#9B9DA0"/>
</svg>
