<svg width="85" height="85" viewBox="0 0 85 85" fill="none" xmlns="http://www.w3.org/2000/svg">
<path fill-rule="evenodd" clip-rule="evenodd" d="M9.59061 45.3671C9.94787 44.6581 10.8122 44.373 11.5212 44.7303C21.1299 49.5721 31.7397 52.0942 42.4993 52.0942C53.259 52.0942 63.8688 49.5721 73.4775 44.7303C74.1864 44.373 75.0508 44.6581 75.4081 45.3671C75.7653 46.0761 75.4802 46.9405 74.7712 47.2977C64.7613 52.3418 53.7083 54.9692 42.4993 54.9692C31.2903 54.9692 20.2374 52.3418 10.2275 47.2977C9.51848 46.9405 9.23335 46.0761 9.59061 45.3671Z" fill="#FF9900"/>
<path fill-rule="evenodd" clip-rule="evenodd" d="M17.9028 26.3672C14.8154 26.3672 12.3125 28.87 12.3125 31.9575V63.5825C12.3125 66.6699 14.8154 69.1727 17.9028 69.1727H67.0972C70.1846 69.1727 72.6875 66.6699 72.6875 63.5825V31.9575C72.6875 28.87 70.1846 26.3672 67.0972 26.3672H17.9028ZM9.4375 31.9575C9.4375 27.2822 13.2275 23.4922 17.9028 23.4922H67.0972C71.7725 23.4922 75.5625 27.2822 75.5625 31.9575V63.5825C75.5625 68.2577 71.7725 72.0477 67.0972 72.0477H17.9028C13.2275 72.0477 9.4375 68.2577 9.4375 63.5825V31.9575Z" fill="#9B9DA0"/>
<path fill-rule="evenodd" clip-rule="evenodd" d="M35.4721 12.3105C33.9895 12.3105 32.5676 12.8995 31.5192 13.9479C30.4708 14.9963 29.8818 16.4182 29.8818 17.9008V24.9286C29.8818 25.7225 29.2382 26.3661 28.4443 26.3661C27.6504 26.3661 27.0068 25.7225 27.0068 24.9286V17.9008C27.0068 15.6557 27.8987 13.5025 29.4863 11.915C31.0738 10.3274 33.227 9.43555 35.4721 9.43555H49.5277C51.7728 9.43555 53.926 10.3274 55.5135 11.915C57.1011 13.5025 57.993 15.6557 57.993 17.9008V24.9286C57.993 25.7225 57.3494 26.3661 56.5554 26.3661C55.7615 26.3661 55.1179 25.7225 55.1179 24.9286V17.9008C55.1179 16.4182 54.529 14.9963 53.4806 13.9479C52.4322 12.8995 51.0103 12.3105 49.5277 12.3105H35.4721Z" fill="#9B9DA0"/>
<path fill-rule="evenodd" clip-rule="evenodd" d="M42.5 41.0605C43.2939 41.0605 43.9375 41.7041 43.9375 42.498V42.5332C43.9375 43.3271 43.2939 43.9707 42.5 43.9707C41.7061 43.9707 41.0625 43.3271 41.0625 42.5332V42.498C41.0625 41.7041 41.7061 41.0605 42.5 41.0605Z" fill="#FF9900"/>
</svg>
