<svg width="93" height="93" viewBox="0 0 93 93" fill="none" xmlns="http://www.w3.org/2000/svg">
<path fill-rule="evenodd" clip-rule="evenodd" d="M18.4014 18.4014C19.33 17.4728 20.5894 16.9512 21.9026 16.9512H57.0415C58.3546 16.9512 59.614 17.4728 60.5426 18.4014C61.4712 19.33 61.9928 20.5894 61.9928 21.9026V23.979H71.097C72.4102 23.979 73.6696 24.5006 74.5982 25.4292C75.5267 26.3577 76.0484 27.6172 76.0484 28.9303V67.5831C76.0484 69.8283 75.1565 71.9814 73.569 73.569C71.9814 75.1565 69.8282 76.0484 67.5831 76.0484H28.9303C25.7533 76.0484 22.7063 74.7863 20.4598 72.5398C18.2133 70.2933 16.9512 67.2463 16.9512 64.0692V21.9026C16.9512 20.5894 17.4728 19.33 18.4014 18.4014ZM61.2262 73.1734H28.9303C26.5158 73.1734 24.2001 72.2142 22.4927 70.5068C20.7854 68.7995 19.8262 66.4838 19.8262 64.0692V21.9026C19.8262 21.3519 20.0449 20.8237 20.4343 20.4343C20.8237 20.0449 21.3519 19.8262 21.9026 19.8262H57.0415C57.5921 19.8262 58.1203 20.0449 58.5097 20.4343C58.8991 20.8237 59.1178 21.3519 59.1178 21.9026V67.5831C59.1178 69.6469 59.8714 71.6329 61.2262 73.1734ZM61.9928 26.854V67.5831C61.9928 69.0658 62.5818 70.4877 63.6302 71.536C64.6786 72.5844 66.1005 73.1734 67.5831 73.1734C69.0657 73.1734 70.4877 72.5844 71.536 71.536C72.5844 70.4877 73.1734 69.0658 73.1734 67.5831V28.9303C73.1734 28.3796 72.9546 27.8515 72.5652 27.4621C72.1758 27.0727 71.6477 26.854 71.097 26.854H61.9928Z" fill="#9B9DA0"/>
<path fill-rule="evenodd" clip-rule="evenodd" d="M31.0068 32.4414C31.0068 31.6475 31.6504 31.0039 32.4443 31.0039H46.4999C47.2938 31.0039 47.9374 31.6475 47.9374 32.4414C47.9374 33.2353 47.2938 33.8789 46.4999 33.8789H32.4443C31.6504 33.8789 31.0068 33.2353 31.0068 32.4414Z" fill="#FF9900"/>
<path fill-rule="evenodd" clip-rule="evenodd" d="M31.0068 46.498C31.0068 45.7041 31.6504 45.0605 32.4443 45.0605H46.4999C47.2938 45.0605 47.9374 45.7041 47.9374 46.498C47.9374 47.292 47.2938 47.9355 46.4999 47.9355H32.4443C31.6504 47.9355 31.0068 47.292 31.0068 46.498Z" fill="#FF9900"/>
<path fill-rule="evenodd" clip-rule="evenodd" d="M31.0068 60.5547C31.0068 59.7608 31.6504 59.1172 32.4443 59.1172H46.4999C47.2938 59.1172 47.9374 59.7608 47.9374 60.5547C47.9374 61.3486 47.2938 61.9922 46.4999 61.9922H32.4443C31.6504 61.9922 31.0068 61.3486 31.0068 60.5547Z" fill="#FF9900"/>
</svg>
