<svg width="93" height="93" viewBox="0 0 93 93" fill="none" xmlns="http://www.w3.org/2000/svg">
<path fill-rule="evenodd" clip-rule="evenodd" d="M43.466 16.791C42.9153 16.791 42.3872 17.0098 41.9978 17.3992C41.6084 17.7886 41.3896 18.3167 41.3896 18.8674V39.9507C41.3896 40.5014 41.6084 41.0296 41.9978 41.419C42.3872 41.8084 42.9153 42.0271 43.466 42.0271H68.0633C68.4445 42.0271 68.8101 42.1786 69.0797 42.4482L77.1674 50.5359V18.8674C77.1674 18.3167 76.9487 17.7886 76.5593 17.3992C76.1699 17.0098 75.6417 16.791 75.091 16.791H43.466ZM39.9649 15.3662C40.8934 14.4377 42.1528 13.916 43.466 13.916H75.091C76.4042 13.916 77.6636 14.4377 78.5922 15.3662C79.5208 16.2948 80.0424 17.5542 80.0424 18.8674V54.0063C80.0424 54.5877 79.6922 55.1119 79.155 55.3344C78.6179 55.5569 77.9996 55.4339 77.5885 55.0228L67.4678 44.9021H43.466C42.1528 44.9021 40.8934 44.3805 39.9649 43.4519C39.0363 42.5233 38.5146 41.2639 38.5146 39.9507V18.8674C38.5146 17.5542 39.0363 16.2948 39.9649 15.3662Z" fill="#9B9DA0"/>
<path fill-rule="evenodd" clip-rule="evenodd" d="M18.8684 41.3887C18.3177 41.3887 17.7896 41.6074 17.4002 41.9968C17.0108 42.3862 16.792 42.9144 16.792 43.4651V75.1335L24.8797 67.0458C25.1493 66.7762 25.5149 66.6248 25.8962 66.6248H50.4934C51.0441 66.6248 51.5722 66.406 51.9616 66.0166C52.351 65.6272 52.5698 65.0991 52.5698 64.5484V57.5206C52.5698 56.7267 53.2134 56.0831 54.0073 56.0831C54.8012 56.0831 55.4448 56.7267 55.4448 57.5206V64.5484C55.4448 65.8616 54.9231 67.121 53.9945 68.0496C53.066 68.9781 51.8066 69.4998 50.4934 69.4998H26.4916L16.371 79.6204C15.9598 80.0315 15.3415 80.1545 14.8044 79.932C14.2672 79.7095 13.917 79.1854 13.917 78.604V43.4651C13.917 42.1519 14.4387 40.8925 15.3672 39.9639C16.2958 39.0353 17.5552 38.5137 18.8684 38.5137H25.8962C26.6901 38.5137 27.3337 39.1573 27.3337 39.9512C27.3337 40.7451 26.6901 41.3887 25.8962 41.3887H18.8684Z" fill="#FF9900"/>
</svg>
