<svg width="24" height="23" viewBox="0 0 24 23" fill="none" xmlns="http://www.w3.org/2000/svg">
<path d="M1.95682 19.5L1.95489 19.5C1.89274 19.5002 1.83156 19.4887 1.77502 19.4664C1.71851 19.4442 1.66836 19.4119 1.62694 19.3724L1.28183 19.7342L1.62694 19.3724C1.58556 19.3329 1.55377 19.2871 1.53239 19.238C1.51115 19.1892 1.50033 19.1377 1.5 19.0861V2.91394C1.50033 2.86232 1.51115 2.81076 1.53239 2.76199C1.55377 2.71292 1.58556 2.66707 1.62694 2.6276C1.66836 2.58809 1.71852 2.55583 1.77503 2.53358C1.83156 2.51132 1.89274 2.49976 1.95489 2.5V2.50001H1.95682L16.0432 2.50001L16.0451 2.5C16.1073 2.49976 16.1684 2.51132 16.225 2.53358C16.2815 2.55583 16.3316 2.58809 16.3731 2.6276C16.4144 2.66707 16.4462 2.71292 16.4676 2.76199C16.4888 2.81074 16.4997 2.86228 16.5 2.91387V19.0861C16.4997 19.1377 16.4888 19.1893 16.4676 19.238C16.4462 19.2871 16.4144 19.3329 16.3731 19.3724C16.3316 19.4119 16.2815 19.4442 16.225 19.4664C16.1684 19.4887 16.1073 19.5002 16.0451 19.5H16.0432L1.95682 19.5Z" stroke="#333333"/>
<path d="M4.59801 16.5L4.59595 16.5C4.58518 16.5 4.5742 16.4979 4.56352 16.4934C4.55281 16.4889 4.54224 16.482 4.53274 16.4723L4.1766 16.8224L4.53274 16.4723C4.52322 16.4626 4.51499 16.4504 4.50913 16.4361C4.50334 16.4219 4.50014 16.4063 4.5 16.3902V5.6098C4.50014 5.59372 4.50334 5.5781 4.50913 5.56392C4.51499 5.54958 4.52322 5.53737 4.53274 5.52768C4.54224 5.51801 4.55281 5.51105 4.56352 5.50656C4.5742 5.50207 4.58518 5.49996 4.59595 5.5L4.59595 5.5H4.59801L13.402 5.50001L13.404 5.5C13.4148 5.49996 13.4258 5.50207 13.4365 5.50656C13.4472 5.51105 13.4578 5.51801 13.4673 5.52768C13.4768 5.53737 13.485 5.54958 13.4909 5.56392C13.4967 5.5781 13.4999 5.59372 13.5 5.6098V16.3902C13.4999 16.4063 13.4967 16.4219 13.4909 16.4361C13.485 16.4504 13.4768 16.4626 13.4673 16.4723C13.4578 16.482 13.4472 16.4889 13.4365 16.4934C13.4258 16.4979 13.4148 16.5 13.4041 16.5H13.402L4.59801 16.5Z" stroke="#333333"/>
<path d="M21 5.6395C21 5.28632 20.7761 5 20.5 5C20.2239 5 20 5.28632 20 5.6395V16.3605C20 16.7137 20.2239 17 20.5 17C20.7761 17 21 16.7137 21 16.3605V5.6395Z" fill="#FF9900"/>
<path d="M19 4.60889C19 4.27261 18.7761 4 18.5 4C18.2239 4 18 4.27261 18 4.60889V17.3911C18 17.7274 18.2239 18 18.5 18C18.7761 18 19 17.7274 19 17.3911V4.60889Z" fill="#FF9900"/>
</svg>
