<svg width="23" height="23" viewBox="0 0 23 23" fill="none" xmlns="http://www.w3.org/2000/svg">
<circle cx="11.5" cy="11.5" r="11.5" fill="white"/>
<path d="M14.1906 13.6404C13.7092 13.0562 13.0674 12.618 12.586 12.0337L12.4255 11.8876C12.4255 10.8652 12.4255 9.69663 12.4255 8.67416V7.21348C12.4255 6.48315 12.4255 5.75281 12.4255 5.02247C12.4255 4.73034 12.2651 4.4382 12.1046 4.29213C11.9441 4 11.6232 4 11.3023 4C10.8209 4.14607 10.5 4.4382 10.5 5.02247V9.55056C10.5 10.427 10.5 11.3034 10.5 12.1798C10.5 12.618 10.6605 12.9101 10.9814 13.3483C11.4628 13.6404 11.9441 14.0787 12.4255 14.5169L13.5488 15.5393C14.0301 15.9775 14.3511 16.2697 14.8324 16.7079C14.9929 16.8539 15.3138 17 15.4743 17C15.6347 17 15.6347 17 15.7952 17C16.1161 16.8539 16.4371 16.7079 16.4371 16.4157C16.5975 16.1236 16.437 15.8315 16.1161 15.5393C15.6347 14.809 14.8324 14.2247 14.1906 13.6404Z" fill="#C05602"/>
</svg>
