<svg width="23" height="24" viewBox="0 0 23 24" fill="none" xmlns="http://www.w3.org/2000/svg">
<circle cx="11.5" cy="12.3086" r="11.5" fill="#C05602"/>
<path d="M14.1906 14.449C13.7092 13.8648 13.0674 13.4266 12.586 12.8423L12.4255 12.6962C12.4255 11.6738 12.4255 10.5052 12.4255 9.48275V8.02208C12.4255 7.29174 12.4255 6.5614 12.4255 5.83107C12.4255 5.53893 12.2651 5.2468 12.1046 5.10073C11.9441 4.80859 11.6232 4.80859 11.3023 4.80859C10.8209 4.95466 10.5 5.2468 10.5 5.83107V10.3592C10.5 11.2356 10.5 12.112 10.5 12.9884C10.5 13.4266 10.6605 13.7187 10.9814 14.1569C11.4628 14.449 11.9441 14.8872 12.4255 15.3254L13.5488 16.3479C14.0301 16.7861 14.3511 17.0783 14.8324 17.5165C14.9929 17.6625 15.3138 17.8086 15.4743 17.8086C15.6347 17.8086 15.6347 17.8086 15.7952 17.8086C16.1161 17.6625 16.4371 17.5165 16.4371 17.2243C16.5975 16.9322 16.437 16.6401 16.1161 16.3479C15.6347 15.6176 14.8324 15.0333 14.1906 14.449Z" fill="white"/>
</svg>
