<svg width="20" height="20" viewBox="0 0 20 20" fill="none" xmlns="http://www.w3.org/2000/svg">
<path d="M10.1265 0C4.72854 0 0.410156 4.26221 0.410156 9.62042C0.410156 14.9786 4.60859 19.3626 9.88662 19.4844H10.0066C12.5256 19.4844 14.9247 18.5102 16.7241 16.6835C18.5234 14.8568 19.603 12.4213 19.603 9.7422C19.603 4.38399 15.5245 0.121777 10.1265 0ZM18.1635 9.7422C18.1635 11.9342 17.3238 14.0044 15.7644 15.5875C14.205 17.1706 12.1658 18.0231 10.0066 18.0231C5.56823 18.0231 1.84962 14.248 1.84962 9.7422C1.84962 7.5502 2.68931 5.47998 4.24872 3.89688C5.80814 2.31377 7.84738 1.46133 10.0066 1.46133C12.1658 1.46133 14.205 2.31377 15.7644 3.89688C17.3238 5.47998 18.1635 7.5502 18.1635 9.7422Z" fill="#333333"/>
<path d="M12.0461 10.9602C11.6862 10.4731 11.2064 10.1077 10.8465 9.62061L10.7266 9.49883C10.7266 8.64639 10.7266 7.67217 10.7266 6.81973V5.60195C10.7266 4.99307 10.7266 4.38418 10.7266 3.77529C10.7266 3.53174 10.6066 3.28818 10.4867 3.16641C10.3667 2.92285 10.1268 2.92285 9.88689 2.92285C9.52702 3.04463 9.28711 3.28818 9.28711 3.77529V7.55039C9.28711 8.28106 9.28711 9.01172 9.28711 9.74239C9.28711 10.1077 9.40706 10.3513 9.64697 10.7166C10.0068 10.9602 10.3667 11.3255 10.7266 11.6908L11.5663 12.5433C11.9261 12.9086 12.166 13.1522 12.5259 13.5175C12.6459 13.6393 12.8858 13.761 13.0057 13.761C13.1257 13.761 13.1257 13.761 13.2456 13.761C13.4855 13.6393 13.7255 13.5175 13.7255 13.2739C13.8454 13.0304 13.7255 12.7868 13.4855 12.5433C13.1257 11.9344 12.5259 11.4473 12.0461 10.9602Z" fill="#333333"/>
</svg>
