<svg width="103" height="103" viewBox="0 0 103 103" fill="none" xmlns="http://www.w3.org/2000/svg">
<path fill-rule="evenodd" clip-rule="evenodd" d="M15.4059 54.6829C15.8025 53.8958 16.762 53.5793 17.549 53.9759C28.2153 59.3507 39.9929 62.1504 51.9369 62.1504C63.8808 62.1504 75.6585 59.3507 86.3248 53.9759C87.1118 53.5793 88.0713 53.8958 88.4679 54.6829C88.8644 55.4699 88.5479 56.4294 87.7609 56.826C76.6492 62.4252 64.3796 65.3419 51.9369 65.3419C39.4941 65.3419 27.2246 62.4252 16.1129 56.826C15.3258 56.4294 15.0093 55.4699 15.4059 54.6829Z" fill="#FF9900"/>
<path fill-rule="evenodd" clip-rule="evenodd" d="M24.6322 33.5923C21.2049 33.5923 18.4266 36.3707 18.4266 39.7979V74.9039C18.4266 78.3311 21.2049 81.1095 24.6322 81.1095H79.2414C82.6687 81.1095 85.447 78.3311 85.447 74.9039V39.7979C85.447 36.3707 82.6687 33.5923 79.2414 33.5923H24.6322ZM15.2351 39.7979C15.2351 34.6081 19.4423 30.4009 24.6322 30.4009H79.2414C84.4313 30.4009 88.6385 34.6081 88.6385 39.7979V74.9039C88.6385 80.0937 84.4313 84.3009 79.2414 84.3009H24.6322C19.4423 84.3009 15.2351 80.0937 15.2351 74.9039V39.7979Z" fill="#9B9DA0"/>
<path fill-rule="evenodd" clip-rule="evenodd" d="M44.1354 17.9883C42.4896 17.9883 40.9111 18.6421 39.7474 19.8059C38.5836 20.9697 37.9298 22.5481 37.9298 24.1939V31.9952C37.9298 32.8765 37.2154 33.591 36.3341 33.591C35.4528 33.591 34.7383 32.8765 34.7383 31.9952V24.1939C34.7383 21.7017 35.7284 19.3115 37.4907 17.5492C39.253 15.7869 41.6431 14.7969 44.1354 14.7969H59.738C62.2303 14.7969 64.6205 15.7869 66.3827 17.5492C68.145 19.3115 69.1351 21.7017 69.1351 24.1939V31.9952C69.1351 32.8765 68.4207 33.591 67.5394 33.591C66.6581 33.591 65.9436 32.8765 65.9436 31.9952V24.1939C65.9436 22.5481 65.2898 20.9697 64.1261 19.8059C62.9623 18.6421 61.3839 17.9883 59.738 17.9883H44.1354Z" fill="#9B9DA0"/>
<path fill-rule="evenodd" clip-rule="evenodd" d="M51.9368 49.9028C52.8181 49.9028 53.5325 50.6173 53.5325 51.4986V51.5376C53.5325 52.4189 52.8181 53.1333 51.9368 53.1333C51.0555 53.1333 50.3411 52.4189 50.3411 51.5376V51.4986C50.3411 50.6173 51.0555 49.9028 51.9368 49.9028Z" fill="#FF9900"/>
</svg>
