<svg width="103" height="103" viewBox="0 0 103 103" fill="none" xmlns="http://www.w3.org/2000/svg">
<g clip-path="url(#clip0_12_574)">
<g clip-path="url(#clip1_12_574)">
<path d="M68.1842 19.0052V39.8947L60.0605 34.6724L51.9368 39.8947V19.0052" stroke="#FF9900" stroke-width="4.25527" stroke-linecap="round" stroke-linejoin="round"/>
<path d="M39.171 17.4578V94.0526M26.4052 17.4578H73.2131C75.4703 17.4578 77.635 18.3545 79.231 19.9505C80.827 21.5465 81.7237 23.7112 81.7237 25.9684V77.0316C81.7237 79.2887 80.827 81.4534 79.231 83.0494C77.635 84.6455 75.4703 85.5421 73.2131 85.5421H26.4052C25.2766 85.5421 24.1943 85.0938 23.3963 84.2958C22.5983 83.4977 22.1499 82.4154 22.1499 81.2868V21.7131C22.1499 20.5845 22.5983 19.5022 23.3963 18.7042C24.1943 17.9061 25.2766 17.4578 26.4052 17.4578Z" stroke="#9B9DA0" stroke-width="4.25527" stroke-linecap="round" stroke-linejoin="round"/>
</g>
</g>
<defs>
<clipPath id="clip0_12_574">
<rect width="102.126" height="102.126" fill="white" transform="translate(0.873596 0.436768)"/>
</clipPath>
<clipPath id="clip1_12_574">
<rect width="102.126" height="102.126" fill="white" transform="translate(0.873596 0.436768)"/>
</clipPath>
</defs>
</svg>
