<svg width="103" height="103" viewBox="0 0 103 103" fill="none" xmlns="http://www.w3.org/2000/svg">
<g clip-path="url(#clip0_12_570)">
<path d="M52.3624 89.7974C49.1709 89.7974 45.7667 89.3719 42.5752 88.5208C35.9796 86.8187 29.8094 83.2017 24.9159 78.3082C20.0223 73.4146 16.6181 67.2445 14.7032 60.6488C13.0011 54.0531 13.0011 46.8192 14.916 40.2235C16.8309 33.6279 20.4479 27.4577 25.5542 22.7769C30.6605 18.0961 36.8306 14.9047 43.6391 13.2026H43.8518C44.4901 13.2026 45.3412 13.2026 45.9795 13.4153C46.6177 13.6281 47.256 13.8409 47.8943 14.4792C48.5326 14.9047 48.9581 15.543 49.1709 16.1813C49.5964 16.8196 49.8092 17.4578 49.8092 18.3089V47.2447C49.8092 48.9468 50.4475 50.6489 51.7241 51.9255C53.0006 53.2021 54.49 53.8404 56.4049 53.8404H84.4896C85.979 53.8404 87.4683 54.4787 88.5321 55.5425C89.5959 56.6063 90.2342 58.0956 90.2342 59.585C90.2342 59.7977 90.2342 59.7977 90.2342 60.0105C88.7449 66.8189 85.3407 72.9891 80.6599 77.8826C75.9791 82.9889 69.8089 86.6059 63.2133 88.5208C59.5963 89.3719 55.9793 89.7974 52.3624 89.7974ZM44.2773 16.6068C38.1072 18.0961 32.5754 21.0748 28.1073 25.3301C23.6393 29.5854 20.2351 35.1172 18.533 41.2873C16.8309 47.2447 16.6181 53.8404 18.3202 59.7977C19.8096 65.9679 23.001 71.4997 27.469 75.9678C31.9371 80.4358 37.4689 83.6272 43.6391 85.1166C49.8092 86.6059 56.1921 86.6059 62.1495 84.9038C68.1068 83.2017 73.6387 79.7975 78.1067 75.3295C82.362 70.8614 85.3407 65.3296 86.83 59.1595C86.83 58.5212 86.6172 58.0956 86.1917 57.6701C85.7662 57.2446 85.1279 57.0318 84.4896 57.0318H56.4049C53.8517 57.0318 51.2985 55.968 49.3837 54.0531C47.4688 52.1383 46.405 49.5851 46.405 47.0319V18.3089C46.405 18.3089 46.405 17.8834 46.1922 17.6706C45.9795 17.4578 45.9795 17.2451 45.7667 17.0323C45.5539 16.8196 45.3412 16.8196 45.1284 16.6068C44.7029 16.6068 44.4901 16.6068 44.2773 16.6068Z" fill="#9B9DA0"/>
<path d="M87.2539 40.6488H68.7434C67.2541 40.6488 65.7648 40.0105 64.7009 38.9467C63.6371 37.8828 62.9988 36.3935 62.9988 34.9041V16.181C62.9988 15.5427 63.2116 15.1172 63.6371 14.6916C64.0627 14.2661 64.7009 14.2661 65.1265 14.4789C70.6583 16.3937 75.5519 19.5852 79.5944 23.6277C83.6369 27.6702 86.8283 32.7765 88.7432 38.0956C88.956 38.5211 88.7432 39.1594 88.5304 39.5849C88.3177 40.2232 87.8921 40.6488 87.2539 40.6488ZM66.4031 18.7341V34.6914C66.4031 35.3297 66.6158 35.968 67.0413 36.3935C67.4669 36.819 68.1052 37.0318 68.7434 37.0318H84.7007C82.9986 32.9893 80.4454 29.1595 77.254 26.1808C74.0625 22.9894 70.4456 20.4362 66.4031 18.7341Z" fill="#FF9900"/>
</g>
<defs>
<clipPath id="clip0_12_570">
<rect width="76.5948" height="76.5948" fill="white" transform="translate(13.6394 13.2026)"/>
</clipPath>
</defs>
</svg>
