<svg width="103" height="103" viewBox="0 0 103 103" fill="none" xmlns="http://www.w3.org/2000/svg">
<g clip-path="url(#clip0_12_566)">
<path d="M52.3607 89.7974C51.9351 89.7974 51.5096 89.5847 51.0841 89.3719L37.8927 76.1806C37.2545 75.5423 37.2545 74.4785 37.8927 73.8402C38.531 73.2019 39.5949 73.2019 40.2331 73.8402L52.1479 85.7549L85.1262 52.9894L85.339 52.7766C87.2538 50.8617 88.9559 48.5213 90.0198 45.7554C91.0836 42.9895 91.7219 40.2236 91.5091 37.2449C91.5091 34.2662 90.6581 31.5003 89.5942 28.9471C88.3177 26.3939 86.6155 24.0535 84.4879 22.1387C82.3603 20.2238 79.8071 18.7345 77.0412 17.8834C74.2753 17.0324 71.2966 16.6068 68.5307 17.0324C65.3392 17.2451 62.5733 18.0962 60.2329 19.5855C57.6797 21.0749 55.5521 22.9897 53.85 25.3301C53.4245 25.5429 52.7862 25.9684 52.3607 25.9684C51.7224 25.9684 51.2968 25.7557 51.0841 25.3301C48.3181 21.7132 44.7012 19.16 40.4459 17.8834C36.1906 16.6068 31.7226 16.6068 27.4673 18.0962C23.2121 19.5855 19.5951 22.1387 17.0419 25.7557C14.4888 29.3726 12.9994 33.6279 13.2122 38.0959C13.2122 38.947 12.3611 39.798 11.5101 39.798C10.659 39.798 9.80798 38.947 9.80798 38.0959C9.80798 32.7768 11.2973 27.8833 14.276 23.628C17.2547 19.3728 21.51 16.1813 26.4035 14.692C31.2971 12.9899 36.6162 12.9899 41.5097 14.4792C45.765 15.7558 49.5947 18.3089 52.5734 21.5004C54.0628 19.3728 56.1904 17.8834 58.5308 16.3941C61.5095 14.692 64.7009 13.6281 68.1051 13.4154C71.5093 12.9899 74.9136 13.4154 78.105 14.4792C81.2965 15.543 84.2752 17.2451 86.8283 19.3728C89.3815 21.7132 91.5091 24.2663 92.7857 27.4578C94.275 30.4364 94.9133 33.8407 95.1261 37.2449C95.1261 40.6491 94.7006 44.0533 93.424 47.032C92.1474 50.2234 90.2325 52.9894 87.8921 55.3298L87.6794 55.5425L53.6372 89.3719C53.2117 89.5847 52.7862 89.7974 52.3607 89.7974Z" fill="#9B9DA0"/>
<path d="M29.3839 67.0317C28.7456 67.0317 28.3201 66.8189 27.8946 66.1807L19.1713 53.2021H11.0863C10.2352 53.2021 9.38416 52.5638 9.38416 51.5C9.38416 50.4362 10.2352 49.7979 11.0863 49.7979H20.2351C20.8734 49.7979 21.2989 50.0106 21.7244 50.6489L28.9584 61.4999L37.0434 37.2448C37.2562 36.6066 37.8944 35.9683 38.7455 35.9683C39.3838 35.9683 40.2348 36.3938 40.4476 37.2448L44.7029 49.7979H57.2559C58.107 49.7979 58.958 50.6489 58.958 51.5C58.958 52.351 58.107 53.2021 57.2559 53.2021H43.6391C43.0008 53.2021 42.1497 52.7766 41.9369 51.9255L38.9583 43.2022L31.5115 65.7551C31.2988 66.3934 30.6605 66.8189 30.0222 66.8189C29.5967 67.0317 29.5967 67.0317 29.3839 67.0317Z" fill="#FF9900"/>
</g>
<defs>
<clipPath id="clip0_12_566">
<rect width="85.7436" height="76.5948" fill="white" transform="translate(9.38416 13.2026)"/>
</clipPath>
</defs>
</svg>
