<svg width="96" height="67" viewBox="0 0 96 67" fill="none" xmlns="http://www.w3.org/2000/svg">
<path d="M39 20.0911L39.0471 20.3188L40.1166 24.2505L57.5047 39.3245L52.0905 44.3947L54.1463 45.6243L59.2466 40.8425L65.7749 46.5047C65.9947 46.7021 66.2771 46.7932 66.5596 46.7932C66.8421 46.7932 67.1246 46.7021 67.3443 46.5047L73.8726 40.8425L91.9512 57.7381H60.5805L60.1725 60H94.8544C95.0113 60 95.1526 59.9696 95.2938 59.9089C95.435 59.8482 95.5606 59.7571 95.6704 59.6509C95.7018 59.6205 95.7175 59.575 95.7489 59.5294C95.8117 59.4535 95.8745 59.3776 95.9058 59.2865C95.9372 59.1954 95.9529 59.1044 95.9686 59.0133C95.9686 58.9677 96 58.9222 96 58.8615V21.1385C96 21.1385 96 21.1233 96 21.1082C96 20.9867 95.9843 20.8501 95.9215 20.7287C95.9215 20.7287 95.9215 20.7287 95.9215 20.7135C95.9215 20.6831 95.8901 20.6679 95.8745 20.6376C95.8274 20.5465 95.7646 20.4554 95.7018 20.3795C95.6704 20.3491 95.6391 20.3188 95.6077 20.2884C95.5292 20.2277 95.4507 20.1822 95.3723 20.1366C95.3409 20.1214 95.2938 20.0911 95.2624 20.0759C95.1369 20.0304 94.9956 20 94.8544 20M66.5753 44.1366L41.3407 22.277H91.7785L66.5596 44.1518L66.5753 44.1366ZM93.6774 56.1898L75.6303 39.3093L93.6774 23.6584V56.1898Z" fill="#58595B"/>
<path d="M24.0088 18.0613L33.7938 19.7707L36.5385 32.7836L29.7774 35.3708C31.4677 41.0996 35.0188 46.12 39.8726 49.6466L44.6178 44.2104L56 51.202L54.2787 60.9193C53.798 63.5989 51.2238 65.4007 48.5256 64.9233C28.9866 60.3033 15.9916 41.9158 18.2556 22.0807C18.7363 19.4011 21.3105 17.5993 24.0088 18.0767" stroke="#58595B" stroke-width="2.5" stroke-linecap="round" stroke-linejoin="round"/>
<path d="M18 11C16.1435 11 14.363 11.7375 13.0503 13.0503C11.7375 14.363 11 16.1435 11 18" stroke="#FF9900" stroke-width="2" stroke-linecap="round" stroke-linejoin="round"/>
<path d="M21 1C15.6957 1 10.6086 3.10714 6.85786 6.85786C3.10713 10.6086 1 15.6957 1 21" stroke="#FF9900" stroke-width="2" stroke-linecap="round" stroke-linejoin="round"/>
</svg>
