<svg width="91" height="86" viewBox="0 0 91 86" fill="none" xmlns="http://www.w3.org/2000/svg">
<path d="M74.6335 12.9121H78.5071H81.2617L67.3167 0L53.4577 12.9121H56.2123H60.0859V16.2692H55.0932V24.7912H55.8679H58.5364L51.7361 54.6612C49.1536 42.9543 38.7379 35.207 38.5657 35.1209L37.7049 34.5184L36.4137 36.24L37.2745 36.8425C37.4467 36.9286 51.7361 47.5165 49.9284 62.4085L49.1536 65.9378L51.2196 66.4543L51.3057 66.0239H51.3917L51.65 64.9909C51.8221 64.2162 51.9082 63.5275 51.9943 62.7528L60.6024 24.7052H74.2031L76.183 45.881L78.335 45.7088L76.3551 24.7052H78.335H79.2819V16.1832H74.2892V12.9121H74.6335ZM58.9668 10.7601L67.4027 2.92674L75.8386 10.7601H72.5676H62.2379H58.9668ZM72.4815 12.9121V16.2692H62.2379V12.9121H72.4815ZM74.2031 22.6392H61.291H57.3313V18.4213H77.4742V22.6392H74.2031Z" fill="#58595B"/>
<path d="M29.2687 34.2605C29.1826 34.1745 29.0965 34.1745 29.0965 34.1745C29.0104 34.1745 28.9244 34.0884 28.9244 34.0884C28.8383 34.0884 28.7522 34.0884 28.7522 34.0884C28.6661 34.0884 28.58 34.0884 28.58 34.0884C28.494 34.0884 28.4079 34.1745 28.4079 34.1745C28.3218 34.1745 28.3218 34.1745 28.2357 34.2605C28.1496 34.2605 28.1496 34.3466 28.0636 34.4327C27.9775 34.5188 27.9775 34.5188 27.8914 34.5188C27.8053 34.6909 25.4811 38.4785 25.1368 43.2129C23.5013 40.2862 21.9518 35.8961 24.3621 32.7111C24.6203 32.3668 24.6203 31.7642 24.3621 31.4199C24.1039 31.0755 23.5874 30.9034 23.157 31.0755C21.7797 31.592 16.3566 33.744 13.5159 36.3265C13.4298 35.2074 13.602 33.9162 14.3767 32.625C15.754 30.3869 18.5947 29.0957 22.8987 28.5792C23.3291 28.4931 23.7595 28.2349 23.8456 27.7184C23.8456 27.6323 24.4482 24.9638 22.5544 22.8118C21.3493 21.4345 19.6277 20.6598 17.2174 20.4015C17.906 20.1433 18.6808 19.8851 19.6277 19.8851C22.3822 19.7129 25.2229 21.0902 28.1496 23.7587C28.4079 23.9309 28.6661 24.103 29.0104 24.0169C29.3548 24.0169 29.613 23.8448 29.7852 23.5865C29.8713 23.5004 34.5196 16.8722 40.5453 17.1305C38.3932 18.4217 35.7247 20.8319 34.0031 25.6525C33.831 26.1689 34.0892 26.8576 34.6057 27.0298C35.1222 27.2019 35.8108 26.9437 35.983 26.4272C38.7376 18.8521 43.9885 18.0774 44.2467 17.9913C44.7632 17.9052 45.1075 17.5609 45.1936 17.0444C45.2797 16.5279 45.0215 16.0975 44.591 15.9253C40.8035 14.2037 36.7577 14.8063 32.798 17.647C30.9903 18.9382 29.613 20.4876 28.8383 21.4345C25.7394 18.8521 22.6405 17.647 19.6277 17.8191C15.5819 17.9913 13.1716 20.6598 12.9994 20.8319C12.7412 21.1763 12.6551 21.6067 12.8273 22.0371C12.9994 22.4675 13.4298 22.6396 13.8603 22.6396C17.3896 22.3814 19.7998 22.984 21.0049 24.3613C21.6936 25.136 21.8658 26.0829 21.8658 26.6854C17.3035 27.3741 14.2046 29.0096 12.6551 31.6781C10.5031 35.2935 11.9665 39.2532 12.0526 39.4254C12.2247 39.8558 12.6551 40.114 13.0855 40.114C13.5159 40.114 13.9463 39.7697 14.0324 39.3393C14.3767 38.1342 17.7339 35.9821 21.4354 34.3466C19.7137 40.6305 25.5672 47.7752 25.8255 48.1195C25.9976 48.3778 26.3419 48.4638 26.6863 48.4638C26.8584 48.4638 27.0306 48.4638 27.2028 48.3778C27.6332 48.1195 27.8914 47.603 27.7192 47.1726C26.6863 43.0408 28.4079 38.8228 29.3548 36.843C46.5709 49.5829 42.0947 65.0774 41.8365 65.7661C41.6643 66.3686 42.0086 66.9712 42.5251 67.1434C42.6112 67.1434 42.6973 67.2294 42.8694 67.2294C43.2998 67.2294 43.7302 66.9712 43.9024 66.4547C43.6442 66.1104 48.9812 48.1195 29.2687 34.2605Z" fill="#58595B"/>
<path d="M40.6322 25.6517C40.3739 26.1682 40.7182 26.8569 41.2347 27.029C42.8702 27.6316 46.5717 29.6114 47.7768 32.1078C46.4856 31.8495 44.3336 31.4191 40.9765 31.0748C40.3739 30.9887 39.8574 31.4191 39.7713 32.0217C39.6853 32.6243 40.1157 33.1408 40.7182 33.2268C47.0882 33.9155 48.6376 34.6041 48.7237 34.6041C48.8959 34.6902 49.0681 34.6902 49.2402 34.6902C49.4124 34.6902 49.6706 34.6041 49.8428 34.518C50.1871 34.3459 50.3593 34.0016 50.3593 33.5712C50.3593 28.3202 42.4398 25.1353 42.0955 24.9631C41.4069 24.877 40.8043 25.1353 40.6322 25.6517Z" fill="#58595B"/>
<path d="M90.0412 71.1029C89.0943 64.3025 84.3598 59.9985 80.314 58.1908C79.6254 57.8465 78.8507 57.5882 78.0759 57.4161C77.6455 56.3831 76.0961 53.9728 72.1364 53.1981C69.0375 52.5955 65.4221 53.112 64.9056 54.8336C64.8195 55.178 64.6474 56.297 66.455 56.8996C67.3159 57.1578 68.0045 57.5021 68.521 57.8465C65.9386 58.7073 63.5283 60.2567 61.5485 62.2366C59.7408 64.1304 58.1052 67.4014 57.6748 70.2421C56.6419 76.612 61.7206 81.7769 63.8726 83.6707C64.5613 84.2732 65.4221 84.9619 66.455 85.134C66.5411 85.134 66.5411 85.134 66.6272 85.134C66.7994 85.134 66.9715 85.134 67.1437 85.134C68.6932 85.134 70.3287 84.1011 71.0173 82.5516C72.1364 79.9692 72.3946 77.9893 71.6199 76.526C71.4477 76.1816 71.1895 75.8373 70.9312 75.6652C70.5008 75.4069 69.9844 75.3208 69.3818 75.4069C68.8653 75.493 68.2627 75.5791 67.7463 75.7512C66.2829 76.0956 64.7334 76.3538 63.6144 75.9234C63.0979 75.6652 62.4953 75.2348 62.4953 74.1157C62.5814 72.8245 63.2701 71.7915 64.3891 71.189C66.0247 70.4142 67.488 70.6725 69.554 71.3611C69.9844 71.5333 70.5008 71.7055 70.9312 71.8776C75.9239 73.6853 82.1217 75.9234 87.2866 73.6853C90.2133 72.3941 90.0412 71.4472 90.0412 71.1029ZM68.0045 55.178C68.8653 55.0058 70.1565 54.9197 71.706 55.264C73.3415 55.6084 74.4606 56.297 75.0631 56.9857C73.7719 56.8996 72.3946 56.9857 71.1034 57.2439C70.5869 56.7274 69.554 55.8666 68.0045 55.178ZM70.3287 69.2952C68.3488 68.6065 66.0246 67.9179 63.4422 69.2091C61.5485 70.156 60.4294 71.8776 60.3433 73.9436C60.2572 75.6652 61.1181 77.1285 62.7536 77.8172C64.5613 78.5919 66.455 78.1615 68.1767 77.8172C68.6931 77.7311 69.2096 77.5589 69.64 77.5589C69.9844 78.1615 70.0704 79.3666 69.0375 81.7769C68.6071 82.6377 67.7463 83.2403 66.9715 83.0681H66.8855C66.369 82.982 65.7664 82.5516 65.2499 82.1212C63.2701 80.3996 58.88 75.9234 59.7408 70.7586C60.1712 68.3483 61.5485 65.5076 63.0979 63.9582C66.1107 60.8593 70.1565 59.2238 74.1162 59.2238C75.2353 59.2238 76.3543 59.3959 77.4734 59.6542C75.8378 61.0315 74.8049 62.667 74.3745 64.5608C73.7719 66.971 74.2884 69.3813 74.8049 71.0168C73.7719 70.6725 72.7389 70.3282 71.706 69.8978C71.2756 69.6395 70.8452 69.4674 70.3287 69.2952ZM86.5979 71.6194C83.9294 72.8245 80.6584 72.4802 77.5595 71.6194C77.043 70.5864 75.8378 67.7457 76.5265 64.9051C76.9569 63.0974 78.162 61.5479 79.9697 60.3428C83.3269 61.9783 86.9423 65.5076 87.8031 70.9307C87.5448 71.189 86.9423 71.4472 86.5979 71.6194Z" fill="#58595B"/>
<path d="M82.0359 67.1433C82.6064 67.1433 83.0689 66.6809 83.0689 66.1104C83.0689 65.5399 82.6064 65.0774 82.0359 65.0774C81.4654 65.0774 81.0029 65.5399 81.0029 66.1104C81.0029 66.6809 81.4654 67.1433 82.0359 67.1433Z" fill="#58595B"/>
<path d="M51.8206 64.4739C47.3444 63.9574 42.2656 64.8182 38.8224 66.8841C38.1337 67.2285 37.5312 67.6589 36.9286 68.0893C35.4652 69.0362 34.0879 69.897 32.5385 70.4995C31.1612 71.1021 26.3407 72.8237 23.2418 71.3603C22.1227 70.8439 21.348 69.897 20.9176 68.5197C20.4872 67.2285 20.1429 65.5068 21.0037 64.646C21.9506 63.6992 24.3608 64.1296 25.1356 64.3878L27.1154 64.9904L26.4268 63.0105C25.566 60.342 22.9835 57.4153 19.5403 57.0709C16.9579 56.8127 14.3755 57.9318 12.0513 58.9647C11.3626 59.223 10.7601 59.5673 10.1575 59.7394L9.98536 59.8255C6.62821 61.1167 3.27106 62.4079 0 63.6992L0.774726 65.679C4.04579 64.3878 7.40294 63.0966 10.674 61.8054L10.8462 61.7193C11.4487 61.4611 12.1374 61.2028 12.826 60.8585C14.978 59.9116 17.2161 58.9647 19.2821 59.1369C21.0037 59.309 22.467 60.4281 23.5 61.8915C22.1227 61.8054 20.4872 61.9775 19.3681 63.0966C18.163 64.3878 17.9048 66.3677 18.7656 69.1222C19.3681 71.1021 20.5733 72.4794 22.2088 73.2541C23.4139 73.8567 24.7051 74.0288 26.0824 74.0288C29.0092 74.0288 31.8498 72.9959 33.3132 72.4794C35.0348 71.7907 36.5843 70.8439 38.0476 69.897C38.6502 69.5526 39.2528 69.1222 39.8553 68.7779C42.8682 66.9702 47.3444 66.1955 51.3041 66.6259L51.8206 64.4739Z" fill="#FF9900"/>
</svg>
