<svg width="92" height="86" viewBox="0 0 92 86" fill="none" xmlns="http://www.w3.org/2000/svg">
<path fill-rule="evenodd" clip-rule="evenodd" d="M68.2121 10.6001C68.2094 10.3025 68.0888 10.0183 67.8772 9.81024C67.6655 9.60219 67.3801 9.48746 67.084 9.49143L60.4868 9.57986C59.8738 9.58807 59.3828 10.0929 59.3884 10.7092L59.5643 29.897C59.5667 30.1495 59.6539 30.3938 59.8119 30.5902L63.1544 34.7461C63.3691 35.013 63.6937 35.1661 64.035 35.1615L70.6322 35.0731C71.0585 35.0674 71.4441 34.8175 71.6252 34.4295C71.8063 34.0416 71.7511 33.5837 71.4831 33.2505L68.3845 29.3979L68.2121 10.6001ZM61.7872 29.4863L61.6251 11.803L65.9959 11.7444L66.1616 29.8085C66.1639 30.0611 66.2511 30.3054 66.4091 30.5018L68.3104 32.8658L64.546 32.9163L61.7872 29.4863ZM88.2693 27.4853L88.0803 11.3344L85.8539 11.3607L86.0396 27.2323L79.6581 39.6286C79.5743 39.7913 79.5316 39.9722 79.5336 40.1553L79.9857 81.2415L82.2122 81.2168L81.7631 40.4095L88.1448 28.0128C88.2287 27.8499 88.2714 27.6687 88.2693 27.4853ZM76.2183 40.219C76.2114 39.6018 75.7086 39.1068 75.0946 39.1126L65.7705 39.2011C65.1559 39.2069 64.6622 39.7124 64.6678 40.3303L65.0297 80.4439L67.2562 80.4236L66.9044 41.4286L74.0045 41.3613L74.4443 80.3579L76.6708 80.3326L76.2183 40.219ZM56.7615 24.9489L56.8608 31.6412L61.1432 37.6341C61.2768 37.821 61.3498 38.0448 61.3522 38.2749L61.804 80.4222L59.5776 80.4463L59.1296 38.6527L54.8487 32.6618C54.7161 32.4762 54.6431 32.2542 54.6397 32.0257L54.5352 24.9823L56.7615 24.9489Z" fill="#58595B"/>
<path d="M80.0304 2.21057L80.2943 24.8469L76.7758 30.1522L73.3452 25.8195L72.9934 2.299L80.0304 2.21057ZM82.1415 0L70.7943 0.088423L71.0582 26.6153L76.8638 33.866L82.4934 25.4658L82.1415 0Z" fill="#FF9900"/>
<path fill-rule="evenodd" clip-rule="evenodd" d="M28.7487 2.59497C29.3636 2.59497 29.862 3.09601 29.862 3.71407V6.36676C29.862 6.98483 29.3636 7.48587 28.7487 7.48587C28.1339 7.48587 27.6355 6.98483 27.6355 6.36676V3.71407C27.6355 3.09601 28.1339 2.59497 28.7487 2.59497ZM23.0014 18.3923C23.0014 15.2013 25.5748 12.6144 28.7493 12.6144C31.9237 12.6144 34.4971 15.2013 34.4971 18.3923C34.4971 21.5834 31.9237 24.1702 28.7493 24.1702C25.5748 24.1702 23.0014 21.5834 23.0014 18.3923ZM28.7493 10.3762C24.3451 10.3762 20.7749 13.9652 20.7749 18.3923C20.7749 22.8195 24.3451 26.4084 28.7493 26.4084C33.1534 26.4084 36.7237 22.8195 36.7237 18.3923C36.7237 13.9652 33.1534 10.3762 28.7493 10.3762ZM24.7706 61.1495C24.6308 61.298 24.5079 61.4302 24.4026 61.5445C19.7651 60.5024 14.947 59.9228 10.2043 59.3524L10.2041 59.3524L10.2039 59.3523C8.14666 59.1049 6.10363 58.8591 4.0957 58.5781L3.78864 60.7949C5.89083 61.0892 7.98798 61.3413 10.0741 61.5921L10.0745 61.5921C14.982 62.1822 19.8285 62.7648 24.536 63.871L24.5391 63.8718C27.9836 64.6708 31.3553 65.6823 34.7606 66.7039L34.7607 66.7039L34.7608 66.7039C35.8367 67.0267 36.916 67.3505 38.002 67.6689C42.4993 68.9875 47.0772 70.2023 51.831 70.7887C54.6055 71.1484 57.4791 71.3295 60.3612 71.239L60.2917 69.0019C57.5454 69.0881 54.7905 68.9158 52.1124 68.5684L52.1055 68.5675C47.5365 68.0042 43.0993 66.8319 38.6254 65.5202C37.5718 65.2113 36.514 64.8939 35.4519 64.5753L35.446 64.5735L35.4451 64.5732C32.6311 63.729 29.7866 62.8755 26.9063 62.1448C27.3497 61.6864 27.8985 61.1334 28.5381 60.5171C30.3778 58.744 32.9543 56.4591 35.9152 54.3918C38.884 52.3192 42.1893 50.5005 45.4893 49.6101C48.7754 48.7235 51.9836 48.7736 54.873 50.3238C56.1415 51.0192 57.3481 51.6462 58.4902 52.2396L58.4905 52.2397L58.4908 52.2399L58.4924 52.2407L58.4929 52.241L58.4946 52.2419C59.0975 52.5551 59.6824 52.859 60.2489 53.1588L61.2859 51.1781C60.689 50.8623 60.0894 50.5508 59.4792 50.2338L59.4786 50.2335C58.3507 49.6476 57.1863 49.0426 55.9348 48.3564L55.9263 48.3518C52.3955 46.4557 48.5681 46.462 44.9121 47.4484C41.2686 48.4315 37.7238 50.404 34.6451 52.5535C31.5586 54.7085 28.8903 57.0769 26.9971 58.9015C26.0491 59.8151 25.2922 60.5956 24.7706 61.1495ZM0.599757 78.9616C-0.00130171 79.9036 -0.000659993 79.904 4.83787e-05 79.9045L0.00179983 79.9056L0.00650669 79.9086L0.0207369 79.9176C0.0323643 79.925 0.0482731 79.9349 0.0684633 79.9474C0.108844 79.9723 0.166351 80.0072 0.240986 80.0512C0.390255 80.1391 0.608041 80.2632 0.894345 80.4159C1.46696 80.7214 2.31366 81.1411 3.43444 81.6141C5.67625 82.5602 9.01359 83.7189 13.4458 84.6021C22.3141 86.3693 35.539 87.0281 53.1089 82.7027L53.1208 82.6999L53.1752 82.6873C53.224 82.6761 53.2977 82.6594 53.3951 82.6377C53.5897 82.5945 53.8786 82.5317 54.2513 82.4548C54.9968 82.3008 56.0769 82.0903 57.4076 81.8655C60.0713 81.4156 63.7287 80.9105 67.7116 80.6869C71.6998 80.4629 75.9809 80.5232 79.9028 81.1884C83.8383 81.8558 87.3112 83.1155 89.7797 85.2105L91.2161 83.5003C88.3189 81.0415 84.4029 79.6817 80.2733 78.9814C76.1301 78.2787 71.6699 78.2229 67.5874 78.4522C63.4998 78.6817 59.7573 79.199 57.0387 79.6582C55.6783 79.888 54.5717 80.1037 53.8033 80.2623C53.419 80.3417 53.1192 80.4068 52.9143 80.4523C52.8118 80.4751 52.7331 80.493 52.6794 80.5053L52.6178 80.5195L52.6014 80.5234L52.5948 80.5249L52.5849 80.5273C35.3244 84.7774 22.4261 84.1098 13.8787 82.4066C9.60259 81.5545 6.40868 80.4418 4.29633 79.5504C3.24002 79.1046 2.45391 78.714 1.93798 78.4388C1.68001 78.3012 1.4896 78.1925 1.36673 78.1201C1.3053 78.0839 1.26075 78.0568 1.2331 78.0398L1.20429 78.0218L1.19986 78.019C1.20031 78.0193 1.20081 78.0196 0.599757 78.9616ZM52.5948 80.5249L52.843 81.5854L52.626 80.6591L52.597 80.535C52.5946 80.5249 52.5947 80.5249 52.5948 80.5249ZM29.862 30.4187C29.862 29.8006 29.3636 29.2996 28.7487 29.2996C28.1339 29.2996 27.6355 29.8006 27.6355 30.4187V33.0714C27.6355 33.6894 28.1339 34.1905 28.7487 34.1905C29.3636 34.1905 29.862 33.6894 29.862 33.0714V30.4187ZM13.1211 18.3918C13.1211 17.7737 13.6195 17.2727 14.2343 17.2727H16.7853C17.4001 17.2727 17.8986 17.7737 17.8986 18.3918C17.8986 19.0099 17.4001 19.5109 16.7853 19.5109H14.2343C13.6195 19.5109 13.1211 19.0099 13.1211 18.3918ZM40.8 17.2727C40.1852 17.2727 39.6867 17.7737 39.6867 18.3918C39.6867 19.0099 40.1852 19.5109 40.8 19.5109H43.3509C43.9658 19.5109 44.4642 19.0099 44.4642 18.3918C44.4642 17.7737 43.9658 17.2727 43.3509 17.2727H40.8ZM17.6706 7.25578C18.1054 6.81874 18.8103 6.81874 19.2451 7.25577L21.0923 9.11266C21.5271 9.54969 21.5271 10.2583 21.0923 10.6953C20.6575 11.1323 19.9526 11.1323 19.5179 10.6953L17.6706 8.83843C17.2359 8.40139 17.2359 7.69281 17.6706 7.25578ZM38.0874 26.1095C37.6634 25.6619 36.9587 25.6446 36.5135 26.0709C36.0682 26.4971 36.051 27.2055 36.4751 27.653L38.2343 29.5099C38.6584 29.9575 39.3631 29.9748 39.8083 29.5485C40.2535 29.1223 40.2707 28.4139 39.8467 27.9663L38.0874 26.1095ZM21.0923 26.0899C21.5271 26.527 21.5271 27.2355 21.0923 27.6726L19.2451 29.5295C18.8103 29.9665 18.1054 29.9665 17.6706 29.5295C17.2359 29.0924 17.2359 28.3839 17.6706 27.9468L19.5179 26.0899C19.9526 25.6529 20.6575 25.6529 21.0923 26.0899ZM39.8467 8.81888C40.2707 8.37132 40.2535 7.66295 39.8083 7.2367C39.3631 6.81045 38.6584 6.82772 38.2343 7.27529L36.4751 9.13217C36.051 9.57973 36.0682 10.2881 36.5135 10.7143C36.9587 11.1406 37.6634 11.1233 38.0874 10.6758L39.8467 8.81888Z" fill="#58595B"/>
</svg>
