<svg width="92" height="87" viewBox="0 0 92 87" fill="none" xmlns="http://www.w3.org/2000/svg">
<path d="M67.9776 57.4429C67.3555 57.4429 66.9113 56.9102 66.9113 56.3775V49.4524C66.9113 48.8309 67.4444 48.387 67.9776 48.387H75.4417C76.0637 48.387 76.508 48.9197 76.508 49.4524V52.9149C76.508 53.5364 75.9748 53.9803 75.4417 53.9803C74.9085 53.9803 74.3754 53.4476 74.3754 52.9149V50.5178H69.1327V56.3775C69.0439 56.9102 68.5996 57.4429 67.9776 57.4429Z" fill="#FF9900"/>
<path d="M56.4253 11.0979H52.8709C52.1601 8.52321 49.8497 6.65876 47.0951 6.65876H46.4731C46.2954 6.65876 46.2065 6.65876 46.1177 6.65876C44.7848 2.75229 41.1416 0 36.9652 0C31.7226 0 27.5462 4.2616 27.5462 9.41104C27.5462 14.2053 31.1006 18.1118 35.7212 18.7333C36.5209 20.7753 38.5647 22.1959 40.875 22.1959H56.4253C59.4465 22.1959 62.0234 19.7099 62.0234 16.6025C62.0234 13.4951 59.4465 11.0979 56.4253 11.0979ZM29.6788 9.41104C29.6788 5.41579 32.9666 2.21958 36.8764 2.21958C40.0753 2.21958 42.8299 4.2616 43.7185 7.28024C42.119 7.99051 40.9639 9.41104 40.4307 11.1867C37.5872 11.3643 35.2769 13.6726 35.188 16.5137C32.078 15.7147 29.6788 12.8736 29.6788 9.41104ZM56.4253 19.9763H40.7861C38.9201 19.9763 37.4095 18.4669 37.4095 16.6025C37.4095 14.738 38.9201 13.2287 40.7861 13.2287H41.4082C41.9413 13.2287 42.4745 12.7848 42.4745 12.2521C42.6522 10.2989 44.3405 8.78956 46.2954 8.78956H46.9174C48.8723 8.78956 50.4717 10.2989 50.7383 12.2521C50.8272 12.7848 51.2715 13.2287 51.8046 13.2287H56.3364C58.2024 13.2287 59.713 14.738 59.713 16.6025C59.713 18.4669 58.2024 19.9763 56.4253 19.9763Z" fill="#58595B"/>
<path d="M91.3467 45.9898L84.5046 40.3076V31.6956H82.2831V38.4432L72.5087 30.3639C72.0644 30.0088 71.5312 30.0088 71.0869 30.3639L52.16 45.9898C51.8046 46.2561 51.6269 46.7888 51.8046 47.2327C51.9823 47.6767 52.3378 47.943 52.8709 47.943H58.7356V64.1904C54.3815 65.5221 49.8497 67.5641 45.4068 70.4052C45.1402 70.5828 44.8736 70.7603 44.5182 70.9379C40.5196 68.0968 34.2994 65.6109 26.1244 63.6577V61.7044H34.1217C37.4095 61.7044 40.0753 59.0409 40.0753 55.7559V54.1578V53.0924V44.4804C40.0753 41.8169 37.8538 39.5974 35.188 39.5974C32.5223 39.5974 30.3008 41.8169 30.3008 44.4804V48.6533V51.9383V53.27C30.3008 53.3588 30.2119 53.5364 30.0342 53.5364H26.0356V36.9339C26.0356 33.205 23.0144 30.1863 19.2823 30.1863C15.5503 30.1863 12.5291 33.205 12.5291 36.9339V65.8772C11.9071 65.8772 11.2851 65.8772 10.5742 65.8772H9.86331C9.77445 65.8772 9.59674 65.7885 9.59674 65.6109V64.2792V60.9942V56.8213C9.59674 54.1578 7.37527 51.9383 4.70951 51.9383C2.04375 51.9383 0 54.0691 0 56.8213V65.4333V66.4987V68.0968C0 71.3818 2.66576 74.0453 5.95353 74.0453H11.7293H12.5291H12.6179V86.3862H14.8394V72.9799C14.8394 72.3584 14.3951 71.9145 13.7731 71.9145H11.7293H5.95353C3.90978 71.9145 2.22147 70.2276 2.22147 68.1856V66.5875V65.5221V56.8213C2.22147 55.4008 3.37663 54.1578 4.88723 54.1578C6.39782 54.1578 7.55299 55.312 7.55299 56.8213V60.9942V64.2792V65.6997C7.55299 67.0314 8.61929 68.1856 10.041 68.1856H10.7519C11.0185 68.1856 11.2851 68.1856 11.4628 68.1856C12.2625 68.1856 13.0622 68.1856 13.862 68.0968C14.3951 68.008 14.8394 67.5641 14.8394 67.0314V37.0226C14.8394 34.5367 16.8831 32.4947 19.3712 32.4947C21.8592 32.4947 23.903 34.5367 23.903 37.0226V54.7793C23.903 55.4008 24.4361 55.8447 24.9693 55.8447H25.5024H30.1231C31.456 55.8447 32.6111 54.7793 32.6111 53.3588V52.027V48.7421V44.5692C32.6111 43.1487 33.7663 41.9057 35.2769 41.9057C36.7875 41.9057 37.9426 43.0599 37.9426 44.5692V53.1812V54.2466V55.8447C37.9426 57.8867 36.2543 59.5736 34.2106 59.5736H25.5913H25.147C24.525 59.5736 24.0807 60.1063 24.0807 60.639V84.9657H26.3022V82.4798C32.5223 80.1714 39.8975 76.7088 46.7397 72.3584C66.644 59.5736 88.5032 64.9894 88.6809 65.0782L89.2141 62.9474C88.5032 62.7698 75.9742 59.6624 61.0459 63.6577V46.8776C61.0459 46.2561 60.5127 45.8122 59.9796 45.8122H55.981L71.7978 32.8498L87.5258 45.8122H82.6386C82.0165 45.8122 81.5723 46.3449 81.5723 46.8776V56.8213H83.7937V47.943H90.6358C91.0801 47.943 91.5244 47.6767 91.7021 47.2327C91.791 46.7888 91.7021 46.3449 91.3467 45.9898ZM26.1244 65.966C33.1443 67.6529 38.7424 69.8725 42.4744 72.1809C36.8763 75.4659 31.1894 78.1294 26.1244 79.9938V65.966Z" fill="#58595B"/>
</svg>
