<svg width="18" height="18" viewBox="0 0 18 18" fill="none" xmlns="http://www.w3.org/2000/svg">
<g clip-path="url(#clip0_1_2056)">
<path d="M7.5 10.5003C7.74441 10.7497 8.03614 10.9479 8.3581 11.0832C8.68005 11.2185 9.02577 11.2882 9.375 11.2882C9.72423 11.2882 10.0699 11.2185 10.3919 11.0832C10.7139 10.9479 11.0056 10.7497 11.25 10.5003L14.25 7.50028C14.7473 7.003 15.0267 6.32854 15.0267 5.62528C15.0267 4.92202 14.7473 4.24756 14.25 3.75028C13.7527 3.253 13.0783 2.97363 12.375 2.97363C11.6717 2.97363 10.9973 3.253 10.5 3.75028L10.125 4.12528" stroke="#333333" stroke-linecap="round" stroke-linejoin="round"/>
<path d="M10.5003 7.4998C10.2559 7.25035 9.96415 7.05218 9.64219 6.91689C9.32023 6.7816 8.97451 6.71191 8.62528 6.71191C8.27605 6.71191 7.93034 6.7816 7.60838 6.91689C7.28642 7.05218 6.99469 7.25035 6.75028 7.4998L3.75028 10.4998C3.253 10.9971 2.97363 11.6715 2.97363 12.3748C2.97363 13.0781 3.253 13.7525 3.75028 14.2498C4.24756 14.7471 4.92202 15.0264 5.62528 15.0264C6.32854 15.0264 7.003 14.7471 7.50028 14.2498L7.87528 13.8748" stroke="#333333" stroke-linecap="round" stroke-linejoin="round"/>
</g>
<defs>
<clipPath id="clip0_1_2056">
<rect width="18" height="18" fill="white"/>
</clipPath>
</defs>
</svg>
