<svg width="23" height="23" viewBox="0 0 23 23" fill="none" xmlns="http://www.w3.org/2000/svg">
<path d="M4.05212 17.2616C4.07511 17.3511 4.11681 17.4354 4.17474 17.5094C4.23267 17.5834 4.30567 17.6456 4.38943 17.6924C4.47318 17.7392 4.56599 17.7697 4.66236 17.7819C4.75874 17.7942 4.85674 17.788 4.95056 17.7638C9.2334 16.6403 13.758 16.6403 18.0408 17.7638C18.1346 17.788 18.2326 17.7942 18.329 17.7819C18.4254 17.7697 18.5182 17.7392 18.6019 17.6924C18.6857 17.6456 18.7587 17.5834 18.8166 17.5094C18.8745 17.4354 18.9162 17.3511 18.9392 17.2616L21.2302 8.04366C21.2617 7.92028 21.2561 7.79102 21.2142 7.67048C21.1722 7.54994 21.0955 7.44291 20.9927 7.36148C20.8899 7.28004 20.7652 7.22744 20.6325 7.20962C20.4999 7.1918 20.3646 7.20945 20.242 7.2606L15.6959 9.17569C15.5312 9.2444 15.3454 9.25285 15.1745 9.1994C15.0036 9.14595 14.8596 9.03441 14.7705 8.8863L12.1291 4.3752C12.0669 4.26877 11.9758 4.18006 11.8652 4.11828C11.7546 4.05651 11.6286 4.02393 11.5002 4.02393C11.3718 4.02393 11.2457 4.05651 11.1351 4.11828C11.0245 4.18006 10.9334 4.26877 10.8713 4.3752L8.22985 8.8863C8.14068 9.03441 7.99674 9.14595 7.82584 9.1994C7.65493 9.25285 7.46918 9.2444 7.30446 9.17569L2.75837 7.2606C2.63575 7.20945 2.50047 7.1918 2.36782 7.20962C2.23516 7.22744 2.11041 7.28004 2.00763 7.36148C1.90486 7.44291 1.82815 7.54994 1.78618 7.67048C1.74421 7.79102 1.73863 7.92028 1.77009 8.04366L4.05212 17.2616Z" stroke="#333333" stroke-width="1.5" stroke-linecap="round" stroke-linejoin="round"/>
<path d="M8.625 14.3421C10.5361 14.1464 12.4639 14.1464 14.375 14.3421" stroke="#FF9900" stroke-width="1.5" stroke-linecap="round" stroke-linejoin="round"/>
</svg>
