<svg width="81" height="80" viewBox="0 0 81 80" fill="none" xmlns="http://www.w3.org/2000/svg">
<g clip-path="url(#clip0_3408_218747)">
<path fill-rule="evenodd" clip-rule="evenodd" d="M45.7237 31.9962C43.9792 31.3997 42.0802 32.2472 41.3307 33.8962L39.9082 33.2496C40.9857 30.8791 43.7145 29.6556 46.2332 30.5191L46.2388 30.5211L46.2388 30.5211C48.8856 31.4511 50.3367 34.3244 49.3973 36.9989C49.3972 36.9991 49.3972 36.9992 49.3971 36.9994L48.66 36.7404L49.3974 36.9985C49.3974 36.9986 49.3973 36.9988 49.3973 36.9989C48.8957 38.4317 47.8166 39.5175 46.5067 40.0269L45.9403 38.5706C46.8232 38.2273 47.5714 37.4859 47.9226 36.4823L47.923 36.4814C48.5667 34.6494 47.5825 32.651 45.7237 31.9962ZM45.7237 31.9962C45.7246 31.9965 45.7255 31.9969 45.7265 31.9972L45.9798 31.2582L45.7209 31.9952C45.7218 31.9956 45.7227 31.9959 45.7237 31.9962Z" fill="#FF9900"/>
<path fill-rule="evenodd" clip-rule="evenodd" d="M27.4392 13.0868L43.3367 24.7815C43.3579 24.797 43.3781 24.8135 43.3972 24.8307C43.5441 24.7555 43.6897 24.6956 43.8364 24.653C44.2424 24.5351 44.5934 24.5675 44.9161 24.6597C44.9837 24.679 45.0481 24.7073 45.1077 24.7436C45.4026 24.8495 45.6598 25.0316 45.887 25.2017C46.9014 25.8918 47.9981 26.1992 49.2023 26.0945L49.218 26.0933C49.7842 26.0556 50.3334 26.1437 50.7992 26.4458C51.2674 26.7495 51.5557 27.2072 51.7177 27.7247C52.1495 28.9593 52.8314 29.8458 53.8878 30.5355C54.3878 30.8371 54.8414 31.2094 55.0559 31.7724C55.1598 32.0451 55.1924 32.3233 55.1796 32.6018C59.6829 35.4347 64.7036 38.5851 68.6651 41.0582C70.7015 42.3296 72.457 43.4213 73.7181 44.1986C74.3489 44.5875 74.8541 44.8966 75.2083 45.1097C75.3851 45.2162 75.521 45.2967 75.6148 45.3508C75.6751 45.3796 75.7347 45.411 75.7936 45.4452C76.4912 45.8503 76.9117 46.5348 77.1297 47.3067C77.3464 48.0744 77.3802 48.9798 77.2743 49.9446C77.0623 51.8769 76.2734 54.201 74.986 56.4932L74.9826 56.4994C73.7566 58.6369 72.2814 60.4071 70.8296 61.5832C70.104 62.171 69.3636 62.6271 68.6438 62.898C67.9279 63.1674 67.1788 63.2727 66.4791 63.0759C66.0637 62.9591 65.8217 62.5277 65.9386 62.1123C66.0554 61.697 66.4868 61.455 66.9021 61.5718C67.1771 61.6491 67.5701 61.6326 68.0934 61.4356C68.6129 61.2402 69.2087 60.8854 69.8461 60.3691C71.1195 59.3376 72.4761 57.7282 73.6254 55.725C74.8344 53.5716 75.5373 51.4502 75.7211 49.7742C75.8133 48.9344 75.7709 48.2446 75.6259 47.7312C75.4899 47.2493 75.2795 46.9704 75.0483 46.8206C75.0474 46.8201 75.0466 46.8197 75.0461 46.8195L75.0451 46.819C75.0205 46.8073 74.9967 46.7948 74.9771 46.7844C74.9551 46.7727 74.9308 46.7592 74.9045 46.7444C74.6703 46.6457 74.3495 46.6217 73.9116 46.7392C73.3999 46.8766 72.7871 47.1951 72.1138 47.7089C70.7734 48.7319 69.3193 50.4332 68.1119 52.5785L67.7549 53.2925C67.5619 53.6785 67.0926 53.8349 66.7067 53.6419C66.3208 53.449 66.1644 52.9797 66.3573 52.5938L66.7228 51.8628L66.7281 51.8525C66.732 51.8448 66.7362 51.8372 66.7404 51.8296C68.0287 49.5359 69.6163 47.6493 71.1659 46.4668C71.7088 46.0525 72.2626 45.7126 72.8113 45.4752C71.5533 44.6993 69.8285 43.6266 67.8376 42.3836C64.016 39.9978 59.21 36.9825 54.8333 34.2299C54.6799 35.1447 54.7894 36.0586 55.1684 36.9877C55.3893 37.5054 55.4948 38.0495 55.3345 38.5973C55.1759 39.1391 54.7987 39.5404 54.3682 39.8633C53.2849 40.6757 52.6112 41.6746 52.3495 42.9306C52.2615 43.353 51.8477 43.6241 51.4253 43.5361C51.0029 43.4481 50.7319 43.0344 50.8199 42.612C51.1673 40.9441 52.0774 39.6283 53.4307 38.6133C53.7311 38.388 53.8107 38.241 53.8349 38.1584C53.8566 38.0842 53.8724 37.93 53.7295 37.5968L53.7245 37.5849C53.1104 36.0836 53.037 34.558 53.5176 33.0406C53.6531 32.5769 53.6244 32.4039 53.5957 32.3286C53.5684 32.2568 53.4797 32.1128 53.0711 31.8676C53.063 31.8628 53.0551 31.8578 53.0472 31.8527C51.6768 30.9619 50.7792 29.7828 50.2377 28.2259C50.2346 28.217 50.2316 28.208 50.2288 28.199C50.1463 27.9308 50.0397 27.8156 49.9489 27.7567C49.8519 27.6938 49.6719 27.63 49.329 27.6519C47.7399 27.7881 46.2855 27.3676 44.9912 26.4821C44.9819 26.4757 44.9727 26.4691 44.9637 26.4623C44.7653 26.3136 44.6672 26.2534 44.611 26.2271C44.5192 26.2045 44.4438 26.1707 44.3886 26.1411C44.3453 26.1365 44.3127 26.1418 44.2721 26.1535C44.1717 26.1827 43.9908 26.2672 43.6625 26.5119C42.4267 27.5359 41.0358 28.0196 39.4629 28.0196C39.1039 28.0196 38.9469 28.0917 38.8664 28.1538C38.7852 28.2165 38.6703 28.355 38.5736 28.7169C38.1716 30.2561 37.3583 31.5659 36.0014 32.5334C35.9692 32.5632 35.9397 32.5885 35.9151 32.6091C35.8997 32.622 35.8842 32.6348 35.8724 32.6445L35.8663 32.6495L35.8531 32.6604C35.6393 32.9888 35.2084 33.1114 34.8495 32.932C34.4636 32.739 34.3072 32.2698 34.5001 31.8838C34.6019 31.6804 34.7445 31.5524 34.8199 31.4878C34.8393 31.4712 34.8806 31.4371 34.9003 31.4207L34.9004 31.4207L34.911 31.4119C34.9321 31.3942 34.9433 31.384 34.951 31.3762C34.9832 31.344 35.0182 31.3147 35.0555 31.2886C36.1044 30.5544 36.7379 29.5635 37.0622 28.3203L37.0633 28.3162C37.2101 27.7659 37.4604 27.2651 37.9121 26.9167C38.3646 26.5676 38.9081 26.4571 39.4629 26.4571C40.4151 26.4571 41.2569 26.2356 42.0331 25.7622L26.5113 14.3439C26.1822 14.101 25.8625 13.8523 25.5552 13.6127L25.5032 13.5722L25.503 13.5721C25.212 13.3451 24.9328 13.1274 24.6555 12.9209C24.0653 12.4812 23.52 12.1202 22.9783 11.8776C22.4449 11.6387 21.9311 11.5222 21.3981 11.5568C20.8653 11.5914 20.2564 11.7809 19.5393 12.2409L19.538 12.2417C17.5192 13.5315 16.0149 15.6993 14.9468 17.8947C14.7581 18.2827 14.2905 18.4442 13.9025 18.2554C13.5146 18.0667 13.353 17.5991 13.5418 17.2111C14.6666 14.8991 16.3295 12.4377 18.6962 10.9254C19.593 10.3502 20.4535 10.0524 21.2967 9.99759C22.14 9.94278 22.9092 10.1346 23.6169 10.4516C24.3163 10.7648 24.9703 11.207 25.5889 11.6678C25.8806 11.8851 26.1725 12.1127 26.4601 12.337L26.4602 12.3371L26.5159 12.3805C26.824 12.6208 27.1289 12.8577 27.4392 13.0868ZM35.8272 32.6828C35.8271 32.6828 35.8279 32.682 35.8297 32.6803L35.8272 32.6828Z" fill="#58595B"/>
<path fill-rule="evenodd" clip-rule="evenodd" d="M36.2331 38.6797C34.276 38.6797 32.6895 40.2662 32.6895 42.2233C32.6895 44.1804 34.276 45.7669 36.2331 45.7669C38.1902 45.7669 39.7767 44.1804 39.7767 42.2233C39.7767 40.2662 38.1902 38.6797 36.2331 38.6797ZM31.127 42.2233C31.127 39.4033 33.413 37.1172 36.2331 37.1172C39.0531 37.1172 41.3392 39.4033 41.3392 42.2233C41.3392 45.0433 39.0531 47.3294 36.2331 47.3294C33.413 47.3294 31.127 45.0433 31.127 42.2233Z" fill="#FF9900"/>
<path fill-rule="evenodd" clip-rule="evenodd" d="M31.1173 34.9036C32.7441 34.9036 34.148 34.4236 35.3382 33.3784C35.6213 33.1483 35.7966 33.0677 35.8973 33.0394C35.9625 33.0211 36.0166 33.0181 36.0877 33.0328C36.1329 33.0588 36.1808 33.0804 36.2306 33.097C36.2754 33.1119 36.3347 33.137 36.3947 33.1712C36.4551 33.2058 36.5025 33.2418 36.5344 33.2737C36.5686 33.3079 36.6058 33.3388 36.6457 33.3661C37.9405 34.252 39.3955 34.6725 40.9854 34.5357C41.2843 34.5152 41.453 34.5729 41.5576 34.6407C41.6619 34.7084 41.7833 34.8387 41.8917 35.1105C42.3813 36.694 43.3577 37.8632 44.7017 38.7368C44.7095 38.7419 44.7175 38.7468 44.7255 38.7516C45.1341 38.9968 45.2228 39.1408 45.2502 39.2126C45.2789 39.288 45.3076 39.461 45.1721 39.9246C44.6914 41.442 44.7648 42.9676 45.379 44.4689L45.384 44.4808C45.5268 44.814 45.5111 44.9682 45.4893 45.0425C45.4651 45.1251 45.3855 45.272 45.0851 45.4973C43.7388 46.5071 42.8312 47.8145 42.4797 49.4701C42.4143 49.7004 42.3364 49.8138 42.2712 49.8764C42.2145 49.931 42.1223 49.9908 41.943 50.0314H41.5944C40.3976 50.0314 39.2865 50.3342 38.2421 50.9547C38.0209 50.9899 37.8271 51.1191 37.7082 51.3038C37.603 51.379 37.4985 51.4576 37.3946 51.5396C37.3864 51.5461 37.3783 51.5528 37.3703 51.5596C36.9768 51.8969 36.8111 51.9329 36.7468 51.9358C36.6851 51.9386 36.5332 51.9198 36.1399 51.6389L36.1338 51.6346C34.7796 50.6866 33.3154 50.2582 31.6504 50.4613C31.4015 50.4778 31.2532 50.4263 31.1547 50.3606C31.0515 50.2918 30.9276 50.1568 30.8184 49.8814C30.3368 48.3855 29.44 47.2166 28.094 46.3351C27.6322 45.9865 27.5197 45.8197 27.4828 45.7159C27.451 45.6265 27.4262 45.4425 27.5966 44.9012C28.0826 43.4384 28.0085 42.0278 27.3927 40.5854C27.2417 40.2052 27.2386 40 27.2649 39.8843C27.2873 39.7855 27.3562 39.6406 27.6266 39.4377C28.983 38.4204 29.8169 37.1751 30.228 35.601C30.3248 35.239 30.4397 35.1005 30.5209 35.0379C30.6014 34.9758 30.7583 34.9036 31.1173 34.9036ZM37.406 53.372C37.2203 53.4425 37.0249 53.4873 36.8177 53.4967C36.2108 53.5243 35.6936 53.2399 35.235 52.9127C34.1593 52.1605 33.0724 51.8582 31.8233 52.0143C31.811 52.0158 31.7987 52.0171 31.7863 52.018C31.7622 52.0199 31.738 52.0215 31.7139 52.0227C31.4673 53.3156 31.2149 54.595 30.9621 55.876L30.9621 55.8761L30.962 55.8763L30.962 55.8764C30.743 56.9863 30.5238 58.0975 30.3079 59.2195C31.3774 58.7093 32.5227 58.6361 33.622 58.9008C34.7181 59.1648 35.7478 59.7572 36.6172 60.5447C36.7453 59.3558 36.8778 58.163 37.0102 56.9717L37.0104 56.97C37.1439 55.7678 37.2773 54.5672 37.406 53.372ZM30.2036 51.6014C30.0997 51.5247 30.0043 51.4396 29.9168 51.3474C29.8842 51.375 29.8489 51.4003 29.8109 51.4229C28.5351 52.1823 27.2589 52.9572 25.9792 53.7341L25.9779 53.7349C24.6996 54.511 23.4179 55.2892 22.1358 56.0524C21.8531 56.2206 21.4953 56.1938 21.2409 55.9853C20.9865 55.7767 20.89 55.4312 20.9995 55.121C21.4978 53.7091 21.5208 52.1879 21.0491 51.012C20.5945 49.8786 19.6723 49.0264 18.1141 48.8475C17.7682 48.8079 17.4903 48.5441 17.4327 48.2007C17.3751 47.8574 17.5516 47.5173 17.8656 47.3668C19.3258 46.6671 20.7711 45.9673 22.218 45.2667L22.2186 45.2665C23.5879 44.6034 24.9588 43.9396 26.3429 43.2757C26.3886 42.5898 26.2602 41.9094 25.9525 41.1915L25.9452 41.1739C25.7339 40.6456 25.6154 40.0916 25.7413 39.538C25.8711 38.9667 26.2287 38.533 26.6891 38.1877C27.7687 37.378 28.3966 36.4312 28.7167 35.2043L28.7177 35.2002C28.8645 34.6499 29.1148 34.1491 29.5665 33.8007C30.019 33.4516 30.5625 33.3411 31.1173 33.3411C32.409 33.3411 33.4378 32.9715 34.3161 32.1964C34.3234 32.19 34.3308 32.1837 34.3383 32.1776C34.7191 31.866 35.0889 31.6436 35.4743 31.5352C35.8562 31.4278 36.1992 31.4473 36.51 31.5273C36.6708 31.5559 36.7901 31.6225 36.8505 31.6607C37.0744 31.7498 37.344 31.8952 37.5788 32.1109C38.5827 32.7833 39.6672 33.082 40.8567 32.9785L40.8687 32.9776C41.4192 32.9383 41.9497 33.0326 42.4079 33.3298C42.8641 33.6257 43.1652 34.0686 43.3592 34.5728C43.3659 34.5903 43.3719 34.608 43.3774 34.6258C43.7424 35.8251 44.4641 36.7159 45.5422 37.4195C46.0422 37.7212 46.4958 38.0934 46.7103 38.6564C46.9251 39.2202 46.8353 39.8072 46.6688 40.3732L46.6638 40.3897C46.2953 41.5478 46.3439 42.6977 46.8229 43.8718C47.0437 44.3895 47.1492 44.9336 46.9889 45.4814C46.8303 46.0231 46.4531 46.4245 46.0226 46.7473C44.9393 47.5598 44.2656 48.5586 44.0039 49.8147C44.0007 49.8302 43.997 49.8456 43.9928 49.8609C43.8766 50.2869 43.6831 50.6865 43.3542 51.0027C43.0213 51.3229 42.61 51.4996 42.1606 51.5813C42.1145 51.5897 42.0677 51.5939 42.0208 51.5939H41.5944C40.7127 51.5939 39.8917 51.8045 39.0948 52.2659C38.9253 53.8844 38.7443 55.5139 38.5635 57.1406L38.5635 57.1409L38.5633 57.1426C38.3653 58.9248 38.1676 60.7036 37.9852 62.4666C37.9517 62.7907 37.7207 63.0599 37.4055 63.1422C37.0903 63.2244 36.7571 63.1025 36.5695 62.8362C35.7111 61.6178 34.4898 60.717 33.2562 60.4199C32.0677 60.1336 30.8242 60.3904 29.7445 61.5729C29.5093 61.8305 29.1319 61.901 28.8196 61.7456C28.5073 61.5903 28.3358 61.2468 28.3993 60.9039C28.73 59.1185 29.0831 57.3278 29.4336 55.5508C29.6953 54.2241 29.9554 52.905 30.2036 51.6014ZM25.9217 45.2119C24.9112 45.6987 23.9055 46.1857 22.899 46.673L22.898 46.6735C22.0403 47.0888 21.182 47.5044 20.3202 47.9202C21.3542 48.4892 22.078 49.3798 22.4993 50.4303C22.9116 51.4582 23.03 52.621 22.9021 53.7713C23.6567 53.3163 24.4119 52.8578 25.1683 52.3985L25.1699 52.3975C26.4481 51.6215 27.7296 50.8434 29.0117 50.0803C29.0725 50.0441 29.1362 50.0171 29.2013 49.9989C28.8104 49.0187 28.1701 48.2481 27.2194 47.6302C27.2048 47.6206 27.1904 47.6106 27.1765 47.6001C26.6804 47.2281 26.2168 46.8194 26.0106 46.2394C25.89 45.9002 25.8758 45.5573 25.9217 45.2119Z" fill="#58595B"/>
<path fill-rule="evenodd" clip-rule="evenodd" d="M16.2313 17.7167C18.0297 19.0275 19.8124 20.3531 21.5917 21.6761L21.5934 21.6774C23.3757 23.0026 25.1544 24.3253 26.9478 25.6324L26.9539 25.6368L26.9538 25.6368C29.3294 27.4032 32.6154 29.8373 35.0478 31.6007C35.3971 31.854 35.475 32.3425 35.2217 32.6918C34.9684 33.0411 34.4799 33.119 34.1306 32.8658C31.6909 31.097 28.4 28.6592 26.0245 26.8928C24.2257 25.5819 22.4427 24.256 20.6632 22.9328L20.6628 22.9325L20.6611 22.9312C18.8789 21.606 17.1001 20.2834 15.3067 18.9763L15.2981 18.9699C14.3564 18.2637 13.6728 17.9396 12.7904 18.2317C11.0929 18.8265 9.47661 20.3215 8.1513 22.199C6.83381 24.0655 5.87223 26.214 5.4399 27.9703C5.29582 28.5761 5.19233 29.2386 5.22467 29.8466C5.25703 30.455 5.42047 30.9353 5.73678 31.2714L5.74857 31.2842L5.74664 31.282L5.74855 31.2838C5.75456 31.2893 5.77524 31.3085 5.8185 31.3434C5.87471 31.3888 5.95123 31.4466 6.04918 31.5169C6.24483 31.6574 6.50528 31.833 6.8177 32.0361C7.44141 32.4416 8.24803 32.9411 9.10585 33.4611C10.8202 34.5004 12.7185 35.6089 13.7201 36.1856L13.7278 36.1901L13.7278 36.1901C17.7436 38.5631 21.7601 40.8756 25.781 43.1907C26.155 43.406 26.2836 43.8837 26.0683 44.2576C25.853 44.6315 25.3753 44.7601 25.0014 44.5448L24.9992 44.5435C20.9815 42.2303 16.9593 39.9145 12.9366 37.5375C11.9271 36.9562 10.0209 35.843 8.29588 34.7973C7.43289 34.2741 6.61007 33.7648 5.96601 33.346C5.64454 33.137 5.36153 32.9467 5.13793 32.7862C4.94006 32.6441 4.72803 32.4834 4.59411 32.3371C3.93951 31.6385 3.70804 30.7506 3.66437 29.9296C3.62062 29.107 3.76041 28.2782 3.92056 27.6056L3.92189 27.6L3.92191 27.6C4.40362 25.6411 5.45187 23.3138 6.87479 21.298C8.28914 19.2943 10.1428 17.5012 12.2809 16.7546L12.2914 16.751C13.9626 16.1939 15.2261 16.9633 16.2313 17.7167ZM58.4386 68.2223C58.1918 68.0823 57.9648 67.8038 57.8203 67.2982C57.6745 66.7879 57.6313 66.1003 57.7233 65.2625C57.907 63.5898 58.6125 61.4725 59.8259 59.3328C61.0393 57.1931 62.4941 55.5007 63.8354 54.4844C64.5071 53.9753 65.1193 53.6595 65.6321 53.5226C65.9706 53.4323 66.2413 53.4252 66.4574 53.4718C66.4915 53.4918 66.5229 53.5101 66.5515 53.5266C66.6043 53.557 66.6525 53.5842 66.6927 53.6057C66.7122 53.6161 66.736 53.6286 66.7607 53.6403L66.7616 53.6408C66.7703 53.645 66.8296 53.674 66.9054 53.6954C67.0873 53.8556 67.2488 54.111 67.3608 54.5029C67.5066 55.0132 67.5498 55.7008 67.4578 56.5386C67.2742 58.2113 66.5686 60.3286 65.3552 62.4683C64.1419 64.608 62.687 66.3004 61.3458 67.3167C60.674 67.8258 60.0618 68.1417 59.549 68.2785C59.0409 68.4141 58.6854 68.3622 58.4386 68.2223ZM67.0814 52.0255C67.2287 52.0758 67.373 52.14 67.5133 52.2196C68.2176 52.619 68.6428 53.3022 68.8632 54.0736C69.0824 54.8405 69.1169 55.7456 69.011 56.7091C68.7991 58.6392 68.007 60.9598 66.7145 63.2391C65.4219 65.5184 63.8371 67.3894 62.2895 68.5621C61.8095 68.9259 61.3211 69.2315 60.8352 69.4602C60.281 69.9113 59.6081 70.0385 59.0138 70.0197C58.4132 70.0006 57.8247 69.8324 57.3523 69.615C56.3783 69.1777 55.5104 68.55 54.7156 67.9031C54.3407 67.5981 53.9736 67.2817 53.6182 66.9753L53.5508 66.9172C53.1719 66.5906 52.8059 66.2765 52.4386 65.9826C49.986 64.0493 47.6435 61.9951 45.3252 59.9622L44.8866 59.5776C42.4182 57.414 39.9695 55.2831 37.4041 53.3213C37.0614 53.0592 36.996 52.5689 37.2581 52.2262C37.5202 51.8834 38.0105 51.818 38.3533 52.0801C40.9656 54.0778 43.4508 56.2413 45.9165 58.4026L46.3477 58.7807L46.3478 58.7807L46.3479 58.7808L46.348 58.7808C48.6738 60.8204 50.9881 62.8498 53.408 64.7572L53.4124 64.7607C53.8058 65.0754 54.1929 65.4079 54.5708 65.7336L54.634 65.7881C54.9933 66.0977 55.3447 66.4006 55.7018 66.6912C55.861 66.8208 56.0197 66.9465 56.1784 67.0676C56.0904 66.4602 56.0933 65.7915 56.1701 65.092C56.382 63.1619 57.1742 60.8413 58.4667 58.562C59.7592 56.2827 61.3441 54.4117 62.8916 53.239C63.4196 52.8389 63.9578 52.5091 64.4916 52.2747C63.2367 51.5006 61.5255 50.4363 59.5532 49.2049C55.4785 46.6611 50.2848 43.4017 45.6854 40.508C45.3202 40.2783 45.2104 39.796 45.4402 39.4308C45.6699 39.0655 46.1522 38.9558 46.5174 39.1855C51.116 42.0787 56.3081 45.337 60.3806 47.8795C62.4171 49.1509 64.1726 50.2426 65.4336 51.0199C66.0645 51.4088 66.5697 51.7178 66.9239 51.931C66.9806 51.9652 67.0331 51.9967 67.0814 52.0255Z" fill="#58595B"/>
</g>
<defs>
<clipPath id="clip0_3408_218747">
<rect width="73.6447" height="60" fill="white" transform="translate(3.70508 10)"/>
</clipPath>
</defs>
</svg>
