<svg width="81" height="80" viewBox="0 0 81 80" fill="none" xmlns="http://www.w3.org/2000/svg">
<g clip-path="url(#clip0_3408_218753)">
<path fill-rule="evenodd" clip-rule="evenodd" d="M18.9502 48.4171C18.9502 48.0077 19.2911 47.6758 19.7116 47.6758H40.6659C41.0865 47.6758 41.4274 48.0077 41.4274 48.4171V68.3444C41.4274 68.7539 41.0865 69.0858 40.6659 69.0858H19.7116C19.2911 69.0858 18.9502 68.7539 18.9502 68.3444V48.4171ZM20.473 49.1585V67.6031H39.9045V49.1585H20.473Z" fill="#58595B"/>
<path fill-rule="evenodd" clip-rule="evenodd" d="M39.9043 31.5158C39.9043 31.1063 40.2452 30.7744 40.6657 30.7744H61.62C62.0406 30.7744 62.3815 31.1063 62.3815 31.5158V68.2864C62.3815 68.6958 62.0406 69.0277 61.62 69.0277H40.6657C40.2452 69.0277 39.9043 68.6958 39.9043 68.2864V31.5158ZM41.4271 32.2571V67.545H60.8586V32.2571H41.4271Z" fill="#58595B"/>
<path fill-rule="evenodd" clip-rule="evenodd" d="M51.0081 10.6095C51.2985 10.6048 51.5663 10.7613 51.6986 11.0129L54.1328 15.6428L59.3945 16.2487C59.6832 16.282 59.9272 16.4723 60.0235 16.7394C60.1198 17.0064 60.0515 17.3036 59.8475 17.5052L56.1056 21.2036L57.069 26.2801C57.1216 26.5572 57.0083 26.8394 56.7766 27.0083C56.5448 27.1772 56.2348 27.2035 55.9765 27.0763L51.2789 24.7618L46.6359 27.2426C46.3821 27.3782 46.0713 27.362 45.8339 27.2007C45.5965 27.0395 45.4735 26.7611 45.5166 26.4824L46.31 21.3508L42.4583 17.8213C42.2473 17.6279 42.1673 17.3346 42.2521 17.0647C42.3368 16.7948 42.5716 16.5952 42.8577 16.5498L48.066 15.723L50.3319 11.0351C50.4555 10.7793 50.7178 10.6142 51.0081 10.6095ZM51.0495 13.0323L49.2732 16.7075C49.1663 16.9286 48.9545 17.0842 48.7068 17.1235L44.6258 17.7714L47.6442 20.5373C47.8261 20.704 47.9125 20.947 47.8753 21.1875L47.2514 25.2225L50.8981 23.274C51.1184 23.1563 51.3841 23.152 51.6082 23.2624L55.2922 25.0774L54.536 21.0932C54.4908 20.8552 54.5679 20.6107 54.7423 20.4383L57.6713 17.5433L53.5507 17.0688C53.2986 17.0397 53.078 16.8903 52.9623 16.6704L51.0495 13.0323Z" fill="#FF9900"/>
</g>
<defs>
<clipPath id="clip0_3408_218753">
<rect width="43.3706" height="60" fill="white" transform="translate(18.9502 10)"/>
</clipPath>
</defs>
</svg>
