<svg width="81" height="80" viewBox="0 0 81 80" fill="none" xmlns="http://www.w3.org/2000/svg">
<g clip-path="url(#clip0_3408_218759)">
<path fill-rule="evenodd" clip-rule="evenodd" d="M18.6133 48.7624C18.6133 48.3419 18.9542 48.001 19.3747 48.001H40.3072C40.7277 48.001 41.0686 48.3419 41.0686 48.7624V69.2081C41.0686 69.6286 40.7277 69.9695 40.3072 69.9695H19.3747C18.9542 69.9695 18.6133 69.6286 18.6133 69.2081V48.7624ZM20.1361 49.5238V68.4467H39.5458V49.5238H20.1361Z" fill="#58595B"/>
<path fill-rule="evenodd" clip-rule="evenodd" d="M39.5459 10.7311C39.5459 10.3106 39.8868 9.96973 40.3073 9.96973H61.2398C61.6604 9.96973 62.0013 10.3106 62.0013 10.7311V69.1474C62.0013 69.568 61.6604 69.9089 61.2398 69.9089H40.3073C39.8868 69.9089 39.5459 69.568 39.5459 69.1474V10.7311ZM41.0687 11.4926V68.386H60.4784V11.4926H41.0687Z" fill="#58595B"/>
<path fill-rule="evenodd" clip-rule="evenodd" d="M27.5163 25.5519C27.8053 25.547 28.0721 25.7062 28.2051 25.9629L30.6383 30.6596L35.9021 31.3388C36.19 31.3759 36.4317 31.5735 36.5254 31.8483C36.619 32.123 36.5483 32.4271 36.3431 32.6324L32.6137 36.3618L33.6311 41.5621C33.6868 41.8469 33.5758 42.1387 33.3448 42.3144C33.1138 42.4901 32.8029 42.5191 32.5433 42.3893L27.7889 40.0121L23.149 42.5584C22.8951 42.6977 22.584 42.6809 22.3465 42.515C22.1091 42.349 21.9864 42.0627 22.03 41.7763L22.8217 36.5732L18.9749 32.9527C18.7649 32.755 18.6846 32.4557 18.7675 32.1794C18.8504 31.9032 19.0822 31.6975 19.3663 31.6481L24.5768 30.7419L26.8416 25.9858C26.9659 25.7248 27.2272 25.5567 27.5163 25.5519ZM27.5578 28.0239L25.7825 31.752C25.6763 31.9749 25.4687 32.1325 25.2255 32.1748L21.1276 32.8874L24.1565 35.7382C24.3387 35.9097 24.425 36.1598 24.3874 36.4072L23.7673 40.482L27.4061 38.4851C27.6252 38.3648 27.8894 38.3598 28.113 38.4716L31.8393 40.3347L31.0413 36.2563C30.9926 36.0075 31.0709 35.7509 31.2502 35.5717L34.1709 32.6509L30.0482 32.1189C29.8006 32.087 29.5844 31.9357 29.4695 31.714L27.5578 28.0239Z" fill="#FF9900"/>
</g>
<defs>
<clipPath id="clip0_3408_218759">
<rect width="43.3706" height="60" fill="white" transform="translate(18.6436 10)"/>
</clipPath>
</defs>
</svg>
