<svg width="93" height="92" viewBox="0 0 93 92" fill="none" xmlns="http://www.w3.org/2000/svg">
<path fill-rule="evenodd" clip-rule="evenodd" d="M13.5913 48.8673C13.9486 48.1583 14.813 47.8732 15.5219 48.2304C25.1306 53.0723 35.7404 55.5944 46.5001 55.5944C57.2597 55.5944 67.8695 53.0723 77.4782 48.2304C78.1872 47.8732 79.0515 48.1583 79.4088 48.8673C79.7661 49.5763 79.4809 50.4406 78.7719 50.7979C68.762 55.8419 57.7091 58.4694 46.5001 58.4694C35.2911 58.4694 24.2381 55.8419 14.2282 50.7979C13.5192 50.4406 13.2341 49.5763 13.5913 48.8673Z" fill="#FF9900"/>
<path fill-rule="evenodd" clip-rule="evenodd" d="M21.9028 29.868C18.8154 29.868 16.3125 32.3709 16.3125 35.4583V67.0833C16.3125 70.1707 18.8154 72.6736 21.9028 72.6736H71.0972C74.1846 72.6736 76.6875 70.1707 76.6875 67.0833V35.4583C76.6875 32.3709 74.1846 29.868 71.0972 29.868H21.9028ZM13.4375 35.4583C13.4375 30.783 17.2275 26.993 21.9028 26.993H71.0972C75.7725 26.993 79.5625 30.783 79.5625 35.4583V67.0833C79.5625 71.7585 75.7725 75.5486 71.0972 75.5486H21.9028C17.2275 75.5486 13.4375 71.7585 13.4375 67.0833V35.4583Z" fill="#9B9DA0"/>
<path fill-rule="evenodd" clip-rule="evenodd" d="M39.4722 15.8112C37.9896 15.8112 36.5677 16.4002 35.5193 17.4485C34.4709 18.4969 33.882 19.9188 33.882 21.4015V28.4292C33.882 29.2232 33.2384 29.8667 32.4445 29.8667C31.6505 29.8667 31.007 29.2232 31.007 28.4292V21.4015C31.007 19.1563 31.8988 17.0032 33.4864 15.4156C35.0739 13.8281 37.2271 12.9362 39.4722 12.9362H53.5278C55.7729 12.9362 57.9261 13.8281 59.5136 15.4156C61.1012 17.0032 61.9931 19.1563 61.9931 21.4015V28.4292C61.9931 29.2232 61.3495 29.8667 60.5556 29.8667C59.7617 29.8667 59.1181 29.2232 59.1181 28.4292V21.4015C59.1181 19.9188 58.5291 18.4969 57.4807 17.4485C56.4323 16.4002 55.0104 15.8112 53.5278 15.8112H39.4722Z" fill="#9B9DA0"/>
<path fill-rule="evenodd" clip-rule="evenodd" d="M46.5 44.5612C47.2939 44.5612 47.9375 45.2048 47.9375 45.9987V46.0338C47.9375 46.8277 47.2939 47.4713 46.5 47.4713C45.7061 47.4713 45.0625 46.8277 45.0625 46.0338V45.9987C45.0625 45.2048 45.7061 44.5612 46.5 44.5612Z" fill="#FF9900"/>
</svg>
