<svg width="93" height="92" viewBox="0 0 93 92" fill="none" xmlns="http://www.w3.org/2000/svg">
<path fill-rule="evenodd" clip-rule="evenodd" d="M43.4653 16.2917C42.9146 16.2917 42.3865 16.5104 41.9971 16.8998C41.6077 17.2892 41.3889 17.8174 41.3889 18.368V39.4514C41.3889 40.0021 41.6077 40.5302 41.9971 40.9196C42.3865 41.309 42.9146 41.5278 43.4653 41.5278H68.0625C68.4438 41.5278 68.8094 41.6792 69.079 41.9488L77.1667 50.0365V18.368C77.1667 17.8173 76.9479 17.2892 76.5585 16.8998C76.1691 16.5104 75.641 16.2917 75.0903 16.2917H43.4653ZM39.9641 14.8669C40.8927 13.9383 42.1521 13.4167 43.4653 13.4167H75.0903C76.4035 13.4167 77.6629 13.9383 78.5915 14.8669C79.52 15.7955 80.0417 17.0549 80.0417 18.368V53.5069C80.0417 54.0883 79.6915 54.6125 79.1543 54.835C78.6171 55.0575 77.9989 54.9345 77.5877 54.5234L67.4671 44.4028H43.4653C42.1521 44.4028 40.8927 43.8811 39.9641 42.9525C39.0356 42.024 38.5139 40.7646 38.5139 39.4514V18.368C38.5139 17.0549 39.0356 15.7954 39.9641 14.8669Z" fill="#9B9DA0"/>
<path fill-rule="evenodd" clip-rule="evenodd" d="M18.868 40.8901C18.3173 40.8901 17.7892 41.1089 17.3998 41.4983C17.0104 41.8877 16.7916 42.4158 16.7916 42.9665V74.635L24.8793 66.5473C25.1489 66.2777 25.5145 66.1262 25.8958 66.1262H50.493C51.0437 66.1262 51.5718 65.9075 51.9612 65.5181C52.3506 65.1287 52.5694 64.6006 52.5694 64.0499V57.0221C52.5694 56.2282 53.213 55.5846 54.0069 55.5846C54.8008 55.5846 55.4444 56.2282 55.4444 57.0221V64.0499C55.4444 65.363 54.9227 66.6225 53.9942 67.551C53.0656 68.4796 51.8062 69.0012 50.493 69.0012H26.4912L16.3706 79.1219C15.9595 79.533 15.3412 79.656 14.804 79.4335C14.2669 79.211 13.9166 78.6868 13.9166 78.1054V42.9665C13.9166 41.6533 14.4383 40.3939 15.3669 39.4654C16.2954 38.5368 17.5548 38.0151 18.868 38.0151H25.8958C26.6897 38.0151 27.3333 38.6587 27.3333 39.4526C27.3333 40.2465 26.6897 40.8901 25.8958 40.8901H18.868Z" fill="#FF9900"/>
</svg>
