<svg width="93" height="92" viewBox="0 0 93 92" fill="none" xmlns="http://www.w3.org/2000/svg">
<path fill-rule="evenodd" clip-rule="evenodd" d="M18.4016 17.9016C19.3302 16.973 20.5896 16.4514 21.9028 16.4514H57.0417C58.3549 16.4514 59.6143 16.973 60.5429 17.9016C61.4714 18.8301 61.9931 20.0896 61.9931 21.4027V23.4791H71.0972C72.4104 23.4791 73.6698 24.0008 74.5984 24.9294C75.527 25.8579 76.0486 27.1173 76.0486 28.4305V67.0833C76.0486 69.3284 75.1568 71.4816 73.5692 73.0692C71.9817 74.6567 69.8285 75.5486 67.5834 75.5486H28.9306C25.7535 75.5486 22.7066 74.2865 20.46 72.04C18.2135 69.7934 16.9514 66.7465 16.9514 63.5694V21.4027C16.9514 20.0896 17.4731 18.8301 18.4016 17.9016ZM61.2265 72.6736H28.9306C26.516 72.6736 24.2003 71.7144 22.493 70.007C20.7856 68.2997 19.8264 65.984 19.8264 63.5694V21.4027C19.8264 20.8521 20.0452 20.3239 20.4346 19.9345C20.824 19.5451 21.3521 19.3264 21.9028 19.3264H57.0417C57.5924 19.3264 58.1205 19.5451 58.5099 19.9345C58.8993 20.3239 59.1181 20.8521 59.1181 21.4027V67.0833C59.1181 69.1471 59.8717 71.1331 61.2265 72.6736ZM61.9931 26.3541V67.0833C61.9931 68.5659 62.5821 69.9878 63.6304 71.0362C64.6788 72.0846 66.1007 72.6736 67.5834 72.6736C69.066 72.6736 70.4879 72.0846 71.5363 71.0362C72.5847 69.9878 73.1736 68.5659 73.1736 67.0833V28.4305C73.1736 27.8798 72.9549 27.3517 72.5655 26.9623C72.1761 26.5729 71.6479 26.3541 71.0972 26.3541H61.9931Z" fill="#9B9DA0"/>
<path fill-rule="evenodd" clip-rule="evenodd" d="M31.0068 31.9419C31.0068 31.148 31.6504 30.5044 32.4443 30.5044H46.4999C47.2938 30.5044 47.9374 31.148 47.9374 31.9419C47.9374 32.7358 47.2938 33.3794 46.4999 33.3794H32.4443C31.6504 33.3794 31.0068 32.7358 31.0068 31.9419Z" fill="#FF9900"/>
<path fill-rule="evenodd" clip-rule="evenodd" d="M31.0068 45.9987C31.0068 45.2048 31.6504 44.5612 32.4443 44.5612H46.4999C47.2938 44.5612 47.9374 45.2048 47.9374 45.9987C47.9374 46.7926 47.2938 47.4362 46.4999 47.4362H32.4443C31.6504 47.4362 31.0068 46.7926 31.0068 45.9987Z" fill="#FF9900"/>
<path fill-rule="evenodd" clip-rule="evenodd" d="M31.0068 60.0555C31.0068 59.2616 31.6504 58.618 32.4443 58.618H46.4999C47.2938 58.618 47.9374 59.2616 47.9374 60.0555C47.9374 60.8495 47.2938 61.493 46.4999 61.493H32.4443C31.6504 61.493 31.0068 60.8495 31.0068 60.0555Z" fill="#FF9900"/>
</svg>
