<svg width="93" height="92" viewBox="0 0 93 92" fill="none" xmlns="http://www.w3.org/2000/svg">
<path fill-rule="evenodd" clip-rule="evenodd" d="M24.6236 26.3714C25.6375 26.0672 26.7061 26.6425 27.0103 27.6563L31.4905 42.5869C31.7947 43.6007 31.2195 44.6693 30.2056 44.9735C29.1917 45.2778 28.1231 44.7025 27.8189 43.6886L23.3387 28.7581C23.0345 27.7442 23.6097 26.6756 24.6236 26.3714ZM47.5212 62.2965C47.8253 61.2826 48.8938 60.7072 49.9077 61.0113L64.8452 65.4915C65.8592 65.7956 66.4346 66.864 66.1305 67.878C65.8264 68.8919 64.7579 69.4673 63.744 69.1632L48.8064 64.683C47.7925 64.3789 47.2171 63.3104 47.5212 62.2965Z" fill="#9B9DA0"/>
<path fill-rule="evenodd" clip-rule="evenodd" d="M66.9779 25.523C67.7264 26.2715 67.7264 27.4851 66.9779 28.2336L46.7414 48.4701C45.9929 49.2186 44.7794 49.2186 44.0309 48.4701C43.2824 47.7215 43.2824 46.508 44.0309 45.7595L64.2673 25.523C65.0159 24.7745 66.2294 24.7745 66.9779 25.523Z" fill="#9B9DA0"/>
<path fill-rule="evenodd" clip-rule="evenodd" d="M23.6599 19.8068C21.8075 19.8068 20.3057 21.3085 20.3057 23.161C20.3057 25.0134 21.8075 26.5151 23.6599 26.5151C25.5124 26.5151 27.0141 25.0134 27.0141 23.161C27.0141 21.3085 25.5124 19.8068 23.6599 19.8068ZM16.4724 23.161C16.4724 19.1914 19.6904 15.9735 23.6599 15.9735C27.6295 15.9735 30.8474 19.1914 30.8474 23.161C30.8474 27.1305 27.6295 30.3485 23.6599 30.3485C19.6904 30.3485 16.4724 27.1305 16.4724 23.161Z" fill="#FF9900"/>
<path fill-rule="evenodd" clip-rule="evenodd" d="M69.3403 19.8068C67.4879 19.8068 65.9862 21.3085 65.9862 23.161C65.9862 25.0134 67.4879 26.5151 69.3403 26.5151C71.1928 26.5151 72.6945 25.0134 72.6945 23.161C72.6945 21.3085 71.1928 19.8068 69.3403 19.8068ZM62.1528 23.161C62.1528 19.1914 65.3708 15.9735 69.3403 15.9735C73.3099 15.9735 76.5278 19.1914 76.5278 23.161C76.5278 27.1305 73.3099 30.3485 69.3403 30.3485C65.3708 30.3485 62.1528 27.1305 62.1528 23.161Z" fill="#FF9900"/>
<path fill-rule="evenodd" clip-rule="evenodd" d="M69.3403 65.4849C67.4879 65.4849 65.9862 66.9866 65.9862 68.839C65.9862 70.6915 67.4879 72.1932 69.3403 72.1932C71.1928 72.1932 72.6945 70.6915 72.6945 68.839C72.6945 66.9866 71.1928 65.4849 69.3403 65.4849ZM62.1528 68.839C62.1528 64.8695 65.3708 61.6516 69.3403 61.6516C73.3099 61.6516 76.5278 64.8695 76.5278 68.839C76.5278 72.8086 73.3099 76.0265 69.3403 76.0265C65.3708 76.0265 62.1528 72.8086 62.1528 68.839Z" fill="#FF9900"/>
<path fill-rule="evenodd" clip-rule="evenodd" d="M34.2016 44.4015C26.5271 44.4015 20.3057 50.6229 20.3057 58.2974C20.3057 65.9718 26.5271 72.1932 34.2016 72.1932C41.876 72.1932 48.0974 65.9718 48.0974 58.2974C48.0974 50.6229 41.876 44.4015 34.2016 44.4015ZM16.4724 58.2974C16.4724 48.5058 24.41 40.5682 34.2016 40.5682C43.9931 40.5682 51.9307 48.5058 51.9307 58.2974C51.9307 68.0889 43.9931 76.0265 34.2016 76.0265C24.41 76.0265 16.4724 68.0889 16.4724 58.2974Z" fill="#9B9DA0"/>
</svg>
