<svg width="93" height="92" viewBox="0 0 93 92" fill="none" xmlns="http://www.w3.org/2000/svg">
<path fill-rule="evenodd" clip-rule="evenodd" d="M54.4854 38.6503C47.7813 38.6503 42.3465 44.085 42.3465 50.7892C42.3465 57.4933 47.7813 62.928 54.4854 62.928C61.1895 62.928 66.6243 57.4933 66.6243 50.7892C66.6243 44.085 61.1895 38.6503 54.4854 38.6503ZM38.5132 50.7892C38.5132 41.9679 45.6642 34.8169 54.4854 34.8169C63.3066 34.8169 70.4576 41.9679 70.4576 50.7892C70.4576 59.6104 63.3066 66.7614 54.4854 66.7614C45.6642 66.7614 38.5132 59.6104 38.5132 50.7892Z" fill="#FF9900"/>
<path fill-rule="evenodd" clip-rule="evenodd" d="M65.4288 61.7325C66.1773 60.984 67.3909 60.984 68.1394 61.7325L76.9241 70.5172C77.6726 71.2657 77.6726 72.4793 76.9241 73.2278C76.1756 73.9763 74.962 73.9763 74.2135 73.2278L65.4288 64.443C64.6803 63.6945 64.6803 62.481 65.4288 61.7325Z" fill="#FF9900"/>
<path fill-rule="evenodd" clip-rule="evenodd" d="M13.9166 19.1654C13.9166 18.1068 14.7747 17.2487 15.8333 17.2487H72.0555C73.1141 17.2487 73.9722 18.1068 73.9722 19.1654C73.9722 20.2239 73.1141 21.0821 72.0555 21.0821H15.8333C14.7747 21.0821 13.9166 20.2239 13.9166 19.1654Z" fill="#9B9DA0"/>
<path fill-rule="evenodd" clip-rule="evenodd" d="M13.9166 40.2487C13.9166 39.1902 14.7747 38.3321 15.8333 38.3321H29.8888C30.9474 38.3321 31.8055 39.1902 31.8055 40.2487C31.8055 41.3073 30.9474 42.1654 29.8888 42.1654H15.8333C14.7747 42.1654 13.9166 41.3073 13.9166 40.2487Z" fill="#9B9DA0"/>
<path fill-rule="evenodd" clip-rule="evenodd" d="M13.9166 61.3321C13.9166 60.2735 14.7747 59.4154 15.8333 59.4154H29.8888C30.9474 59.4154 31.8055 60.2735 31.8055 61.3321C31.8055 62.3906 30.9474 63.2487 29.8888 63.2487H15.8333C14.7747 63.2487 13.9166 62.3906 13.9166 61.3321Z" fill="#9B9DA0"/>
</svg>
