<svg width="40" height="40" viewBox="0 0 40 40" fill="none" xmlns="http://www.w3.org/2000/svg">
<path d="M32.8814 14.113L26 7V14.113H32.8814Z" stroke="#1D1D1B" stroke-width="1.5" stroke-linejoin="round"/>
<path d="M26.11 7H10.705C8.66214 7 7 8.7237 7 10.8422V29.1578C7 31.2763 8.66214 33 10.705 33H29.295C31.3379 33 33 31.2763 33 29.1578V14.1452L26.11 7Z" stroke="#1D1D1B" stroke-width="1.5" stroke-miterlimit="10"/>
<mask id="path-3-inside-1_9551_258478" fill="white">
<rect x="4" y="15" width="20" height="10" rx="1"/>
</mask>
<rect x="4" y="15" width="20" height="10" rx="1" fill="#3DA2FF" stroke="#3DA2FF" stroke-width="3" mask="url(#path-3-inside-1_9551_258478)"/>
<path d="M6.33008 17.5029H7.89893C8.71468 17.5029 9.34814 17.7183 9.79932 18.1489C10.2505 18.5796 10.4761 19.1812 10.4761 19.9536C10.4761 20.7762 10.2414 21.4062 9.77197 21.8438C9.30485 22.2812 8.62923 22.5 7.74512 22.5H6.33008V17.5029ZM7.38965 18.3711V21.625H7.84424C8.86507 21.625 9.37549 21.077 9.37549 19.981C9.37549 18.9077 8.90153 18.3711 7.95361 18.3711H7.38965ZM13.0874 18.6069C13.4383 18.6069 13.7516 18.6867 14.0273 18.8462C14.3053 19.0034 14.5195 19.2313 14.6699 19.5298C14.8226 19.826 14.8989 20.1655 14.8989 20.5483C14.8989 20.5597 14.8989 20.5711 14.8989 20.5825C14.8989 21.2046 14.7349 21.6911 14.4067 22.042C14.0786 22.3929 13.6217 22.5684 13.0361 22.5684C13.027 22.5684 13.0168 22.5684 13.0054 22.5684C12.6545 22.5684 12.34 22.4886 12.062 22.3291C11.7863 22.1673 11.5721 21.9372 11.4194 21.6387C11.269 21.3402 11.1938 20.9995 11.1938 20.6167C11.1938 20.6053 11.1938 20.5939 11.1938 20.5825C11.1938 19.9582 11.3568 19.474 11.6826 19.1299C12.0085 18.7812 12.4665 18.6069 13.0566 18.6069C13.0658 18.6069 13.076 18.6069 13.0874 18.6069ZM13.6445 19.728C13.5192 19.5412 13.3187 19.4478 13.043 19.4478C12.7673 19.4478 12.5667 19.54 12.4414 19.7246C12.3184 19.9092 12.2568 20.1951 12.2568 20.5825C12.2568 20.9676 12.3195 21.2559 12.4448 21.4473C12.5724 21.6364 12.7729 21.731 13.0464 21.731C13.3221 21.731 13.5215 21.6364 13.6445 21.4473C13.7699 21.2581 13.8325 20.971 13.8325 20.5859C13.8325 20.1986 13.7699 19.9126 13.6445 19.728ZM17.3154 22.5684C16.126 22.5684 15.5312 21.9155 15.5312 20.6099C15.5312 19.9627 15.693 19.4671 16.0166 19.123C16.3402 18.779 16.8039 18.6069 17.4077 18.6069C17.8521 18.6069 18.2474 18.6935 18.5938 18.8667L18.2896 19.6733C17.9204 19.5229 17.6265 19.4478 17.4077 19.4478C16.8654 19.4478 16.5942 19.8271 16.5942 20.5859C16.5942 21.3447 16.8654 21.7241 17.4077 21.7241C17.7905 21.7241 18.1471 21.6136 18.4775 21.3926V22.2847C18.2998 22.3986 18.1289 22.4727 17.9648 22.5068C17.7939 22.5479 17.5775 22.5684 17.3154 22.5684ZM20.436 21.8062C20.8143 21.8062 21.0034 21.6968 21.0034 21.478C21.0034 21.3664 20.9533 21.2775 20.853 21.2114C20.755 21.1453 20.5295 21.0337 20.1763 20.8765C19.8823 20.7534 19.6659 20.6395 19.5269 20.5347C19.3901 20.4299 19.2899 20.3102 19.2261 20.1758C19.1646 20.0391 19.1338 19.8716 19.1338 19.6733C19.1338 19.3338 19.2648 19.0718 19.5269 18.8872C19.7912 18.7004 20.1603 18.6069 20.6343 18.6069C21.1082 18.6069 21.5605 18.7072 21.9912 18.9077L21.6768 19.6597C21.4557 19.5662 21.2655 19.4967 21.106 19.4512C20.9487 19.4033 20.7904 19.3794 20.6309 19.3794C20.3232 19.3794 20.1694 19.4626 20.1694 19.6289C20.1694 19.7223 20.2196 19.8044 20.3198 19.875C20.4201 19.9434 20.6274 20.0402 20.9419 20.1655C21.2586 20.2909 21.4865 20.4071 21.6255 20.5142C21.8966 20.7192 22.0322 21.0109 22.0322 21.3892C22.0322 21.7674 21.8955 22.0591 21.6221 22.2642C21.3486 22.467 20.9533 22.5684 20.436 22.5684C19.9188 22.5684 19.4858 22.4943 19.1372 22.3462V21.4849C19.3332 21.576 19.5519 21.6523 19.7935 21.7139C20.0373 21.7754 20.2515 21.8062 20.436 21.8062Z" fill="white"/>
</svg>
