<svg width="92" height="87" viewBox="0 0 92 87" fill="none" xmlns="http://www.w3.org/2000/svg">
<path d="M67.9774 57.4426C67.3554 57.4426 66.9111 56.9099 66.9111 56.3772V49.4521C66.9111 48.8306 67.4443 48.3867 67.9774 48.3867H75.4416C76.0636 48.3867 76.5079 48.9194 76.5079 49.4521V52.9147C76.5079 53.5362 75.9747 53.9801 75.4416 53.9801C74.9084 53.9801 74.3753 53.4474 74.3753 52.9147V50.5175H69.1326V56.3772C69.0437 56.9099 68.5994 57.4426 67.9774 57.4426Z" fill="#FF9900"/>
<path d="M56.4252 11.0979H52.8709C52.16 8.52321 49.8497 6.65876 47.095 6.65876H46.473C46.2953 6.65876 46.2065 6.65876 46.1176 6.65876C44.7847 2.75229 41.1415 0 36.9652 0C31.7225 0 27.5461 4.2616 27.5461 9.41104C27.5461 14.2053 31.1005 18.1118 35.7211 18.7333C36.5209 20.7753 38.5646 22.1959 40.8749 22.1959H56.4252C59.4464 22.1959 62.0233 19.7099 62.0233 16.6025C62.0233 13.4951 59.4464 11.0979 56.4252 11.0979ZM29.6788 9.41104C29.6788 5.41579 32.9665 2.21958 36.8763 2.21958C40.0752 2.21958 42.8298 4.2616 43.7184 7.28024C42.119 7.99051 40.9638 9.41104 40.4306 11.1867C37.5872 11.3643 35.2768 13.6726 35.188 16.5137C32.0779 15.7147 29.6788 12.8736 29.6788 9.41104ZM56.4252 19.9763H40.7861C38.9201 19.9763 37.4095 18.4669 37.4095 16.6025C37.4095 14.738 38.9201 13.2287 40.7861 13.2287H41.4081C41.9412 13.2287 42.4744 12.7848 42.4744 12.2521C42.6521 10.2989 44.3404 8.78956 46.2953 8.78956H46.9173C48.8722 8.78956 50.4717 10.2989 50.7383 12.2521C50.8271 12.7848 51.2714 13.2287 51.8046 13.2287H56.3363C58.2024 13.2287 59.713 14.738 59.713 16.6025C59.713 18.4669 58.2024 19.9763 56.4252 19.9763Z" fill="#58595B"/>
<path d="M91.3467 45.9899L84.5046 40.3078V31.6958H82.2831V38.4433L72.5087 30.364C72.0644 30.0089 71.5312 30.0089 71.0869 30.364L52.16 45.9899C51.8046 46.2562 51.6269 46.7889 51.8046 47.2329C51.9823 47.6768 52.3378 47.9431 52.8709 47.9431H58.7356V64.1905C54.3815 65.5222 49.8497 67.5643 45.4068 70.4053C45.1402 70.5829 44.8736 70.7605 44.5182 70.938C40.5196 68.097 34.2994 65.611 26.1244 63.6578V61.7046H34.1217C37.4095 61.7046 40.0753 59.041 40.0753 55.7561V54.158V53.0926V44.4806C40.0753 41.8171 37.8538 39.5975 35.188 39.5975C32.5223 39.5975 30.3008 41.8171 30.3008 44.4806V48.6534V51.9384V53.2701C30.3008 53.3589 30.2119 53.5365 30.0342 53.5365H26.0356V36.934C26.0356 33.2051 23.0144 30.1864 19.2823 30.1864C15.5503 30.1864 12.5291 33.2051 12.5291 36.934V65.8774C11.9071 65.8774 11.2851 65.8774 10.5742 65.8774H9.86331C9.77445 65.8774 9.59674 65.7886 9.59674 65.611V64.2793V60.9943V56.8215C9.59674 54.158 7.37527 51.9384 4.70951 51.9384C2.04375 51.9384 0 54.0692 0 56.8215V65.4335V66.4989V68.097C0 71.3819 2.66576 74.0454 5.95353 74.0454H11.7293H12.5291H12.6179V86.3863H14.8394V72.98C14.8394 72.3586 14.3951 71.9146 13.7731 71.9146H11.7293H5.95353C3.90978 71.9146 2.22147 70.2278 2.22147 68.1857V66.5876V65.5222V56.8215C2.22147 55.4009 3.37663 54.158 4.88723 54.158C6.39782 54.158 7.55299 55.3121 7.55299 56.8215V60.9943V64.2793V65.6998C7.55299 67.0316 8.61929 68.1857 10.041 68.1857H10.7519C11.0185 68.1857 11.2851 68.1857 11.4628 68.1857C12.2625 68.1857 13.0622 68.1857 13.862 68.097C14.3951 68.0082 14.8394 67.5643 14.8394 67.0316V37.0228C14.8394 34.5368 16.8831 32.4948 19.3712 32.4948C21.8592 32.4948 23.903 34.5368 23.903 37.0228V54.7794C23.903 55.4009 24.4361 55.8448 24.9693 55.8448H25.5024H30.1231C31.456 55.8448 32.6111 54.7794 32.6111 53.3589V52.0272V48.7422V44.5694C32.6111 43.1488 33.7663 41.9059 35.2769 41.9059C36.7875 41.9059 37.9426 43.06 37.9426 44.5694V53.1813V54.2467V55.8448C37.9426 57.8869 36.2543 59.5737 34.2106 59.5737H25.5913H25.147C24.525 59.5737 24.0807 60.1065 24.0807 60.6392V84.9658H26.3022V82.4799C32.5223 80.1715 39.8975 76.709 46.7397 72.3586C66.644 59.5737 88.5032 64.9895 88.6809 65.0783L89.2141 62.9475C88.5032 62.77 75.9742 59.6625 61.0459 63.6578V46.8777C61.0459 46.2562 60.5127 45.8123 59.9796 45.8123H55.981L71.7978 32.8499L87.5258 45.8123H82.6386C82.0165 45.8123 81.5723 46.345 81.5723 46.8777V56.8215H83.7937V47.9431H90.6358C91.0801 47.9431 91.5244 47.6768 91.7021 47.2329C91.791 46.7889 91.7021 46.345 91.3467 45.9899ZM26.1244 65.9662C33.1443 67.653 38.7424 69.8726 42.4744 72.181C36.8763 75.466 31.1894 78.1295 26.1244 79.9939V65.9662Z" fill="#58595B"/>
</svg>
