<svg width="92" height="86" viewBox="0 0 92 86" fill="none" xmlns="http://www.w3.org/2000/svg">
<path fill-rule="evenodd" clip-rule="evenodd" d="M68.2277 10.6C68.225 10.3024 68.1045 10.0182 67.8928 9.81012C67.6811 9.60207 67.3957 9.48734 67.0997 9.49131L60.5024 9.57973C59.8894 9.58795 59.3984 10.0928 59.404 10.7091L59.58 29.8968C59.5823 30.1494 59.6695 30.3937 59.8275 30.5901L63.1701 34.746C63.3847 35.0129 63.7093 35.166 64.0506 35.1614L70.6479 35.073C71.0741 35.0673 71.4597 34.8174 71.6408 34.4294C71.822 34.0415 71.7668 33.5836 71.4987 33.2504L68.4001 29.3978L68.2277 10.6ZM61.8029 29.4862L61.6407 11.8029L66.0116 11.7443L66.1772 29.8084C66.1795 30.061 66.2667 30.3053 66.4247 30.5017L68.3261 32.8657L64.5616 32.9161L61.8029 29.4862ZM88.2849 27.4852L88.0959 11.3342L85.8695 11.3606L86.0552 27.2321L79.6737 39.6285C79.59 39.7912 79.5472 39.972 79.5492 40.1552L80.0014 81.2414L82.2278 81.2167L81.7787 40.4094L88.1604 28.0127C88.2443 27.8497 88.2871 27.6686 88.2849 27.4852ZM76.2339 40.2189C76.227 39.6017 75.7242 39.1067 75.1102 39.1125L65.7862 39.2009C65.1715 39.2068 64.6779 39.7123 64.6834 40.3301L65.0454 80.4437L67.2718 80.4234L66.92 41.4285L74.0201 41.3612L74.46 80.3578L76.6864 80.3324L76.2339 40.2189ZM56.7771 24.9488L56.8765 31.6411L61.1588 37.634C61.2924 37.8209 61.3654 38.0447 61.3678 38.2748L61.8197 80.4221L59.5932 80.4462L59.1452 38.6525L54.8643 32.6617C54.7317 32.4761 54.6588 32.2541 54.6554 32.0255L54.5508 24.9822L56.7771 24.9488Z" fill="#58595B"/>
<path d="M80.0459 2.21057L80.3098 24.8469L76.7913 30.1522L73.3607 25.8195L73.0089 2.299L80.0459 2.21057ZM82.157 0L70.8098 0.088423L71.0737 26.6153L76.8793 33.866L82.5089 25.4658L82.157 0Z" fill="#FF9900"/>
<path fill-rule="evenodd" clip-rule="evenodd" d="M28.7644 2.59473C29.3792 2.59473 29.8777 3.09577 29.8777 3.71383V6.36652C29.8777 6.98458 29.3792 7.48562 28.7644 7.48562C28.1495 7.48562 27.6511 6.98458 27.6511 6.36652V3.71383C27.6511 3.09577 28.1495 2.59473 28.7644 2.59473ZM23.0171 18.3921C23.0171 15.201 25.5905 12.6142 28.7649 12.6142C31.9393 12.6142 34.5127 15.201 34.5127 18.3921C34.5127 21.5831 31.9393 24.17 28.7649 24.17C25.5905 24.17 23.0171 21.5831 23.0171 18.3921ZM28.7649 10.376C24.3608 10.376 20.7905 13.9649 20.7905 18.3921C20.7905 22.8193 24.3608 26.4082 28.7649 26.4082C33.169 26.4082 36.7393 22.8193 36.7393 18.3921C36.7393 13.9649 33.169 10.376 28.7649 10.376ZM24.7863 61.1493C24.6464 61.2977 24.5235 61.43 24.4183 61.5442C19.7808 60.5021 14.9626 59.9226 10.2199 59.3521L10.2197 59.3521L10.2195 59.3521C8.16228 59.1046 6.11925 58.8589 4.11133 58.5779L3.80426 60.7947C5.90646 61.0889 8.00361 61.341 10.0897 61.5919L10.0901 61.5919C14.9976 62.1819 19.8441 62.7646 24.5516 63.8708L24.5547 63.8715C27.9992 64.6706 31.3709 65.682 34.7762 66.7036L34.7763 66.7037L34.7764 66.7037C35.8523 67.0265 36.9316 67.3502 38.0176 67.6686C42.5149 68.9872 47.0928 70.202 51.8467 70.7884C54.6212 71.1481 57.4947 71.3293 60.3768 71.2387L60.3073 69.0016C57.561 69.0879 54.8062 68.9155 52.128 68.5681L52.1211 68.5673C47.5521 68.004 43.1149 66.8317 38.641 65.52C37.5874 65.211 36.5296 64.8937 35.4675 64.5751L35.4616 64.5733L35.4607 64.573C32.6468 63.7287 29.8023 62.8753 26.922 62.1445C27.3653 61.6861 27.9142 61.1332 28.5537 60.5168C30.3934 58.7437 32.97 56.4588 35.9309 54.3916C38.8996 52.3189 42.205 50.5003 45.505 49.6099C48.791 48.7233 51.9992 48.7734 54.8887 50.3236C56.1572 51.019 57.3638 51.6459 58.5058 52.2393L58.5062 52.2395L58.5065 52.2397L58.508 52.2405L58.5085 52.2407L58.5102 52.2416C59.1131 52.5549 59.698 52.8588 60.2646 53.1585L61.3016 51.1779C60.7046 50.8621 60.105 50.5506 59.4948 50.2336L59.4943 50.2333C58.3663 49.6473 57.2019 49.0424 55.9504 48.3562L55.9419 48.3516C52.4111 46.4554 48.5838 46.4618 44.9278 47.4482C41.2842 48.4313 37.7395 50.4038 34.6607 52.5533C31.5742 54.7082 28.9059 57.0766 27.0127 58.9012C26.0648 59.8149 25.3078 60.5954 24.7863 61.1493ZM0.615382 78.9614C0.0143233 79.9034 0.014965 79.9038 0.0156734 79.9042L0.0174248 79.9053L0.0221317 79.9084L0.0363619 79.9174C0.0479893 79.9247 0.0638981 79.9347 0.0840883 79.9471C0.124469 79.972 0.181976 80.007 0.256611 80.0509C0.40588 80.1389 0.623666 80.263 0.90997 80.4157C1.48258 80.7211 2.32928 81.1409 3.45006 81.6139C5.69187 82.5599 9.02921 83.7186 13.4614 84.6018C22.3297 86.369 35.5546 87.0278 53.1245 82.7024L53.1364 82.6997L53.1908 82.6871C53.2396 82.6759 53.3134 82.6591 53.4107 82.6375C53.6053 82.5942 53.8942 82.5315 54.2669 82.4545C55.0124 82.3006 56.0925 82.09 57.4233 81.8652C60.0869 81.4153 63.7443 80.9103 67.7272 80.6866C71.7154 80.4627 75.9965 80.523 79.9185 81.1881C83.8539 81.8556 87.3268 83.1153 89.7954 85.2103L91.2317 83.5001C88.3345 81.0413 84.4186 79.6815 80.2889 78.9811C76.1457 78.2785 71.6855 78.2227 67.6031 78.4519C63.5154 78.6814 59.7729 79.1988 57.0543 79.658C55.694 79.8877 54.5873 80.1034 53.8189 80.2621C53.4347 80.3414 53.1348 80.4065 52.9299 80.4521C52.8275 80.4749 52.7487 80.4927 52.695 80.5051L52.6335 80.5193L52.6171 80.5231L52.6104 80.5247L52.6005 80.5271C35.34 84.7772 22.4418 84.1096 13.8944 82.4064C9.61822 81.5543 6.42431 80.4416 4.31195 79.5501C3.25565 79.1044 2.46954 78.7138 1.95361 78.4386C1.69564 78.301 1.50522 78.1922 1.38236 78.1199C1.32092 78.0837 1.27638 78.0566 1.24873 78.0395L1.21991 78.0216L1.21549 78.0188C1.21593 78.0191 1.21644 78.0194 0.615382 78.9614ZM52.6104 80.5247L52.8586 81.5851L52.6416 80.6588L52.6126 80.5348C52.6103 80.5247 52.6103 80.5247 52.6104 80.5247ZM29.8777 30.4184C29.8777 29.8004 29.3792 29.2993 28.7644 29.2993C28.1495 29.2993 27.6511 29.8004 27.6511 30.4184V33.0711C27.6511 33.6892 28.1495 34.1902 28.7644 34.1902C29.3792 34.1902 29.8777 33.6892 29.8777 33.0711V30.4184ZM13.1367 18.3916C13.1367 17.7735 13.6351 17.2725 14.25 17.2725H16.8009C17.4157 17.2725 17.9142 17.7735 17.9142 18.3916C17.9142 19.0096 17.4157 19.5107 16.8009 19.5107H14.25C13.6351 19.5107 13.1367 19.0096 13.1367 18.3916ZM40.8156 17.2725C40.2008 17.2725 39.7024 17.7735 39.7024 18.3916C39.7024 19.0096 40.2008 19.5107 40.8156 19.5107H43.3666C43.9814 19.5107 44.4799 19.0096 44.4799 18.3916C44.4799 17.7735 43.9814 17.2725 43.3666 17.2725H40.8156ZM17.6863 7.25553C18.121 6.81849 18.8259 6.81849 19.2607 7.25553L21.1079 9.11241C21.5427 9.54945 21.5427 10.258 21.1079 10.6951C20.6731 11.1321 19.9683 11.1321 19.5335 10.6951L17.6863 8.83818C17.2515 8.40115 17.2515 7.69257 17.6863 7.25553ZM38.1028 26.1092C37.6788 25.6617 36.9741 25.6444 36.5289 26.0706C36.0836 26.4969 36.0664 27.2052 36.4905 27.6528L38.2497 29.5097C38.6738 29.9573 39.3784 29.9745 39.8237 29.5483C40.2689 29.122 40.2861 28.4137 39.8621 27.9661L38.1028 26.1092ZM21.1079 26.0897C21.5427 26.5267 21.5427 27.2353 21.1079 27.6723L19.2607 29.5292C18.8259 29.9663 18.121 29.9663 17.6863 29.5292C17.2515 29.0922 17.2515 28.3836 17.6863 27.9466L19.5335 26.0897C19.9683 25.6527 20.6731 25.6527 21.1079 26.0897ZM39.8621 8.81865C40.2861 8.37109 40.2689 7.66272 39.8237 7.23647C39.3784 6.81022 38.6738 6.8275 38.2497 7.27506L36.4905 9.13195C36.0664 9.57951 36.0836 10.2879 36.5289 10.7141C36.9741 11.1404 37.6788 11.1231 38.1028 10.6755L39.8621 8.81865Z" fill="#58595B"/>
</svg>
