<svg width="91" height="86" viewBox="0 0 91 86" fill="none" xmlns="http://www.w3.org/2000/svg">
<path d="M74.6334 12.9121H78.507H81.2616L67.3165 0L53.4575 12.9121H56.2121H60.0858V16.2692H55.0931V24.7912H55.8678H58.5363L51.7359 54.6612C49.1535 42.9543 38.7378 35.207 38.5656 35.1209L37.7048 34.5184L36.4136 36.24L37.2744 36.8425C37.4465 36.9286 51.7359 47.5165 49.9282 62.4085L49.1535 65.9378L51.2195 66.4543L51.3055 66.0239H51.3916L51.6499 64.9909C51.822 64.2162 51.9081 63.5275 51.9942 62.7528L60.6022 24.7052H74.203L76.1828 45.881L78.3349 45.7088L76.355 24.7052H78.3349H79.2817V16.1832H74.2891V12.9121H74.6334ZM58.9667 10.7601L67.4026 2.92674L75.8385 10.7601H72.5675H62.2378H58.9667ZM72.4814 12.9121V16.2692H62.2378V12.9121H72.4814ZM74.203 22.6392H61.2909H57.3312V18.4213H77.4741V22.6392H74.203Z" fill="#58595B"/>
<path d="M29.2686 34.2609C29.1825 34.1748 29.0964 34.1748 29.0964 34.1748C29.0103 34.1748 28.9242 34.0887 28.9242 34.0887C28.8382 34.0887 28.7521 34.0887 28.7521 34.0887C28.666 34.0887 28.5799 34.0887 28.5799 34.0887C28.4938 34.0887 28.4078 34.1748 28.4078 34.1748C28.3217 34.1748 28.3217 34.1748 28.2356 34.2609C28.1495 34.2609 28.1495 34.347 28.0634 34.4331C27.9774 34.5191 27.9774 34.5191 27.8913 34.5191C27.8052 34.6913 25.481 38.4789 25.1367 43.2133C23.5012 40.2865 21.9517 35.8964 24.362 32.7114C24.6202 32.3671 24.6202 31.7646 24.362 31.4202C24.1037 31.0759 23.5872 30.9038 23.1568 31.0759C21.7796 31.5924 16.3565 33.7444 13.5158 36.3268C13.4297 35.2078 13.6019 33.9166 14.3766 32.6254C15.7539 30.3873 18.5946 29.0961 22.8986 28.5796C23.329 28.4935 23.7594 28.2353 23.8455 27.7188C23.8455 27.6327 24.4481 24.9642 22.5543 22.8122C21.3491 21.4349 19.6275 20.6602 17.2173 20.4019C17.9059 20.1437 18.6806 19.8854 19.6275 19.8854C22.3821 19.7133 25.2228 21.0906 28.1495 23.7591C28.4078 23.9312 28.666 24.1034 29.0103 24.0173C29.3546 24.0173 29.6129 23.8451 29.7851 23.5869C29.8711 23.5008 34.5195 16.8726 40.5451 17.1308C38.3931 18.4221 35.7246 20.8323 34.003 25.6528C33.8308 26.1693 34.0891 26.858 34.6056 27.0301C35.1221 27.2023 35.8107 26.944 35.9829 26.4276C38.7374 18.8525 43.9884 18.0777 44.2466 17.9917C44.7631 17.9056 45.1074 17.5612 45.1935 17.0448C45.2796 16.5283 45.0213 16.0979 44.5909 15.9257C40.8034 14.2041 36.7576 14.8067 32.7979 17.6473C30.9902 18.9385 29.6129 20.488 28.8382 21.4349C25.7393 18.8525 22.6404 17.6473 19.6275 17.8195C15.5817 17.9917 13.1715 20.6602 12.9993 20.8323C12.7411 21.1766 12.655 21.607 12.8272 22.0374C12.9993 22.4678 13.4297 22.64 13.8601 22.64C17.3894 22.3818 19.7997 22.9843 21.0048 24.3616C21.6935 25.1363 21.8656 26.0832 21.8656 26.6858C17.3034 27.3744 14.2045 29.01 12.655 31.6785C10.503 35.2939 11.9664 39.2536 12.0524 39.4257C12.2246 39.8561 12.655 40.1144 13.0854 40.1144C13.5158 40.1144 13.9462 39.7701 14.0323 39.3397C14.3766 38.1345 17.7338 35.9825 21.4352 34.347C19.7136 40.6309 25.5671 47.7756 25.8253 48.1199C25.9975 48.3781 26.3418 48.4642 26.6861 48.4642C26.8583 48.4642 27.0305 48.4642 27.2026 48.3781C27.633 48.1199 27.8913 47.6034 27.7191 47.173C26.6861 43.0411 28.4078 38.8232 29.3546 36.8433C46.5708 49.5833 42.0946 65.0778 41.8363 65.7664C41.6642 66.369 42.0085 66.9716 42.525 67.1437C42.6111 67.1437 42.6972 67.2298 42.8693 67.2298C43.2997 67.2298 43.7301 66.9716 43.9023 66.4551C43.644 66.1107 48.981 48.1199 29.2686 34.2609Z" fill="#58595B"/>
<path d="M40.632 25.6522C40.3738 26.1687 40.7181 26.8574 41.2346 27.0295C42.8701 27.6321 46.5716 29.6119 47.7767 32.1083C46.4855 31.85 44.3335 31.4196 40.9763 31.0753C40.3738 30.9892 39.8573 31.4196 39.7712 32.0222C39.6851 32.6248 40.1155 33.1412 40.7181 33.2273C47.0881 33.916 48.6375 34.6046 48.7236 34.6046C48.8958 34.6907 49.0679 34.6907 49.2401 34.6907C49.4123 34.6907 49.6705 34.6046 49.8427 34.5185C50.187 34.3464 50.3591 34.002 50.3591 33.5716C50.3591 28.3207 42.4397 25.1357 42.0954 24.9636C41.4068 24.8775 40.8042 25.1357 40.632 25.6522Z" fill="#58595B"/>
<path d="M90.0414 71.1025C89.0945 64.3021 84.3601 59.9981 80.3143 58.1904C79.6256 57.8461 78.8509 57.5879 78.0762 57.4157C77.6458 56.3827 76.0963 53.9725 72.1366 53.1977C69.0377 52.5952 65.4223 53.1117 64.9058 54.8333C64.8198 55.1776 64.6476 56.2966 66.4553 56.8992C67.3161 57.1575 68.0047 57.5018 68.5212 57.8461C65.9388 58.7069 63.5286 60.2564 61.5487 62.2362C59.741 64.13 58.1055 67.4011 57.6751 70.2417C56.6421 76.6117 61.7209 81.7765 63.8729 83.6703C64.5615 84.2729 65.4223 84.9615 66.4553 85.1337C66.5414 85.1337 66.5414 85.1337 66.6275 85.1337C66.7996 85.1337 66.9718 85.1337 67.1439 85.1337C68.6934 85.1337 70.3289 84.1007 71.0176 82.5513C72.1366 79.9688 72.3949 77.989 71.6201 76.5256C71.448 76.1813 71.1897 75.837 70.9315 75.6648C70.5011 75.4066 69.9846 75.3205 69.382 75.4066C68.8656 75.4926 68.263 75.5787 67.7465 75.7509C66.2831 76.0952 64.7337 76.3534 63.6146 75.923C63.0982 75.6648 62.4956 75.2344 62.4956 74.1153C62.5817 72.8241 63.2703 71.7912 64.3894 71.1886C66.0249 70.4139 67.4883 70.6721 69.5542 71.3608C69.9846 71.5329 70.5011 71.7051 70.9315 71.8772C75.9242 73.6849 82.122 75.923 87.2868 73.6849C90.2136 72.3937 90.0414 71.4468 90.0414 71.1025ZM68.0047 55.1776C68.8656 55.0054 70.1568 54.9194 71.7062 55.2637C73.3418 55.608 74.4608 56.2966 75.0634 56.9853C73.7722 56.8992 72.3949 56.9853 71.1037 57.2435C70.5872 56.7271 69.5542 55.8662 68.0047 55.1776ZM70.3289 69.2948C68.3491 68.6062 66.0249 67.9175 63.4425 69.2087C61.5487 70.1556 60.4296 71.8772 60.3436 73.9432C60.2575 75.6648 61.1183 77.1282 62.7538 77.8168C64.5615 78.5915 66.4553 78.1611 68.1769 77.8168C68.6934 77.7307 69.2099 77.5586 69.6403 77.5586C69.9846 78.1611 70.0707 79.3663 69.0377 81.7765C68.6073 82.6373 67.7465 83.2399 66.9718 83.0677H66.8857C66.3692 82.9817 65.7667 82.5513 65.2502 82.1208C63.2703 80.3992 58.8802 75.923 59.741 70.7582C60.1714 68.3479 61.5487 65.5073 63.0982 63.9578C66.111 60.8589 70.1568 59.2234 74.1165 59.2234C75.2355 59.2234 76.3546 59.3956 77.4736 59.6538C75.8381 61.0311 74.8051 62.6666 74.3747 64.5604C73.7722 66.9707 74.2886 69.3809 74.8051 71.0164C73.7722 70.6721 72.7392 70.3278 71.7062 69.8974C71.2758 69.6391 70.8454 69.467 70.3289 69.2948ZM86.5982 71.619C83.9297 72.8241 80.6586 72.4798 77.5597 71.619C77.0432 70.586 75.8381 67.7454 76.5267 64.9047C76.9571 63.097 78.1623 61.5476 79.97 60.3424C83.3271 61.978 86.9425 65.5073 87.8033 70.9304C87.5451 71.1886 86.9425 71.4468 86.5982 71.619Z" fill="#58595B"/>
<path d="M82.0359 67.1431C82.6064 67.1431 83.0689 66.6806 83.0689 66.1101C83.0689 65.5396 82.6064 65.0771 82.0359 65.0771C81.4654 65.0771 81.0029 65.5396 81.0029 66.1101C81.0029 66.6806 81.4654 67.1431 82.0359 67.1431Z" fill="#58595B"/>
<path d="M51.8206 64.4738C47.3444 63.9573 42.2656 64.8181 38.8224 66.884C38.1337 67.2283 37.5312 67.6587 36.9286 68.0891C35.4652 69.036 34.0879 69.8968 32.5385 70.4994C31.1612 71.102 26.3407 72.8236 23.2418 71.3602C22.1227 70.8437 21.348 69.8968 20.9176 68.5196C20.4872 67.2283 20.1429 65.5067 21.0037 64.6459C21.9506 63.699 24.3608 64.1294 25.1356 64.3877L27.1154 64.9902L26.4268 63.0104C25.566 60.3419 22.9835 57.4151 19.5403 57.0708C16.9579 56.8126 14.3755 57.9316 12.0513 58.9646C11.3626 59.2228 10.7601 59.5672 10.1575 59.7393L9.98536 59.8254C6.62821 61.1166 3.27106 62.4078 0 63.699L0.774726 65.6789C4.04579 64.3877 7.40294 63.0965 10.674 61.8053L10.8462 61.7192C11.4487 61.4609 12.1374 61.2027 12.826 60.8584C14.978 59.9115 17.2161 58.9646 19.2821 59.1368C21.0037 59.3089 22.467 60.428 23.5 61.8913C22.1227 61.8053 20.4872 61.9774 19.3681 63.0965C18.163 64.3877 17.9048 66.3675 18.7656 69.1221C19.3681 71.102 20.5733 72.4793 22.2088 73.254C23.4139 73.8566 24.7051 74.0287 26.0824 74.0287C29.0092 74.0287 31.8498 72.9957 33.3132 72.4793C35.0348 71.7906 36.5843 70.8437 38.0476 69.8968C38.6502 69.5525 39.2528 69.1221 39.8553 68.7778C42.8682 66.9701 47.3444 66.1954 51.3041 66.6258L51.8206 64.4738Z" fill="#FF9900"/>
</svg>
