<svg width="24" height="24" viewBox="0 0 24 24" fill="none" xmlns="http://www.w3.org/2000/svg">
<path d="M3 5L11.5 12L20 5" stroke="#333333"/>
<path fill-rule="evenodd" clip-rule="evenodd" d="M3 5H20V13.1423H21V5V4H20H3H2V5V17.8571V18.8571H3H9.82349V17.8571H3V5Z" fill="#333333"/>
<path d="M15.7891 21.0898C14.3672 21.0898 13.2656 20.7012 12.4844 19.9238C11.7031 19.1426 11.3125 18.0527 11.3125 16.6543C11.3125 15.6387 11.5215 14.7344 11.9395 13.9414C12.3574 13.1484 12.9531 12.5352 13.7266 12.1016C14.4961 11.6641 15.3809 11.4453 16.3809 11.4453C17.2285 11.4453 17.9766 11.623 18.625 11.9785C19.2773 12.3262 19.7832 12.8281 20.1426 13.4844C20.502 14.1367 20.6816 14.8848 20.6816 15.7285C20.6816 16.2754 20.5957 16.7812 20.4238 17.2461C20.2559 17.707 20.0137 18.0664 19.6973 18.3242C19.3848 18.5781 19.041 18.7051 18.666 18.7051C18.2949 18.7051 17.9941 18.6016 17.7637 18.3945C17.5332 18.1875 17.3984 17.9297 17.3594 17.6211H17.3125C17.1562 17.9648 16.9297 18.2324 16.6328 18.4238C16.3398 18.6113 15.998 18.7051 15.6074 18.7051C15.0215 18.7051 14.5625 18.5059 14.2305 18.1074C13.9023 17.7051 13.7383 17.1602 13.7383 16.4727C13.7383 15.6758 13.9688 15.0293 14.4297 14.5332C14.8945 14.0332 15.5 13.7832 16.2461 13.7832C16.5273 13.7832 16.834 13.8086 17.166 13.8594C17.502 13.9102 17.7988 13.9766 18.0566 14.0586L17.9102 16.8125V16.9414C17.9102 17.6367 18.1699 17.9844 18.6895 17.9844C19.0449 17.9844 19.334 17.7754 19.5566 17.3574C19.7793 16.9355 19.8906 16.3887 19.8906 15.7168C19.8906 15.6973 19.8906 15.6797 19.8906 15.6641C19.8906 14.9883 19.7441 14.3867 19.4512 13.8594C19.1621 13.3281 18.7539 12.9199 18.2266 12.6348C17.6992 12.3457 17.1016 12.2012 16.4336 12.2012C16.418 12.2012 16.3984 12.2012 16.375 12.2012C16.3516 12.2012 16.3281 12.2012 16.3047 12.2012C15.4805 12.2012 14.748 12.3828 14.1074 12.7461C13.4668 13.1094 12.9766 13.623 12.6367 14.2871C12.2969 14.9473 12.127 15.7031 12.127 16.5547C12.127 16.5742 12.127 16.5938 12.127 16.6133C12.127 17.8047 12.4414 18.7207 13.0703 19.3613C13.6992 20.002 14.6055 20.3223 15.7891 20.3223C16.6016 20.3223 17.4531 20.1543 18.3438 19.8184V20.5977C17.5938 20.9258 16.7422 21.0898 15.7891 21.0898ZM16.2461 14.5039C15.7383 14.5039 15.3398 14.6797 15.0508 15.0312C14.7656 15.3828 14.623 15.8711 14.623 16.4961C14.623 17.4883 15.0039 17.9844 15.7656 17.9844C16.5742 17.9844 17.0137 17.373 17.084 16.1504L17.166 14.6211C16.877 14.543 16.5703 14.5039 16.2461 14.5039Z" fill="#FF9900"/>
</svg>
