<svg width="40" height="40" viewBox="0 0 40 40" fill="none" xmlns="http://www.w3.org/2000/svg">
<path fill-rule="evenodd" clip-rule="evenodd" d="M31 11.5H9C8.17157 11.5 7.5 12.1716 7.5 13V31C7.5 31.8284 8.17157 32.5 9 32.5H31C31.8284 32.5 32.5 31.8284 32.5 31V13C32.5 12.1716 31.8284 11.5 31 11.5ZM9 10C7.34315 10 6 11.3431 6 13V31C6 32.6569 7.34315 34 9 34H31C32.6569 34 34 32.6569 34 31V13C34 11.3431 32.6569 10 31 10H9Z" fill="#333333"/>
<path d="M11 8C11 7.44772 11.4477 7 12 7H14C14.5523 7 15 7.44772 15 8V13C15 13.5523 14.5523 14 14 14H12C11.4477 14 11 13.5523 11 13V8Z" fill="white"/>
<path fill-rule="evenodd" clip-rule="evenodd" d="M12.5 8.5V12.5H13.5V8.5H12.5ZM12 7C11.4477 7 11 7.44772 11 8V13C11 13.5523 11.4477 14 12 14H14C14.5523 14 15 13.5523 15 13V8C15 7.44772 14.5523 7 14 7H12Z" fill="#333333"/>
<path d="M25 8C25 7.44772 25.4477 7 26 7H28C28.5523 7 29 7.44772 29 8V13C29 13.5523 28.5523 14 28 14H26C25.4477 14 25 13.5523 25 13V8Z" fill="white"/>
<path fill-rule="evenodd" clip-rule="evenodd" d="M26.5 8.5V12.5H27.5V8.5H26.5ZM26 7C25.4477 7 25 7.44772 25 8V13C25 13.5523 25.4477 14 26 14H28C28.5523 14 29 13.5523 29 13V8C29 7.44772 28.5523 7 28 7H26Z" fill="#333333"/>
<path fill-rule="evenodd" clip-rule="evenodd" d="M7 15.75H33V17.25H7V15.75Z" fill="#333333"/>
<path fill-rule="evenodd" clip-rule="evenodd" d="M20.5 19L21.7983 23.201H26L22.6006 25.7984L23.8989 30L20.5 27.4032L17.1006 30L18.3989 25.7984L15 23.201H19.2017L20.5 19Z" fill="#FF9900"/>
</svg>
