<svg width="105" height="104" viewBox="0 0 105 104" fill="none" xmlns="http://www.w3.org/2000/svg">
<path fill-rule="evenodd" clip-rule="evenodd" d="M17.9065 14.5829L19.6172 10.4768L21.4778 14.5172C23.7971 19.5535 27.938 23.4061 32.9704 26.9756C35.4744 28.7516 38.1478 30.4233 40.8863 32.1356L40.9134 32.1525C43.6437 33.8597 46.4374 35.6072 49.0832 37.4875C51.8308 39.4401 54.47 41.5699 56.7768 44.0169C58.3113 42.9917 59.8894 42.0241 61.4426 41.0833C61.7179 40.9165 61.9923 40.7506 62.2656 40.5854L62.2698 40.5829L62.2698 40.5829C64.1543 39.4439 65.9866 38.3365 67.7273 37.1656C71.7228 34.478 74.9674 31.6252 76.7785 27.8446L78.7002 23.833L80.3483 27.9646C84.8471 39.2429 84.6727 49.352 81.4636 57.5847C78.2974 65.7072 70.5383 72.1152 63.3629 75.7158C63.3531 75.7551 63.3432 75.7945 63.3333 75.8338L63.2217 75.7863C63.1919 75.8011 63.1621 75.8159 63.1323 75.8306L63.1323 75.7482L59.5801 74.235C61.8724 65.116 61.066 58.5289 58.6222 53.3989C56.1545 48.2186 51.9023 44.2753 46.8241 40.6665C44.2877 38.8641 41.5924 37.1767 38.8458 35.4593L38.7701 35.412L38.7701 35.412C36.0655 33.7209 33.3109 31.9985 30.7141 30.1566C26.6426 27.2687 22.8336 24.0032 20.0507 19.8902C14.7954 34.9936 16.5277 47.943 22.004 57.7767C27.9636 68.4781 38.4448 75.6534 49.6383 77.9244L48.8628 81.7466C36.607 79.26 25.1367 71.4178 18.5968 59.6742C12.0285 47.8796 10.5205 32.3123 17.9065 14.5829ZM64.2335 71.5068C70.1846 68.2602 75.172 62.9867 77.8299 56.1683C80.2997 49.8322 80.7997 42.0529 78.054 33.1602C75.8225 36.0676 72.9229 38.371 69.904 40.4016C68.0786 41.6295 66.1582 42.79 64.2811 43.9243L64.2782 43.9261C64.0055 44.0909 63.7336 44.2552 63.4631 44.419C62.0373 45.2827 60.6422 46.1383 59.3024 47.0214C60.3809 48.4746 61.3393 50.0341 62.1431 51.7216C64.6165 56.9137 65.5241 63.6052 64.2335 71.5068Z" fill="#9B9DA0"/>
<path fill-rule="evenodd" clip-rule="evenodd" d="M31.5608 44.9633C32.4552 44.1683 33.8247 44.2489 34.6197 45.1432C46.4684 58.473 54.1929 68.8652 60.9918 84.7292C61.4631 85.829 60.9536 87.1028 59.8538 87.5742C58.7539 88.0455 57.4802 87.536 57.0088 86.4362C50.4616 71.1595 43.0613 61.1625 31.3809 48.0221C30.5859 47.1278 30.6665 45.7583 31.5608 44.9633Z" fill="#FF9900"/>
</svg>
