<svg width="105" height="104" viewBox="0 0 105 104" fill="none" xmlns="http://www.w3.org/2000/svg">
<g clip-path="url(#clip0_3_7106)">
<path d="M88.6034 87.4818H86.3276V45.068H88.6034C89.6379 45.068 90.2586 44.2404 90.2586 43.206C90.2586 42.1715 89.431 41.3439 88.6034 41.3439H15.1552C14.1207 41.3439 13.5 42.1715 13.5 43.206C13.5 44.2404 14.3276 45.068 15.1552 45.068H17.6379V87.4818H15.1552C14.3276 87.4818 13.5 88.3094 13.5 89.3439C13.5 90.3784 14.3276 91.206 15.1552 91.206H88.6034C89.6379 91.206 90.2586 90.3784 90.2586 89.3439C90.2586 88.3094 89.6379 87.4818 88.6034 87.4818ZM21.1552 45.068H82.8103V87.4818H21.1552V45.068Z" fill="#9B9DA0"/>
<path d="M23.4303 28.7232C23.6372 28.7232 23.8441 28.7232 24.051 28.5163L51.982 16.5163L79.7061 28.5163C80.5337 28.9301 81.5682 28.5163 81.982 27.6887C82.3958 26.8611 81.982 25.8266 81.1544 25.4128L52.6027 13.206C52.1889 12.9991 51.5682 12.9991 51.1544 13.206L22.8096 25.4128C21.7751 25.8266 21.3613 26.8611 21.7751 27.6887C21.982 28.3094 22.8096 28.7232 23.4303 28.7232Z" fill="#FF9900"/>
<path d="M35.6369 57.8949C34.6025 57.8949 33.9818 58.7224 33.9818 59.7569V71.9638C33.9818 72.9983 34.8094 73.8259 35.6369 73.8259C36.4645 73.8259 37.2921 72.9983 37.2921 71.9638V59.7569C37.2921 58.5155 36.6714 57.8949 35.6369 57.8949Z" fill="#9B9DA0"/>
<path d="M51.98 57.8949C50.9456 57.8949 50.3249 58.7224 50.3249 59.7569V71.9638C50.3249 72.9983 51.1525 73.8259 51.98 73.8259C52.8076 73.8259 53.6352 72.9983 53.6352 71.9638V59.7569C53.6352 58.5155 52.8076 57.8949 51.98 57.8949Z" fill="#9B9DA0"/>
<path d="M68.3274 57.8949C67.2929 57.8949 66.6722 58.7224 66.6722 59.7569V71.9638C66.6722 72.9983 67.4998 73.8259 68.3274 73.8259C69.155 73.8259 69.9826 72.9983 69.9826 71.9638V59.7569C69.9826 58.5155 69.155 57.8949 68.3274 57.8949Z" fill="#9B9DA0"/>
</g>
<defs>
<clipPath id="clip0_3_7106">
<rect width="76.9655" height="78" fill="white" transform="translate(13.5 13)"/>
</clipPath>
</defs>
</svg>
