<svg width="50" height="51" viewBox="0 0 50 51" fill="none" xmlns="http://www.w3.org/2000/svg">
<g clip-path="url(#clip0_11465_283331)">
<path d="M20.7145 37.5492C20.7145 37.8637 20.973 38.1791 21.3444 38.1791C21.7063 38.1791 22.0119 37.8734 22.0119 37.5116V30.6945H26.0081C26.2918 30.6945 26.5442 30.9215 26.5442 31.2306V33.9761C26.5442 34.1471 26.6278 34.303 26.7375 34.4127C26.8472 34.5224 27.0032 34.606 27.1741 34.606C27.4886 34.606 27.804 34.3475 27.804 33.9761V31.2306C27.804 30.2293 26.9718 29.3971 25.9705 29.3971H21.3444C21.0299 29.3971 20.7145 29.6556 20.7145 30.027V37.5492Z" fill="#FF9900" stroke="#FF9900" stroke-width="0.357143"/>
<path d="M25.481 38.1791H30.1072C30.2888 38.1791 30.4597 38.1016 30.574 37.9738C30.6856 37.8491 30.7433 37.6751 30.6995 37.4889V30.027C30.6995 29.8561 30.6158 29.7001 30.5061 29.5905C30.3964 29.4808 30.2405 29.3971 30.0696 29.3971C29.755 29.3971 29.4397 29.6556 29.4397 30.027V36.8817H25.4434C25.1598 36.8817 24.9074 36.6547 24.9074 36.3456V33.6C24.9074 33.4291 24.8237 33.2732 24.7141 33.1635C24.6044 33.0538 24.4484 32.9701 24.2775 32.9701C23.963 32.9701 23.6476 33.2287 23.6476 33.6V36.3456C23.6476 37.3469 24.4798 38.1791 25.481 38.1791Z" fill="#FF9900" stroke="#FF9900" stroke-width="0.357143"/>
<path d="M7.74616 31.8067C7.72129 31.851 7.69743 31.8898 7.67454 31.9239L9.15804 20.3641C9.15805 20.364 9.15806 20.364 9.15806 20.3639C9.76735 15.6233 12.4958 11.5909 16.3846 9.10024L16.3846 9.1003L16.3945 9.09381C18.997 7.38494 22.1376 6.41919 25.4734 6.41919H25.813C29.5975 6.41919 33.1135 7.678 35.9377 9.82117L35.9377 9.82118L35.9435 9.82547C39.2677 12.3122 41.5721 16.0203 42.1285 20.3361L43.6128 31.902C43.5885 31.8661 43.5662 31.8285 43.5459 31.7893L43.5445 31.7866L42.9223 30.5923L42.9219 30.5915L42.2714 29.3404L42.271 29.3396L41.9598 28.7421L41.9583 28.7393L41.4206 27.715L41.4137 27.7017L41.4063 27.6887C40.9174 26.819 40.0771 26.1046 39.0348 25.8542C38.7492 25.7746 38.4622 25.7357 38.1511 25.7357H13.0788C12.3015 25.7357 11.5589 26.0162 10.9803 26.4373C10.4812 26.7775 10.0993 27.2547 9.84161 27.7358L9.84159 27.7358L9.83819 27.7423L9.32882 28.7096L9.32877 28.7096L9.32364 28.7196L8.3898 30.5406L8.38812 30.5439L7.74616 31.8067Z" stroke="#58595B" stroke-width="2.07983"/>
<path d="M11.7305 26.2721C9.66773 33.9435 14.23 41.8838 21.9594 43.9622C29.6889 46.0405 37.6088 41.4933 39.6808 33.7875C40.3561 31.2763 40.2512 28.7766 39.6582 26.4407" stroke="#58595B" stroke-width="2.07983" stroke-miterlimit="10"/>
</g>
<defs>
<clipPath id="clip0_11465_283331">
<rect width="50" height="50" fill="white" transform="translate(0 0.379272)"/>
</clipPath>
</defs>
</svg>
