<svg width="110" height="110" viewBox="0 0 110 110" fill="none" xmlns="http://www.w3.org/2000/svg">
<g clip-path="url(#clip0_3982_159977)">
<path d="M22.2582 52.3792C21.7504 51.4989 21.0741 50.7273 20.268 50.1084C19.462 49.4895 18.5419 49.0354 17.5604 48.772C16.5788 48.5087 15.555 48.4413 14.5474 48.5736C13.5398 48.7059 12.5682 49.0354 11.6879 49.5433C10.8076 50.0511 10.036 50.7274 9.41709 51.5334C8.79817 52.3395 8.34408 53.2595 8.08074 54.2411C7.8174 55.2226 7.74996 56.2464 7.88229 57.254C8.01461 58.2616 8.34411 59.2333 8.85195 60.1136L24.7504 87.6565C28.895 94.6783 35.6441 99.78 43.53 101.852C51.416 103.925 59.8012 102.8 66.8624 98.7229C73.9236 94.6459 79.0898 87.9461 81.2377 80.0804C83.3856 72.2147 82.3415 63.819 78.3324 56.719L71.0277 44.0433C69.9391 42.4015 68.2651 41.2369 66.3472 40.7873C64.4294 40.3376 62.4122 40.6366 60.7073 41.6234C59.0024 42.6101 57.7382 44.2103 57.1727 46.0973C56.6073 47.9842 56.7832 50.0159 57.6644 51.7776" stroke="#333333" stroke-width="5" stroke-linecap="round" stroke-linejoin="round"/>
<path d="M45.977 62.5199L29.6488 34.2465C29.141 33.3662 28.4647 32.5946 27.6587 31.9757C26.8526 31.3568 25.9326 30.9027 24.951 30.6393C23.9695 30.376 22.9457 30.3086 21.9381 30.4409C20.9305 30.5732 19.9588 30.9027 19.0785 31.4105C18.1982 31.9184 17.4266 32.5946 16.8077 33.4007C16.1888 34.2068 15.7347 35.1268 15.4714 36.1084C15.208 37.0899 15.1406 38.1137 15.2729 39.1213C15.4052 40.1289 15.7347 41.1006 16.2426 41.9809L32.5707 70.2543" stroke="#333333" stroke-width="5" stroke-linecap="round" stroke-linejoin="round"/>
<path d="M64.5395 63.7231L46.4926 32.4418C45.467 30.664 43.7771 29.3665 41.7948 28.8347C39.8125 28.3028 37.7001 28.5802 35.9223 29.6059C34.1445 30.6315 32.847 32.3214 32.3151 34.3037C31.7833 36.286 32.0607 38.3984 33.0863 40.1762" stroke="#333333" stroke-width="5" stroke-linecap="round" stroke-linejoin="round"/>
<path d="M42.5395 29.0902L38.1137 21.3988C37.088 19.6211 35.3982 18.3235 33.4159 17.7917C31.4336 17.2599 29.3212 17.5373 27.5434 18.5629C25.7656 19.5886 24.4681 21.2784 23.9362 23.2607C23.4044 25.243 23.6818 27.3554 24.7074 29.1332L25.7387 30.8949" stroke="#333333" stroke-width="5" stroke-linecap="round" stroke-linejoin="round"/>
<path d="M80.7816 82.2855C86.0259 77.5367 89.4869 71.136 90.5891 64.1476C91.6913 57.1591 90.3684 50.0039 86.8402 43.8715L79.5355 31.2387C79.0277 30.3584 78.3514 29.5868 77.5454 28.9679C76.7393 28.349 75.8193 27.8949 74.8377 27.6315C73.8562 27.3682 72.8324 27.3007 71.8248 27.4331C70.8172 27.5654 69.8455 27.8949 68.9652 28.4027C68.085 28.9106 67.3133 29.5868 66.6944 30.3929C66.0755 31.1989 65.6214 32.119 65.3581 33.1005C65.0947 34.0821 65.0273 35.1059 65.1596 36.1135C65.292 37.1211 65.6214 38.0928 66.1293 38.973" stroke="#333333" stroke-width="5" stroke-linecap="round" stroke-linejoin="round"/>
<path d="M67.1176 40.6918L54.9574 19.6371C53.9318 17.8593 52.2419 16.5618 50.2596 16.03C48.2773 15.4981 46.1649 15.7755 44.3871 16.8012C42.6093 17.8268 41.3118 19.5167 40.78 21.499C40.2481 23.4813 40.5255 25.5937 41.5512 27.3715" stroke="#333333" stroke-width="5" stroke-linecap="round" stroke-linejoin="round"/>
<path d="M75.9688 4.85547L74.207 11.4727" stroke="#FF9900" stroke-width="5" stroke-linecap="round" stroke-linejoin="round"/>
<path d="M88.9883 10.9141L85.0352 16.543" stroke="#FF9900" stroke-width="5" stroke-linecap="round" stroke-linejoin="round"/>
<path d="M99.0859 21.0117L93.457 24.9648" stroke="#FF9900" stroke-width="5" stroke-linecap="round" stroke-linejoin="round"/>
</g>
<defs>
<clipPath id="clip0_3982_159977">
<rect width="110" height="110" fill="white"/>
</clipPath>
</defs>
</svg>
