<svg width="71" height="70" viewBox="0 0 71 70" fill="none" xmlns="http://www.w3.org/2000/svg">
<g clip-path="url(#clip0_6401_220702)">
<path d="M43.625 20.125C43.625 18.4191 43.1191 16.7516 42.1714 15.3332C41.2237 13.9148 39.8766 12.8093 38.3006 12.1565C36.7246 11.5037 34.9904 11.3329 33.3173 11.6657C31.6443 11.9985 30.1074 12.82 28.9012 14.0262C27.695 15.2324 26.8735 16.7693 26.5407 18.4423C26.2079 20.1154 26.3787 21.8496 27.0315 23.4256C27.6843 25.0017 28.7898 26.3487 30.2082 27.2964C31.6266 28.2442 33.2941 28.75 35 28.75V34.5M35 34.5L10.206 50.278C9.77528 50.5518 9.44507 50.958 9.26496 51.4355C9.08485 51.9131 9.06457 52.4362 9.20718 52.9262C9.34979 53.4163 9.64757 53.8468 10.0558 54.1531C10.464 54.4595 10.9606 54.625 11.471 54.625H58.529C59.0394 54.625 59.536 54.4595 59.9442 54.1531C60.3524 53.8468 60.6502 53.4163 60.7928 52.9262C60.9354 52.4362 60.9151 51.9131 60.735 51.4355C60.5549 50.958 60.2247 50.5518 59.794 50.278L35 34.5Z" stroke="#58595B" stroke-width="2.75" stroke-linecap="round" stroke-linejoin="round"/>
<path d="M26.1927 44.7673L34.7325 39.3329C34.8962 39.2287 35.1056 39.2287 35.2693 39.3329L43.8091 44.7673C44.2311 45.0359 44.0408 45.6891 43.5406 45.6891H26.4612C25.9609 45.6891 25.7707 45.0359 26.1927 44.7673Z" fill="#FF9900"/>
</g>
<defs>
<clipPath id="clip0_6401_220702">
<rect width="70" height="70" fill="white" transform="translate(0.5)"/>
</clipPath>
</defs>
</svg>
