<svg width="70" height="70" viewBox="0 0 70 70" fill="none" xmlns="http://www.w3.org/2000/svg">
<g clip-path="url(#clip0_8980_259354)">
<path d="M34.4887 67.2299H34.724V67.1868C34.7489 67.1789 34.7734 67.1697 34.7975 67.1592C35.1346 67.0133 35.3301 66.6467 35.244 66.2831C35.2439 66.2827 35.2439 66.2823 35.2438 66.2819L27.2852 31.3047C27.2851 31.3042 27.285 31.3037 27.2849 31.3032C27.2083 30.9503 26.8873 30.702 26.529 30.702H10.7653C10.5255 30.702 10.306 30.819 10.1622 30.9913L10.1622 30.9913L10.1581 30.9964L10.1062 31.0623L10.1062 31.0622L10.1046 31.0643C9.90607 31.3221 9.87944 31.6901 10.0751 31.9705C10.0755 31.971 10.0758 31.9715 10.0762 31.972L33.8421 66.893L33.8421 66.893L33.8447 66.8968C33.9926 67.1052 34.2345 67.2299 34.4887 67.2299ZM25.904 32.2477L32.8199 62.6454L12.129 32.2477H25.904Z" fill="#58595B" stroke="#58595B" stroke-width="0.470508"/>
<path d="M33.7327 66.6287C33.8087 66.9792 34.1258 67.2265 34.4811 67.2299L43.1964 31.6477C43.2488 31.4193 43.1973 31.1751 43.0439 30.9913C42.8955 30.8135 42.6737 30.7093 42.4408 30.7093H26.5289C26.296 30.7093 26.0742 30.8135 25.9258 30.9913L25.9257 30.9913L25.9217 30.9964C25.7749 31.1827 25.72 31.4161 25.7733 31.648C25.7734 31.6481 25.7734 31.6482 25.7734 31.6483L33.7323 66.6272C33.7324 66.6277 33.7326 66.6282 33.7327 66.6287ZM35.2373 66.6272L43.1963 31.6483L34.4885 67.2299V67.2299C34.8439 67.2265 35.161 66.9792 35.237 66.6287C35.2371 66.6282 35.2372 66.6277 35.2373 66.6272ZM41.4716 32.2477L34.4884 62.9646L27.4981 32.2477H41.4716Z" fill="#58595B" stroke="#58595B" stroke-width="0.470508"/>
<path d="M42.4485 30.7093C42.0902 30.7093 41.7692 30.9576 41.6926 31.3105C41.6925 31.311 41.6924 31.3115 41.6923 31.312L33.7332 66.2916L33.7332 66.2916L33.7323 66.2957C33.6585 66.6494 33.8368 67.0176 34.1794 67.1663C34.2455 67.1953 34.3152 67.214 34.3855 67.2232L34.3997 67.2373H34.4962C34.738 67.2373 34.9821 67.1238 35.1327 66.9115C35.1327 66.9115 35.1328 66.9114 35.1328 66.9114L59.9308 31.9877L59.9308 31.9877L59.9328 31.9848C60.1331 31.6934 60.1154 31.2939 59.868 31.0271L59.81 30.9627L59.81 30.9626L59.8061 30.9585C59.6598 30.8038 59.4506 30.7093 59.235 30.7093H42.4485ZM57.8382 32.2477L36.1062 62.8544L43.0661 32.2477H57.8382Z" fill="#58595B" stroke="#58595B" stroke-width="0.470508"/>
<path d="M50.063 20.3122L50.063 20.3122L50.0603 20.3093C49.9152 20.1559 49.7138 20.0602 49.4891 20.0602H42.441C42.0176 20.0602 41.6648 20.4039 41.6648 20.8293V31.4783C41.6648 31.9037 42.0176 32.2475 42.441 32.2475H59.2201H59.2275V32.2475C59.5309 32.2446 59.8032 32.068 59.9298 31.7974L59.93 31.7975L59.9341 31.7875C60.0489 31.5095 59.999 31.1851 59.7939 30.9612C59.7939 30.9611 59.7938 30.961 59.7937 30.961L50.063 20.3122ZM49.1483 21.5985L57.4782 30.7092H43.2173V21.5985H49.1483Z" fill="#58595B" stroke="#58595B" stroke-width="0.470508"/>
<path d="M26.5288 32.2475H42.4407C42.8641 32.2475 43.217 31.9037 43.217 31.4783V20.8293C43.217 20.4039 42.8641 20.0602 42.4407 20.0602H26.5288C26.1053 20.0602 25.7525 20.4039 25.7525 20.8293V31.4783C25.7525 31.9037 26.1053 32.2475 26.5288 32.2475ZM41.6644 21.5985V30.7092H27.305V21.5985H41.6644Z" fill="#58595B" stroke="#58595B" stroke-width="0.470508"/>
<path d="M10.1607 31.0002L10.1607 31.0002L10.1575 31.0042C9.97995 31.231 9.93356 31.5461 10.0645 31.8153C10.1945 32.0825 10.4715 32.2475 10.7652 32.2475H26.4324L26.4398 32.2548H26.5363C26.9598 32.2548 27.3126 31.9111 27.3126 31.4857V20.8366C27.3126 20.4112 26.9598 20.0675 26.5363 20.0675H19.4808C19.248 20.0675 19.0262 20.1716 18.8778 20.3495L18.8763 20.3512L10.1607 31.0002ZM25.7526 21.5985V30.7092H12.3882L19.8443 21.5985H25.7526Z" fill="#58595B" stroke="#58595B" stroke-width="0.470508"/>
<path d="M30.1983 18.2665C30.3257 18.3535 30.4764 18.4062 30.6332 18.4097L30.6349 18.4172C30.7976 18.4172 30.9545 18.3639 31.0863 18.2738L31.0863 18.2738L31.0911 18.2704L34.9853 15.4658L38.8794 18.2703C38.8795 18.2704 38.8795 18.2704 38.8795 18.2704C39.1544 18.4686 39.5172 18.4685 39.792 18.2703C40.0692 18.0704 40.1766 17.721 40.0702 17.405C40.0701 17.4049 40.07 17.4047 40.07 17.4045L38.5687 12.8822L42.4728 10.0949C42.7582 9.89586 42.8665 9.54685 42.7614 9.231C42.6619 8.90925 42.3592 8.70056 42.0227 8.70924H37.2089L35.7284 4.17799C35.6301 3.85879 35.3303 3.64072 34.9927 3.64072C34.6583 3.64072 34.3637 3.86224 34.2585 4.1737L34.2585 4.1737L34.2578 4.17572L32.7768 8.69461H27.9594C27.6302 8.69461 27.332 8.90391 27.2252 9.22028L27.225 9.22022L27.2224 9.22917C27.1289 9.5471 27.2332 9.88605 27.5106 10.0861L27.5113 10.0866L31.4096 12.8749L29.9155 17.3972C29.9154 17.3975 29.9153 17.3978 29.9152 17.398C29.8073 17.7187 29.9281 18.064 30.1899 18.2604L30.1898 18.2606L30.1983 18.2665ZM32.7726 11.9565L30.3585 10.233H33.3366C33.6756 10.2419 33.9698 10.0166 34.0743 9.70728L34.0743 9.70729L34.075 9.70515L34.9927 6.89989L35.9104 9.70509C36.0186 10.0359 36.3218 10.233 36.6528 10.233H39.63L37.2215 11.9483C36.9352 12.1479 36.8271 12.4983 36.9337 12.8149C36.9338 12.8152 36.9338 12.8154 36.9339 12.8157L37.8611 15.6136L35.4564 13.8807C35.1816 13.6825 34.8187 13.6825 34.5438 13.8807L34.5438 13.8807L32.1319 15.6204L33.0594 12.8217L33.0594 12.8217L33.0611 12.8161C33.1559 12.5043 33.051 12.1573 32.7736 11.9572L32.7726 11.9565Z" fill="#FF9900" stroke="#FF9900" stroke-width="0.470508"/>
<path d="M21.1682 11.708L21.1681 11.7081L21.1741 11.7137C21.3259 11.8535 21.5131 11.9277 21.7115 11.9295V11.9295H21.7189V11.9295C21.9129 11.9277 22.1119 11.8563 22.2621 11.7081C22.5646 11.4096 22.5604 10.9247 22.265 10.6228L22.2651 10.6228L22.2622 10.62L14.5471 2.99892L14.547 2.99884C14.2479 2.70364 13.7523 2.70364 13.4532 2.99884C13.1523 3.29572 13.1523 3.79007 13.4531 4.08698C13.4531 4.08701 13.4531 4.08704 13.4532 4.08706L21.1682 11.708Z" fill="#FF9900" stroke="#FF9900" stroke-width="0.470508"/>
<path d="M2.40572 18.139L12.926 20.9279C13.0133 20.9632 13.1006 20.9626 13.1373 20.9624C13.1399 20.9624 13.1423 20.9623 13.1444 20.9623V20.9623C13.4807 20.9591 13.7868 20.7393 13.8823 20.3959C14 19.9819 13.7517 19.5592 13.3369 19.4535C13.3365 19.4534 13.336 19.4533 13.3356 19.4531L2.80061 16.6602C2.38855 16.5464 1.95964 16.7859 1.85175 17.2012C1.74516 17.6114 1.99015 18.033 2.40572 18.139Z" fill="#FF9900" stroke="#FF9900" stroke-width="0.470508"/>
<path d="M55.4455 2.99163L55.4453 2.99187L47.739 10.6188C47.4291 10.916 47.4292 11.4126 47.7393 11.7097C47.8924 11.86 48.0799 11.9223 48.2736 11.9223C48.47 11.9223 48.6722 11.851 48.8243 11.7009L48.8244 11.7008L56.5381 4.08113C56.8476 3.7844 56.8481 3.2889 56.5394 2.99161C56.2378 2.68655 55.7495 2.6917 55.4455 2.99163Z" fill="#FF9900" stroke="#FF9900" stroke-width="0.470508"/>
<path d="M67.2037 16.6592L67.2037 16.6591L67.2012 16.6598L56.6635 19.4534C56.2485 19.5593 56.0036 19.9799 56.1092 20.3897C56.1974 20.7459 56.5223 20.9623 56.856 20.9623H56.8635C56.9279 20.9623 57.0018 20.9525 57.0704 20.9309L67.6022 18.1389C67.6024 18.1388 67.6026 18.1388 67.6028 18.1387C68.0118 18.0322 68.2549 17.6099 68.1487 17.2011L68.1483 17.1996C68.0393 16.7905 67.6107 16.5562 67.2037 16.6592Z" fill="#FF9900" stroke="#FF9900" stroke-width="0.470508"/>
</g>
<defs>
<clipPath id="clip0_8980_259354">
<rect width="70" height="70" fill="white"/>
</clipPath>
</defs>
</svg>
