<svg width="70" height="70" viewBox="0 0 70 70" fill="none" xmlns="http://www.w3.org/2000/svg">
<g clip-path="url(#clip0_8980_259364)">
<path d="M13.1667 34.75H7L34.75 7L62.5 34.75H56.3333" stroke="#58595B" stroke-width="2.75" stroke-linecap="round" stroke-linejoin="round"/>
<path d="M13.167 34.75V56.3333C13.167 57.9688 13.8167 59.5373 14.9732 60.6938C16.1296 61.8503 17.6982 62.5 19.3337 62.5H50.167C51.8025 62.5 53.371 61.8503 54.5275 60.6938C55.684 59.5373 56.3337 57.9688 56.3337 56.3333V34.75" stroke="#58595B" stroke-width="2.75" stroke-linecap="round" stroke-linejoin="round"/>
<path d="M35.4621 50C35.0661 50 34.6785 49.8511 34.4004 49.5979L34.1982 49.4117C30.1707 45.7407 26 41.9356 26 37.922C26 35.1594 28.4182 33 31.5104 33C33.3894 33 34.6195 33.6478 35.4874 34.5339C36.3889 33.6329 37.6106 33 39.4896 33C42.5818 33 45 35.1594 45 37.922C45 42.0101 40.6945 45.8673 36.5237 49.6053C36.2457 49.8511 35.8665 49.9926 35.4705 49.9926L35.4621 50ZM31.502 35.6286C30.0781 35.6286 28.9659 36.6338 28.9659 37.922C28.9659 40.6474 32.1424 43.7525 35.4705 46.8055C38.8492 43.7525 42.0257 40.6474 42.0257 37.922C42.0257 36.6338 40.9135 35.6286 39.4896 35.6286C38.3858 35.6286 37.7286 35.9115 36.7933 37.5869C36.5406 38.0412 36.0182 38.3241 35.4452 38.3167C34.8723 38.3167 34.3583 38.0114 34.114 37.5572C33.2545 35.9115 32.6142 35.6286 31.502 35.6286Z" fill="#FF9900"/>
</g>
<defs>
<clipPath id="clip0_8980_259364">
<rect width="70" height="70" fill="white"/>
</clipPath>
</defs>
</svg>
