<svg width="32" height="32" viewBox="0 0 32 32" fill="none" xmlns="http://www.w3.org/2000/svg">
<path d="M16.002 20.0039L20.5353 27.8559L22.6661 23.5465L27.4635 23.8559L22.9302 16.0039" stroke="#333333" stroke-linecap="round" stroke-linejoin="round"/>
<path d="M9.07031 16.0039L4.53698 23.8559L9.33441 23.5465L11.4652 27.8559L15.9985 20.0039" stroke="#333333" stroke-linecap="round" stroke-linejoin="round"/>
<path d="M16 19C20.9706 19 25 14.9706 25 10C25 5.02944 20.9706 1 16 1C11.0294 1 7 5.02944 7 10C7 14.9706 11.0294 19 16 19Z" stroke="#333333" stroke-linecap="round" stroke-linejoin="round"/>
<path fill-rule="evenodd" clip-rule="evenodd" d="M16 14.3313C18.3921 14.3313 20.3313 12.3921 20.3313 10C20.3313 7.60792 18.3921 5.66875 16 5.66875C13.6079 5.66875 11.6687 7.60792 11.6687 10C11.6687 12.3921 13.6079 14.3313 16 14.3313ZM16 15.5C19.0376 15.5 21.5 13.0376 21.5 10C21.5 6.96243 19.0376 4.5 16 4.5C12.9624 4.5 10.5 6.96243 10.5 10C10.5 13.0376 12.9624 15.5 16 15.5Z" fill="#FF9900"/>
</svg>
