<svg width="20" height="20" viewBox="0 0 20 20" fill="none" xmlns="http://www.w3.org/2000/svg">
<g clip-path="url(#clip0_1_660)">
<path d="M10.0729 0.269531C4.66219 0.269531 0.333618 4.4864 0.333618 9.7876C0.333618 15.0888 4.54195 19.4262 9.83243 19.5466H9.95267C12.4777 19.5466 14.8824 18.5828 16.686 16.7756C18.4896 14.9683 19.5717 12.5587 19.5717 9.90809C19.5717 4.60688 15.4836 0.390013 10.0729 0.269531ZM18.1289 9.90809C18.1289 12.0768 17.2872 14.125 15.7241 15.6912C14.161 17.2575 12.117 18.1009 9.95267 18.1009C5.50386 18.1009 1.77648 14.3659 1.77648 9.90809C1.77648 7.73941 2.61814 5.69122 4.18124 4.12495C5.74433 2.55869 7.78838 1.71531 9.95267 1.71531C12.117 1.71531 14.161 2.55869 15.7241 4.12495C17.2872 5.69122 18.1289 7.73941 18.1289 9.90809Z" fill="#C05602"/>
<path d="M11.9967 11.1129C11.636 10.631 11.1551 10.2695 10.7944 9.78761L10.6741 9.66713C10.6741 8.82375 10.6741 7.8599 10.6741 7.01652V5.8117C10.6741 5.2093 10.6741 4.60689 10.6741 4.00448C10.6741 3.76351 10.5539 3.52255 10.4336 3.40207C10.3134 3.1611 10.0729 3.1611 9.83245 3.1611C9.47174 3.28158 9.23126 3.52255 9.23126 4.00448V7.73942C9.23126 8.46231 9.23126 9.1852 9.23126 9.90809C9.23126 10.2695 9.3515 10.5105 9.59198 10.8719C9.95269 11.1129 10.3134 11.4744 10.6741 11.8358L11.5158 12.6792C11.8765 13.0406 12.117 13.2816 12.4777 13.643C12.5979 13.7635 12.8384 13.884 12.9586 13.884C13.0789 13.884 13.0789 13.884 13.1991 13.884C13.4396 13.7635 13.6801 13.643 13.6801 13.4021C13.8003 13.1611 13.6801 12.9201 13.4396 12.6792C13.0789 12.0768 12.4777 11.5948 11.9967 11.1129Z" fill="#C05602"/>
</g>
<defs>
<clipPath id="clip0_1_660">
<rect width="19.2381" height="19.2771" fill="white" transform="translate(0.333618 0.269531)"/>
</clipPath>
</defs>
</svg>
