<svg width="47" height="47" viewBox="0 0 47 47" fill="none" xmlns="http://www.w3.org/2000/svg">
<g clip-path="url(#clip0_1_24045)">
<path fill-rule="evenodd" clip-rule="evenodd" d="M40.1084 21.8213C41.0354 21.8192 41.7886 22.5691 41.7907 23.4961C41.7956 25.7023 41.3647 27.8878 40.5227 29.927C39.6807 31.9662 38.4441 33.819 36.8841 35.379C35.3241 36.939 33.4713 38.1756 31.4321 39.0176C29.3935 39.8593 27.2089 40.2902 25.0034 40.2856H21.6493C19.4439 40.2902 17.2592 39.8593 15.2207 39.0176C13.1815 38.1756 11.3287 36.939 9.76865 35.379C8.20862 33.819 6.97211 31.9662 6.1301 29.927C5.2881 27.8878 4.85718 25.7023 4.8621 23.4961L8.21924 23.5036C8.2153 25.2677 8.55986 27.0152 9.23313 28.6457C9.9064 30.2763 10.8951 31.7578 12.1425 33.0052C13.3899 34.2526 14.8714 35.2413 16.502 35.9145C18.1325 36.5878 19.88 36.9324 21.6441 36.9284H25.0087C26.7728 36.9324 28.5203 36.5878 30.1508 35.9145C31.7814 35.2413 33.2629 34.2526 34.5103 33.0052C35.7577 31.7578 36.7464 30.2763 37.4196 28.6457C38.0929 27.0152 38.4375 25.2677 38.4335 23.5036C38.4315 22.5766 39.1813 21.8234 40.1084 21.8213Z" fill="white"/>
<path fill-rule="evenodd" clip-rule="evenodd" d="M23.3263 36.9287C24.2533 36.9287 25.0048 37.6802 25.0048 38.6073V45.3216C25.0048 46.2486 24.2533 47.0001 23.3263 47.0001C22.3992 47.0001 21.6477 46.2486 21.6477 45.3216V38.6073C21.6477 37.6802 22.3992 36.9287 23.3263 36.9287Z" fill="white"/>
<path fill-rule="evenodd" clip-rule="evenodd" d="M23.3263 0C20.6552 0 18.0935 1.06109 16.2047 2.94985C14.316 4.83861 13.2549 7.40032 13.2549 10.0714V21.8214C13.2549 24.4925 14.316 27.0542 16.2047 28.943C18.0935 30.8318 20.6552 31.8929 23.3263 31.8929C25.9974 31.8929 28.5591 30.8318 30.4479 28.943C32.3366 27.0542 33.3977 24.4925 33.3977 21.8214V10.0714C33.3977 7.40032 32.3366 4.83861 30.4479 2.94985C28.5591 1.06109 25.9974 0 23.3263 0Z" fill="white"/>
<line x1="28" y1="12" x2="36" y2="12" stroke="#FF9900" stroke-width="2" stroke-linecap="round"/>
<line x1="28" y1="16" x2="36" y2="16" stroke="#FF9900" stroke-width="2" stroke-linecap="round"/>
<line x1="28" y1="20" x2="36" y2="20" stroke="#FF9900" stroke-width="2" stroke-linecap="round"/>
<line x1="11" y1="12" x2="19" y2="12" stroke="#FF9900" stroke-width="2" stroke-linecap="round"/>
<line x1="11" y1="16" x2="19" y2="16" stroke="#FF9900" stroke-width="2" stroke-linecap="round"/>
<line x1="11" y1="20" x2="19" y2="20" stroke="#FF9900" stroke-width="2" stroke-linecap="round"/>
</g>
<defs>
<clipPath id="clip0_1_24045">
<rect width="47" height="47" fill="white"/>
</clipPath>
</defs>
</svg>
