<svg width="27" height="27" viewBox="0 0 27 27" xmlns="http://www.w3.org/2000/svg">
<rect x="0.914795" width="25.9978" height="26.1086" rx="3.24253" />
<path d="M8.39618 9.57812H4.27637V22.905H8.39618V9.57812Z" fill="white"/>
<path d="M19.5401 9.28938C19.3882 9.27012 19.2268 9.26049 19.0655 9.25086C16.7588 9.15457 15.4583 10.5412 15.0026 11.1382C14.8792 11.3019 14.8223 11.3982 14.8223 11.3982V9.61678H10.8828V22.9437H14.8223H15.0026C15.0026 21.5859 15.0026 20.2378 15.0026 18.8801C15.0026 18.1483 15.0026 17.4165 15.0026 16.6846C15.0026 15.7795 14.9362 14.8166 15.3823 13.9885C15.762 13.2951 16.4455 12.9485 17.2144 12.9485C19.4926 12.9485 19.5401 15.038 19.5401 15.2306C19.5401 15.2403 19.5401 15.2499 19.5401 15.2499V23.0014H23.6599V14.3062C23.6599 11.3308 22.1696 9.57826 19.5401 9.28938Z" fill="white"/>
<path d="M6.33575 7.85314C7.65689 7.85314 8.7279 6.76673 8.7279 5.42657C8.7279 4.08641 7.65689 3 6.33575 3C5.0146 3 3.9436 4.08641 3.9436 5.42657C3.9436 6.76673 5.0146 7.85314 6.33575 7.85314Z" fill="white"/>
</svg>
