<svg width="20" height="20" viewBox="0 0 20 20" fill="none" xmlns="http://www.w3.org/2000/svg">
<path d="M4.5 19.5H0.5V10.6092V7.5H4.5V9.83499V19.5Z" stroke="#333333"/>
<path d="M11.61 9.20345H11.8773L12.0258 8.98115C12.4587 8.33302 13.5795 7.55971 15.3484 7.55971C16.9007 7.55971 17.8281 7.93477 18.4072 8.51021C18.9955 9.09484 19.3092 9.96884 19.4504 11.1508L19.4506 11.1524C19.5039 11.587 19.5014 12.0841 19.4987 12.629C19.4981 12.7515 19.4975 12.8763 19.4975 13.0034V19.5H16.616V14.942C16.616 14.9176 16.616 14.8928 16.616 14.8678C16.6164 14.1497 16.6168 13.2259 16.3356 12.4778C16.1843 12.0753 15.9425 11.6945 15.5546 11.4179C15.1654 11.1405 14.6742 11 14.0815 11C13.5054 11 13.0191 11.1154 12.6218 11.3515C12.221 11.5896 11.9479 11.9286 11.7652 12.3121C11.4149 13.0475 11.3815 13.989 11.3815 14.8232V19.5H8.5V9.65621V7.5H10.9404V8.70345V9.20345H11.4404H11.61Z" stroke="#333333"/>
<path d="M2.5002 0.5C1.39477 0.5 0.5 1.39462 0.5 2.5001C0.5 3.60562 1.3947 4.5 2.5002 4.5C3.60566 4.5 4.49998 3.60575 4.5 2.50014L2.5002 0.5ZM2.5002 0.5C3.60548 0.5 4.4999 1.39447 4.5 2.5001L2.5002 0.5Z" stroke="#333333"/>
</svg>
