<svg width="27" height="27" viewBox="0 0 27 27" xmlns="http://www.w3.org/2000/svg">
<path d="M22.3754 26.1086H5.24125C2.87354 26.1086 0.939209 24.1465 0.939209 21.7447V4.36395C0.939209 1.96217 2.87354 0 5.24125 0H22.3754C24.7431 0 26.6775 1.96217 26.6775 4.36395V21.7447C26.6775 24.1572 24.7537 26.1086 22.3754 26.1086Z"/>
<path d="M13.8138 19.7602C12.0486 19.7602 10.3891 19.0633 9.14185 17.798C7.89458 16.5328 7.20752 14.8494 7.20752 13.0588C7.20752 11.2682 7.89458 9.58481 9.14185 8.31959C10.3891 7.05437 12.0486 6.35742 13.8138 6.35742C15.5791 6.35742 17.2386 7.05437 18.4858 8.31959C19.7331 9.58481 20.4202 11.2682 20.4202 13.0588C20.4202 14.8494 19.7331 16.5328 18.4858 17.798C17.228 19.0633 15.5791 19.7602 13.8138 19.7602ZM13.8138 7.78348C10.9493 7.78348 8.61334 10.1424 8.61334 13.0588C8.61334 15.9645 10.9388 18.3341 13.8138 18.3341C16.6783 18.3341 19.0143 15.9753 19.0143 13.0588C19.0038 10.1531 16.6783 7.78348 13.8138 7.78348Z" fill="white"/>
<path d="M21.7077 6.1359C22.4082 6.1359 22.9761 5.55982 22.9761 4.8492C22.9761 4.13857 22.4082 3.5625 21.7077 3.5625C21.0071 3.5625 20.4392 4.13857 20.4392 4.8492C20.4392 5.55982 21.0071 6.1359 21.7077 6.1359Z" fill="white"/>
</svg>
