<svg width="104" height="103" viewBox="0 0 104 103" fill="none" xmlns="http://www.w3.org/2000/svg">
<g clip-path="url(#clip0_8980_259390)">
<path d="M50.5048 91.9947L50.5059 91.9956C50.7296 92.1819 51.0135 92.2784 51.2945 92.2784H51.304C51.5764 92.2784 51.8543 92.1963 52.0945 91.994C52.0947 91.9938 52.0949 91.9936 52.0952 91.9934L79.3686 69.1505C79.7423 68.8465 79.8961 68.3454 79.7607 67.8879L69.3405 30.9364L69.3405 30.9364L69.3387 30.9303C69.1871 30.4163 68.7148 30.0513 68.1611 30.0513H34.4374C33.8837 30.0513 33.4113 30.4163 33.2598 30.9303L33.2597 30.9303L33.258 30.9364L22.8378 67.8877C22.7024 68.3452 22.8561 68.8464 23.2298 69.1504L50.5048 91.9947ZM51.2945 89.4663L25.4051 67.7862L35.3644 32.4762H67.2244L77.1762 67.7926L51.2945 89.4663Z" fill="#9B9DA0" stroke="#9B9DA0" stroke-width="1.06382"/>
<path d="M50.0664 91.0614C50.0664 91.7385 50.627 92.2786 51.2943 92.2786C51.9616 92.2786 52.5222 91.7385 52.5222 91.0614V61.1557C52.5222 60.4786 51.9616 59.9386 51.2943 59.9386C50.627 59.9386 50.0664 60.4786 50.0664 61.1557V91.0614Z" fill="#9B9DA0" stroke="#9B9DA0" stroke-width="1.06382"/>
<path d="M44.4316 55.6078C44.4316 59.3449 47.5189 62.3724 51.2944 62.3724C55.0695 62.3724 58.1573 59.3548 58.1573 55.6078C58.1573 51.8619 55.0705 48.8338 51.2944 48.8338C47.5179 48.8338 44.4316 51.8718 44.4316 55.6078ZM46.8875 55.6078C46.8875 53.2235 48.8548 51.2681 51.2944 51.2681C53.7334 51.2681 55.7014 53.2322 55.7014 55.6078C55.7014 57.9821 53.7348 59.9382 51.2944 59.9382C48.8535 59.9382 46.8875 57.9908 46.8875 55.6078Z" fill="#9B9DA0" stroke="#9B9DA0" stroke-width="1.06382"/>
<path d="M27.4197 32.4763H74.6369V32.4857H75.1688C75.8361 32.4857 76.3967 31.9456 76.3967 31.2685V9.45402C76.3967 8.77698 75.8361 8.23689 75.1688 8.23689H27.4197C26.7524 8.23689 26.1918 8.77698 26.1918 9.45402V31.2591C26.1918 31.9362 26.7524 32.4763 27.4197 32.4763ZM28.6476 30.042V10.6712H73.9409V30.042H28.6476Z" fill="#9B9DA0" stroke="#9B9DA0" stroke-width="1.06382"/>
<path d="M27.4197 32.4764H75.1688C75.8361 32.4764 76.3967 31.9363 76.3967 31.2592V20.352C76.3967 19.6749 75.8361 19.1348 75.1688 19.1348H27.4197C26.7524 19.1348 26.1918 19.6749 26.1918 20.352V31.2592C26.1918 31.9363 26.7524 32.4764 27.4197 32.4764ZM73.9409 21.5691V30.0421H28.6476V21.5691H73.9409Z" fill="#9B9DA0" stroke="#9B9DA0" stroke-width="1.06382"/>
<path d="M28.44 92.2786H74.1391C74.8064 92.2786 75.3671 91.7385 75.3671 91.0614C75.3671 90.3844 74.8064 89.8443 74.1391 89.8443H28.44C27.7727 89.8443 27.212 90.3844 27.212 91.0614C27.212 91.7385 27.7727 92.2786 28.44 92.2786Z" fill="#9B9DA0" stroke="#9B9DA0" stroke-width="1.06382"/>
<path d="M14.3182 45.5722C14.3183 45.5722 14.3184 45.5723 14.3184 45.5723C14.6211 45.663 14.8601 45.8969 14.9535 46.1985L14.9535 46.1984L14.3182 45.5722ZM14.3182 45.5722L11.47 44.71M14.3182 45.5722L11.47 44.71M15.8342 49.0254L14.9537 46.199L15.6949 49.4725L15.8342 49.0254ZM15.8342 49.0254L15.9735 49.4725L16.9688 46.2775M15.8342 49.0254L16.7147 46.199L16.9688 46.2775M16.9688 46.2775L16.7149 46.1984L16.7148 46.1985M16.9688 46.2775C17.0355 46.0617 17.2072 45.8927 17.4265 45.827M16.7148 46.1985L15.6949 39.9475L15.8342 40.3946M16.7148 46.1985C16.8083 45.8969 17.0474 45.663 17.35 45.5722L17.3496 45.5724L17.4265 45.827M16.7148 46.1985L11.47 44.71M17.4265 45.827L20.6658 44.8489L20.2058 44.71M17.4265 45.827L17.3501 45.5722L20.2058 44.71M20.2058 44.71L20.6658 44.5711L17.4265 43.593M20.2058 44.71L17.3501 43.8477L17.4265 43.593M17.4265 43.593C17.2072 43.5273 17.0355 43.3583 16.9688 43.1424M17.4265 43.593L17.3496 43.8476L17.3498 43.8476C17.0472 43.7569 16.8082 43.523 16.7148 43.2214L16.7149 43.2215L16.9688 43.1424M16.9688 43.1424L15.9735 39.9475L15.8342 40.3946M16.9688 43.1424L16.7147 43.221L15.8342 40.3946M15.8342 40.3946L14.9537 43.221C14.9536 43.2211 14.9536 43.2213 14.9535 43.2214C14.8601 43.523 14.6212 43.7568 14.3186 43.8476C14.3185 43.8477 14.3184 43.8477 14.3182 43.8477L11.47 44.71M14.9223 52.5423L14.9223 52.5423L14.9244 52.5486C15.0557 52.9365 15.4228 53.208 15.8437 53.208C16.2537 53.208 16.6423 52.9549 16.7656 52.5408L18.4201 47.2515L23.787 45.6215L23.787 45.6216L23.7927 45.6197C24.1819 45.492 24.462 45.1315 24.462 44.71C24.462 44.299 24.2004 43.9176 23.7849 43.7978C23.7842 43.7976 23.7835 43.7974 23.7828 43.7972L18.4201 42.1776L16.765 36.8866L16.765 36.8866L16.763 36.8807C16.6317 36.4928 16.2646 36.2214 15.8437 36.2214C15.4336 36.2214 15.045 36.4745 14.9218 36.8888L13.2767 42.1777L7.91035 43.7983L7.91033 43.7982L7.90431 43.8002C7.51507 43.928 7.23502 44.2885 7.23502 44.71C7.23502 45.1209 7.49646 45.5023 7.9119 45.6221L13.2766 47.2514L14.9223 52.5423Z" fill="#FF9900" stroke="#FF9900" stroke-width="0.531908"/>
<path d="M86.6313 76.2857C86.6313 76.2857 86.6314 76.2857 86.6314 76.2858C86.9341 76.3765 87.1731 76.6104 87.2665 76.912C87.2666 76.9122 87.2666 76.9123 87.2667 76.9125L88.1472 79.7389L89.0277 76.9125C89.0278 76.9124 89.0278 76.9123 89.0278 76.9122L89.0279 76.9119L89.2818 76.991C89.3486 76.7751 89.5202 76.6062 89.7395 76.5405L86.6313 76.2857ZM86.6313 76.2857L83.7756 75.4235L86.6313 76.2857ZM87.2258 83.2464L87.2258 83.2464L87.2271 83.2502C87.3564 83.6451 87.7191 83.9174 88.1377 83.9214V83.9215H88.1472V83.9214C88.5595 83.9174 88.9389 83.6505 89.0596 83.2447L90.7047 77.9558L96.0805 76.3352L96.0805 76.3352L96.0842 76.334C96.4834 76.2072 96.7654 75.8467 96.7654 75.4235C96.7654 75.0126 96.504 74.6312 96.0885 74.5113L90.7143 72.882L89.0686 67.5911L89.0687 67.5911L89.0665 67.5848C88.9352 67.1969 88.5681 66.9255 88.1472 66.9255C87.7372 66.9255 87.3485 67.1786 87.2253 67.5929L85.5801 72.882L80.204 74.5119L80.204 74.5119L80.2007 74.5129C79.8015 74.6397 79.5194 75.0002 79.5194 75.4235C79.5194 75.8404 79.7961 76.2175 80.2061 76.3357L85.5802 77.9558L87.2258 83.2464ZM88.1472 71.1081L89.0277 73.9345L86.6313 74.5612L86.5549 74.3065L86.6318 74.5611L86.6317 74.5611C86.9342 74.4703 87.1732 74.2364 87.2665 73.9349C87.2666 73.9348 87.2666 73.9346 87.2667 73.9345L88.1472 71.1081Z" fill="#FF9900" stroke="#FF9900" stroke-width="0.531908"/>
</g>
<defs>
<clipPath id="clip0_8980_259390">
<rect width="102.126" height="102.126" fill="white" transform="translate(0.936768 0.258301)"/>
</clipPath>
</defs>
</svg>
