<svg width="104" height="103" viewBox="0 0 104 103" fill="none" xmlns="http://www.w3.org/2000/svg">
<g clip-path="url(#clip0_8980_259382)">
<path d="M22.6476 61.1472C17.4177 64.0998 13.1887 68.5471 10.5028 73.9189C7.8169 79.2906 6.7965 85.3422 7.57239 91.2977C13.5279 92.0736 19.5794 91.0532 24.9512 88.3673C30.323 85.6814 34.7703 81.4524 37.7229 76.2225" stroke="#FF9900" stroke-width="4.25527" stroke-linecap="round" stroke-linejoin="round"/>
<path d="M7.57214 56.1222C16.5323 57.1871 24.8737 61.2354 31.2541 67.6158C37.6345 73.9962 41.6829 82.3376 42.7477 91.2978C47.1895 88.737 50.9049 85.0859 53.5427 80.6895C56.1806 76.2931 57.6537 71.2966 57.823 66.1724C66.2606 63.2041 73.6286 57.8006 78.9954 50.6449C84.3621 43.4893 87.4865 34.903 87.9734 25.9717C87.9734 21.9735 86.3852 18.1391 83.558 15.3119C80.7308 12.4848 76.8964 10.8965 72.8982 10.8965C63.9669 11.3835 55.3806 14.5078 48.225 19.8746C41.0694 25.2413 35.6658 32.6093 32.6975 41.047C27.5733 41.2162 22.5768 42.6894 18.1804 45.3272C13.784 47.965 10.1329 51.6804 7.57214 56.1222" stroke="#9B9DA0" stroke-width="4.25527" stroke-linecap="round" stroke-linejoin="round"/>
<path d="M59.4468 43.324C61.6011 43.324 63.3475 41.5776 63.3475 39.4234C63.3475 37.2691 61.6011 35.5227 59.4468 35.5227C57.2925 35.5227 55.5461 37.2691 55.5461 39.4234C55.5461 41.5776 57.2925 43.324 59.4468 43.324Z" stroke="#9B9DA0" stroke-width="3.19145" stroke-linecap="round" stroke-linejoin="round"/>
</g>
<defs>
<clipPath id="clip0_8980_259382">
<rect width="102.126" height="102.126" fill="white" transform="translate(0.936768 0.258301)"/>
</clipPath>
</defs>
</svg>
