<svg width="76" height="78" viewBox="0 0 76 78" fill="none" xmlns="http://www.w3.org/2000/svg">
<g clip-path="url(#clip0_10299_1565)">
<path d="M33.2625 27.5167L32.6125 31.4167C32.6125 31.8501 32.8292 32.2834 33.0458 32.7167C33.2625 32.9334 33.4792 32.9334 33.6958 32.9334C33.9125 32.9334 34.1292 32.9334 34.3458 32.7167L37.8125 30.9834L41.2792 32.7167C41.7125 32.9334 42.1458 32.9334 42.5792 32.7167C43.0125 32.5001 43.2292 32.0667 43.0125 31.4167L42.3625 27.7334L45.1792 25.1334C45.6125 24.7001 45.6125 24.2667 45.3958 23.8334C45.1792 23.4001 44.9625 22.9667 44.3125 22.9667L40.6292 22.3167L39.1125 18.6334C38.8958 18.2001 38.4625 17.9834 38.0292 17.9834C37.5958 17.9834 37.1625 18.2001 36.9458 18.6334L35.2125 22.1001L31.5292 22.7501C31.0958 22.7501 30.6625 23.1834 30.4458 23.6167C30.2292 24.0501 30.4458 24.4834 30.6625 24.9167L33.2625 27.5167Z" fill="#FF9900"/>
<path d="M75.0792 62.8333L61.4292 39.2167C63.3792 35.5333 64.4625 31.2 64.4625 26.8667C64.4625 11.9167 52.3292 0 37.5959 0C22.8625 0 10.9459 11.9167 10.9459 26.65C10.9459 31.2 12.0292 35.3167 13.9792 39L0.329187 62.8333C0.11252 63.4833 0.11252 64.1333 0.329187 64.5667C0.76252 65.2167 1.19585 65.4333 1.84585 65.4333L15.7125 64.5667L21.7792 76.9167C21.9959 77.5667 22.6459 77.7833 23.2959 78C23.9459 78 24.5959 77.5667 24.8125 77.1333L37.3792 55.25L49.9459 77.1333C50.1625 77.7833 50.8125 78 51.4625 78C52.1125 78 52.7625 77.5667 52.9792 76.9167L59.0459 64.5667L72.9125 65.4333C73.5625 65.4333 74.2125 65.2167 74.4292 64.5667C75.2959 64.1333 75.2959 63.4833 75.0792 62.8333ZM37.5959 3.46667C50.3792 3.46667 60.7792 13.8667 60.7792 26.65C60.7792 39.4333 50.3792 49.8333 37.5959 49.8333C24.8125 49.8333 14.4125 39.4333 14.4125 26.65C14.4125 13.8667 24.8125 3.46667 37.5959 3.46667ZM23.7292 72.5833L18.5292 61.9667C18.3125 61.3167 17.6625 60.8833 16.7959 61.1L5.09585 61.75L16.1459 42.4667C20.4792 48.3167 27.1959 52.4333 34.7792 53.3L23.7292 72.5833ZM58.6125 61.1C57.9625 61.1 57.3125 61.5333 56.8792 62.1833L51.6792 72.5833L40.6292 53.3C48.2125 52.4333 54.9292 48.3167 59.2625 42.4667L70.3125 61.75L58.6125 61.1Z" fill="#9B9DA0"/>
</g>
<defs>
<clipPath id="clip0_10299_1565">
<rect width="75.1833" height="78" fill="white" transform="translate(0.166687)"/>
</clipPath>
</defs>
</svg>
