<svg width="104" height="104" viewBox="0 0 104 104" fill="none" xmlns="http://www.w3.org/2000/svg">
<g clip-path="url(#clip0_8980_259398)">
<path d="M13.5558 52.5309C13.5558 72.1564 29.461 88.1408 49.052 88.2757V88.287H49.302C69.018 88.287 85.0481 72.2502 85.0481 52.5413C85.0481 32.8325 69.018 16.7957 49.302 16.7957C29.586 16.7957 13.5558 32.8219 13.5558 52.5309ZM15.5868 52.5309C15.5868 34.0197 30.5761 18.9506 49.052 18.8157V18.8253H49.302C67.8821 18.8253 83.0171 33.9364 83.0171 52.5309C83.0171 71.1255 67.8925 86.2469 49.302 86.2469C30.7115 86.2469 15.5868 71.1255 15.5868 52.5309Z" fill="#9B9DA0" stroke="#9B9DA0" stroke-width="0.5"/>
<path d="M35.9965 52.5415C35.9965 59.8771 41.9597 65.8457 49.3019 65.8457C56.6335 65.8457 62.6074 59.8773 62.6074 52.5415C62.6074 45.2057 56.6335 39.2373 49.3019 39.2373C41.9703 39.2373 35.9965 45.2057 35.9965 52.5415ZM38.017 52.5415C38.017 46.3202 43.0852 41.2565 49.3019 41.2565C55.529 41.2565 60.5869 46.32 60.5869 52.5415C60.5869 58.763 55.529 63.8266 49.3019 63.8266C43.0749 63.8266 38.017 58.763 38.017 52.5415Z" fill="#9B9DA0" stroke="#9B9DA0" stroke-width="0.5"/>
<path d="M21.7561 52.5415C21.7561 67.7244 34.1161 80.0838 49.302 80.0838C64.4878 80.0838 76.8479 67.735 76.8479 52.5415C76.8479 37.3482 64.488 24.9888 49.302 24.9888C34.116 24.9888 21.7561 37.3588 21.7561 52.5415ZM23.7871 52.5415C23.7871 38.4728 35.2312 27.0184 49.302 27.0184C63.3728 27.0184 74.8169 38.4728 74.8169 52.5415C74.8169 66.6101 63.3729 78.0542 49.302 78.0542C35.2311 78.0542 23.7871 66.6101 23.7871 52.5415Z" fill="#9B9DA0" stroke="#9B9DA0" stroke-width="0.5"/>
<path d="M49.3019 48.8102H49.5519V48.7683C49.9899 48.6559 50.3174 48.2562 50.3174 47.7849V8.30803C50.3174 7.75067 49.8592 7.29321 49.3019 7.29321C48.7446 7.29321 48.2864 7.75067 48.2864 8.30803V47.7954C48.2864 48.3528 48.7446 48.8102 49.3019 48.8102Z" fill="#9B9DA0" stroke="#9B9DA0" stroke-width="0.5"/>
<path d="M54.0415 53.5562H93.512C94.0693 53.5562 94.5275 53.0988 94.5275 52.5414C94.5275 51.9841 94.0693 51.5266 93.512 51.5266H54.0415C53.4842 51.5266 53.026 51.9841 53.026 52.5414C53.026 53.0988 53.4842 53.5562 54.0415 53.5562Z" fill="#9B9DA0" stroke="#9B9DA0" stroke-width="0.5"/>
<path d="M48.2864 96.7539C48.2864 97.3113 48.7446 97.7687 49.3019 97.7687C49.8592 97.7687 50.3174 97.3113 50.3174 96.7539V57.277C50.3174 56.7197 49.8592 56.2622 49.3019 56.2622C48.7446 56.2622 48.2864 56.7197 48.2864 57.277V96.7539Z" fill="#9B9DA0" stroke="#9B9DA0" stroke-width="0.5"/>
<path d="M5.08118 53.5562H44.5517C45.109 53.5562 45.5672 53.0988 45.5672 52.5414C45.5672 51.9841 45.109 51.5266 44.5517 51.5266H5.08118C4.52386 51.5266 4.06567 51.9841 4.06567 52.5414C4.06567 53.0988 4.52386 53.5562 5.08118 53.5562Z" fill="#9B9DA0" stroke="#9B9DA0" stroke-width="0.5"/>
<path d="M48.7502 53.0833L48.5155 53.1694L48.5447 53.2492L48.6165 53.2946L48.7502 53.0833ZM48.7502 53.0833L48.6166 53.2946L48.6166 53.2947L48.6168 53.2948L48.6172 53.295L48.6184 53.2958L48.6223 53.2982L48.6358 53.3065C48.6472 53.3134 48.6634 53.3231 48.6832 53.3346C48.7227 53.3574 48.778 53.388 48.8407 53.419C48.9028 53.4496 48.976 53.4823 49.0506 53.5079C49.1217 53.5322 49.2115 53.5562 49.3018 53.5562V53.3062C49.3018 53.5562 49.302 53.5562 49.3021 53.5562H49.3024L49.303 53.5562L49.3043 53.5562L49.3071 53.5561L49.3135 53.556C49.3181 53.5558 49.3234 53.5555 49.3294 53.555C49.3415 53.5541 49.3563 53.5525 49.3739 53.5498C49.4092 53.5444 49.4552 53.5346 49.5116 53.517C49.6001 53.4894 49.7134 53.443 49.8504 53.3652C49.8523 53.3649 49.8541 53.3645 49.8557 53.3642C49.8698 53.3615 49.8814 53.3581 49.8892 53.3555C49.8973 53.3528 49.9043 53.3501 49.9097 53.3479C49.9203 53.3435 49.9292 53.339 49.9357 53.3357C49.9486 53.329 49.9607 53.3218 49.9703 53.3159C49.9804 53.3096 49.9906 53.3029 50.0004 53.2963C50.0198 53.2832 50.0402 53.2687 50.0585 53.255C50.0761 53.2419 50.0956 53.2267 50.1117 53.2126C50.1161 53.2089 50.1211 53.2044 50.1264 53.1994C50.1311 53.1949 50.1388 53.1872 50.1473 53.1775C50.1515 53.1726 50.1579 53.1648 50.1649 53.1548C50.1684 53.1497 50.1729 53.1429 50.1775 53.1346C50.1821 53.1266 50.188 53.115 50.1936 53.1005C50.1969 53.0919 50.2008 53.0804 50.2039 53.0663L69 34.2643L81.9831 21.2769L86.2583 17.0002L87.4558 15.8023L87.7713 15.4868L87.8522 15.4059L87.8726 15.3854L87.8778 15.3802L87.8791 15.3789C87.8792 15.3788 87.8793 15.3787 87.8521 15.3512L87.8794 15.3786C88.2724 14.9859 88.2681 14.3479 87.8825 13.9489C87.4867 13.5394 86.8331 13.5589 86.4459 13.9458L86.4458 13.9459L48.5798 51.8302C48.4521 51.9579 48.4017 52.1237 48.3836 52.2679C48.3653 52.4139 48.3767 52.5642 48.396 52.6925C48.4157 52.8225 48.4453 52.9405 48.4695 53.0252C48.4818 53.0679 48.4929 53.1029 48.5011 53.1277C48.5052 53.1401 48.5086 53.15 48.511 53.157L48.514 53.1654L48.5149 53.168L48.5153 53.1688L48.5154 53.1692L48.5154 53.1693C48.5154 53.1694 48.5155 53.1694 48.7502 53.0833Z" fill="#FF9900" stroke="#FF9900" stroke-width="0.5"/>
<path d="M86.2962 15.1991C86.3929 15.3521 86.5275 15.477 86.684 15.5624L86.5536 15.6927H87.1577C87.4292 15.6927 87.6829 15.5961 87.8796 15.3995L93.9093 9.37531C94.1106 9.17416 94.2028 8.89703 94.2028 8.6327C94.2028 8.34879 94.0756 8.08218 93.8662 7.90018L89.8741 4.34088C89.6571 4.13982 89.3638 4.06172 89.0844 4.0883L89.0844 4.08794L89.0711 4.08994C88.7983 4.13081 88.5368 4.28036 88.3691 4.51771L88.3679 4.51941L84.2156 10.5014C84.2155 10.5014 84.2155 10.5015 84.2155 10.5015C83.9914 10.8234 83.9781 11.2531 84.1734 11.5875L84.1737 11.5881L86.292 15.1922L86.2919 15.1923L86.2962 15.1991ZM91.7222 8.6744L87.3776 13.0152L86.2553 11.1004L89.3833 6.58727L91.7222 8.6744Z" fill="#FF9900" stroke="#FF9900" stroke-width="0.5"/>
<path d="M97.5175 11.957L97.5161 11.9554L93.9622 7.96487C93.7814 7.75714 93.5171 7.63043 93.2355 7.62858C92.9553 7.61642 92.6801 7.72805 92.4863 7.92172L86.4566 13.9459C86.237 14.1654 86.1245 14.4808 86.1646 14.7896C86.1951 15.1158 86.3927 15.392 86.6544 15.5437C86.6546 15.5438 86.6548 15.5439 86.655 15.544L90.247 17.6471C90.4095 17.7491 90.5932 17.7883 90.765 17.7883H90.7754C90.965 17.7883 91.1757 17.7351 91.3513 17.6051L97.3355 13.4587L97.3355 13.4587L97.3371 13.4575C97.5723 13.2917 97.7245 13.0417 97.7656 12.7543L97.7659 12.7543L97.767 12.7426C97.7942 12.4576 97.7119 12.179 97.5175 11.957L97.5175 11.957ZM95.235 12.4436L90.7223 15.5657L88.8115 14.4478L93.1557 10.1075L95.235 12.4436Z" fill="#FF9900" stroke="#FF9900" stroke-width="0.5"/>
</g>
<defs>
<clipPath id="clip0_8980_259398">
<rect width="104" height="104" fill="white"/>
</clipPath>
</defs>
</svg>
