<svg width="20" height="20" viewBox="0 0 20 20" xmlns="http://www.w3.org/2000/svg">
<path d="M18.3215 9.41874C18.3218 9.41808 18.3227 9.41649 18.3238 9.41453L18.3227 9.41651L18.3218 9.41806L18.3215 9.41874ZM18.3215 9.41874C18.3213 9.4191 18.3213 9.41917 18.3214 9.41885L18.3215 9.41874ZM13.297 15.1689C11.8631 16.482 10.5775 17.5159 9.99999 17.9692C9.42255 17.5159 8.13701 16.4822 6.70325 15.1691C4.81151 13.4366 2.75466 11.3008 1.67359 9.40936L1.67026 9.40333L1.66513 9.39415C1.23212 8.62361 1 7.73252 1 6.81587C1 4.01995 3.10559 1.86572 5.54688 1.86572C6.96874 1.86572 8.31456 2.5898 9.17785 3.83655C9.36464 4.10631 9.67188 4.26727 9.99999 4.26727C10.3281 4.26728 10.6353 4.10632 10.8221 3.83657C11.6856 2.58967 13.0316 1.86572 14.4531 1.86572C16.8945 1.86572 19 4.02002 19 6.81587C19 7.73252 18.7679 8.62357 18.3349 9.39416L18.329 9.40484C17.2488 11.2972 15.1902 13.435 13.297 15.1689ZM9.16063 18.5805C7.52953 17.2841 2.75771 13.3256 0.802536 9.90057L9.16063 18.5805Z" stroke="#58595B" stroke-width="2" stroke-linejoin="round"/>
</svg>
