<svg width="32" height="31" viewBox="0 0 32 31" fill="none" xmlns="http://www.w3.org/2000/svg">
<path fill-rule="evenodd" clip-rule="evenodd" d="M15.7221 5.0458C10.9662 5.0458 6.51639 8.73179 6.51639 14.2515C6.51639 17.349 8.23514 19.9792 10.2663 22.001C12.2917 24.0171 14.5624 25.3618 15.5157 25.8808C15.648 25.9529 15.7961 25.9529 15.9285 25.8808C16.8817 25.3618 19.1525 24.0171 21.1778 22.001C23.209 19.9792 24.9278 17.349 24.9278 14.2515C24.9278 8.72566 20.6458 5.0458 15.7221 5.0458ZM5.4104 14.2515C5.4104 8.06078 10.4174 3.93982 15.7221 3.93982C21.2076 3.93982 26.0338 8.06692 26.0338 14.2515C26.0338 17.7727 24.0834 20.6693 21.9581 22.7849C19.8269 24.9063 17.4537 26.3097 16.4574 26.8522C15.9953 27.1037 15.4489 27.1037 14.9868 26.8522C13.9904 26.3097 11.6172 24.9063 9.48609 22.7849C7.36077 20.6693 5.4104 17.7727 5.4104 14.2515Z" fill="#333333"/>
<path fill-rule="evenodd" clip-rule="evenodd" d="M15.8103 18.5089C18.1128 18.5089 19.9794 16.6424 19.9794 14.3399C19.9794 12.0374 18.1128 10.1709 15.8103 10.1709C13.5079 10.1709 11.6413 12.0374 11.6413 14.3399C11.6413 16.6424 13.5079 18.5089 15.8103 18.5089ZM15.8103 19.6339C18.7341 19.6339 21.1043 17.2637 21.1043 14.3399C21.1043 11.4161 18.7341 9.0459 15.8103 9.0459C12.8866 9.0459 10.5164 11.4161 10.5164 14.3399C10.5164 17.2637 12.8866 19.6339 15.8103 19.6339Z" fill="#FF9900"/>
</svg>
