<svg width="16" height="16" viewBox="0 0 16 16" fill="none" xmlns="http://www.w3.org/2000/svg">
<path d="M7.29713 0C11.3272 0 14.5943 3.26704 14.5943 7.29713C14.5943 9.05754 13.9709 10.6723 12.9328 11.9329L15.7932 14.7945C16.0689 15.0703 16.0689 15.5174 15.7932 15.7932C15.5358 16.0506 15.1291 16.0677 14.8518 15.8446L14.7945 15.7932L11.9329 12.9328C10.6723 13.9709 9.05754 14.5943 7.29713 14.5943C3.26704 14.5943 0 11.3272 0 7.29713C0 3.26704 3.26704 0 7.29713 0ZM7.29713 1.41235C4.04705 1.41235 1.41235 4.04705 1.41235 7.29713C1.41235 10.5472 4.04705 13.1819 7.29713 13.1819C10.5472 13.1819 13.1819 10.5472 13.1819 7.29713C13.1819 4.04705 10.5472 1.41235 7.29713 1.41235Z" fill="#333333"/>
</svg>
