<svg width="40" height="40" viewBox="0 0 40 40" fill="none" xmlns="http://www.w3.org/2000/svg">
<path fill-rule="evenodd" clip-rule="evenodd" d="M33 8.5H7C6.17157 8.5 5.5 9.17157 5.5 10V29C5.5 29.8284 6.17157 30.5 7 30.5H33C33.8284 30.5 34.5 29.8284 34.5 29V10C34.5 9.17157 33.8284 8.5 33 8.5ZM7 7C5.34315 7 4 8.34315 4 10V29C4 30.6569 5.34315 32 7 32H33C34.6569 32 36 30.6569 36 29V10C36 8.34315 34.6569 7 33 7H7Z" fill="#333333"/>
<path fill-rule="evenodd" clip-rule="evenodd" d="M5 24.25L35 24.25L35 25.75L5 25.75L5 24.25Z" fill="#333333"/>
<path fill-rule="evenodd" clip-rule="evenodd" d="M16 27.25L35 27.25L35 28.75L16 28.75L16 27.25Z" fill="#333333"/>
<path fill-rule="evenodd" clip-rule="evenodd" d="M7 27.25L9 27.25L9 28.75L7 28.75L7 27.25Z" fill="#333333"/>
<path fill-rule="evenodd" clip-rule="evenodd" d="M10 27.25L12 27.25L12 28.75L10 28.75L10 27.25Z" fill="#333333"/>
<path fill-rule="evenodd" clip-rule="evenodd" d="M13 27.25L15 27.25L15 28.75L13 28.75L13 27.25Z" fill="#333333"/>
<path fill-rule="evenodd" clip-rule="evenodd" d="M24.5 16.8301L17 12.5V21.1603L24.5 16.8301ZM22.5 16.8301L18 14.2321L18 19.4282L22.5 16.8301Z" fill="#FF9900"/>
</svg>
