<svg width="14" height="17" viewBox="0 0 14 17" fill="none" xmlns="http://www.w3.org/2000/svg">
<path fill-rule="evenodd" clip-rule="evenodd" d="M7.07269 0.771484C6.15675 0.771484 5.27833 1.13534 4.63066 1.783C3.983 2.43067 3.61914 3.30909 3.61914 4.22503V8.25417C3.61914 9.17011 3.983 10.0485 4.63066 10.6962C5.27833 11.3439 6.15675 11.7077 7.07269 11.7077C7.98863 11.7077 8.86705 11.3439 9.51472 10.6962C10.1624 10.0485 10.5262 9.17011 10.5262 8.25417V4.22503C10.5262 3.30909 10.1624 2.43067 9.51472 1.783C8.86705 1.13534 7.98863 0.771484 7.07269 0.771484Z" fill="white"/>
<path fill-rule="evenodd" clip-rule="evenodd" d="M12.9143 8.25293C13.2322 8.25222 13.4904 8.50935 13.4912 8.82724C13.4928 9.58376 13.3451 10.3332 13.0564 11.0324C12.7676 11.7317 12.3436 12.367 11.8087 12.9019C11.2737 13.4369 10.6384 13.8609 9.93913 14.1496C9.24011 14.4383 8.49098 14.586 7.73471 14.5844H6.58458C5.82832 14.586 5.07918 14.4383 4.38016 14.1496C3.6809 13.8609 3.04556 13.4369 2.51062 12.9019C1.97568 12.367 1.55167 11.7317 1.26294 11.0324C0.974216 10.3332 0.826452 9.58376 0.828139 8.82724L1.97932 8.8298C1.97797 9.43472 2.09612 10.0339 2.32699 10.5931C2.55786 11.1522 2.89689 11.6602 3.32463 12.0879C3.75237 12.5157 4.26039 12.8547 4.81951 13.0856C5.37864 13.3164 5.97786 13.4346 6.58277 13.4333H7.73652C8.34143 13.4346 8.94066 13.3164 9.49978 13.0856C10.0589 12.8547 10.5669 12.5157 10.9947 12.0879C11.4224 11.6602 11.7614 11.1522 11.9923 10.5931C12.2232 10.0339 12.3413 9.43472 12.34 8.8298C12.3393 8.51191 12.5964 8.25364 12.9143 8.25293Z" fill="white"/>
<path fill-rule="evenodd" clip-rule="evenodd" d="M7.15958 13.4336C7.47747 13.4336 7.73517 13.6913 7.73517 14.0092V16.3115C7.73517 16.6294 7.47747 16.8871 7.15958 16.8871C6.84169 16.8871 6.58398 16.6294 6.58398 16.3115V14.0092C6.58398 13.6913 6.84169 13.4336 7.15958 13.4336Z" fill="white"/>
<mask id="mask0_11834_5373" style="mask-type:alpha" maskUnits="userSpaceOnUse" x="3" y="0" width="8" height="12">
<path fill-rule="evenodd" clip-rule="evenodd" d="M7.07269 0.771484C6.15675 0.771484 5.27833 1.13534 4.63066 1.783C3.983 2.43067 3.61914 3.30909 3.61914 4.22503V8.25417C3.61914 9.17011 3.983 10.0485 4.63066 10.6962C5.27833 11.3439 6.15675 11.7077 7.07269 11.7077C7.98863 11.7077 8.86705 11.3439 9.51472 10.6962C10.1624 10.0485 10.5262 9.17011 10.5262 8.25417V4.22503C10.5262 3.30909 10.1624 2.43067 9.51472 1.783C8.86705 1.13534 7.98863 0.771484 7.07269 0.771484Z" fill="white"/>
</mask>
<g mask="url(#mask0_11834_5373)">
<line x1="8.67494" y1="4.88561" x2="11.4182" y2="4.88561" stroke="#333333" stroke-width="0.685811" stroke-linecap="round"/>
<line x1="8.67494" y1="6.25768" x2="11.4182" y2="6.25768" stroke="#333333" stroke-width="0.685811" stroke-linecap="round"/>
<line x1="8.67494" y1="7.62877" x2="11.4182" y2="7.62877" stroke="#333333" stroke-width="0.685811" stroke-linecap="round"/>
<line x1="2.84681" y1="4.88561" x2="5.59006" y2="4.88561" stroke="#333333" stroke-width="0.685811" stroke-linecap="round"/>
<line x1="2.84681" y1="6.25768" x2="5.59006" y2="6.25768" stroke="#333333" stroke-width="0.685811" stroke-linecap="round"/>
<line x1="2.84681" y1="7.62877" x2="5.59006" y2="7.62877" stroke="#333333" stroke-width="0.685811" stroke-linecap="round"/>
</g>
</svg>
