<svg width="40" height="40" viewBox="0 0 40 40" fill="none" xmlns="http://www.w3.org/2000/svg">
<path fill-rule="evenodd" clip-rule="evenodd" d="M6.62433 6.62445C7.07754 6.17124 7.69223 5.91663 8.33317 5.91663H24.9998C25.6408 5.91663 26.2555 6.17124 26.7087 6.62445C27.1619 7.07766 27.4165 7.69235 27.4165 8.33329V9.24996H31.6665C32.3074 9.24996 32.9221 9.50457 33.3753 9.95779C33.8286 10.411 34.0832 11.0257 34.0832 11.6666V30C34.0832 31.0829 33.653 32.1215 32.8872 32.8873C32.1214 33.6531 31.0828 34.0833 29.9998 34.0833H11.6665C10.1415 34.0833 8.67897 33.4775 7.60064 32.3992C6.52231 31.3208 5.9165 29.8583 5.9165 28.3333V8.33329C5.9165 7.69235 6.17112 7.07766 6.62433 6.62445ZM26.8375 32.5833H11.6665C10.5393 32.5833 9.45833 32.1355 8.6613 31.3385C7.86427 30.5415 7.4165 29.4605 7.4165 28.3333V8.33329C7.4165 8.09018 7.51308 7.85702 7.68499 7.68511C7.8569 7.5132 8.09006 7.41663 8.33317 7.41663H24.9998C25.243 7.41663 25.4761 7.5132 25.648 7.68511C25.8199 7.85702 25.9165 8.09018 25.9165 8.33329V30C25.9165 30.9456 26.2445 31.8574 26.8375 32.5833ZM27.4165 10.75V30C27.4165 30.6851 27.6887 31.3422 28.1731 31.8267C28.6576 32.3111 29.3147 32.5833 29.9998 32.5833C30.685 32.5833 31.3421 32.3111 31.8265 31.8267C32.311 31.3422 32.5832 30.6851 32.5832 30V11.6666C32.5832 11.4235 32.4866 11.1904 32.3147 11.0184C32.1428 10.8465 31.9096 10.75 31.6665 10.75H27.4165Z" fill="#333333"/>
<path fill-rule="evenodd" clip-rule="evenodd" d="M17.5 12.5H23.5V18.5H17.5V12.5ZM18.5 13.5V17.5H22.5V13.5H18.5Z" fill="#FF9900"/>
<path fill-rule="evenodd" clip-rule="evenodd" d="M8.25 22C8.25 21.5858 8.58579 21.25 9 21.25H23C23.4142 21.25 23.75 21.5858 23.75 22C23.75 22.4142 23.4142 22.75 23 22.75H9C8.58579 22.75 8.25 22.4142 8.25 22Z" fill="#333333"/>
<path fill-rule="evenodd" clip-rule="evenodd" d="M8.25 14C8.25 13.5858 8.58579 13.25 9 13.25H15C15.4142 13.25 15.75 13.5858 15.75 14C15.75 14.4142 15.4142 14.75 15 14.75H9C8.58579 14.75 8.25 14.4142 8.25 14Z" fill="#333333"/>
<path fill-rule="evenodd" clip-rule="evenodd" d="M8.25 26C8.25 25.5858 8.58579 25.25 9 25.25H23C23.4142 25.25 23.75 25.5858 23.75 26C23.75 26.4142 23.4142 26.75 23 26.75H9C8.58579 26.75 8.25 26.4142 8.25 26Z" fill="#333333"/>
<path fill-rule="evenodd" clip-rule="evenodd" d="M8.25 18C8.25 17.5858 8.58579 17.25 9 17.25H15C15.4142 17.25 15.75 17.5858 15.75 18C15.75 18.4142 15.4142 18.75 15 18.75H9C8.58579 18.75 8.25 18.4142 8.25 18Z" fill="#333333"/>
</svg>
