<svg width="128" height="128" viewBox="0 0 128 128" fill="none" xmlns="http://www.w3.org/2000/svg">
<path d="M20.087 29.2174C20.087 21.4134 26.4134 15.087 34.2174 15.087H93.5262C101.33 15.087 107.657 21.4134 107.657 29.2174V97.5284H20.087V29.2174Z" stroke="#58595B" stroke-width="2.17391"/>
<path d="M77.7793 29.2174C77.7793 21.4134 84.1058 15.087 91.9098 15.087H93.5263C101.33 15.087 107.657 21.4134 107.657 29.2174V97.5284H77.7793V29.2174Z" stroke="#58595B" stroke-width="2.17391"/>
<path d="M61.9951 29.2174H35.7874C33.7197 29.2174 32.0435 30.8936 32.0435 32.9614V51.6812C32.0435 53.7489 33.7197 55.4251 35.7874 55.4251H61.9951C64.0629 55.4251 65.7391 53.7489 65.7391 51.6812V32.9614C65.7391 30.8936 64.0629 29.2174 61.9951 29.2174Z" stroke="#FF9900" stroke-width="2.17391" stroke-linecap="round" stroke-linejoin="round"/>
<path d="M32.0435 32.9614L48.8913 44.1933L65.7391 32.9614" stroke="#FF9900" stroke-width="2.17391" stroke-linecap="round" stroke-linejoin="round"/>
<rect x="57.5896" y="96.6086" width="2.5" height="17.3913" rx="1.08696" fill="#58595B"/>
<rect x="70.6331" y="96.6086" width="2.5" height="17.3913" rx="1.08696" fill="#58595B"/>
</svg>
