<svg width="129" height="128" viewBox="0 0 129 128" fill="none" xmlns="http://www.w3.org/2000/svg">
<path d="M53.6233 98.9684C52.968 98.9684 52.5 98.4068 52.5 97.8451V79.1233C52.5 78.468 53.0617 78 53.6233 78H65.1372C67.3838 78 69.256 79.8722 69.256 82.1188V88.9523C69.256 89.6075 68.6944 90.0756 68.1327 90.0756C67.5711 90.0756 67.0094 89.5139 67.0094 88.9523V82.1188C67.0094 81.0891 66.1669 80.3402 65.2308 80.3402H54.8402V97.7515C54.8402 98.4068 54.2786 98.9684 53.6233 98.9684Z" fill="#FF9900"/>
<path d="M75.4337 98.9684H63.9198C61.6732 98.9684 59.801 97.0962 59.801 94.8496V88.0162C59.801 87.3609 60.3627 86.8929 60.9243 86.8929C61.486 86.8929 62.0476 87.4545 62.0476 88.0162V94.8496C62.0476 95.8793 62.8901 96.6282 63.8262 96.6282H74.2168V79.1233C74.2168 78.468 74.7785 78 75.3401 78C75.9018 78 76.4634 78.5617 76.4634 79.1233V97.7515C76.6507 98.4068 76.089 98.9684 75.4337 98.9684Z" fill="#FF9900"/>
<path d="M20.0779 82.8586C19.3981 83.4369 18.5396 83.8156 17.638 83.8838L21.7177 52.0932C21.7177 52.0931 21.7177 52.093 21.7177 52.093C23.2977 39.7993 30.373 29.36 40.4225 22.9236L40.4225 22.9237L40.4321 22.9175C47.1701 18.4931 55.29 16 63.9002 16H64.7454C74.5218 16 83.6077 19.2529 90.9048 24.7902L90.9103 24.7943C99.5092 31.2268 105.485 40.8325 106.928 52.0222C106.928 52.0224 106.928 52.0225 106.928 52.0227L111.008 83.8137C109.53 83.7091 108.172 82.8181 107.47 81.4613L107.468 81.4586L105.919 78.4851L105.919 78.4844L104.299 75.3692L104.299 75.3685L103.524 73.8814L103.523 73.8786L102.185 71.3293L102.178 71.3165L102.171 71.304C101.139 69.4685 99.3805 67.9992 97.2542 67.4975C96.677 67.3341 96.0982 67.2533 95.4534 67.2533H33.0513C31.4825 67.2533 29.9475 67.8272 28.7429 68.7099C27.7439 69.3851 26.9446 70.3655 26.3944 71.3927L26.3911 71.3989L25.1234 73.8067L25.1233 73.8066L25.1184 73.8162L22.7942 78.3484L22.7926 78.3516L21.1807 81.5224C20.8708 82.0802 20.5332 82.5131 20.1238 82.8218L20.1003 82.8395L20.0779 82.8586Z" stroke="#58595B" stroke-width="2"/>
<path d="M29.6959 68C24.562 87.0933 35.9168 106.856 55.1547 112.029C74.3925 117.201 94.1043 105.884 99.2612 86.7051C100.942 80.4548 100.681 74.2333 99.2049 68.4197" stroke="#58595B" stroke-width="2" stroke-miterlimit="10"/>
</svg>
