<svg width="129" height="128" viewBox="0 0 129 128" fill="none" xmlns="http://www.w3.org/2000/svg">
<g clip-path="url(#clip0_9403_263595)">
<path d="M100.2 69.4844H89.9226C89.2916 69.4844 88.8408 69.9375 88.8408 70.5719C88.8408 71.2063 89.2916 71.6594 89.9226 71.6594H100.2C100.831 71.6594 101.282 71.2063 101.282 70.5719C101.282 69.9375 100.831 69.4844 100.2 69.4844Z" fill="#58595B"/>
<path d="M110.567 21H34.8406C30.4232 21 26.9073 24.625 26.9073 29.0656V62.6875C17.4416 65.4969 10.5 74.3781 10.5 84.8C10.5 97.5781 20.8673 108 33.5785 108C44.8472 108 54.313 99.7531 56.2062 88.9688H110.567C114.984 88.9688 118.59 85.3438 118.59 80.9031V29.0656C118.5 24.625 114.894 21 110.567 21ZM34.8406 23.175H110.567C113.722 23.175 116.336 25.8031 116.336 28.975V45.1969H29.071V29.0656C29.071 25.8031 31.6853 23.175 34.8406 23.175ZM33.5785 105.825C22.1294 105.825 12.7538 96.4 12.7538 84.8906C12.7538 73.2906 22.1294 63.9563 33.5785 63.9563C45.0275 63.9563 54.4032 73.3812 54.4032 84.8906C54.4032 96.4 45.0275 105.825 33.5785 105.825ZM110.567 86.7937H56.4766C56.5668 86.1594 56.5668 85.525 56.5668 84.8C56.5668 72.0219 46.1995 61.6 33.4883 61.6C31.9558 61.6 30.5134 61.7812 29.071 62.0531V47.4625H116.336V80.9937C116.336 84.1656 113.722 86.7937 110.567 86.7937Z" fill="#58595B"/>
<path d="M27.3582 93.5913C27.0877 93.5913 26.7271 93.5007 26.5468 93.2288L22.3098 88.607C21.859 88.1538 21.9492 87.4288 22.3999 87.0663C22.8507 86.6132 23.5719 86.7038 23.9325 87.157L27.4483 90.8726L42.0527 75.6476C42.5034 75.1945 43.1345 75.1945 43.5852 75.6476C44.036 76.1007 44.036 76.7351 43.5852 77.1882L28.1695 93.3195C27.9892 93.5007 27.7188 93.5913 27.3582 93.5913Z" fill="#FF9900"/>
</g>
<defs>
<clipPath id="clip0_9403_263595">
<rect width="108" height="87" fill="white" transform="translate(10.5 21)"/>
</clipPath>
</defs>
</svg>
