<svg width="128" height="128" viewBox="0 0 128 128" fill="none" xmlns="http://www.w3.org/2000/svg">
<path d="M33.2936 119.112H94.4834V119.125H94.6084C99.8011 119.125 104.027 114.725 104.027 109.339V23.6613C104.027 18.2618 99.801 13.875 94.6084 13.875H33.2936C28.101 13.875 23.875 18.2618 23.875 23.6613V109.325C23.875 114.725 28.0881 119.112 33.2936 119.112ZM25.7846 23.6613C25.7846 19.3463 29.1544 15.8502 33.2936 15.8502H94.6084C98.7475 15.8502 102.117 19.3594 102.117 23.6613V109.339C102.117 113.654 98.7476 117.15 94.6084 117.15H33.2936C29.1544 117.15 25.7846 113.654 25.7846 109.339V23.6613Z" fill="#58595B" stroke="#58595B" stroke-width="0.25"/>
<path d="M24.8298 102.347H103.072C103.601 102.347 104.027 101.921 104.027 101.392C104.027 100.863 103.601 100.437 103.072 100.437H24.8298C24.3012 100.437 23.875 100.863 23.875 101.392C23.875 101.921 24.3012 102.347 24.8298 102.347Z" fill="#58595B" stroke="#58595B" stroke-width="0.25"/>
<path d="M24.8298 25.9074H103.072C103.601 25.9074 104.027 25.4813 104.027 24.9527C104.027 24.4241 103.601 23.9979 103.072 23.9979H24.8298C24.3012 23.9979 23.875 24.4241 23.875 24.9527C23.875 25.4813 24.3012 25.9074 24.8298 25.9074Z" fill="#58595B" stroke="#58595B" stroke-width="0.25"/>
<path d="M63.9574 114.372C61.5064 114.372 59.5149 112.381 59.5149 109.93C59.5149 107.479 61.5064 105.5 63.9574 105.5C66.4085 105.5 68.3872 107.491 68.3872 109.93C68.3872 112.368 66.3957 114.372 63.9574 114.372ZM63.9574 107.147C62.4255 107.147 61.1872 108.385 61.1872 109.917C61.1872 111.449 62.4383 112.7 63.9574 112.7C65.4766 112.7 66.7276 111.449 66.7276 109.917C66.7276 108.385 65.4893 107.147 63.9574 107.147Z" fill="#58595B"/>
<path d="M39.4979 22.5529C38.1319 22.5529 37.0085 21.4423 37.0085 20.0636C37.0085 18.6849 38.1192 17.5743 39.4979 17.5743C40.8766 17.5743 41.9745 18.6849 41.9745 20.0636C41.9745 21.4423 40.8639 22.5529 39.4979 22.5529ZM39.4979 19.2466C39.0383 19.2466 38.6681 19.6168 38.6681 20.0764C38.6681 20.5359 39.0383 20.9061 39.4979 20.9061C39.9575 20.9061 40.3149 20.5359 40.3149 20.0764C40.3149 19.6168 39.9447 19.2466 39.4979 19.2466Z" fill="#58595B"/>
<path d="M76.302 20.8934H51.5999C51.1404 20.8934 50.7701 20.5232 50.7701 20.0636C50.7701 19.6041 51.1404 19.2339 51.5999 19.2339H76.302C76.7616 19.2339 77.1318 19.6041 77.1318 20.0636C77.1318 20.5232 76.7616 20.8934 76.302 20.8934Z" fill="#58595B"/>
<path d="M56.0947 72.6567C55.6059 72.6567 55.2568 72.2373 55.2568 71.8179V57.8387C55.2568 57.3495 55.6758 57 56.0947 57H64.6824C66.3581 57 67.7544 58.3979 67.7544 60.0754V65.1778C67.7544 65.6671 67.3355 66.0166 66.9166 66.0166C66.4977 66.0166 66.0788 65.5972 66.0788 65.1778V60.0754C66.0788 59.3066 65.4504 58.7474 64.7522 58.7474H57.0023V71.748C57.0023 72.2373 56.5834 72.6567 56.0947 72.6567Z" fill="#FF9900"/>
<path d="M72.3622 72.6567H63.7744C62.0988 72.6567 60.7024 71.2587 60.7024 69.5812V64.4788C60.7024 63.9896 61.1213 63.6401 61.5402 63.6401C61.9591 63.6401 62.378 64.0595 62.378 64.4788V69.5812C62.378 70.3501 63.0064 70.9093 63.7046 70.9093H71.4545V57.8387C71.4545 57.3495 71.8734 57 72.2923 57C72.7113 57 73.1302 57.4194 73.1302 57.8387V71.748C73.2698 72.2373 72.8509 72.6567 72.3622 72.6567Z" fill="#FF9900"/>
<path d="M84.924 63.9937C84.924 75.5912 75.533 84.9909 63.951 84.9909C52.3689 84.9909 42.9779 75.5912 42.9779 63.9937C42.9779 52.3962 52.3689 42.9965 63.951 42.9965C75.533 42.9965 84.924 52.3962 84.924 63.9937Z" stroke="#FF9900" stroke-width="2"/>
</svg>
