<svg width="128" height="128" viewBox="0 0 128 128" fill="none" xmlns="http://www.w3.org/2000/svg">
<path d="M101.122 84H15.8782C13.1945 84 11 81.7878 11 79.0826V37.9174C11 35.2122 13.1813 33 15.8782 33H101.122C103.805 33 106 35.2122 106 37.9174V79.0826C106 81.8012 103.819 84 101.122 84ZM15.8782 34.9456C14.2522 34.9456 12.9301 36.2783 12.9301 37.9174V79.0826C12.9301 80.7217 14.2522 82.0544 15.8782 82.0544H101.122C102.748 82.0544 104.07 80.7217 104.07 79.0826V37.9174C104.07 36.2783 102.748 34.9456 101.122 34.9456H15.8782Z" fill="#58595B"/>
<path d="M86.1235 77H30.8896C30.3646 77 29.9315 76.5658 29.9315 76.0395C29.9315 69.9605 25.0092 65.0263 18.9582 65.0263C18.4332 65.0263 18 64.5921 18 64.0658V52.9342C18 52.4079 18.4332 51.9737 18.9582 51.9737C25.0092 51.9737 29.9315 47.0395 29.9315 40.9605C29.9315 40.4342 30.3646 40 30.8896 40H86.1104C86.6354 40 87.0686 40.4342 87.0686 40.9605C87.0686 47.0395 91.9908 51.9737 98.0418 51.9737C98.5668 51.9737 99 52.4079 99 52.9342V64.0658C99 64.5921 98.5668 65.0263 98.0418 65.0263C91.9908 65.0263 87.0686 69.9605 87.0686 76.0395C87.0686 76.5658 86.6354 77 86.1104 77H86.1235ZM31.8216 75.0789H85.2047C85.6641 68.7105 90.7569 63.6053 97.0967 63.1447V53.8553C90.7569 53.3816 85.6641 48.2895 85.2047 41.9211H31.8216C31.3491 48.2895 26.2693 53.3947 19.9295 53.8553V63.1447C26.2825 63.6184 31.3622 68.7105 31.8216 75.0789Z" fill="#58595B"/>
<path d="M111.135 95H25.8782C23.1945 95 21 92.7884 21 90.0839V82.7563C21 82.2234 21.4363 81.7837 21.9651 81.7837H100.929C102.555 81.7837 103.877 80.4514 103.877 78.8127V44.9726C103.877 44.4397 104.313 44 104.842 44H111.122C113.819 44 116 46.2116 116 48.9161V90.0839C116 92.8017 113.819 95 111.122 95H111.135ZM22.9301 83.7155V90.0839C22.9301 91.7226 24.2522 93.0549 25.8782 93.0549H111.122C112.748 93.0549 114.07 91.7226 114.07 90.0839V48.9161C114.07 47.2774 112.748 45.9451 111.122 45.9451H105.794V78.8127C105.794 81.5306 103.613 83.7288 100.916 83.7288H22.9301V83.7155Z" fill="#58595B"/>
<path d="M49.8715 65C49.3631 65 49 64.5982 49 64.1964V50.8036C49 50.3348 49.4358 50 49.8715 50H58.8045C60.5475 50 62 51.3393 62 52.9464V57.8348C62 58.3036 61.5642 58.6384 61.1285 58.6384C60.6927 58.6384 60.257 58.2366 60.257 57.8348V52.9464C60.257 52.2098 59.6034 51.6741 58.8771 51.6741H50.8156V64.1295C50.8156 64.5982 50.3799 65 49.8715 65Z" fill="#FF9900"/>
<path d="M66.2338 65H57.9598C56.3454 65 55 63.6607 55 62.0536V57.1652C55 56.6964 55.4036 56.3616 55.8072 56.3616C56.2108 56.3616 56.6144 56.7634 56.6144 57.1652V62.0536C56.6144 62.7902 57.2199 63.3259 57.8925 63.3259H65.3593V50.8036C65.3593 50.3348 65.7629 50 66.1665 50C66.5702 50 66.9738 50.4018 66.9738 50.8036V64.1295C67.1083 64.5982 66.7047 65 66.2338 65Z" fill="#FF9900"/>
</svg>
