<svg width="56" height="52" viewBox="0 0 56 52" fill="none" xmlns="http://www.w3.org/2000/svg">
<path fill-rule="evenodd" clip-rule="evenodd" d="M28 49C41.2548 49 52 38.2548 52 25C52 11.7452 41.2548 1 28 1C14.7452 1 4 11.7452 4 25C4 38.2548 14.7452 49 28 49ZM28 50C41.8071 50 53 38.8071 53 25C53 11.1929 41.8071 0 28 0C14.1929 0 3 11.1929 3 25C3 38.8071 14.1929 50 28 50Z" fill="#9B9DA0"/>
<path fill-rule="evenodd" clip-rule="evenodd" d="M22.5 15C22.7761 15 23 15.2239 23 15.5L23 35.5833C23 35.8595 22.7761 36.0833 22.5 36.0833C22.2239 36.0833 22 35.8595 22 35.5833L22 15.5C22 15.2239 22.2239 15 22.5 15Z" fill="#9B9DA0"/>
<path fill-rule="evenodd" clip-rule="evenodd" d="M33.5 15C33.7761 15 34 15.2239 34 15.5L34 35.5833C34 35.8595 33.7761 36.0833 33.5 36.0833C33.2239 36.0833 33 35.8595 33 35.5833L33 15.5C33 15.2239 33.2239 15 33.5 15Z" fill="#9B9DA0"/>
</svg>
