<svg width="40" height="40" viewBox="0 0 40 40" fill="none" xmlns="http://www.w3.org/2000/svg">
<path d="M32.8814 14.113L26 7V14.113H32.8814Z" stroke="#1D1D1B" stroke-width="1.5" stroke-linejoin="round"/>
<path d="M26.11 7H10.705C8.66214 7 7 8.7237 7 10.8422V29.1578C7 31.2763 8.66214 33 10.705 33H29.295C31.3379 33 33 31.2763 33 29.1578V14.1452L26.11 7Z" stroke="#1D1D1B" stroke-width="1.5" stroke-miterlimit="10"/>
<mask id="path-3-inside-1_9551_258477" fill="white">
<rect x="4" y="15" width="20" height="10" rx="1"/>
</mask>
<rect x="4" y="15" width="20" height="10" rx="1" fill="#FF3B30" stroke="#FF3B30" stroke-width="3" mask="url(#path-3-inside-1_9551_258477)"/>
<path d="M7.73625 17.4717H9.39156C10.0225 17.4717 10.501 17.6075 10.8271 17.8793C11.1532 18.151 11.3163 18.561 11.3163 19.1092C11.3163 19.6551 11.1414 20.0757 10.7917 20.3711C10.4419 20.6641 9.94688 20.8106 9.30649 20.8106H8.83507V22.6538H7.73625V17.4717ZM8.83507 18.372V19.9103H9.19661C9.87008 19.9103 10.2068 19.6504 10.2068 19.1305C10.2068 18.8706 10.1359 18.6792 9.99414 18.5563C9.85472 18.4334 9.63496 18.372 9.33485 18.372H8.83507ZM12.2946 17.4717H13.9215C14.7675 17.4717 15.4244 17.695 15.8923 18.1416C16.3602 18.5882 16.5941 19.212 16.5941 20.0131C16.5941 20.8662 16.3507 21.5195 15.8639 21.9733C15.3795 22.427 14.6789 22.6538 13.762 22.6538H12.2946V17.4717ZM13.3934 18.372V21.7464H13.8648C14.9234 21.7464 15.4528 21.1781 15.4528 20.0415C15.4528 18.9285 14.9613 18.372 13.9782 18.372H13.3934ZM20.6385 18.372H18.7492V19.7083H20.5038V20.6051H18.7492V22.6538H17.6681V17.4717H20.6385V18.372Z" fill="white"/>
</svg>
