<svg width="40" height="40" viewBox="0 0 40 40" fill="none" xmlns="http://www.w3.org/2000/svg">
<path fill-rule="evenodd" clip-rule="evenodd" d="M11.6668 5.75C10.2401 5.75 9.0835 6.9066 9.0835 8.33333C9.0835 9.76007 10.2401 10.9167 11.6668 10.9167C13.0936 10.9167 14.2502 9.76007 14.2502 8.33333C14.2502 6.9066 13.0936 5.75 11.6668 5.75ZM7.5835 8.33333C7.5835 6.07817 9.41167 4.25 11.6668 4.25C13.922 4.25 15.7502 6.07817 15.7502 8.33333C15.7502 10.5885 13.922 12.4167 11.6668 12.4167C9.41167 12.4167 7.5835 10.5885 7.5835 8.33333Z" fill="#FF9900"/>
<path fill-rule="evenodd" clip-rule="evenodd" d="M8.33366 15.75C8.09054 15.75 7.85739 15.8466 7.68548 16.0185C7.51357 16.1904 7.41699 16.4236 7.41699 16.6667V23.0227L8.86399 24.4697C9.00464 24.6103 9.08366 24.8011 9.08366 25V33.3333C9.08366 33.7475 8.74787 34.0833 8.33366 34.0833C7.91945 34.0833 7.58366 33.7475 7.58366 33.3333V25.3107L6.13666 23.8637C5.99601 23.723 5.91699 23.5322 5.91699 23.3333V16.6667C5.91699 16.0257 6.17161 15.411 6.62482 14.9578C7.07803 14.5046 7.69272 14.25 8.33366 14.25H15.0003C15.6413 14.25 16.256 14.5046 16.7092 14.9578C17.1624 15.411 17.417 16.0257 17.417 16.6667V23.3333C17.417 23.5322 17.338 23.723 17.1973 23.8637L15.7503 25.3107V33.3333C15.7503 33.7475 15.4145 34.0833 15.0003 34.0833C14.5861 34.0833 14.2503 33.7475 14.2503 33.3333V25C14.2503 24.8011 14.3293 24.6103 14.47 24.4697L15.917 23.0227V16.6667C15.917 16.4236 15.8204 16.1904 15.6485 16.0185C15.4766 15.8466 15.2434 15.75 15.0003 15.75H8.33366Z" fill="#333333"/>
<path fill-rule="evenodd" clip-rule="evenodd" d="M28.3333 5.75C26.9066 5.75 25.75 6.9066 25.75 8.33333C25.75 9.76007 26.9066 10.9167 28.3333 10.9167C29.7601 10.9167 30.9167 9.76007 30.9167 8.33333C30.9167 6.9066 29.7601 5.75 28.3333 5.75ZM24.25 8.33333C24.25 6.07817 26.0782 4.25 28.3333 4.25C30.5885 4.25 32.4167 6.07817 32.4167 8.33333C32.4167 10.5885 30.5885 12.4167 28.3333 12.4167C26.0782 12.4167 24.25 10.5885 24.25 8.33333Z" fill="#FF9900"/>
<path fill-rule="evenodd" clip-rule="evenodd" d="M26.6665 15.75C26.4234 15.75 26.1902 15.8466 26.0183 16.0185C25.8464 16.1904 25.7498 16.4236 25.7498 16.6667C25.7498 16.7473 25.7368 16.8274 25.7114 16.9038L22.7071 25.9167H24.9998C25.4141 25.9167 25.7498 26.2525 25.7498 26.6667V33.3333C25.7498 33.7475 25.4141 34.0833 24.9998 34.0833C24.5856 34.0833 24.2498 33.7475 24.2498 33.3333V27.4167H21.6665C21.4254 27.4167 21.199 27.3008 21.0581 27.1052C20.9171 26.9096 20.8788 26.6582 20.955 26.4295L24.2535 16.534C24.286 15.9414 24.5358 15.3797 24.9577 14.9578C25.4109 14.5046 26.0256 14.25 26.6665 14.25H29.9998C30.6408 14.25 31.2555 14.5046 31.7087 14.9578C32.1305 15.3797 32.3803 15.9414 32.4129 16.534L35.7114 26.4295C35.7876 26.6582 35.7492 26.9096 35.6083 27.1052C35.4673 27.3008 35.2409 27.4167 34.9998 27.4167H32.4165V33.3333C32.4165 33.7475 32.0807 34.0833 31.6665 34.0833C31.2523 34.0833 30.9165 33.7475 30.9165 33.3333V26.6667C30.9165 26.2525 31.2523 25.9167 31.6665 25.9167H33.9593L30.955 16.9038C30.9295 16.8274 30.9165 16.7473 30.9165 16.6667C30.9165 16.4236 30.8199 16.1904 30.648 16.0185C30.4761 15.8466 30.243 15.75 29.9998 15.75H26.6665Z" fill="#333333"/>
</svg>
