<svg width="24" height="24" viewBox="0 0 24 24" fill="none" xmlns="http://www.w3.org/2000/svg">
<path d="M11.9492 15.7315L7.99016 11.1822L9.20998 9.17459L7.99016 3.96327C7.09328 3.87899 6.19262 4.07928 5.41645 4.53563C4.64027 4.99197 4.02816 5.68109 3.66729 6.50486C2.61867 9.34546 4.75871 14.0442 5.55052 15.3897C7.64608 18.1869 10.6879 20.1298 14.1107 20.8573C15.0854 21.0519 16.0972 20.9185 16.9879 20.4779C17.8785 20.0373 18.5976 19.3145 19.0327 18.4225C19.2804 17.9846 19.4198 17.4941 19.4393 16.9916L13.9609 15.048L11.9492 15.7315Z" stroke="#333333" stroke-miterlimit="10"/>
<path d="M20.3837 11.5C20.3837 11.5 20.2105 6.46375 12.8281 3" stroke="#FF9900" stroke-miterlimit="10"/>
<path d="M17.6309 11.4751C17.6309 11.4751 17.2096 7.90051 12.2461 5.83331" stroke="#FF9900" stroke-miterlimit="10"/>
<path d="M14.7171 11.5C14.502 10.8476 14.1343 10.2523 13.6427 9.7608C13.1512 9.26927 12.5492 8.8948 11.8838 8.66669" stroke="#FF9900" stroke-miterlimit="10"/>
</svg>
