<svg width="56" height="52" viewBox="0 0 56 52" fill="none" xmlns="http://www.w3.org/2000/svg">
<path fill-rule="evenodd" clip-rule="evenodd" d="M28 49C41.2548 49 52 38.2548 52 25C52 11.7452 41.2548 1 28 1C14.7452 1 4 11.7452 4 25C4 38.2548 14.7452 49 28 49ZM28 50C41.8071 50 53 38.8071 53 25C53 11.1929 41.8071 0 28 0C14.1929 0 3 11.1929 3 25C3 38.8071 14.1929 50 28 50Z" fill="#9B9DA0"/>
<path fill-rule="evenodd" clip-rule="evenodd" d="M21.6216 35.3268C21.4411 35.1178 21.4642 34.8021 21.6732 34.6216L32.235 25.5L21.6732 16.3784C21.4642 16.1979 21.4411 15.8822 21.6216 15.6732C21.8021 15.4642 22.1178 15.4411 22.3268 15.6216L33.765 25.5L22.3268 35.3784C22.1178 35.5589 21.8021 35.5358 21.6216 35.3268Z" fill="#9B9DA0"/>
</svg>
