<svg width="27" height="27" viewBox="0 0 27 27" fill="none" xmlns="http://www.w3.org/2000/svg">
<circle cx="13.0039" cy="13.0039" r="13.0039" fill="#FF9900"/>
<g clip-path="url(#clip0_5459_1516)">
<path fill-rule="evenodd" clip-rule="evenodd" d="M19.0168 12.5891C19.3426 12.5884 19.6073 12.8519 19.6081 13.1777C19.6098 13.9531 19.4583 14.7212 19.1624 15.4379C18.8665 16.1546 18.4319 16.8058 17.8836 17.3541C17.3353 17.9024 16.6842 18.337 15.9675 18.6329C15.251 18.9287 14.4832 19.0802 13.7081 19.0785H12.5292C11.7541 19.0802 10.9863 18.9287 10.2698 18.6329C9.55314 18.337 8.90196 17.9024 8.35367 17.3541C7.80539 16.8058 7.37081 16.1546 7.07488 15.4379C6.77895 14.7212 6.6275 13.9531 6.62923 13.1777L7.80912 13.1804C7.80774 13.8004 7.92883 14.4145 8.16546 14.9876C8.40208 15.5607 8.74958 16.0814 9.18798 16.5198C9.62639 16.9582 10.1471 17.3057 10.7201 17.5423C11.2932 17.7789 11.9074 17.9 12.5274 17.8986H13.7099C14.3299 17.9 14.9441 17.7789 15.5171 17.5423C16.0902 17.3057 16.6109 16.9582 17.0493 16.5198C17.4877 16.0814 17.8352 15.5607 18.0718 14.9876C18.3085 14.4145 18.4296 13.8004 18.4282 13.1804C18.4274 12.8546 18.691 12.5898 19.0168 12.5891Z" fill="white"/>
<path fill-rule="evenodd" clip-rule="evenodd" d="M13.1186 17.8987C13.4445 17.8987 13.7086 18.1628 13.7086 18.4886V20.8484C13.7086 21.1742 13.4445 21.4384 13.1186 21.4384C12.7928 21.4384 12.5287 21.1742 12.5287 20.8484V18.4886C12.5287 18.1628 12.7928 17.8987 13.1186 17.8987Z" fill="white"/>
<path fill-rule="evenodd" clip-rule="evenodd" d="M13.1187 4.91943C12.1799 4.91943 11.2795 5.29236 10.6157 5.95618C9.95191 6.62 9.57898 7.52034 9.57898 8.45912V12.5887C9.57898 13.5275 9.95191 14.4279 10.6157 15.0917C11.2795 15.7555 12.1799 16.1284 13.1187 16.1284C14.0574 16.1284 14.9578 15.7555 15.6216 15.0917C16.2854 14.4279 16.6583 13.5275 16.6583 12.5887V8.45912C16.6583 7.52034 16.2854 6.62 15.6216 5.95618C14.9578 5.29236 14.0574 4.91943 13.1187 4.91943Z" fill="white"/>
<line x1="14.7612" y1="9.13731" x2="17.5729" y2="9.13731" stroke="#FF9900" stroke-width="0.702916" stroke-linecap="round"/>
<line x1="14.7612" y1="10.5433" x2="17.5729" y2="10.5433" stroke="#FF9900" stroke-width="0.702916" stroke-linecap="round"/>
<line x1="14.7612" y1="11.9491" x2="17.5729" y2="11.9491" stroke="#FF9900" stroke-width="0.702916" stroke-linecap="round"/>
<line x1="8.78646" y1="9.13731" x2="11.5981" y2="9.13731" stroke="#FF9900" stroke-width="0.702916" stroke-linecap="round"/>
<line x1="8.78646" y1="10.5433" x2="11.5981" y2="10.5433" stroke="#FF9900" stroke-width="0.702916" stroke-linecap="round"/>
<line x1="8.78646" y1="11.9491" x2="11.5981" y2="11.9491" stroke="#FF9900" stroke-width="0.702916" stroke-linecap="round"/>
</g>
<defs>
<clipPath id="clip0_5459_1516">
<rect width="16.5185" height="16.5185" fill="white" transform="translate(4.92041 4.92041)"/>
</clipPath>
</defs>
</svg>
