<svg width="54" height="55" viewBox="0 0 54 55" fill="none" xmlns="http://www.w3.org/2000/svg">
<ellipse cx="27" cy="27.2528" rx="27" ry="27.2528" fill="#FF9900"/>
<path d="M35.4889 28.5978C35.5373 28.5143 35.5894 28.4271 35.6601 28.3208C35.6675 28.3057 35.6787 28.2943 35.6861 28.2791C35.8164 28.0325 36.0137 27.6682 36.0248 27.6531C36.8213 26.0633 37.2233 24.3522 37.2233 22.5613C37.2233 22.3678 37.2195 22.1781 37.2121 21.9922C37.2121 21.9088 37.2009 21.8291 37.1972 21.7494L37.186 21.5862C37.186 21.5331 37.1786 21.4838 37.1749 21.4345C37.1674 21.3662 37.16 21.3017 37.1525 21.2334L37.1377 21.0892C37.1302 21.0209 37.1228 20.9526 37.1153 20.8805C37.1079 20.8274 37.1004 20.7705 37.0893 20.7174L37.0669 20.577C37.0558 20.4973 37.0446 20.4215 37.0297 20.3456C37.0186 20.2849 37.0074 20.2204 36.9925 20.1597L36.959 19.9927C36.9478 19.9358 36.9367 19.8789 36.9255 19.822C36.9069 19.7385 36.8846 19.6588 36.866 19.5792L36.8325 19.4426C36.8213 19.4008 36.8139 19.3591 36.799 19.3136C36.7729 19.2263 36.7469 19.139 36.7208 19.0518L36.6873 18.9417C36.6762 18.9 36.6613 18.8545 36.6501 18.8165C36.624 18.7293 36.5905 18.6458 36.5608 18.5623L36.5198 18.4485C36.5049 18.4068 36.4938 18.3688 36.4789 18.3309C36.4417 18.236 36.4045 18.145 36.3672 18.0501L36.3226 17.9477C36.3114 17.9173 36.3002 17.8908 36.2891 17.8604C36.2333 17.7352 36.1774 17.6138 36.1179 17.4924L36.0769 17.4051C36.0174 17.2837 35.9541 17.1661 35.876 17.0257L35.8462 16.9688C35.7755 16.8436 35.701 16.7222 35.6154 16.5818C35.6154 16.5818 35.5968 16.5476 35.5931 16.5438C35.5149 16.4224 35.4331 16.301 35.3437 16.172C35.3437 16.1682 35.3251 16.1417 35.3214 16.1379C35.2321 16.0127 35.139 15.8913 35.0497 15.7774C35.046 15.7698 35.0311 15.7547 35.0274 15.7471C34.9306 15.6219 34.8264 15.5005 34.7185 15.3753C34.6105 15.2538 34.5026 15.1362 34.3909 15.0224C32.5226 13.1177 29.9582 12.1123 26.9733 12.1123C20.9401 12.1123 16.7233 16.4073 16.7233 22.5613C16.7233 24.4622 17.1997 26.3441 18.1004 27.9945L18.253 28.2829C18.253 28.2829 18.2641 28.3057 18.2716 28.3132L18.5284 28.7154C18.5581 28.761 18.5842 28.8065 18.5991 28.8255L25.157 40.0599H25.1533L26.6718 42.6664C26.7537 42.8068 26.9026 42.8941 27.0626 42.8941C27.2226 42.8941 27.3715 42.8068 27.4534 42.6626L28.9347 40.0637L35.3288 28.8444C35.3847 28.7572 35.4331 28.6813 35.4814 28.5978H35.4889ZM32.7161 22.679C32.7087 22.7359 32.7012 22.789 32.6938 22.8421L32.6752 22.9825C32.664 23.0773 32.6491 23.1722 32.6305 23.2633C32.6156 23.3353 32.597 23.4036 32.5784 23.4757L32.5412 23.6275C32.5263 23.6958 32.5077 23.7603 32.4891 23.8248C32.463 23.9121 32.4295 23.9993 32.3997 24.0866L32.3514 24.2232C32.3327 24.2725 32.3179 24.318 32.2992 24.3673C32.2546 24.4736 32.2025 24.5798 32.1541 24.6823L32.1094 24.7771C32.0945 24.8113 32.0759 24.8492 32.0573 24.8833C31.9866 25.0161 31.9122 25.1413 31.8303 25.2666C31.8005 25.3159 31.7856 25.3424 31.7707 25.369C31.6814 25.5056 31.5846 25.6346 31.4842 25.7636C31.4655 25.7901 31.4544 25.8053 31.4432 25.8205C31.3353 25.9533 31.2162 26.0899 31.0896 26.2227C29.9917 27.3533 28.5513 27.9718 27.0142 27.9907C26.9956 27.9907 26.977 27.9907 26.9547 27.9907C23.7576 27.9907 21.1597 25.3386 21.1597 22.0833C21.1597 18.8279 23.7613 16.1758 26.9547 16.1758H27.0142C28.5476 16.1948 29.988 16.817 31.071 17.9249L31.0971 17.9515C31.2274 18.0843 31.339 18.2133 31.4432 18.3423C31.4581 18.3612 31.4693 18.3764 31.4804 18.3916C31.5847 18.5244 31.6814 18.6572 31.7707 18.7938C31.7856 18.8165 31.8005 18.8431 31.8154 18.8697C31.9085 19.0214 31.9866 19.1466 32.0573 19.2756C32.0759 19.3098 32.0908 19.3477 32.1094 19.3819L32.1318 19.4274C32.1988 19.564 32.2546 19.674 32.2992 19.7878C32.3179 19.8372 32.3365 19.8865 32.3551 19.9358L32.4035 20.0686C32.437 20.1521 32.4667 20.2393 32.4928 20.3266C32.5114 20.3911 32.53 20.4594 32.5449 20.5277L32.5821 20.6757C32.6007 20.7477 32.6193 20.8198 32.6342 20.8919C32.6528 20.983 32.664 21.0778 32.6789 21.1727L32.7012 21.3131C32.7087 21.3662 32.7198 21.4193 32.7235 21.4762C32.7421 21.6735 32.7533 21.8784 32.7533 22.0795C32.7533 22.2806 32.7421 22.4817 32.7235 22.679H32.7161Z" fill="white"/>
</svg>
