<svg width="40" height="40" viewBox="0 0 40 40" fill="none" xmlns="http://www.w3.org/2000/svg">
<path d="M32.8814 14.113L26 7V14.113H32.8814Z" stroke="#1D1D1B" stroke-width="1.5" stroke-linejoin="round"/>
<path d="M26.11 7H10.705C8.66214 7 7 8.7237 7 10.8422V29.1578C7 31.2763 8.66214 33 10.705 33H29.295C31.3379 33 33 31.2763 33 29.1578V14.1452L26.11 7Z" stroke="#1D1D1B" stroke-width="1.5" stroke-miterlimit="10"/>
<mask id="path-3-inside-1_9551_258479" fill="white">
<rect x="4" y="15" width="20" height="10" rx="1"/>
</mask>
<rect x="4" y="15" width="20" height="10" rx="1" fill="#FF9900" stroke="#FF9900" stroke-width="3" mask="url(#path-3-inside-1_9551_258479)"/>
<path d="M8.20654 17.5029H9.80273C10.4111 17.5029 10.8726 17.634 11.187 17.896C11.5015 18.158 11.6587 18.5534 11.6587 19.082C11.6587 19.6084 11.4901 20.014 11.1528 20.2988C10.8156 20.5814 10.3382 20.7227 9.7207 20.7227H9.26611V22.5H8.20654V17.5029ZM9.26611 18.3711V19.8545H9.61475C10.2642 19.8545 10.5889 19.6038 10.5889 19.1025C10.5889 18.8519 10.5205 18.6673 10.3838 18.5488C10.2493 18.4303 10.0374 18.3711 9.74805 18.3711H9.26611ZM12.6021 17.5029H14.1982C14.8066 17.5029 15.2681 17.634 15.5825 17.896C15.897 18.158 16.0542 18.5534 16.0542 19.082C16.0542 19.6084 15.8856 20.014 15.5483 20.2988C15.2111 20.5814 14.7337 20.7227 14.1162 20.7227H13.6616V22.5H12.6021V17.5029ZM13.6616 18.3711V19.8545H14.0103C14.6597 19.8545 14.9844 19.6038 14.9844 19.1025C14.9844 18.8519 14.916 18.6673 14.7793 18.5488C14.6449 18.4303 14.4329 18.3711 14.1436 18.3711H13.6616ZM20.2822 18.3848H18.9253V22.5H17.8657V18.3848H16.5088V17.5029H20.2822V18.3848Z" fill="white"/>
</svg>
