<svg width="24" height="24" viewBox="0 0 24 24" fill="none" xmlns="http://www.w3.org/2000/svg">
<path d="M6.36364 13.5H18.6364C18.998 13.5 19.3449 13.6475 19.6006 13.9101C19.8563 14.1726 20 14.5287 20 14.9V20.5H5V14.9C5 14.5287 5.14367 14.1726 5.3994 13.9101C5.65513 13.6475 6.00198 13.5 6.36364 13.5V13.5Z" stroke="#333333" stroke-linecap="round" stroke-linejoin="round"/>
<path d="M4.46154 14.5C4.07391 14.5 3.70217 14.3683 3.42807 14.1339C3.15398 13.8995 3 13.5815 3 13.25V10.75C3 10.4185 3.15398 10.1005 3.42807 9.86612C3.70217 9.6317 4.07391 9.5 4.46154 9.5H20.5385C20.9261 9.5 21.2978 9.6317 21.5719 9.86612C21.846 10.1005 22 10.4185 22 10.75V13.25C22 13.5815 21.846 13.8995 21.5719 14.1339C21.2978 14.3683 20.9261 14.5 20.5385 14.5" stroke="#333333" stroke-linecap="round" stroke-linejoin="round"/>
<path d="M18 2.5H7V9.5H18V2.5Z" stroke="#333333" stroke-linecap="round" stroke-linejoin="round"/>
<path d="M9 17.5H16" stroke="#FF9900" stroke-linecap="round" stroke-linejoin="round"/>
</svg>
