<svg width="32" height="32" viewBox="0 0 32 32" fill="none" xmlns="http://www.w3.org/2000/svg">
<path d="M16.0002 19.9958L20.3638 27.5537L22.4147 23.4057L27.0325 23.7035L22.6689 16.1457" stroke="#333333" stroke-width="0.962543" stroke-linecap="round" stroke-linejoin="round"/>
<path d="M9.32812 16.1456L4.9646 23.7035L9.58233 23.4057L11.6333 27.5536L15.9968 19.9958" stroke="#333333" stroke-width="0.962543" stroke-linecap="round" stroke-linejoin="round"/>
<path d="M15.9983 19.0295C20.7827 19.0295 24.6612 15.151 24.6612 10.3666C24.6612 5.58224 20.7827 1.70374 15.9983 1.70374C11.214 1.70374 7.33545 5.58224 7.33545 10.3666C7.33545 15.151 11.214 19.0295 15.9983 19.0295Z" stroke="#333333" stroke-width="0.962543" stroke-linecap="round" stroke-linejoin="round"/>
<path fill-rule="evenodd" clip-rule="evenodd" d="M15.9983 14.5356C18.3008 14.5356 20.1673 12.6691 20.1673 10.3666C20.1673 8.06413 18.3008 6.1976 15.9983 6.1976C13.6958 6.1976 11.8293 8.06413 11.8293 10.3666C11.8293 12.6691 13.6958 14.5356 15.9983 14.5356ZM15.9983 15.6606C18.9221 15.6606 21.2923 13.2904 21.2923 10.3666C21.2923 7.44283 18.9221 5.07263 15.9983 5.07263C13.0745 5.07263 10.7043 7.44283 10.7043 10.3666C10.7043 13.2904 13.0745 15.6606 15.9983 15.6606Z" fill="#FF9900"/>
</svg>
