<svg width="55" height="41" viewBox="0 0 55 41" fill="none" xmlns="http://www.w3.org/2000/svg">
<path d="M30.7534 40.9937V38.4026C38.4247 33.9544 43.1569 28.3204 44.9564 21.4881C43.0137 22.7617 41.2391 23.4017 39.6451 23.4017C36.9925 23.4017 34.7509 22.3226 32.9203 20.1581C31.0897 17.9998 30.1744 15.3585 30.1744 12.2278C30.1744 8.77093 31.3761 5.86611 33.7796 3.51966C36.1831 1.17322 39.1407 0 42.6526 0C46.1644 0 49.0972 1.49319 51.4571 4.47957C53.817 7.46595 55 11.1801 55 15.622C55 21.8834 52.6277 27.486 47.8767 32.4487C43.1258 37.4051 37.416 40.2534 30.7534 41V40.9937ZM0.572852 40.9937V38.4026C8.24409 33.9544 12.9826 28.3204 14.7758 21.4881C12.8269 22.7617 11.0461 23.4017 9.42093 23.4017C6.79328 23.4017 4.57036 22.3226 2.73973 20.1581C0.915318 17.9936 0 15.3523 0 12.2278C0 8.77093 1.19552 5.86611 3.58655 3.51966C5.97136 1.17322 8.92279 0 12.4346 0C15.9465 0 18.9166 1.49319 21.264 4.47957C23.6115 7.46595 24.7821 11.1801 24.7821 15.622C24.7821 21.8834 22.4159 27.486 17.6775 32.4487C12.9452 37.4051 7.2416 40.2534 0.572852 41V40.9937Z" fill="#FF9900"/>
</svg>
