<svg width="23" height="24" viewBox="0 0 23 24" fill="none" xmlns="http://www.w3.org/2000/svg">
<g clip-path="url(#clip0_6401_220945)">
<path d="M18.6251 2.5H4.37502C3.06333 2.5 2 3.56333 2 4.87502V19.1251C2 20.4368 3.06333 21.5001 4.37502 21.5001H18.6251C19.9368 21.5001 21.0001 20.4368 21.0001 19.1251V4.87502C21.0001 3.56333 19.9368 2.5 18.6251 2.5Z" stroke="#333333" stroke-width="1.23914" stroke-linecap="round" stroke-linejoin="round"/>
<path d="M12.7188 8.97859L8.87576 12.7759C8.64055 13.0084 8.50841 13.3236 8.50841 13.6523C8.50841 13.9809 8.64055 14.2962 8.87576 14.5286C9.11097 14.761 9.42998 14.8915 9.76262 14.8915C10.0953 14.8915 10.4143 14.761 10.6495 14.5286L14.4925 10.7312C14.9629 10.2664 15.2272 9.63595 15.2272 8.97859C15.2272 8.32122 14.9629 7.69079 14.4925 7.22596C14.0221 6.76114 13.3841 6.5 12.7188 6.5C12.0535 6.5 11.4155 6.76114 10.9451 7.22596L7.10204 11.0233C6.39642 11.7206 6 12.6662 6 13.6523C6 14.6383 6.39642 15.584 7.10204 16.2812C7.80767 16.9784 8.76471 17.3701 9.76262 17.3701C10.7605 17.3701 11.7176 16.9784 12.4232 16.2812L16.2662 12.4838" stroke="#FF9900" stroke-linecap="round" stroke-linejoin="round"/>
</g>
<defs>
<clipPath id="clip0_6401_220945">
<rect width="23" height="23" fill="white" transform="translate(0 0.5)"/>
</clipPath>
</defs>
</svg>
