<svg width="49" height="49" viewBox="0 0 49 49" fill="none" xmlns="http://www.w3.org/2000/svg">
<g clip-path="url(#clip0_629_16422)">
<path d="M24.9452 42.9122C24.7449 42.9122 24.5446 42.8122 24.3443 42.7122L18.1346 36.5122C17.8341 36.2122 17.8341 35.7122 18.1346 35.4122C18.4351 35.1122 18.9359 35.1122 19.2363 35.4122L24.8451 41.0122L40.3693 25.6122L40.4695 25.5122C41.3709 24.6122 42.1722 23.5122 42.6729 22.2122C43.1737 20.9122 43.4742 19.6122 43.374 18.2122C43.374 16.8122 42.9734 15.5122 42.4726 14.3122C41.8717 13.1122 41.0704 12.0122 40.0689 11.1122C39.0673 10.2122 37.8654 9.51219 36.5634 9.11219C35.2614 8.71219 33.8592 8.51219 32.5571 8.71219C31.0548 8.81219 29.7528 9.21219 28.651 9.91219C27.4492 10.6122 26.4476 11.5122 25.6463 12.6122C25.446 12.7122 25.1456 12.9122 24.9452 12.9122C24.6448 12.9122 24.4445 12.8122 24.3443 12.6122C23.0423 10.9122 21.3396 9.71219 19.3365 9.11219C17.3333 8.51219 15.2301 8.51219 13.2269 9.21219C11.2238 9.91219 9.52114 11.1122 8.31926 12.8122C7.11738 14.5122 6.41629 16.5122 6.51644 18.6122C6.51644 19.0122 6.11582 19.4122 5.71519 19.4122C5.31457 19.4122 4.91394 19.0122 4.91394 18.6122C4.91394 16.1122 5.61504 13.8122 7.01723 11.8122C8.41942 9.81219 10.4225 8.31219 12.7261 7.61219C15.0297 6.81219 17.5337 6.81219 19.8373 7.51219C21.8404 8.11219 23.6432 9.31219 25.0454 10.8122C25.7465 9.81219 26.7481 9.11219 27.8498 8.41219C29.252 7.61219 30.7543 7.11219 32.3568 7.01219C33.9593 6.81219 35.5618 7.01219 37.0642 7.51219C38.5665 8.01219 39.9687 8.81219 41.1706 9.81219C42.3725 10.9122 43.374 12.1122 43.975 13.6122C44.6761 15.0122 44.9765 16.6122 45.0767 18.2122C45.0767 19.8122 44.8764 21.4122 44.2754 22.8122C43.6745 24.3122 42.7731 25.6122 41.6714 26.7122L41.5712 26.8122L25.5462 42.7122C25.3459 42.8122 25.1456 42.9122 24.9452 42.9122Z" fill="#9B9DA0"/>
<path d="M14.1291 32.2123C13.8286 32.2123 13.6283 32.1123 13.428 31.8123L9.32155 25.7123H5.51561C5.11498 25.7123 4.71436 25.4123 4.71436 24.9123C4.71436 24.4123 5.11498 24.1123 5.51561 24.1123H9.82234C10.1228 24.1123 10.3231 24.2123 10.5234 24.5123L13.9288 29.6123L17.7347 18.2123C17.8349 17.9123 18.1353 17.6123 18.536 17.6123C18.8364 17.6123 19.237 17.8123 19.3372 18.2123L21.3403 24.1123H27.2496C27.6502 24.1123 28.0508 24.5123 28.0508 24.9123C28.0508 25.3123 27.6502 25.7123 27.2496 25.7123H20.8396C20.5391 25.7123 20.1385 25.5123 20.0383 25.1123L18.6361 21.0123L15.1306 31.6123C15.0305 31.9123 14.73 32.1123 14.4295 32.1123C14.2292 32.2123 14.2292 32.2123 14.1291 32.2123Z" fill="#FF9900"/>
</g>
<defs>
<clipPath id="clip0_629_16422">
<rect width="40.3631" height="36" fill="white" transform="translate(4.71436 6.91211)"/>
</clipPath>
</defs>
</svg>
