<svg width="49" height="49" viewBox="0 0 49 49" fill="none" xmlns="http://www.w3.org/2000/svg">
<g clip-path="url(#clip0_629_16371)">
<path d="M42.1917 10.6362C42.0004 9.77683 41.6178 8.91741 40.9483 8.24898C40.2788 7.58054 39.5137 7.19858 38.5573 7.0076C38.2704 6.91211 37.8878 6.91211 37.6009 6.91211H16.5601C14.8386 6.91211 13.2127 7.58054 11.9694 8.82192C10.726 10.0633 10.0566 11.6866 10.0566 13.501V33.6495H6.99608C6.61352 33.6495 6.23096 34.0315 6.23096 34.5089V36.4187C6.23096 38.1376 6.90044 39.7609 8.14376 41.0023C9.38708 42.2437 11.013 42.9121 12.7345 42.9121H29.9497C31.193 42.9121 32.3407 42.4347 33.2015 41.5752C34.0622 40.7158 34.5404 39.5699 34.5404 38.3286V16.1747H37.6009C38.5573 16.1747 39.4181 15.8882 40.1832 15.4108C40.9483 14.9333 41.5222 14.1694 41.9047 13.31C42.2873 12.4506 42.3829 11.4957 42.1917 10.6362ZM12.7345 41.2888C11.3955 41.2888 10.1522 40.8113 9.29144 39.8564C8.33504 38.9015 7.85684 37.6601 7.85684 36.4187V35.3683H25.359V38.3286C25.359 39.4744 25.7415 40.5248 26.5067 41.2888H12.7345ZM33.7753 9.01291C33.2971 9.77683 33.0102 10.6362 33.0102 11.5912V38.3286C33.0102 39.0925 32.7233 39.8564 32.1494 40.4293C31.0018 41.5752 28.9933 41.5752 27.8456 40.4293C27.2718 39.8564 26.9849 39.0925 26.9849 38.3286V34.5089C26.9849 34.0315 26.6023 33.6495 26.2197 33.6495H11.6824V13.501C11.6824 12.1641 12.1606 10.9227 13.117 10.0633C14.0734 9.1084 15.3168 8.63094 16.5601 8.63094H34.0622C33.9666 8.63094 33.871 8.82192 33.7753 9.01291ZM40.4701 12.737C40.2788 13.31 39.8963 13.7874 39.3224 14.0739C38.8442 14.3604 38.2704 14.5514 37.6009 14.5514H34.5404V11.5912C34.5404 11.0182 34.7317 10.4453 35.0186 9.87232C35.3056 9.39487 35.7838 9.01291 36.3576 8.72643C36.7402 8.53545 37.1227 8.53545 37.5053 8.53545C37.6966 8.53545 37.8878 8.53545 38.0791 8.63094C38.653 8.72643 39.2268 9.01291 39.6094 9.49036C39.9919 9.87232 40.2788 10.4453 40.4701 11.0182C40.757 11.4957 40.6614 12.1641 40.4701 12.737Z" fill="#9B9DA0"/>
<path d="M18.4729 16.1751H26.1241C26.6023 16.1751 26.8892 15.7931 26.8892 15.3157C26.8892 14.8382 26.6023 14.5518 26.1241 14.5518H18.4729C18.0903 14.5518 17.7078 14.9337 17.7078 15.4112C17.7078 15.8886 18.0903 16.1751 18.4729 16.1751Z" fill="#FF9900"/>
<path d="M18.4729 23.814H26.1241C26.6023 23.814 26.8892 23.4321 26.8892 22.9546C26.8892 22.4771 26.6023 22.1907 26.1241 22.1907H18.4729C17.9947 22.1907 17.7078 22.5726 17.7078 23.0501C17.7078 23.5275 18.0903 23.814 18.4729 23.814Z" fill="#FF9900"/>
</g>
<defs>
<clipPath id="clip0_629_16371">
<rect width="36.0563" height="36" fill="white" transform="translate(6.23096 6.91211)"/>
</clipPath>
</defs>
</svg>
