<svg width="49" height="49" viewBox="0 0 49 49" fill="none" xmlns="http://www.w3.org/2000/svg">
<g clip-path="url(#clip0_629_16359)">
<path d="M41.464 41.2883H40.4119V21.7127H41.464C41.9422 21.7127 42.2291 21.3308 42.2291 20.8533C42.2291 20.3759 41.8465 19.9939 41.464 19.9939H7.5117C7.0335 19.9939 6.74658 20.3759 6.74658 20.8533C6.74658 21.3308 7.12914 21.7127 7.5117 21.7127H8.65939V41.2883H7.5117C7.12914 41.2883 6.74658 41.6703 6.74658 42.1477C6.74658 42.6252 7.12914 43.0072 7.5117 43.0072H41.464C41.9422 43.0072 42.2291 42.6252 42.2291 42.1477C42.2291 41.6703 41.9422 41.2883 41.464 41.2883ZM10.2853 21.7127H38.786V41.2883H10.2853V21.7127Z" fill="#9B9DA0"/>
<path d="M11.337 14.169C11.4326 14.169 11.5282 14.169 11.6239 14.0735L24.5353 8.53502L37.3511 14.0735C37.7336 14.2645 38.2118 14.0735 38.4031 13.6915C38.5944 13.3096 38.4031 12.8321 38.0206 12.6411L24.8222 7.00716C24.6309 6.91167 24.344 6.91167 24.1527 7.00716L11.05 12.6411C10.5718 12.8321 10.3806 13.3096 10.5718 13.6915C10.6675 13.978 11.05 14.169 11.337 14.169Z" fill="#FF9900"/>
<path d="M16.9797 27.6328C16.5015 27.6328 16.2146 28.0148 16.2146 28.4922V34.1262C16.2146 34.6036 16.5972 34.9856 16.9797 34.9856C17.3623 34.9856 17.7448 34.6036 17.7448 34.1262V28.4922C17.7448 27.9193 17.4579 27.6328 16.9797 27.6328Z" fill="#9B9DA0"/>
<path d="M24.5344 27.6328C24.0562 27.6328 23.7693 28.0148 23.7693 28.4922V34.1262C23.7693 34.6036 24.1518 34.9856 24.5344 34.9856C24.917 34.9856 25.2995 34.6036 25.2995 34.1262V28.4922C25.2995 27.9193 24.917 27.6328 24.5344 27.6328Z" fill="#9B9DA0"/>
<path d="M32.091 27.6328C31.6128 27.6328 31.3259 28.0148 31.3259 28.4922V34.1262C31.3259 34.6036 31.7085 34.9856 32.091 34.9856C32.4736 34.9856 32.8562 34.6036 32.8562 34.1262V28.4922C32.8562 27.9193 32.4736 27.6328 32.091 27.6328Z" fill="#9B9DA0"/>
</g>
<defs>
<clipPath id="clip0_629_16359">
<rect width="35.5781" height="36" fill="white" transform="translate(6.74658 6.91211)"/>
</clipPath>
</defs>
</svg>
