<svg width="49" height="49" viewBox="0 0 49 49" fill="none" xmlns="http://www.w3.org/2000/svg">
<g clip-path="url(#clip0_629_3085)">
<path d="M41.5864 6.91211H7.23272C5.53006 6.91211 4.22803 8.21211 4.22803 9.91211V31.4121C4.22803 33.0121 5.53006 34.4121 7.23272 34.4121H17.1482V41.4121H13.6427C13.2421 41.4121 12.8415 41.8121 12.8415 42.2121C12.8415 42.6121 13.2421 42.9121 13.6427 42.9121H35.1764C35.577 42.9121 35.9776 42.5121 35.9776 42.1121C35.9776 41.7121 35.577 41.3121 35.1764 41.3121H31.6709V34.3121H41.5864C43.1889 34.3121 44.5911 33.0121 44.5911 31.3121V9.91211C44.5911 8.21211 43.2891 6.91211 41.5864 6.91211ZM30.0684 41.3121H18.7507V34.3121H30.0684V41.3121ZM42.9886 31.3121C42.9886 32.0121 42.3877 32.6121 41.6866 32.6121H30.8697H17.9495H7.23272C6.53163 32.6121 5.93069 32.0121 5.93069 31.3121V9.91211C5.93069 9.21211 6.53163 8.61211 7.23272 8.61211H41.6866C42.3877 8.61211 42.9886 9.21211 42.9886 9.91211V31.3121Z" fill="#9B9DA0"/>
<path d="M15.8466 25.7119C15.6462 25.7119 15.4459 25.6119 15.2456 25.5119C14.9451 25.2119 14.9451 24.7119 15.2456 24.4119L21.6556 18.0119C21.9561 17.7119 22.4569 17.7119 22.7574 18.0119L26.4631 21.7119L32.3724 15.8119C32.6728 15.5119 33.1736 15.5119 33.4741 15.8119C33.7746 16.1119 33.7746 16.6119 33.4741 16.9119L27.0641 23.3119C26.7636 23.6119 26.2628 23.6119 25.9624 23.3119L22.2566 19.6119L16.3473 25.5119C16.2472 25.6119 16.0469 25.7119 15.8466 25.7119Z" fill="#FF9900"/>
</g>
<defs>
<clipPath id="clip0_629_3085">
<rect width="40.3631" height="36" fill="white" transform="translate(4.22803 6.91211)"/>
</clipPath>
</defs>
</svg>
