<svg width="104" height="103" viewBox="0 0 104 103" fill="none" xmlns="http://www.w3.org/2000/svg">
<path fill-rule="evenodd" clip-rule="evenodd" d="M15.4691 54.5044C15.8657 53.7174 16.8252 53.4009 17.6122 53.7975C28.2785 59.1723 40.0561 61.972 52.0001 61.972C63.944 61.972 75.7217 59.1723 86.388 53.7975C87.175 53.4009 88.1345 53.7174 88.5311 54.5044C88.9277 55.2915 88.6111 56.251 87.8241 56.6475C76.7124 62.2468 64.4428 65.1634 52.0001 65.1634C39.5573 65.1634 27.2878 62.2468 16.1761 56.6475C15.389 56.251 15.0725 55.2915 15.4691 54.5044Z" fill="#FF9900"/>
<path fill-rule="evenodd" clip-rule="evenodd" d="M24.6954 33.4139C21.2681 33.4139 18.4898 36.1923 18.4898 39.6195V74.7255C18.4898 78.1527 21.2681 80.9311 24.6954 80.9311H79.3046C82.7319 80.9311 85.5102 78.1527 85.5102 74.7255V39.6195C85.5102 36.1923 82.7319 33.4139 79.3046 33.4139H24.6954ZM15.2983 39.6195C15.2983 34.4297 19.5055 30.2225 24.6954 30.2225H79.3046C84.4945 30.2225 88.7017 34.4297 88.7017 39.6195V74.7255C88.7017 79.9153 84.4945 84.1225 79.3046 84.1225H24.6954C19.5055 84.1225 15.2983 79.9153 15.2983 74.7255V39.6195Z" fill="#9B9DA0"/>
<path fill-rule="evenodd" clip-rule="evenodd" d="M44.1986 17.8099C42.5528 17.8099 40.9743 18.4637 39.8106 19.6275C38.6468 20.7913 37.993 22.3697 37.993 24.0155V31.8168C37.993 32.6981 37.2786 33.4126 36.3973 33.4126C35.516 33.4126 34.8015 32.6981 34.8015 31.8168V24.0155C34.8015 21.5233 35.7916 19.1331 37.5539 17.3708C39.3162 15.6085 41.7063 14.6185 44.1986 14.6185H59.8012C62.2935 14.6185 64.6837 15.6085 66.446 17.3708C68.2082 19.1331 69.1983 21.5233 69.1983 24.0155V31.8168C69.1983 32.6981 68.4839 33.4126 67.6026 33.4126C66.7213 33.4126 66.0068 32.6981 66.0068 31.8168V24.0155C66.0068 22.3697 65.353 20.7913 64.1893 19.6275C63.0255 18.4637 61.4471 17.8099 59.8012 17.8099H44.1986Z" fill="#9B9DA0"/>
<path fill-rule="evenodd" clip-rule="evenodd" d="M52 49.7244C52.8813 49.7244 53.5957 50.4388 53.5957 51.3201V51.3591C53.5957 52.2404 52.8813 52.9549 52 52.9549C51.1187 52.9549 50.4043 52.2404 50.4043 51.3591V51.3201C50.4043 50.4388 51.1187 49.7244 52 49.7244Z" fill="#FF9900"/>
</svg>
