<svg width="49" height="49" viewBox="0 0 49 49" fill="none" xmlns="http://www.w3.org/2000/svg">
<g clip-path="url(#clip0_629_3054)">
<path d="M20.4672 10.2121C20.8678 9.71211 21.3686 9.21211 21.9696 9.01211C22.5705 8.71211 23.1714 8.61211 23.8725 8.61211C24.5736 8.61211 25.1746 8.71211 25.7755 9.01211C26.3765 9.31211 26.8772 9.71211 27.2779 10.2121C27.6785 10.9121 28.3796 11.5121 29.281 11.9121C30.0822 12.3121 30.8835 12.5121 31.7849 12.5121H31.8851C32.7865 12.5121 33.6879 12.3121 34.4891 11.9121C35.2904 11.5121 35.9915 10.9121 36.5924 10.1121C36.993 9.61211 37.4938 9.11211 38.0948 8.91211C38.6957 8.61211 39.2966 8.51211 39.9977 8.51211C40.6988 8.51211 41.2998 8.61211 41.9007 8.91211C42.5016 9.21211 43.0024 9.61211 43.4031 10.1121C43.7035 10.5121 44.2043 10.5121 44.5048 10.3121C44.9054 10.0121 44.9054 9.51211 44.7051 9.21211C44.2043 8.51211 43.5032 7.91211 42.6018 7.41211C41.7004 7.11211 40.799 6.91211 39.8976 6.91211C38.9962 6.91211 38.0948 7.11211 37.2935 7.51211C36.4923 7.91211 35.7912 8.51211 35.1902 9.31211C34.7896 9.81211 34.2888 10.3121 33.6879 10.5121C33.1871 10.8121 32.486 10.9121 31.8851 10.9121C31.2841 10.9121 30.583 10.8121 29.9821 10.5121C29.3811 10.2121 28.8804 9.81211 28.4797 9.31211C27.979 8.61211 27.2779 8.01211 26.3765 7.51211C25.5752 7.11211 24.6738 6.91211 23.8725 6.91211C22.9711 6.91211 22.0697 7.11211 21.2685 7.51211C20.4672 7.91211 19.7661 8.51211 19.1652 9.31211C18.8647 9.71211 18.9649 10.2121 19.3655 10.4121C19.666 10.6121 20.1667 10.6121 20.4672 10.2121Z" fill="#FF9900"/>
<path d="M43.7045 41.3117H40.4995C38.5965 36.6117 36.6936 31.2117 36.5934 25.8117C36.5934 25.4117 36.1928 25.0117 35.7922 25.0117H27.0786C26.7781 22.5117 26.5778 20.1117 26.5778 17.8117C26.5778 17.4117 26.1771 17.0117 25.7765 17.0117H13.7577C13.3571 17.0117 12.9565 17.4117 12.9565 17.8117C12.9565 24.6117 11.6545 32.1117 9.05038 41.3117H5.5449C5.14428 41.3117 4.74365 41.7117 4.74365 42.1117C4.74365 42.5117 5.14428 42.9117 5.5449 42.9117H43.7045C44.1052 42.9117 44.5058 42.5117 44.5058 42.1117C44.5058 41.7117 44.2053 41.3117 43.7045 41.3117ZM35.0911 26.6117C35.2914 31.8117 36.994 36.9117 38.7969 41.3117H30.584C29.0817 35.9117 27.98 31.0117 27.379 26.6117H35.0911ZM14.559 18.6117H24.9753C25.0754 25.2117 26.3775 32.5117 28.7812 41.3117H10.753C13.257 32.4117 14.4588 25.2117 14.559 18.6117Z" fill="#9B9DA0"/>
</g>
<defs>
<clipPath id="clip0_629_3054">
<rect width="39.9624" height="36" fill="white" transform="translate(4.74365 6.91211)"/>
</clipPath>
</defs>
</svg>
