<svg width="49" height="49" viewBox="0 0 49 49" fill="none" xmlns="http://www.w3.org/2000/svg">
<g clip-path="url(#clip0_629_3075)">
<path d="M18.0643 18.2121C19.2661 17.0121 20.6683 16.3121 22.2708 15.9121C23.8733 15.6121 25.4758 15.7121 27.0783 16.4121C28.5807 17.0121 29.8827 18.1121 30.7841 19.4121C31.6855 20.8121 32.1863 22.3121 32.1863 24.0121C32.1863 24.2121 32.2865 24.4121 32.3866 24.6121C32.4868 24.7121 32.6871 24.8121 32.9876 24.8121H39.3976V25.8121C39.3976 26.2121 39.7982 26.6121 40.1988 26.6121C40.5995 26.6121 41.0001 26.2121 41.0001 25.8121V22.2121C41.0001 21.8121 40.5995 21.4121 40.1988 21.4121C39.7982 21.4121 39.3976 21.8121 39.3976 22.2121V23.2121H33.6887C33.5885 21.5121 32.9876 19.9121 32.0862 18.5121C31.8859 18.2121 31.6855 17.9121 31.3851 17.6121L35.3913 13.6121L36.0924 14.3121C36.3929 14.6121 36.8937 14.6121 37.1942 14.3121C37.4946 14.0121 37.4946 13.5121 37.1942 13.2121L34.5901 10.6121C34.2896 10.3121 33.7888 10.3121 33.4884 10.6121C33.1879 10.9121 33.1879 11.4121 33.4884 11.7121L34.1895 12.4121L30.1832 16.4121C29.3819 15.7121 28.5807 15.2121 27.5791 14.8121C26.5776 14.4121 25.576 14.2121 24.5744 14.1121V8.51211H25.576C25.9766 8.51211 26.3773 8.11211 26.3773 7.71211C26.3773 7.31211 26.1769 6.91211 25.6762 6.91211H22.0705C21.6699 6.91211 21.2693 7.31211 21.2693 7.71211C21.2693 8.11211 21.6699 8.51211 22.0705 8.51211H23.0721V14.2121C22.6715 14.2121 22.371 14.3121 21.9704 14.3121C20.2677 14.6121 18.7654 15.4121 17.5635 16.5121L13.5572 12.5121L14.2583 11.8121C14.5588 11.5121 14.5588 11.0121 14.2583 10.7121C13.9578 10.4121 13.4571 10.4121 13.1566 10.7121L10.4524 13.2121C10.1519 13.5121 10.1519 14.0121 10.4524 14.3121C10.7528 14.6121 11.2536 14.6121 11.5541 14.3121L12.2552 13.6121L16.2614 17.6121C15.1597 18.9121 14.4586 20.4121 14.058 22.0121C13.9578 22.4121 13.9578 22.7121 13.9578 23.1121H8.34909V22.1121C8.34909 21.7121 7.94846 21.3121 7.54783 21.3121C7.14721 21.3121 6.74658 21.7121 6.74658 22.2121V25.8121C6.74658 26.2121 7.14721 26.6121 7.54783 26.6121C7.94846 26.6121 8.34909 26.2121 8.34909 25.8121V24.8121H14.058C14.1582 25.8121 14.3585 26.8121 14.7591 27.8121C15.1597 28.8121 15.6605 29.6121 16.3616 30.4121L12.3553 34.4121L11.6543 33.7121C11.3538 33.4121 10.853 33.4121 10.5525 33.7121C10.2521 34.0121 10.2521 34.5121 10.5525 34.8121L11.7544 36.1121L13.0564 37.4121C13.2568 37.6121 13.4571 37.6121 13.6574 37.6121C13.8577 37.6121 14.058 37.5121 14.2583 37.4121C14.5588 37.1121 14.5588 36.6121 14.2583 36.3121L13.5572 35.6121L17.5635 31.6121C17.864 31.8121 18.1644 32.1121 18.4649 32.3121C19.8671 33.2121 21.4696 33.8121 23.1722 33.9121V39.6121H22.1707C21.7701 39.6121 21.3694 40.0121 21.3694 40.4121C21.3694 40.8121 21.7701 41.2121 22.1707 41.2121H25.7763C26.1769 41.2121 26.5776 40.8121 26.5776 40.4121C26.5776 40.0121 26.1769 39.6121 25.7763 39.6121H24.7747V33.2121C24.7747 32.8121 24.3741 32.4121 23.9735 32.4121C22.371 32.4121 20.7685 31.9121 19.3663 31.0121C17.9641 30.1121 16.9625 28.8121 16.3616 27.3121C15.7607 25.8121 15.5604 24.1121 15.8608 22.5121C16.0611 20.8121 16.8624 19.3121 18.0643 18.2121Z" fill="#9B9DA0"/>
<path d="M42.6035 41.5119L38.1966 37.1119C38.7975 36.2119 39.1981 35.1119 39.1981 34.0119C39.1981 31.1119 36.7944 28.7119 33.8898 28.7119C30.9853 28.7119 28.5815 31.1119 28.5815 34.0119C28.5815 36.9119 30.9853 39.3119 33.8898 39.3119C35.0917 39.3119 36.1934 38.9119 36.9947 38.3119L41.4016 42.7119C41.6019 42.9119 41.8022 42.9119 42.0025 42.9119C42.2028 42.9119 42.4031 42.8119 42.6035 42.7119C42.9039 42.3119 42.9039 41.8119 42.6035 41.5119ZM33.7897 37.7119C31.7866 37.7119 30.0839 36.0119 30.0839 34.0119C30.0839 32.0119 31.7866 30.3119 33.7897 30.3119C35.7928 30.3119 37.4955 32.0119 37.4955 34.0119C37.4955 36.0119 35.893 37.7119 33.7897 37.7119Z" fill="#FF9900"/>
</g>
<defs>
<clipPath id="clip0_629_3075">
<rect width="36.0563" height="36" fill="white" transform="translate(6.74658 6.91211)"/>
</clipPath>
</defs>
</svg>
