<svg width="49" height="49" viewBox="0 0 49 49" fill="none" xmlns="http://www.w3.org/2000/svg">
<g clip-path="url(#clip0_629_16403)">
<path d="M24.7453 27.3117C26.0473 27.3117 27.1491 26.2117 27.1491 24.9117C27.1491 23.6117 26.0473 22.5117 24.7453 22.5117C23.4433 22.5117 22.3416 23.6117 22.3416 24.9117C22.3416 26.2117 23.4433 27.3117 24.7453 27.3117Z" fill="#FF9900"/>
<path d="M41.2715 31.4121C40.3701 29.3121 39.0681 27.1121 37.5657 24.9121C39.1682 22.7121 40.3701 20.5121 41.2715 18.5121C42.2731 16.3121 42.7739 14.3121 42.7739 12.6121C42.7739 10.8121 42.2731 9.41211 41.2715 8.41211C39.2684 6.41211 35.7629 6.41211 31.1557 8.41211C29.0524 9.31211 26.849 10.6121 24.6455 12.1121C22.4421 10.5121 20.2387 9.31211 18.2355 8.41211C16.1322 7.41211 14.1291 6.91211 12.4264 6.91211C10.6236 6.91211 9.22144 7.41211 8.21988 8.41211C6.21675 10.4121 6.21675 13.9121 8.21988 18.5121C9.12128 20.6121 10.4233 22.8121 11.9257 25.0121C10.4233 27.2121 9.12128 29.4121 8.21988 31.4121C6.3169 35.9121 6.3169 39.5121 8.21988 41.5121C9.22144 42.5121 10.6236 43.0121 12.3263 43.0121C14.029 43.0121 16.0321 42.5121 18.3357 41.5121C20.439 40.6121 22.6424 39.3121 24.7457 37.8121C26.9491 39.3121 29.1526 40.6121 31.1557 41.5121C33.4593 42.5121 35.4624 43.0121 37.1651 43.0121C38.8678 43.0121 40.27 42.5121 41.2715 41.5121C43.2746 39.5121 43.2746 35.9121 41.2715 31.4121ZM31.8568 9.81211C33.9601 8.91211 35.7629 8.51211 37.2653 8.51211C38.5673 8.51211 39.5689 8.81211 40.1698 9.51211C40.8709 10.2121 41.1714 11.2121 41.1714 12.6121C41.1714 14.1121 40.6706 15.9121 39.8693 17.8121C39.0681 19.6121 37.9664 21.5121 36.6643 23.5121C35.2621 21.6121 33.5595 19.7121 31.7567 17.9121C29.9538 16.1121 28.0509 14.5121 26.1479 13.0121C28.0509 11.7121 30.054 10.6121 31.8568 9.81211ZM24.7457 14.1121C26.7488 15.6121 28.6518 17.3121 30.5548 19.1121C32.4577 21.0121 34.0602 22.9121 35.5626 24.9121C34.0602 26.9121 32.3576 28.8121 30.5548 30.7121C28.6518 32.6121 26.7488 34.2121 24.7457 35.7121C22.7426 34.2121 20.7394 32.5121 18.9366 30.7121C17.0336 28.9121 15.331 26.9121 13.9288 24.9121C15.4311 22.9121 17.1338 20.9121 18.9366 19.1121C20.8396 17.2121 22.7426 15.5121 24.7457 14.1121ZM9.62207 17.8121C8.01956 14.0121 7.91941 11.0121 9.3216 9.51211C10.0227 8.81211 11.1244 8.51211 12.4264 8.51211C13.9288 8.51211 15.7316 9.01211 17.6346 9.81211C19.4374 10.6121 21.3404 11.7121 23.3435 13.0121C21.4405 14.5121 19.5376 16.1121 17.7347 17.9121C15.9319 19.7121 14.3294 21.6121 12.8271 23.5121C11.525 21.6121 10.4233 19.6121 9.62207 17.8121ZM17.6346 40.0121C13.8286 41.6121 10.7238 41.8121 9.3216 40.3121C7.91941 38.9121 8.01956 35.8121 9.62207 32.0121C10.4233 30.2121 11.525 28.3121 12.8271 26.3121C14.2293 28.2121 15.9319 30.1121 17.7347 31.9121C19.5376 33.7121 21.4405 35.3121 23.3435 36.8121C21.4405 38.1121 19.4374 39.2121 17.6346 40.0121ZM40.1698 40.3121C38.7676 41.7121 35.6628 41.6121 31.8568 40.0121C30.054 39.2121 28.151 38.1121 26.1479 36.8121C28.0509 35.4121 29.9538 33.7121 31.7567 31.9121C33.5595 30.1121 35.162 28.2121 36.6643 26.3121C37.9664 28.3121 39.1682 30.2121 39.8693 32.0121C41.4718 35.8121 41.572 38.8121 40.1698 40.3121Z" fill="#9B9DA0"/>
</g>
<defs>
<clipPath id="clip0_629_16403">
<rect width="36.0563" height="36" fill="white" transform="translate(6.71753 6.91211)"/>
</clipPath>
</defs>
</svg>
