<svg width="105" height="105" viewBox="0 0 105 105" fill="none" xmlns="http://www.w3.org/2000/svg">
<path d="M38.6875 80.3262V53.4121H33.9141C27.5841 53.4121 21.5134 50.8975 17.0374 46.4216C12.5614 41.9456 10.0469 35.8749 10.0469 29.5449C10.0573 27.4382 10.8989 25.4207 12.3886 23.9309C13.8783 22.4412 15.8958 21.5996 18.0026 21.5892C20.1094 21.5996 22.1269 22.4412 23.6166 23.9309C25.1063 25.4207 25.9479 27.4382 25.9583 29.5449C25.9688 31.6517 26.8103 33.6692 28.3001 35.1589C29.7898 36.6486 31.8073 37.4902 33.9141 37.5007H38.6875V23.1803C38.6875 19.8044 40.0286 16.5666 42.4158 14.1795C44.803 11.7923 48.0407 10.4512 51.4167 10.4512C54.7927 10.4512 58.0304 11.7923 60.4175 14.1795C62.8047 16.5666 64.1458 19.8044 64.1458 23.1803V53.4121H68.9193C71.026 53.4017 73.0435 52.5601 74.5333 51.0704C76.023 49.5807 76.8645 47.5631 76.875 45.4564C76.8855 43.3496 77.727 41.3321 79.2167 39.8424C80.7065 38.3527 82.724 37.5111 84.8307 37.5007C86.9375 37.5111 88.955 38.3527 90.4447 39.8424C91.9345 41.3321 92.776 43.3496 92.7865 45.4564C92.7865 51.7864 90.2719 57.8571 85.7959 62.333C81.32 66.809 75.2492 69.3236 68.9193 69.3236H64.1458V80.3262" stroke="#9B9DA0" stroke-width="3" stroke-linecap="round" stroke-linejoin="round"/>
<path d="M16.4111 88.9922H86.4215" stroke="#FF9900" stroke-width="2" stroke-linecap="round" stroke-linejoin="round"/>
</svg>
