<svg width="49" height="49" viewBox="0 0 49 49" fill="none" xmlns="http://www.w3.org/2000/svg">
<g clip-path="url(#clip0_629_16465)">
<path d="M41.457 25.7121H39.554C39.1534 25.7121 38.7528 25.3121 38.7528 24.9121C38.7528 24.5121 39.1534 24.1121 39.554 24.1121H41.457C41.8576 24.1121 42.2582 24.5121 42.2582 24.9121C42.2582 25.3121 41.8576 25.7121 41.457 25.7121ZM8.90613 25.7121H7.00316C6.60253 25.7121 6.2019 25.3121 6.2019 24.9121C6.2019 24.5121 6.60253 24.1121 7.00316 24.1121H8.90613C9.30676 24.1121 9.70738 24.5121 9.70738 24.9121C9.70738 25.3121 9.40691 25.7121 8.90613 25.7121ZM35.1471 14.8121C34.9468 14.8121 34.7465 14.7121 34.5462 14.6121C34.2457 14.3121 34.2457 13.8121 34.5462 13.5121L35.8482 12.2121C36.1487 11.9121 36.6495 11.9121 36.9499 12.2121C37.2504 12.5121 37.2504 13.0121 36.9499 13.3121L35.6479 14.6121C35.5478 14.7121 35.3474 14.8121 35.1471 14.8121ZM13.313 14.8121C13.1127 14.8121 12.9124 14.7121 12.7121 14.6121L11.41 13.3121C11.1096 12.9121 11.1096 12.4121 11.41 12.1121C11.7105 11.8121 12.2113 11.8121 12.5118 12.1121L13.8138 13.4121C14.2144 13.8121 14.2144 14.3121 13.914 14.6121C13.7136 14.7121 13.5133 14.8121 13.313 14.8121ZM24.2301 10.4121C23.8294 10.4121 23.4288 10.0121 23.4288 9.61211V7.71211C23.4288 7.31211 23.8294 6.91211 24.2301 6.91211C24.6307 6.91211 25.0313 7.31211 25.0313 7.71211V9.61211C25.0313 10.1121 24.6307 10.4121 24.2301 10.4121Z" fill="#FF9900"/>
<path d="M34.0446 21.6117C33.3435 19.5117 32.0415 17.8117 30.2387 16.5117C28.4358 15.2117 26.3326 14.5117 24.1291 14.5117C21.9257 14.5117 19.8224 15.2117 18.0196 16.5117C16.2168 17.8117 14.9147 19.6117 14.2136 21.6117C13.5125 23.7117 13.5125 25.9117 14.1135 28.0117C14.6143 29.7117 15.716 31.3117 17.018 32.6117C18.4202 33.9117 19.4218 35.3117 19.4218 37.2117C19.4218 38.0117 19.3216 38.8117 19.5219 39.6117C19.7222 40.4117 20.1229 41.0117 20.7238 41.6117C21.6252 42.5117 22.7269 43.0117 24.029 43.0117C25.2308 43.0117 26.4327 42.5117 27.3341 41.6117C27.9351 41.0117 28.3357 40.3117 28.536 39.6117C28.8365 38.7117 28.536 37.8117 28.6362 36.8117C28.7363 35.1117 29.838 33.5117 31.1401 32.5117C32.4421 31.4117 33.4437 29.7117 33.9445 28.1117C34.7457 25.9117 34.7457 23.7117 34.0446 21.6117ZM26.3326 40.4117C25.8318 40.9117 25.2308 41.2117 24.3294 41.3117C23.3279 41.3117 22.2261 40.9117 21.7254 40.0117C21.2246 39.2117 21.2246 38.2117 21.2246 37.4117C21.2246 37.2117 21.3247 35.3117 21.0243 35.3117C23.2277 35.3117 25.331 35.3117 27.5344 35.3117C27.234 36.1117 27.234 36.9117 27.234 37.8117C27.1338 38.7117 27.0337 39.7117 26.3326 40.4117ZM32.5423 27.5117C31.9413 29.3117 30.9398 30.8117 29.4374 31.9117C29.4374 31.9117 29.3373 31.9117 29.3373 32.0117C28.8365 32.5117 28.4358 33.1117 28.0352 33.7117H20.223C19.9225 33.1117 19.4218 32.5117 18.921 32.0117L18.8208 31.9117C17.3185 30.8117 16.3169 29.3117 15.716 27.5117C15.115 25.7117 15.2152 23.9117 15.8161 22.1117C16.4171 20.3117 17.5188 18.9117 19.0211 17.8117C20.5235 16.7117 22.3263 16.2117 24.1291 16.2117C25.9319 16.2117 27.7348 16.8117 29.2371 17.8117C30.7394 18.9117 31.8412 20.4117 32.4421 22.1117C33.1432 23.9117 33.1432 25.7117 32.5423 27.5117Z" fill="#9B9DA0"/>
</g>
<defs>
<clipPath id="clip0_629_16465">
<rect width="36.0563" height="36" fill="white" transform="translate(6.2019 6.91211)"/>
</clipPath>
</defs>
</svg>
