<svg width="49" height="49" viewBox="0 0 49 49" fill="none" xmlns="http://www.w3.org/2000/svg">
<g clip-path="url(#clip0_629_16412)">
<path d="M24.9462 42.9121C23.4438 42.9121 21.8413 42.7121 20.339 42.3121C17.2341 41.5121 14.3296 39.8121 12.026 37.5121C9.7224 35.2121 8.1199 32.3121 7.21849 29.2121C6.41724 26.1121 6.41724 22.7121 7.31865 19.6121C8.22005 16.5121 9.92271 13.6121 12.3265 11.4121C14.7302 9.21211 17.6348 7.71211 20.8398 6.91211H20.9399C21.2404 6.91211 21.641 6.91211 21.9415 7.01211C22.242 7.11211 22.5424 7.21211 22.8429 7.51211C23.1434 7.71211 23.3437 8.01211 23.4438 8.31211C23.6442 8.61211 23.7443 8.91211 23.7443 9.31211V22.9121C23.7443 23.7121 24.0448 24.5121 24.6457 25.1121C25.2467 25.7121 25.9478 26.0121 26.8492 26.0121H40.0698C40.7709 26.0121 41.472 26.3121 41.9728 26.8121C42.4736 27.3121 42.774 28.0121 42.774 28.7121C42.774 28.8121 42.774 28.8121 42.774 28.9121C42.0729 32.1121 40.4704 35.0121 38.267 37.3121C36.0636 39.7121 33.159 41.4121 30.0542 42.3121C28.3515 42.7121 26.6488 42.9121 24.9462 42.9121ZM21.1402 8.51211C18.2357 9.21211 15.6316 10.6121 13.5283 12.6121C11.4251 14.6121 9.82256 17.2121 9.02131 20.1121C8.22005 22.9121 8.1199 26.0121 8.92115 28.8121C9.62224 31.7121 11.1246 34.3121 13.2279 36.4121C15.3312 38.5121 17.9352 40.0121 20.8398 40.7121C23.7443 41.4121 26.749 41.4121 29.5534 40.6121C32.3578 39.8121 34.9618 38.2121 37.0651 36.1121C39.0682 34.0121 40.4704 31.4121 41.1715 28.5121C41.1715 28.2121 41.0714 28.0121 40.8711 27.8121C40.6708 27.6121 40.3703 27.5121 40.0698 27.5121H26.8492C25.6473 27.5121 24.4454 27.0121 23.544 26.1121C22.6426 25.2121 22.1418 24.0121 22.1418 22.8121V9.31211C22.1418 9.31211 22.1418 9.11211 22.0416 9.01211C21.9415 8.91211 21.9415 8.81211 21.8413 8.71211C21.7412 8.61211 21.641 8.61211 21.5409 8.51211C21.3406 8.51211 21.2404 8.51211 21.1402 8.51211Z" fill="#9B9DA0"/>
<path d="M41.3708 19.812H32.6572C31.9561 19.812 31.255 19.512 30.7543 19.012C30.2535 18.512 29.953 17.812 29.953 17.112V8.31197C29.953 8.01197 30.0532 7.81197 30.2535 7.61197C30.4538 7.41197 30.7543 7.41197 30.9546 7.51197C33.5586 8.41197 35.8622 9.91197 37.7652 11.812C39.6682 13.712 41.1705 16.112 42.0719 18.612C42.1721 18.812 42.0719 19.112 41.9718 19.312C41.8716 19.612 41.6713 19.812 41.3708 19.812ZM31.5555 9.51197V17.012C31.5555 17.312 31.6557 17.612 31.856 17.812C32.0563 18.012 32.3568 18.112 32.6572 18.112H40.169C39.3677 16.212 38.1658 14.412 36.6635 13.012C35.1611 11.512 33.4585 10.312 31.5555 9.51197Z" fill="#FF9900"/>
</g>
<defs>
<clipPath id="clip0_629_16412">
<rect width="36.0563" height="36" fill="white" transform="translate(6.71753 6.91211)"/>
</clipPath>
</defs>
</svg>
