<svg width="49" height="49" viewBox="0 0 49 49" fill="none" xmlns="http://www.w3.org/2000/svg">
<g clip-path="url(#clip0_684_1196)">
<path d="M23.0471 19.6122L22.7467 21.4122C22.7467 21.6122 22.8468 21.8122 22.947 22.0122C23.0471 22.1122 23.1473 22.1122 23.2474 22.1122C23.3476 22.1122 23.4478 22.1122 23.5479 22.0122L25.1504 21.2122L26.7529 22.0122C26.9532 22.1122 27.1536 22.1122 27.3539 22.0122C27.5542 21.9122 27.6543 21.7122 27.5542 21.4122L27.2537 19.7122L28.5557 18.5122C28.7561 18.3122 28.7561 18.1122 28.6559 17.9122C28.5557 17.7122 28.4556 17.5122 28.1551 17.5122L26.4525 17.2122L25.7514 15.5122C25.6512 15.3122 25.4509 15.2122 25.2506 15.2122C25.0503 15.2122 24.85 15.3122 24.7498 15.5122L23.9485 17.1122L22.2459 17.4122C22.0456 17.4122 21.8453 17.6122 21.7451 17.8122C21.6449 18.0122 21.7451 18.2122 21.8453 18.4122L23.0471 19.6122Z" fill="#FF9900"/>
<path d="M42.3774 35.9121L36.0675 25.0121C36.9689 23.3121 37.4697 21.3121 37.4697 19.3121C37.4697 12.4121 31.861 6.91211 25.0503 6.91211C18.2397 6.91211 12.7311 12.4121 12.7311 19.2121C12.7311 21.3121 13.2319 23.2121 14.1333 24.9121L7.82341 35.9121C7.72325 36.2121 7.72325 36.5121 7.82341 36.7121C8.02372 37.0121 8.22403 37.1121 8.5245 37.1121L14.9345 36.7121L17.7389 42.4121C17.8391 42.7121 18.1395 42.8121 18.44 42.9121C18.7405 42.9121 19.0409 42.7121 19.1411 42.5121L24.9502 32.4121L30.7592 42.5121C30.8594 42.8121 31.1599 42.9121 31.4603 42.9121C31.7608 42.9121 32.0613 42.7121 32.1614 42.4121L34.9658 36.7121L41.3758 37.1121C41.6763 37.1121 41.9768 37.0121 42.0769 36.7121C42.4776 36.5121 42.4776 36.2121 42.3774 35.9121ZM25.0503 8.51211C30.9596 8.51211 35.7671 13.3121 35.7671 19.2121C35.7671 25.1121 30.9596 29.9121 25.0503 29.9121C19.1411 29.9121 14.3336 25.1121 14.3336 19.2121C14.3336 13.3121 19.1411 8.51211 25.0503 8.51211ZM18.6403 40.4121L16.2366 35.5121C16.1364 35.2121 15.8359 35.0121 15.4353 35.1121L10.0269 35.4121L15.1348 26.5121C17.138 29.2121 20.2428 31.1121 23.7483 31.5121L18.6403 40.4121ZM34.7655 35.1121C34.465 35.1121 34.1646 35.3121 33.9643 35.6121L31.5605 40.4121L26.4525 31.5121C29.958 31.1121 33.0628 29.2121 35.066 26.5121L40.174 35.4121L34.7655 35.1121Z" fill="#9B9DA0"/>
</g>
<defs>
<clipPath id="clip0_684_1196">
<rect width="34.7543" height="36" fill="white" transform="translate(7.74829 6.91211)"/>
</clipPath>
</defs>
</svg>
