<svg width="49" height="49" viewBox="0 0 49 49" fill="none" xmlns="http://www.w3.org/2000/svg">
<g clip-path="url(#clip0_629_16474)">
<path d="M39.854 16.8117C39.854 16.7117 39.854 16.6117 39.7539 16.5117C39.7539 16.4117 39.6537 16.3117 39.5536 16.2117L30.5395 7.2117C30.4393 7.1117 30.3392 7.1117 30.239 7.0117C30.1388 7.0117 30.0387 7.0117 30.0387 7.0117C30.0387 7.0117 30.0387 7.0117 29.9385 7.0117H17.2187C16.1169 6.9117 15.0152 7.4117 14.1138 8.2117C13.3126 9.0117 12.8118 10.1117 12.8118 11.3117V16.7117C12.8118 17.1117 13.2124 17.5117 13.613 17.5117C14.0136 17.5117 14.4143 17.1117 14.4143 16.7117V11.3117C14.4143 10.6117 14.7147 9.8117 15.2155 9.3117C15.7163 8.8117 16.4174 8.5117 17.2187 8.5117H29.1373V14.9117C29.1373 15.6117 29.4377 16.3117 29.9385 16.8117C30.4393 17.3117 31.1404 17.6117 31.8415 17.6117H38.2515V36.7117C38.2515 37.4117 37.951 38.2117 37.4503 38.7117C36.9495 39.2117 36.2484 39.5117 35.4471 39.5117H26.4331C26.0324 39.5117 25.6318 39.9117 25.6318 40.3117C25.6318 40.7117 26.0324 41.1117 26.4331 41.1117H35.4471C36.649 41.1117 37.7507 40.6117 38.552 39.8117C39.3532 39.0117 39.854 37.9117 39.854 36.7117V16.8117ZM31.0402 15.7117C30.8399 15.5117 30.7398 15.3117 30.7398 15.0117V9.7117L37.0496 15.9117H31.7413C31.541 15.9117 31.2406 15.8117 31.0402 15.7117Z" fill="#9B9DA0"/>
<path d="M18.9222 32.8121C20.6248 31.7121 21.6264 29.8121 21.6264 27.6121C21.6264 24.2121 18.822 21.4121 15.4167 21.4121C12.0114 21.4121 9.20699 24.2121 9.20699 27.6121C9.20699 29.8121 10.3087 31.7121 12.0114 32.8121L9.20699 41.9121C9.10684 42.2121 9.20699 42.5121 9.50746 42.8121C9.70777 43.0121 10.1084 43.0121 10.4089 42.9121L15.5169 40.4121L20.6248 42.9121C20.725 43.0121 20.8251 43.0121 21.0255 43.0121C21.2258 43.0121 21.4261 42.9121 21.5262 42.8121C21.7266 42.6121 21.8267 42.3121 21.8267 41.9121L18.9222 32.8121ZM10.8095 27.6121C10.8095 25.1121 12.9128 23.0121 15.4167 23.0121C17.9206 23.0121 20.0239 25.1121 20.0239 27.6121C20.0239 30.1121 17.9206 32.2121 15.4167 32.2121C12.9128 32.2121 10.8095 30.2121 10.8095 27.6121ZM15.8173 38.6121C15.617 38.5121 15.3165 38.5121 15.1162 38.6121L11.4104 40.5121L13.5137 33.5121C14.1147 33.7121 14.8158 33.8121 15.5169 33.8121C16.2179 33.8121 16.919 33.7121 17.52 33.5121L19.6233 40.5121L15.8173 38.6121Z" fill="#FF9900"/>
</g>
<defs>
<clipPath id="clip0_629_16474">
<rect width="30.6479" height="36" fill="white" transform="translate(9.20654 6.91211)"/>
</clipPath>
</defs>
</svg>
