<svg width="49" height="49" viewBox="0 0 49 49" fill="none" xmlns="http://www.w3.org/2000/svg">
<g clip-path="url(#clip0_629_16394)">
<path d="M26.5628 34.6121H21.9556C21.7553 32.9121 21.0542 31.3121 19.7521 30.1121C18.3499 28.7121 16.447 27.9121 14.4438 27.9121H9.03538C8.63476 27.9121 8.23413 28.3121 8.23413 28.7121C8.23413 29.1121 8.63476 29.5121 9.03538 29.5121H14.4438C16.0463 29.5121 17.5487 30.1121 18.6504 31.2121C19.5518 32.1121 20.1528 33.3121 20.3531 34.6121H13.0416C12.641 34.6121 12.2404 34.9121 12.2404 35.4121C12.2404 35.9121 12.641 36.2121 13.0416 36.2121H26.4626C27.6645 36.2121 28.8664 36.7121 29.6676 37.5121C30.569 38.4121 30.9697 39.5121 30.9697 40.7121C30.9697 40.8121 30.8695 41.0121 30.7693 41.1121C30.6692 41.2121 30.569 41.3121 30.3687 41.3121H9.03538C8.63476 41.3121 8.23413 41.7121 8.23413 42.1121C8.23413 42.5121 8.63476 42.9121 9.03538 42.9121H30.569C31.17 42.9121 31.6707 42.7121 32.0714 42.3121C32.472 41.9121 32.6723 41.3121 32.6723 40.8121C32.6723 39.1121 32.0714 37.6121 30.8695 36.4121C29.7678 35.2121 28.1653 34.6121 26.5628 34.6121Z" fill="#9B9DA0"/>
<path d="M40.7835 12.3126C39.9822 9.71258 37.8789 7.61258 35.4752 7.01258C33.9728 6.71258 31.0683 6.61258 27.8633 9.81258C25.4595 7.41258 22.8554 6.41258 20.3515 6.91258C17.8476 7.61258 15.7443 9.61258 15.0432 12.3126C14.242 14.9126 14.9431 17.6126 16.8461 19.6126L27.2623 29.3126C27.4626 29.4126 27.663 29.5126 27.8633 29.5126C28.0636 29.5126 28.2639 29.4126 28.4642 29.3126L38.9806 19.6126C40.7835 17.6126 41.4846 14.9126 40.7835 12.3126ZM37.7788 18.4126L27.8633 27.6126L17.9478 18.4126C16.4454 16.9126 15.9446 14.8126 16.5456 12.7126C17.1465 10.6126 18.749 9.01258 20.652 8.61258C20.9525 8.51258 21.3531 8.51258 21.6536 8.51258C23.4564 8.51258 25.4595 9.61258 27.2623 11.6126C27.3625 11.8126 27.663 11.9126 27.8633 11.9126C28.0636 11.9126 28.3641 11.8126 28.4642 11.6126C30.5675 9.21258 32.8711 8.11258 35.0745 8.61258C36.9775 9.01258 38.58 10.6126 39.181 12.7126C39.7819 14.8126 39.2811 16.9126 37.7788 18.4126Z" fill="#FF9900"/>
</g>
<defs>
<clipPath id="clip0_629_16394">
<rect width="32.8513" height="36" fill="white" transform="translate(8.23413 6.91211)"/>
</clipPath>
</defs>
</svg>
