<svg width="49" height="49" viewBox="0 0 49 49" fill="none" xmlns="http://www.w3.org/2000/svg">
<g clip-path="url(#clip0_629_16350)">
<path d="M22.5726 28.5117C26.9795 28.5117 30.5851 24.9117 30.5851 20.5117C30.5851 16.1117 26.9795 12.5117 22.5726 12.5117C18.1657 12.5117 14.5601 16.1117 14.5601 20.5117C14.5601 24.9117 18.1657 28.5117 22.5726 28.5117ZM22.5726 14.1117C26.0781 14.1117 28.9826 17.0117 28.9826 20.5117C28.9826 24.0117 26.0781 26.9117 22.5726 26.9117C19.0671 26.9117 16.1626 24.0117 16.1626 20.5117C16.1626 17.0117 19.0671 14.1117 22.5726 14.1117Z" fill="#FF9900"/>
<path d="M37.4947 17.0121C36.994 14.9121 36.0926 13.0121 34.7905 11.2121C33.4885 9.51211 31.886 8.01211 29.983 7.01211C29.5824 6.81211 29.0816 6.91211 28.8813 7.31211C28.681 7.71211 28.7811 8.21211 29.1818 8.41211C30.8844 9.41211 32.2866 10.6121 33.4885 12.2121C34.6904 13.8121 35.3915 15.5121 35.8922 17.4121C36.393 19.3121 36.2929 21.2121 35.8922 23.1121C35.4916 25.0121 34.6904 26.7121 33.5886 28.3121C32.4869 29.9121 30.9846 31.2121 29.3821 32.2121C27.6794 33.2121 25.8766 33.8121 23.8735 34.0121C21.9705 34.2121 19.9674 34.1121 18.1645 33.5121C16.2616 32.9121 14.5589 32.0121 13.1567 30.7121C12.8563 30.4121 12.2553 30.4121 12.055 30.8121C11.7545 31.1121 11.7545 31.7121 12.1552 31.9121C13.7577 33.3121 15.6606 34.4121 17.7639 35.0121C19.066 35.4121 20.4681 35.6121 21.8703 35.7121V41.3121H15.3602C14.9595 41.3121 14.5589 41.7121 14.5589 42.1121C14.5589 42.5121 14.9595 42.9121 15.3602 42.9121H29.7827C30.1833 42.9121 30.584 42.5121 30.584 42.1121C30.584 41.7121 30.1833 41.3121 29.7827 41.3121H23.3727V35.7121C23.573 35.7121 23.8735 35.7121 24.0738 35.6121C26.2772 35.3121 28.2803 34.7121 30.1833 33.6121C32.0863 32.5121 33.6888 31.1121 34.8907 29.3121C36.1927 27.5121 36.994 25.6121 37.4947 23.5121C37.8954 21.3121 37.8954 19.2121 37.4947 17.0121Z" fill="#9B9DA0"/>
</g>
<defs>
<clipPath id="clip0_629_16350">
<rect width="26.0407" height="36" fill="white" transform="translate(11.7546 6.91211)"/>
</clipPath>
</defs>
</svg>
