<svg width="49" height="49" viewBox="0 0 49 49" fill="none" xmlns="http://www.w3.org/2000/svg">
<g clip-path="url(#clip0_629_16454)">
<path d="M36.8498 39.9121L29.2379 19.0121V8.51211H30.3396C30.7403 8.51211 31.1409 8.11211 31.1409 7.71211C31.1409 7.31211 30.8404 6.91211 30.3396 6.91211H18.9218C18.421 6.91211 18.1205 7.31211 18.1205 7.71211C18.1205 8.11211 18.5212 8.51211 18.9218 8.51211H20.0235V19.0121L12.4116 39.8121C12.3115 40.1121 12.2113 40.4121 12.2113 40.8121C12.2113 41.1121 12.3115 41.5121 12.4116 41.8121C12.5118 42.1121 12.8122 42.4121 13.0126 42.6121C13.313 42.8121 13.6135 42.9121 13.914 43.0121H14.0141H35.047H35.1471C35.4476 42.9121 35.7481 42.8121 36.0485 42.6121C36.349 42.4121 36.5493 42.1121 36.6495 41.8121C36.7496 41.5121 36.8498 41.2121 36.8498 40.8121C37.0501 40.4121 36.95 40.1121 36.8498 39.9121ZM27.6354 8.51211V18.3121H21.626V8.51211H27.6354ZM35.3475 41.0121C35.3475 41.1121 35.2473 41.1121 35.1471 41.2121C35.047 41.2121 35.047 41.3121 34.9468 41.3121H14.2144C14.1143 41.3121 14.1143 41.3121 14.0141 41.2121C13.914 41.2121 13.914 41.1121 13.8138 41.0121C13.8138 40.9121 13.7137 40.8121 13.7137 40.8121C13.7137 40.7121 13.7137 40.6121 13.8138 40.5121L21.2254 20.0121H27.7356L35.2473 40.6121C35.2473 40.7121 35.3475 40.8121 35.3475 40.8121C35.4476 40.9121 35.4476 40.9121 35.3475 41.0121Z" fill="#9B9DA0"/>
<path d="M23.0278 28.0117C21.8259 28.0117 20.8243 29.0117 20.8243 30.2117C20.8243 31.4117 21.8259 32.4117 23.0278 32.4117C24.2297 32.4117 25.2312 31.4117 25.2312 30.2117C25.2312 29.0117 24.2297 28.0117 23.0278 28.0117Z" fill="#FF9900"/>
<path d="M21.7258 38.2121C22.5002 38.2121 23.128 37.5853 23.128 36.8121C23.128 36.0389 22.5002 35.4121 21.7258 35.4121C20.9514 35.4121 20.3236 36.0389 20.3236 36.8121C20.3236 37.5853 20.9514 38.2121 21.7258 38.2121Z" fill="#FF9900"/>
<path d="M28.3369 32.7119C27.4355 32.7119 26.6343 33.5119 26.6343 34.4119C26.6343 35.3119 27.4355 36.1119 28.3369 36.1119C29.2383 36.1119 30.0396 35.3119 30.0396 34.4119C30.0396 33.5119 29.2383 32.7119 28.3369 32.7119Z" fill="#FF9900"/>
</g>
<defs>
<clipPath id="clip0_629_16454">
<rect width="24.8388" height="36" fill="white" transform="translate(12.2113 6.91211)"/>
</clipPath>
</defs>
</svg>
