<svg width="49" height="49" viewBox="0 0 49 49" fill="none" xmlns="http://www.w3.org/2000/svg">
<g clip-path="url(#clip0_629_16433)">
<path d="M19.2379 17.2115C20.6401 15.6115 20.3396 13.6115 20.3396 13.5115C20.2395 13.1115 19.8389 12.8115 19.4382 12.8115C19.0376 12.9115 18.637 13.3115 18.7371 13.7115C18.7371 13.7115 18.9375 15.1115 18.036 16.1115C17.4351 16.8115 16.3334 17.2115 14.831 17.2115C14.4304 17.2115 14.0298 17.6115 14.0298 18.0115C14.0298 18.4115 14.4304 18.8115 14.831 18.8115C16.734 18.9115 18.2364 18.3115 19.2379 17.2115Z" fill="#FF9900"/>
<path d="M30.4547 18.012C31.4562 18.712 32.5579 18.912 33.259 18.912C33.7598 18.912 34.1605 18.812 34.2606 18.812C34.6612 18.712 34.9617 18.312 34.8615 17.812C34.8615 17.612 34.6612 17.412 34.4609 17.312C34.2606 17.212 34.0603 17.112 33.86 17.212C33.86 17.212 32.4578 17.512 31.3561 16.712C30.5548 16.112 30.1542 15.112 29.9539 13.612C29.9539 13.212 29.5533 12.812 29.0525 12.912C28.8522 12.912 28.6518 13.012 28.4515 13.212C28.3514 13.412 28.2512 13.612 28.2512 13.812C28.6518 15.712 29.2528 17.112 30.4547 18.012Z" fill="#FF9900"/>
<path d="M34.2598 30.612C32.4569 30.412 30.9546 30.812 29.953 31.712C28.4507 33.112 28.4507 35.212 28.4507 35.312C28.4507 35.712 28.8513 36.112 29.2519 36.112C29.6526 36.112 30.0532 35.712 30.0532 35.312C30.0532 35.312 30.0532 33.812 31.0548 32.912C31.7558 32.312 32.7574 32.012 34.0594 32.212C34.2598 32.212 34.4601 32.212 34.6604 32.012C34.8607 31.912 34.9609 31.712 34.9609 31.512C34.9609 31.012 34.6604 30.612 34.2598 30.612Z" fill="#FF9900"/>
<path d="M19.837 35.0121C19.9371 35.4121 20.2376 35.6121 20.6382 35.6121C20.7384 35.6121 20.7384 35.6121 20.8386 35.6121C21.0389 35.5121 21.2392 35.4121 21.3393 35.2121C21.4395 35.0121 21.4395 34.8121 21.4395 34.6121C21.0389 32.8121 20.1375 31.6121 18.9356 30.9121C17.1328 29.9121 15.1296 30.6121 15.0295 30.7121C14.6289 30.9121 14.4285 31.3121 14.5287 31.7121C14.729 32.1121 15.1296 32.3121 15.5303 32.2121C15.5303 32.2121 16.9325 31.7121 18.1343 32.4121C18.9356 32.8121 19.5365 33.7121 19.837 35.0121Z" fill="#FF9900"/>
<path d="M41.2718 19.6117C40.8712 18.2117 39.7694 17.1117 38.2671 16.4117C38.4674 15.5117 38.7679 13.8117 37.8665 12.5117C37.1654 11.4117 35.8633 10.7117 34.0605 10.6117C33.4596 9.71172 32.2577 8.01172 30.1544 7.31172C28.4518 6.71172 26.6489 6.91172 24.746 7.81172C24.2452 7.61172 22.843 7.11172 21.1403 7.11172C19.1372 7.11172 16.3328 7.91172 14.1294 11.4117C13.228 11.5117 10.5237 12.6117 9.12155 15.4117C7.91967 17.7117 8.01983 20.5117 9.32186 23.7117C9.0214 24.2117 8.52061 25.1117 8.11999 26.3117C7.6192 27.8117 7.6192 29.2117 8.01983 30.3117C8.42046 31.7117 9.52218 32.8117 11.1247 33.5117C11.0245 33.9117 10.9244 34.6117 11.0245 35.3117C11.1247 36.2117 11.4252 37.0117 11.9259 37.6117C12.7272 38.9117 14.3297 39.4117 16.433 39.4117H16.7334C17.0339 40.2117 17.735 41.6117 19.2374 42.4117C20.6395 43.1117 22.4424 43.0117 24.4455 42.1117C24.9463 42.3117 26.3485 42.8117 28.0511 42.8117H29.3532L29.253 42.7117C31.0558 42.4117 33.2593 41.4117 35.0621 38.5117C35.8633 38.2117 38.5676 37.2117 39.9697 34.4117C41.1716 32.1117 41.0715 29.3117 39.7694 26.1117C39.9697 25.7117 40.5707 24.7117 40.9713 23.5117C41.5723 22.1117 41.6724 20.8117 41.2718 19.6117ZM33.9604 37.5117C32.5582 40.0117 30.555 41.2117 28.2514 41.3117H28.1513C27.0496 41.3117 26.048 41.0117 25.4471 40.8117V9.21172C26.2483 8.81172 27.1497 8.61172 27.8508 8.61172H28.0511C28.5519 8.61172 29.0527 8.71172 29.4533 8.81172C31.6568 9.41172 32.7585 11.6117 32.7585 11.6117C32.8586 11.9117 33.1591 12.1117 33.4596 12.1117C34.9619 12.2117 35.9635 12.6117 36.4643 13.3117C37.1654 14.4117 36.6646 16.0117 36.5644 16.5117C36.4643 16.7117 36.4643 16.9117 36.5644 17.2117C36.6646 17.4117 36.8649 17.5117 36.9651 17.6117C38.4674 18.2117 39.3688 19.0117 39.7694 20.1117C40.0699 21.1117 39.9697 22.2117 39.469 23.6117C39.0683 24.6117 38.6677 25.4117 38.4674 25.7117C38.2671 25.9117 37.6662 26.4117 36.7647 26.6117C36.5644 26.7117 36.264 26.7117 35.9635 26.7117C35.0621 26.7117 34.1607 26.3117 33.2593 25.6117C32.9588 25.3117 32.3579 25.4117 32.1575 25.7117C31.8571 26.0117 31.9572 26.5117 32.2577 26.8117C33.8602 28.1117 35.663 28.6117 37.4658 28.0117C37.8665 27.9117 38.2671 27.7117 38.7679 27.4117C39.6693 29.9117 39.6693 32.1117 38.7679 33.8117C37.4658 36.4117 34.5613 37.2117 34.5613 37.2117C34.2608 37.2117 34.1607 37.3117 33.9604 37.5117ZM17.3344 37.8117H16.9338C15.0308 37.9117 13.7288 37.6117 13.1278 36.7117C12.2264 35.5117 12.627 33.7117 12.7272 33.3117V33.2117C12.8273 32.8117 12.627 32.4117 12.2264 32.3117C10.7241 31.7117 9.82265 30.9117 9.42202 29.8117C8.72093 27.7117 10.2233 25.1117 10.7241 24.3117C11.1247 24.1117 11.9259 23.7117 12.9275 23.4117C14.6302 23.0117 16.3328 23.5117 17.6349 24.7117C17.9353 25.0117 18.5363 25.0117 18.8367 24.7117C18.9369 24.5117 19.037 24.4117 19.037 24.2117C19.037 24.0117 18.9369 23.8117 18.7366 23.6117C17.1341 22.0117 15.1309 21.4117 12.7272 21.9117C11.8258 22.1117 11.1247 22.4117 10.6239 22.6117C9.72249 20.0117 9.62233 17.8117 10.5237 16.1117C11.7256 13.7117 14.4298 12.8117 14.7303 12.7117C14.9306 12.6117 15.1309 12.5117 15.2311 12.3117C16.7334 9.91172 18.6364 8.61172 20.94 8.61172H21.0402C22.1419 8.61172 23.1435 8.91172 23.7444 9.11172V40.7117C22.2421 41.3117 20.94 41.4117 19.9385 41.0117C18.5363 40.3117 18.0355 38.6117 18.0355 38.5117C18.0355 38.1117 17.735 37.8117 17.3344 37.8117Z" fill="#9B9DA0"/>
</g>
<defs>
<clipPath id="clip0_629_16433">
<rect width="33.8529" height="36" fill="white" transform="translate(7.71912 6.91211)"/>
</clipPath>
</defs>
</svg>
