<svg width="104" height="103" viewBox="0 0 104 103" fill="none" xmlns="http://www.w3.org/2000/svg">
<g clip-path="url(#clip0_5763_199122)">
<path d="M68.2474 18.8268V39.7163L60.1237 34.4939L52 39.7163V18.8268" stroke="#FF9900" stroke-width="4.25527" stroke-linecap="round" stroke-linejoin="round"/>
<path d="M39.2342 17.2794V93.8742M26.4684 17.2794H73.2763C75.5335 17.2794 77.6982 18.1761 79.2942 19.7721C80.8902 21.3681 81.7869 23.5328 81.7869 25.79V76.8532C81.7869 79.1103 80.8902 81.275 79.2942 82.871C77.6982 84.4671 75.5335 85.3637 73.2763 85.3637H26.4684C25.3398 85.3637 24.2575 84.9154 23.4595 84.1174C22.6615 83.3193 22.2131 82.237 22.2131 81.1084V21.5347C22.2131 20.4061 22.6615 19.3238 23.4595 18.5258C24.2575 17.7277 25.3398 17.2794 26.4684 17.2794Z" stroke="#9B9DA0" stroke-width="4.25527" stroke-linecap="round" stroke-linejoin="round"/>
</g>
<defs>
<clipPath id="clip0_5763_199122">
<rect width="102.126" height="102.126" fill="white" transform="translate(0.936798 0.258362)"/>
</clipPath>
</defs>
</svg>
