<svg width="49" height="49" viewBox="0 0 49 49" fill="none" xmlns="http://www.w3.org/2000/svg">
<g clip-path="url(#clip0_629_16445)">
<path d="M22.3271 39.5121H12.8123C12.011 39.5121 11.2098 39.2121 10.709 38.7121C10.1081 38.2121 9.80758 37.5121 9.80758 36.7121V11.3121C9.80758 10.6121 10.1081 9.91211 10.709 9.31211C11.2098 8.81211 12.011 8.51211 12.8123 8.51211H25.3318V14.9121C25.3318 15.6121 25.6323 16.3121 26.1331 16.8121C26.6339 17.3121 27.335 17.6121 28.0361 17.6121H34.8467V24.9121C34.8467 25.3121 35.2473 25.7121 35.648 25.7121C36.0486 25.7121 36.4492 25.3121 36.4492 24.9121V16.8121C36.4492 16.6121 36.3491 16.4121 36.2489 16.2121L26.734 7.21211C26.734 7.21211 26.6339 7.21211 26.6339 7.11211L26.5337 7.01211C26.4336 6.91211 26.3334 6.91211 26.2332 6.91211H12.8123C11.6104 6.91211 10.4085 7.41211 9.60727 8.21211C8.70586 9.01211 8.20508 10.2121 8.20508 11.3121V36.6121C8.20508 37.8121 8.70586 38.9121 9.60727 39.7121C10.5087 40.5121 11.6104 41.0121 12.9124 41.0121H22.4273C22.8279 41.0121 23.2286 40.6121 23.2286 40.2121C23.1284 39.8121 22.8279 39.5121 22.3271 39.5121ZM27.335 15.6121C27.1347 15.4121 27.0345 15.2121 27.0345 14.9121V9.61211L33.6448 15.9121H28.0361C27.7356 15.9121 27.5353 15.8121 27.335 15.6121Z" fill="#9B9DA0"/>
<path d="M40.0544 41.5119L35.4472 37.1119C36.1483 36.2119 36.5489 35.1119 36.5489 34.0119C36.5489 31.1119 34.045 28.7119 30.9402 28.7119C27.8353 28.7119 25.3314 31.1119 25.3314 34.0119C25.3314 36.9119 27.8353 39.3119 30.9402 39.3119C32.1421 39.3119 33.3439 38.9119 34.2453 38.2119L38.9527 42.7119C39.153 42.8119 39.3533 42.9119 39.5536 42.9119C39.754 42.9119 39.9543 42.8119 40.1546 42.6119C40.4551 42.3119 40.3549 41.8119 40.0544 41.5119ZM30.9402 37.7119C28.7367 37.7119 27.0341 36.0119 27.0341 34.0119C27.0341 32.0119 28.8369 30.3119 30.9402 30.3119C33.1436 30.3119 34.8463 32.0119 34.8463 34.0119C34.8463 36.0119 33.1436 37.7119 30.9402 37.7119Z" fill="#FF9900"/>
</g>
<defs>
<clipPath id="clip0_629_16445">
<rect width="32.1502" height="36" fill="white" transform="translate(8.20508 6.91211)"/>
</clipPath>
</defs>
</svg>
