<svg width="49" height="49" viewBox="0 0 49 49" fill="none" xmlns="http://www.w3.org/2000/svg">
<g clip-path="url(#clip0_684_4490)">
<path d="M24.4594 42.9121C24.3593 42.9121 24.2591 42.9121 24.159 42.9121C21.7552 42.9121 19.4516 42.4121 17.2482 41.5121C15.0447 40.6121 13.0416 39.3121 11.4391 37.6121C9.73643 35.9121 8.4344 34.0121 7.53299 31.8121C6.73174 29.6121 6.23096 27.3121 6.23096 24.9121C6.23096 22.5121 6.73174 20.2121 7.63315 18.0121C8.53456 15.8121 9.83659 13.9121 11.5393 12.2121C13.2419 10.5121 15.1449 9.21211 17.3483 8.31211C19.5518 7.41211 21.8554 6.91211 24.2591 6.91211C29.0666 6.91211 33.5737 8.61211 36.979 11.6121C40.3843 14.6121 42.2873 18.8121 42.2873 23.0121C42.2873 25.2121 41.2857 27.4121 39.4829 29.0121C37.6801 30.6121 35.3765 31.4121 32.8726 31.4121H28.0651C27.364 31.4121 26.763 31.6121 26.1621 32.0121C25.6613 32.4121 25.2607 33.0121 25.0604 33.6121C24.8601 34.2121 24.9602 34.9121 25.1605 35.6121C25.461 36.2121 25.8616 36.7121 26.4626 37.1121C26.5627 37.1121 26.5627 37.2121 26.6629 37.2121C27.1637 37.7121 27.5643 38.3121 27.6644 39.0121C27.7646 39.7121 27.7646 40.4121 27.4641 41.0121C27.1637 41.6121 26.763 42.2121 26.1621 42.5121C25.6613 42.7121 25.0604 42.9121 24.4594 42.9121ZM24.2591 8.51211C22.0557 8.51211 19.9524 8.91211 17.9493 9.71211C15.9461 10.5121 14.1433 11.7121 12.641 13.2121C11.1386 14.7121 9.93675 16.5121 9.1355 18.5121C8.33424 20.5121 7.93362 22.6121 7.93362 24.8121C7.93362 27.0121 8.33424 29.1121 9.1355 31.1121C9.93675 33.1121 11.1386 34.9121 12.641 36.4121C14.1433 37.9121 15.9461 39.1121 17.9493 39.9121C19.9524 40.7121 22.0557 41.1121 24.2591 41.1121C24.2591 41.1121 24.2591 41.1121 24.3593 41.1121C24.7599 41.1121 25.0604 41.1121 25.3608 40.9121C25.6613 40.7121 25.8616 40.5121 26.0619 40.1121C26.1621 39.8121 26.2623 39.4121 26.1621 39.1121C26.0619 38.8121 25.9618 38.5121 25.7615 38.3121C24.8601 37.8121 24.2591 37.0121 23.8585 36.1121C23.4579 35.2121 23.3577 34.1121 23.6582 33.1121C23.9587 32.1121 24.5596 31.2121 25.3608 30.6121C26.1621 30.0121 27.2638 29.7121 28.2654 29.7121H33.0729C35.1762 29.7121 37.1793 29.0121 38.5815 27.7121C39.9837 26.4121 40.7849 24.7121 40.7849 22.9121C40.7849 19.1121 39.0823 15.4121 35.9774 12.7121C32.8726 10.1121 28.5659 8.51211 24.2591 8.51211Z" fill="#9B9DA0"/>
<path d="M15.6457 24.4121C16.9733 24.4121 18.0495 23.3375 18.0495 22.0121C18.0495 20.6866 16.9733 19.6121 15.6457 19.6121C14.3181 19.6121 13.2419 20.6866 13.2419 22.0121C13.2419 23.3375 14.3181 24.4121 15.6457 24.4121Z" fill="#FF9900"/>
<path d="M24.2587 18.7121C25.5863 18.7121 26.6625 17.6376 26.6625 16.3121C26.6625 14.9866 25.5863 13.9121 24.2587 13.9121C22.9312 13.9121 21.855 14.9866 21.855 16.3121C21.855 17.6376 22.9312 18.7121 24.2587 18.7121Z" fill="#FF9900"/>
<path d="M32.8718 19.6123C31.5697 19.6123 30.468 20.7123 30.468 22.0123C30.468 23.3123 31.5697 24.4123 32.8718 24.4123C34.1738 24.4123 35.2755 23.3123 35.2755 22.0123C35.2755 20.7123 34.1738 19.6123 32.8718 19.6123Z" fill="#FF9900"/>
</g>
<defs>
<clipPath id="clip0_684_4490">
<rect width="36.0563" height="36" fill="white" transform="translate(6.23096 6.91211)"/>
</clipPath>
</defs>
</svg>
