<svg width="24" height="23" viewBox="0 0 24 23" fill="none" xmlns="http://www.w3.org/2000/svg">
<path d="M9.1377 10.2544L15.4627 6.99609" stroke="#FF9900" stroke-linecap="round" stroke-linejoin="round"/>
<path d="M9.1377 12.7461L15.4627 16.0044" stroke="#FF9900" stroke-linecap="round" stroke-linejoin="round"/>
<path d="M18.6748 20.125C20.2626 20.125 21.5498 18.8378 21.5498 17.25C21.5498 15.6622 20.2626 14.375 18.6748 14.375C17.087 14.375 15.7998 15.6622 15.7998 17.25C15.7998 18.8378 17.087 20.125 18.6748 20.125Z" stroke="#333333" stroke-linecap="round" stroke-linejoin="round"/>
<path d="M18.6748 8.625C20.2626 8.625 21.5498 7.33782 21.5498 5.75C21.5498 4.16218 20.2626 2.875 18.6748 2.875C17.087 2.875 15.7998 4.16218 15.7998 5.75C15.7998 7.33782 17.087 8.625 18.6748 8.625Z" stroke="#333333" stroke-linecap="round" stroke-linejoin="round"/>
<path d="M5.875 14.375C7.46282 14.375 8.75 13.0878 8.75 11.5C8.75 9.91218 7.46282 8.625 5.875 8.625C4.28718 8.625 3 9.91218 3 11.5C3 13.0878 4.28718 14.375 5.875 14.375Z" stroke="#333333" stroke-linecap="round" stroke-linejoin="round"/>
</svg>
