<svg width="34" height="34" viewBox="0 0 34 34" fill="none" xmlns="http://www.w3.org/2000/svg">
<g clip-path="url(#clip0_7108_13699)">
<path d="M20.9229 11.334C21.789 11.9938 22.492 12.8493 22.9762 13.8329C23.4605 14.8164 23.7125 15.901 23.7125 17.0007C23.7125 18.1003 23.4605 19.1849 22.9762 20.1684C22.492 21.152 21.789 22.0075 20.9229 22.6673" stroke="#FF9900" stroke-width="1.76623" stroke-linecap="round" stroke-linejoin="round"/>
<path d="M24.689 7.08398C26.1451 8.27916 27.3196 9.79 28.1265 11.5059C28.9334 13.2217 29.3521 15.0991 29.3521 17.0007C29.3521 18.9022 28.9334 20.7796 28.1265 22.4954C27.3196 24.2113 26.1451 25.7221 24.689 26.9173" stroke="#FF9900" stroke-width="1.76623" stroke-linecap="round" stroke-linejoin="round"/>
<path d="M8.36909 21.2503H5.57941C5.20948 21.2503 4.85469 21.1011 4.59311 20.8354C4.33153 20.5697 4.18457 20.2094 4.18457 19.8336L4.18457 14.167C4.18457 13.7913 4.33153 13.4309 4.59311 13.1652C4.85469 12.8996 5.20948 12.7503 5.57941 12.7503H8.36909L13.251 6.37531C13.373 6.1348 13.5755 5.94651 13.8222 5.84447C14.0689 5.74243 14.3433 5.73336 14.596 5.8189C14.8487 5.90444 15.0629 6.07896 15.2 6.31091C15.337 6.54286 15.3878 6.81694 15.3433 7.08364L15.3433 26.917C15.3878 27.1837 15.337 27.4578 15.2 27.6897C15.0629 27.9217 14.8487 28.0962 14.596 28.1817C14.3433 28.2673 14.0689 28.2582 13.8222 28.1561C13.5755 28.0541 13.373 27.8658 13.251 27.6253L8.36909 21.2503Z" stroke="#333333" stroke-width="1.32468" stroke-linecap="round" stroke-linejoin="round"/>
</g>
<defs>
<clipPath id="clip0_7108_13699">
<rect width="33.4762" height="34" fill="white"/>
</clipPath>
</defs>
</svg>
