<svg width="20" height="17" viewBox="0 0 20 17" fill="none" xmlns="http://www.w3.org/2000/svg">
<path d="M0.746684 15.0795C0.746703 15.0795 0.746722 15.0795 0.746741 15.0795C0.743721 15.0842 0.740411 15.0893 0.736789 15.0945C0.740446 15.0892 0.743735 15.0842 0.746684 15.0795ZM3.80911 11.5901C3.42718 11.3168 3.09989 10.9701 2.82952 10.529C3.1078 10.5259 3.43191 10.5022 3.78823 10.3634L4.92908 9.91891L3.80321 9.43774C2.9328 9.06574 2.2582 8.61814 1.79667 8.05794C1.46275 7.65263 1.22716 7.17261 1.11765 6.58549C1.14356 6.59452 1.17045 6.60385 1.19844 6.61345C1.48532 6.71186 1.84593 6.81851 2.29473 6.78306L3.41116 6.69489L2.60019 5.92254C1.80613 5.16629 1.3276 4.41313 1.15023 3.63914C1.01689 3.05726 1.04579 2.4289 1.28053 1.73261C2.97303 3.45034 4.94249 4.64447 7.30428 5.23501C7.32517 5.24044 7.34666 5.24609 7.36869 5.25189C7.47977 5.28113 7.60453 5.31396 7.73445 5.3396C7.93745 5.38576 8.14416 5.4466 8.36226 5.51079C8.47065 5.54269 8.58186 5.57542 8.69682 5.60759C8.86159 5.65369 9.03161 5.69753 9.19148 5.72655C9.34553 5.75451 9.52356 5.77529 9.69413 5.75552L9.69697 5.75518C9.82688 5.73936 9.97196 5.70221 10.104 5.61553C10.2465 5.52194 10.3427 5.39086 10.3942 5.24361C10.4796 4.99938 10.4277 4.73445 10.3999 4.5922L10.3998 4.59197C10.388 4.53191 10.3757 4.47331 10.3636 4.41568C10.3007 4.11629 10.2433 3.84318 10.297 3.52851C10.7637 0.851052 13.7872 -0.382213 16.0499 1.20177C16.4754 1.50204 16.894 1.67583 17.3396 1.7078C17.7565 1.73773 18.1494 1.63983 18.5359 1.48037C18.4806 1.5397 18.4225 1.60045 18.3613 1.6641C18.3525 1.6733 18.3435 1.68258 18.3346 1.69191C18.2009 1.83085 18.0538 1.98376 17.9141 2.14749L17.3722 2.78265L18.188 2.96053C18.3961 3.00591 18.5939 3.02296 18.7826 3.02025C18.7247 3.06666 18.6644 3.11416 18.6017 3.16352L18.5753 3.18432C18.5748 3.18471 18.5743 3.1851 18.5738 3.1855C18.3025 3.3961 18.0879 3.63304 17.9429 3.92655C17.7984 4.21904 17.7404 4.53289 17.7295 4.87063L17.7295 4.87078C17.5957 9.07951 15.0686 12.8333 11.7164 14.8799C8.54212 16.8178 4.6988 17.1899 1.48852 15.044C3.14423 14.9039 4.67062 14.3545 6.16005 13.3014L7.15277 12.5995L5.95347 12.3999C5.07738 12.2541 4.37054 11.9918 3.80911 11.5901ZM1.44595 6.16905C1.59109 6.33102 1.74619 6.49016 1.91054 6.64668L2.25537 6.28461L2.216 5.78617C2.04405 5.79975 1.89127 5.77702 1.72732 5.73182C0.59347 4.41479 0.246377 2.98656 0.895986 1.32823L1.44595 6.16905ZM18.7118 2.02099C18.6108 2.01881 18.5084 2.00691 18.401 1.98349L18.2945 2.47201L18.6749 2.79653C18.7568 2.70049 18.8426 2.60788 18.9329 2.51287C19.0783 2.50054 19.2203 2.47482 19.3623 2.44088L18.7118 2.02099Z" stroke="#333333"/>
</svg>
