<svg width="26" height="22" viewBox="0 0 26 22"  xmlns="http://www.w3.org/2000/svg">
<path d="M0.819336 18.7105C3.43123 18.8596 5.71522 18.2406 7.94267 16.6014C5.6926 16.2116 4.13226 15.1685 3.28424 13.0135C3.94004 12.9218 4.5167 13.0937 5.19511 12.8186C2.97896 11.8328 1.54298 10.3541 1.48644 7.79781C2.18747 7.85513 2.7189 8.32511 3.55561 8.25633C1.52037 6.23885 0.898484 4.03797 2.17616 1.3671C4.30186 3.8431 6.78938 5.52815 9.83093 6.3191C10.0005 6.36495 10.1588 6.4108 10.3284 6.44519C11.1086 6.62859 12.0358 7.01833 12.5107 6.96102C13.3248 6.85785 12.5107 5.90643 12.7142 4.66843C13.3587 0.81688 17.5422 -0.936952 20.6403 1.32125C21.5449 1.9861 22.2572 1.97464 23.1504 1.57343C23.614 1.3671 24.0889 1.16077 24.643 0.920046C24.5186 2.02049 23.6819 2.62803 23.0148 3.44189C23.7723 3.61384 24.3829 3.39604 25.0839 3.16678C24.8465 3.95773 24.2585 4.40478 23.7271 4.84037C23.173 5.28743 22.9582 5.75741 22.9356 6.49104C22.5964 17.5986 10.1475 26.1844 1.63344 19.3525C0.808037 18.6876 1.61082 19.3525 0.819336 18.7105Z"/>
</svg>
