<svg width="24" height="24" viewBox="0 0 24 24" fill="none" xmlns="http://www.w3.org/2000/svg">
<path fill-rule="evenodd" clip-rule="evenodd" d="M12.0002 2.60999C10.0396 2.60999 8.4502 4.19937 8.4502 6.15999C8.4502 8.1206 10.0396 9.70999 12.0002 9.70999C13.9608 9.70999 15.5502 8.1206 15.5502 6.15999C15.5502 4.19937 13.9608 2.60999 12.0002 2.60999ZM7.4502 6.15999C7.4502 3.64709 9.4873 1.60999 12.0002 1.60999C14.5131 1.60999 16.5502 3.64709 16.5502 6.15999C16.5502 8.67288 14.5131 10.71 12.0002 10.71C9.4873 10.71 7.4502 8.67288 7.4502 6.15999Z" fill="#58595B"/>
<path fill-rule="evenodd" clip-rule="evenodd" d="M4.5 19.78C4.5 15.0947 7.80803 11.17 12 11.17C16.192 11.17 19.5 15.0947 19.5 19.78V20.28H4.5V19.78ZM5.51374 19.28H18.4863C18.2638 15.2481 15.37 12.17 12 12.17C8.62998 12.17 5.73621 15.2481 5.51374 19.28Z" fill="#58595B"/>
</svg>
