<svg width="70" height="70" viewBox="0 0 70 70" fill="none" xmlns="http://www.w3.org/2000/svg">
<g clip-path="url(#clip0_6401_221062)">
<path d="M35 35V39.375C35 39.7618 35.1536 40.1327 35.4271 40.4062C35.7006 40.6797 36.0716 40.8333 36.4583 40.8333C37.6187 40.8333 38.7315 41.2943 39.5519 42.1147C40.3724 42.9352 40.8333 44.048 40.8333 45.2083C40.8333 46.3687 40.3724 47.4815 39.5519 48.3019C38.7315 49.1224 37.6187 49.5833 36.4583 49.5833C36.0716 49.5833 35.7006 49.737 35.4271 50.0105C35.1536 50.284 35 50.6549 35 51.0417V58.3333" stroke="#FF9900" stroke-width="2.75" stroke-linecap="round" stroke-linejoin="round"/>
<path d="M58.3333 34.9998H51.0417C50.6549 34.9998 50.284 34.8462 50.0105 34.5727C49.737 34.2992 49.5833 33.9283 49.5833 33.5415C49.5833 32.3812 49.1224 31.2684 48.3019 30.4479C47.4815 29.6274 46.3687 29.1665 45.2083 29.1665C44.048 29.1665 42.9352 29.6274 42.1147 30.4479C41.2943 31.2684 40.8333 32.3812 40.8333 33.5415C40.8333 33.9283 40.6797 34.2992 40.4062 34.5727C40.1327 34.8462 39.7618 34.9998 39.375 34.9998H35" stroke="#FF9900" stroke-width="2.75" stroke-linecap="round" stroke-linejoin="round"/>
<path d="M52.4994 11.6665H17.4993C14.2777 11.6665 11.666 14.2782 11.666 17.4998V52.4998C11.666 55.7215 14.2777 58.3332 17.4993 58.3332H52.4994C55.721 58.3332 58.3327 55.7215 58.3327 52.4998V17.4998C58.3327 14.2782 55.721 11.6665 52.4994 11.6665Z" stroke="#58595B" stroke-width="2.75" stroke-linecap="round" stroke-linejoin="round"/>
<path d="M34.9993 11.6665V18.9582C34.9993 19.3449 34.8457 19.7159 34.5722 19.9894C34.2987 20.2629 33.9278 20.4165 33.541 20.4165C32.3807 20.4165 31.2679 20.8774 30.4474 21.6979C29.627 22.5184 29.166 23.6312 29.166 24.7915C29.166 25.9518 29.627 27.0646 30.4474 27.8851C31.2679 28.7056 32.3807 29.1665 33.541 29.1665C33.9278 29.1665 34.2987 29.3201 34.5722 29.5936C34.8457 29.8671 34.9993 30.2381 34.9993 30.6248V34.9998" stroke="#58595B" stroke-width="2.75" stroke-linecap="round" stroke-linejoin="round"/>
<path d="M34.9993 35H30.6243C30.2376 35 29.8666 35.1536 29.5932 35.4271C29.3197 35.7006 29.166 36.0716 29.166 36.4583C29.166 37.6187 28.7051 38.7315 27.8846 39.5519C27.0641 40.3724 25.9513 40.8333 24.791 40.8333C23.6307 40.8333 22.5179 40.3724 21.6974 39.5519C20.877 38.7315 20.416 37.6187 20.416 36.4583C20.416 36.0716 20.2624 35.7006 19.9889 35.4271C19.7154 35.1536 19.3445 35 18.9577 35H11.666" stroke="#58595B" stroke-width="2.75" stroke-linecap="round" stroke-linejoin="round"/>
</g>
<defs>
<clipPath id="clip0_6401_221062">
<rect width="70" height="70" fill="white"/>
</clipPath>
</defs>
</svg>
