<svg width="70" height="70" viewBox="0 0 70 70" fill="none" xmlns="http://www.w3.org/2000/svg">
<g clip-path="url(#clip0_6401_221938)">
<path d="M46.666 14.5835L55.416 23.3335L49.5827 26.2502L61.2493 37.9168L52.4993 40.8335L64.166 52.5002H37.916" stroke="#58595B" stroke-width="2.75" stroke-linecap="round" stroke-linejoin="round"/>
<path d="M43.75 61.25V52.5" stroke="#58595B" stroke-width="2.75" stroke-linecap="round" stroke-linejoin="round"/>
<path d="M23.3333 37.9168L17.5 32.0835" stroke="#FF9900" stroke-width="2.75" stroke-linecap="round" stroke-linejoin="round"/>
<path d="M23.334 34.9998L29.1673 29.1665" stroke="#FF9900" stroke-width="2.75" stroke-linecap="round" stroke-linejoin="round"/>
<path d="M16.9871 46.6523C15.711 46.5776 14.4667 46.2242 13.3419 45.6169C12.217 45.0096 11.2389 44.1633 10.4762 43.1374C9.71363 42.1115 9.18505 40.9309 8.92771 39.6788C8.67037 38.4266 8.6905 37.1333 8.9867 35.8898C7.92819 35.01 7.09234 33.8926 6.54716 32.6288C6.00198 31.3649 5.76287 29.9902 5.84928 28.6165C5.93569 27.2427 6.34518 25.9088 7.04443 24.7232C7.74368 23.5376 8.71295 22.5338 9.87336 21.7936C8.85653 19.9871 8.51406 17.8784 8.90696 15.843C9.29986 13.8076 10.4026 11.9779 12.0188 10.6797C13.6349 9.38153 15.6594 8.69931 17.7316 8.75458C19.8038 8.80985 21.7891 9.59902 23.3338 10.9815C24.8788 9.6012 26.8634 8.8139 28.9344 8.75971C31.0055 8.70551 33.0286 9.38794 34.6437 10.6855C36.2587 11.9831 37.361 13.8117 37.7542 15.8457C38.1475 17.8798 37.8063 19.9875 36.7913 21.7936C37.9524 22.5332 38.9224 23.5366 39.6223 24.7221C40.3222 25.9076 40.7322 27.2416 40.8189 28.6156C40.9056 29.9895 40.6666 31.3645 40.1213 32.6286C39.576 33.8927 38.7398 35.0101 37.6809 35.8898C37.987 37.1755 37.998 38.5138 37.7129 39.8043C37.4279 41.0947 36.8542 42.3039 36.0349 43.3409C35.2157 44.378 34.1721 45.216 32.9827 45.792C31.7932 46.3681 30.4887 46.6672 29.1671 46.6669H17.5004L16.9871 46.6523Z" stroke="#58595B" stroke-width="2.75" stroke-linecap="round" stroke-linejoin="round"/>
<path d="M23.334 61.2502V23.3335" stroke="#FF9900" stroke-width="2.75" stroke-linecap="round" stroke-linejoin="round"/>
</g>
<defs>
<clipPath id="clip0_6401_221938">
<rect width="70" height="70" fill="white"/>
</clipPath>
</defs>
</svg>
