<svg width="70" height="70" viewBox="0 0 70 70" fill="none" xmlns="http://www.w3.org/2000/svg">
<g clip-path="url(#clip0_6401_221918)">
<path d="M11.666 26.2498C11.666 24.7027 12.2806 23.219 13.3746 22.125C14.4685 21.0311 15.9523 20.4165 17.4993 20.4165H49.5827C51.1298 20.4165 52.6135 21.0311 53.7075 22.125C54.8014 23.219 55.416 24.7027 55.416 26.2498V27.7082C55.416 28.0949 55.5697 28.4659 55.8432 28.7394C56.1166 29.0129 56.4876 29.1665 56.8744 29.1665C57.2611 29.1665 57.6321 29.3201 57.9055 29.5936C58.179 29.8671 58.3327 30.2381 58.3327 30.6248V39.3748C58.3327 39.7616 58.179 40.1325 57.9055 40.406C57.6321 40.6795 57.2611 40.8332 56.8744 40.8332C56.4876 40.8332 56.1166 40.9868 55.8432 41.2603C55.5697 41.5338 55.416 41.9047 55.416 42.2915V43.7498C55.416 45.2969 54.8014 46.7807 53.7075 47.8746C52.6135 48.9686 51.1298 49.5832 49.5827 49.5832H36.4577" stroke="#58595B" stroke-width="2.75" stroke-linecap="round" stroke-linejoin="round"/>
<path d="M8.75 43.75H26.25V49.5833C26.25 51.1304 25.6354 52.6142 24.5415 53.7081C23.4475 54.8021 21.9638 55.4167 20.4167 55.4167H14.5833C13.0362 55.4167 11.5525 54.8021 10.4585 53.7081C9.36458 52.6142 8.75 51.1304 8.75 49.5833V43.75Z" stroke="#FF9900" stroke-width="2.75" stroke-linecap="round" stroke-linejoin="round"/>
<path d="M17.5 64.1665V55.4165" stroke="#FF9900" stroke-width="2.75" stroke-linecap="round" stroke-linejoin="round"/>
<path d="M11.666 43.7502V36.4585" stroke="#FF9900" stroke-width="2.75" stroke-linecap="round" stroke-linejoin="round"/>
<path d="M23.334 43.7502V36.4585" stroke="#FF9900" stroke-width="2.75" stroke-linecap="round" stroke-linejoin="round"/>
</g>
<defs>
<clipPath id="clip0_6401_221918">
<rect width="70" height="70" fill="white"/>
</clipPath>
</defs>
</svg>
