<svg width="31" height="31" viewBox="0 0 31 31" fill="none" xmlns="http://www.w3.org/2000/svg">
<path d="M5.63672 25.3455L7.44428 21.1808C6.0614 19.2169 5.44245 16.8157 5.70359 14.4277C5.96473 12.0396 7.08801 9.82905 8.86262 8.21074C10.6372 6.59242 12.9412 5.67764 15.3421 5.63806C17.743 5.59848 20.0758 6.43682 21.9028 7.99577C23.7297 9.55471 24.9252 11.7271 25.2648 14.1052C25.6045 16.4833 25.065 18.9037 23.7475 20.9121C22.4301 22.9205 20.4252 24.3789 18.1093 25.0135C15.7934 25.6482 13.3256 25.4155 11.169 24.3591L5.63672 25.3455" stroke="#333333" stroke-linecap="round" stroke-linejoin="round"/>
<path d="M12.6816 13.6034C12.6816 13.7471 12.7387 13.885 12.8404 13.9866C12.942 14.0883 13.0799 14.1454 13.2236 14.1454C13.3673 14.1454 13.5052 14.0883 13.6068 13.9866C13.7085 13.885 13.7656 13.7471 13.7656 13.6034V12.5195C13.7656 12.3758 13.7085 12.2379 13.6068 12.1363C13.5052 12.0346 13.3673 11.9775 13.2236 11.9775C13.0799 11.9775 12.942 12.0346 12.8404 12.1363C12.7387 12.2379 12.6816 12.3758 12.6816 12.5195V13.6034ZM12.6816 13.6034C12.6816 15.0408 13.2526 16.4193 14.269 17.4356C15.2854 18.452 16.6639 19.023 18.1012 19.023H19.1851C19.3289 19.023 19.4667 18.9659 19.5684 18.8643C19.67 18.7626 19.7271 18.6248 19.7271 18.481C19.7271 18.3373 19.67 18.1994 19.5684 18.0978C19.4667 17.9962 19.3289 17.9391 19.1851 17.9391H18.1012C17.9575 17.9391 17.8196 17.9962 17.718 18.0978C17.6164 18.1994 17.5593 18.3373 17.5593 18.481C17.5593 18.6248 17.6164 18.7626 17.718 18.8643C17.8196 18.9659 17.9575 19.023 18.1012 19.023" stroke="#333333" stroke-linecap="round" stroke-linejoin="round"/>
</svg>
