<svg width="24" height="24" viewBox="0 0 24 24" fill="none" xmlns="http://www.w3.org/2000/svg">
<path d="M12.3838 3C7.42098 3 3.38379 7.03719 3.38379 12C3.38379 13.693 3.85421 15.3366 4.7466 16.7638C4.3911 18.0092 3.74898 20.3652 3.74206 20.3897C3.70883 20.5116 3.74448 20.6417 3.83552 20.7293C3.92656 20.8169 4.0581 20.848 4.17787 20.8113L7.74533 19.714C9.14275 20.5559 10.743 21 12.3838 21C17.3466 21 21.3838 16.9628 21.3838 12C21.3838 7.03719 17.3466 3 12.3838 3ZM12.3838 20.3077C10.8195 20.3077 9.29575 19.8705 7.9769 19.0439C7.92117 19.0089 7.85714 18.9913 7.7931 18.9913C7.75883 18.9913 7.72456 18.9965 7.69133 19.0065L4.57629 19.9653C4.8051 19.1301 5.21633 17.6361 5.45483 16.805C5.48252 16.7087 5.46694 16.6049 5.4126 16.5208C4.53821 15.1753 4.0761 13.612 4.0761 12C4.0761 7.41935 7.80314 3.69231 12.3838 3.69231C16.9644 3.69231 20.6915 7.41935 20.6915 12C20.6915 16.5807 16.9644 20.3077 12.3838 20.3077Z" fill="#333333" stroke="#333333" stroke-width="0.2"/>
<path d="M18.2628 14.1205C17.6238 13.7657 17.0796 13.4098 16.6826 13.1502C16.3793 12.9522 16.1602 12.8092 15.9996 12.7286C15.5507 12.5046 15.2104 12.6628 15.0809 12.7937C15.0647 12.8099 15.0501 12.8276 15.0377 12.8463C14.5714 13.5459 13.9625 14.215 13.7842 14.251C13.5783 14.2188 12.6142 13.6708 11.6561 12.8729C10.6778 12.0577 10.0624 11.2772 9.97204 10.7455C10.5996 10.0995 10.8257 9.69316 10.8257 9.2307C10.8257 8.75404 9.71381 6.764 9.51269 6.56289C9.31088 6.36143 8.85638 6.32993 8.16165 6.46839C8.09485 6.48189 8.03323 6.51477 7.98477 6.56289C7.90065 6.647 5.93242 8.65366 6.86773 11.0857C7.89442 13.7549 10.5297 16.8575 13.8895 17.3615C14.2713 17.4186 14.6292 17.447 14.9643 17.447C16.9408 17.447 18.1073 16.4525 18.4358 14.4798C18.4604 14.3354 18.3908 14.1914 18.2628 14.1205ZM13.9923 16.6768C10.4393 16.1441 8.20146 12.624 7.514 10.8372C6.83208 9.06489 8.08965 7.4847 8.40535 7.12747C8.66219 7.08385 8.93254 7.0655 9.04538 7.08316C9.28111 7.41097 10.0973 8.95308 10.1333 9.2307C10.1333 9.41243 10.0742 9.66547 9.36938 10.3706C9.30431 10.4353 9.26796 10.5232 9.26796 10.6153C9.26796 12.4278 13.0909 14.9422 13.768 14.9422C14.3568 14.9422 15.1245 13.9526 15.5617 13.3077C15.587 13.3087 15.6296 13.3174 15.6902 13.3479C15.8148 13.4105 16.0308 13.5514 16.3039 13.73C16.6646 13.9657 17.1437 14.2787 17.7093 14.603C17.4524 15.8388 16.7345 17.0887 13.9923 16.6768Z" fill="#FF9900" stroke="#FF9900" stroke-width="0.2"/>
</svg>
