<svg width="40" height="40" viewBox="0 0 40 40" fill="none" xmlns="http://www.w3.org/2000/svg">
<path d="M32.8814 14.113L26 7V14.113H32.8814Z" stroke="#1D1D1B" stroke-width="1.5" stroke-linejoin="round"/>
<path d="M26.11 7H10.705C8.66214 7 7 8.7237 7 10.8422V29.1578C7 31.2763 8.66214 33 10.705 33H29.295C31.3379 33 33 31.2763 33 29.1578V14.1452L26.11 7Z" stroke="#1D1D1B" stroke-width="1.5" stroke-miterlimit="10"/>
<mask id="path-3-inside-1_9551_258476" fill="white">
<rect x="4" y="15" width="20" height="10" rx="1"/>
</mask>
<rect x="4" y="15" width="20" height="10" rx="1" fill="#1F7246" stroke="#1F7246" stroke-width="3" mask="url(#path-3-inside-1_9551_258476)"/>
<path d="M10.9303 19.9817L12.5903 22.4335H11.4007L10.2582 20.5938L9.11565 22.4335H8L9.6298 19.9251L8.10417 17.5699H9.25343L10.312 19.3197L11.347 17.5699H12.4727L10.9303 19.9817Z" fill="white"/>
<path d="M14.2504 21.5818H16.2431V22.4335H13.2086V17.5699H14.2504V21.5818Z" fill="white"/>
<path d="M16.7942 21.2492C17.1347 21.3978 17.4181 21.502 17.6444 21.5619C17.8729 21.6195 18.0913 21.6484 18.2996 21.6484C18.5102 21.6484 18.676 21.6051 18.797 21.5186C18.918 21.4321 18.9784 21.3035 18.9784 21.1327C18.9784 21.0374 18.9527 20.9542 18.9011 20.8832C18.8496 20.81 18.7701 20.738 18.6626 20.667C18.5573 20.5938 18.3489 20.4851 18.0375 20.341C17.7261 20.1946 17.4965 20.0582 17.3486 19.9318C17.0193 19.6501 16.8547 19.2975 16.8547 18.8739C16.8547 18.4503 17.0014 18.1154 17.2949 17.8693C17.5906 17.6231 17.9983 17.5 18.5181 17.5C18.9549 17.5 19.4411 17.6142 19.9765 17.8426L19.6404 18.6444C19.3873 18.5424 19.1733 18.4692 18.9986 18.4248C18.8239 18.3805 18.6458 18.3583 18.4643 18.3583C18.2851 18.3583 18.1417 18.4037 18.0342 18.4947C17.9266 18.5834 17.8729 18.702 17.8729 18.8506C17.8729 18.9416 17.893 19.0214 17.9334 19.0902C17.9759 19.1567 18.0431 19.2221 18.135 19.2864C18.2291 19.3485 18.4509 19.4616 18.8003 19.6257C19.2574 19.8409 19.571 20.0593 19.7412 20.2811C19.9137 20.494 20 20.7613 20 21.0828C20 21.5175 19.8398 21.8646 19.5195 22.1241C19.1991 22.3747 18.7656 22.5 18.219 22.5C17.6724 22.5 17.1974 22.4024 16.7942 22.2073V21.2492Z" fill="white"/>
</svg>
