<svg width="518" height="685" viewBox="0 0 518 685" fill="none" xmlns="http://www.w3.org/2000/svg">
<path d="M155.508 115.004H146.263" stroke="#FF9900" stroke-width="1.5" stroke-linecap="round" stroke-linejoin="round"/>
<path d="M155.508 115.004L164.885 115.515L179.985 128.468L180.794 134.54" stroke="#333333" stroke-width="1.5" stroke-linecap="round" stroke-linejoin="round"/>
<path d="M62.9219 137C63.7668 145.485 63.4336 168.918 63.0885 182.785L62.9219 200.658L150.356 188.763" stroke="#FF9900" stroke-width="1.5" stroke-linecap="round" stroke-linejoin="round"/>
<path d="M129.176 116.656H112.826L95.6205 133.839H91.6105" stroke="#FF9900" stroke-width="1.5" stroke-linecap="round" stroke-linejoin="round"/>
<path d="M52.5 130.643H13.7433C13.7433 130.643 13.5 196.5 12.6962 206.041L62.8982 204.924L62.9339 196.736" stroke="#FF9900" stroke-width="1.5" stroke-linecap="round" stroke-linejoin="round"/>
<path d="M95.6205 133.839L137.624 135.229" stroke="#FF9900" stroke-width="1.5" stroke-linecap="round" stroke-linejoin="round"/>
<path d="M160.958 134.54H180.794" stroke="#FF9900" stroke-width="1.5" stroke-linecap="round" stroke-linejoin="round"/>
<path d="M13.5 137.582H0.594908C0.594908 137.582 2.03468 204 2.03468 208.786H19.0979V206.053" stroke="#FF9900" stroke-width="1.5" stroke-linecap="round" stroke-linejoin="round"/>
<path d="M180.794 134.54L183.197 152.341L175.308 153.102C175.308 153.102 159.792 132.532 157.245 130.238C154.699 127.945 139.445 104.844 139.445 104.844C139.445 104.844 132.329 99.2593 129.021 104.844C125.713 110.429 130.032 118.308 131.817 124.404C133.602 130.5 154.199 160.719 154.199 160.719C154.199 160.719 154.925 171.188 151.843 177.64C148.761 184.093 149.38 252.088 149.38 272.693C149.38 293.298 133.055 361.602 130.901 373.283C128.747 384.964 124.428 468.645 121.346 495.714C118.264 522.784 156.151 545.861 156.151 545.861L269.525 547.441C271.286 547.465 273.047 547.441 274.808 547.335L331.447 544.316" stroke="#333333" stroke-width="1.5" stroke-linecap="round" stroke-linejoin="round"/>
<path d="M240.098 441.837C245.084 434.053 242.442 425.521 242.442 425.521C242.442 425.521 229.651 381.126 222.583 361.626C215.515 342.126 218.74 283.91 218.192 279.086C217.645 274.261 223.725 248.237 223.725 248.237C223.725 248.237 232.471 214.537 236.755 205.256C241.038 195.976 242.109 183.498 242.109 183.498C242.109 183.498 242.823 152.65 242.109 147.303C241.395 141.955 236.398 134.291 232.828 130.238C229.258 126.186 222.571 124.38 222.571 124.38L231.936 153.363C231.936 153.363 224.082 129.823 223.725 127.149C223.368 124.475 206.043 107.53 206.043 107.53L182.852 100.852L194.977 108.956L203.913 122.229L212.183 152.579L203.533 120.827C203.533 120.827 194.882 110.917 192.847 108.124C190.813 105.332 179.961 99.7465 179.961 99.7465C179.961 99.7465 164.611 99.9961 159.53 101.018C154.449 102.04 155.5 113.847 155.5 113.847" stroke="#333333" stroke-width="1.5" stroke-linecap="round" stroke-linejoin="round"/>
<path d="M242.454 425.521C242.454 425.521 276.01 414.232 286.255 422.396" stroke="#333333" stroke-width="1.5" stroke-linecap="round" stroke-linejoin="round"/>
<path d="M218.621 120.459C218.621 120.459 235.006 28.6144 318.418 32.3576" stroke="#333333" stroke-width="1.5" stroke-linecap="round" stroke-linejoin="round"/>
<path d="M308.482 94.1852C308.482 94.1852 320.274 20.0467 329.876 9.13806C332.554 6.10787 334.815 3.64807 336.695 1.67548C339.027 -0.760548 343.108 1.25958 342.573 4.57495C341.799 9.3163 348.534 0.1188 346.916 4.7532C343.418 14.7825 346.916 4.7532 354.626 3.0658C362.337 1.37841 364.039 2.87567 370.428 4.56307C376.818 6.25047 377.33 13.2258 382.542 16.5412C387.753 19.8566 400.093 22.2213 406.256 23.6473C412.42 25.0733 424.283 20.8072 432.339 21.7579C440.395 22.7085 438.979 36.4454 443.726 40.6995C448.474 44.9537 465.073 48.7562 473.129 49.2197C481.184 49.6831 494 55.3751 495.892 56.3258C497.784 57.2764 490.68 62.0059 489.728 69.5873C488.776 77.1687 495.416 87.0435 498.736 94.1852C502.055 101.327 512.967 98.0116 511.539 110.798C510.111 123.584 511.789 131.641 511.67 138.271C511.551 144.902 501.579 151.533 501.579 161.479C501.579 171.425 500.151 177.581 488.776 189.892C477.401 202.202 450.366 217.841 450.366 217.841C450.366 217.841 437.884 225.386 433.35 230.401C428.817 235.416 440.145 210.307 437.884 205.53C435.623 200.753 418.262 205.031 416.002 188.691C413.741 172.352 409.207 157.035 402.163 157.035C395.119 157.035 380.781 156.286 376.509 154.528C372.237 152.769 361.409 151.509 356.138 156.037C350.866 160.564 337.516 171.615 326.961 160.814C316.407 150.012 321.452 127.398 318.418 121.623C315.383 115.848 308.494 94.1852 308.494 94.1852H308.482Z" stroke="#333333" stroke-width="1.5" stroke-linecap="round" stroke-linejoin="round"/>
<path d="M433.362 230.401C433.362 230.401 428.472 231.993 427.901 253.3V258.695C427.901 258.695 322.975 296.483 296.512 340.676C296.512 340.676 262.469 363.943 246.441 364.395C246.441 364.395 257.09 350.634 264.658 336.077C272.226 321.52 274.046 308.889 274.046 308.889C274.046 308.889 267.633 307.843 264.265 306.381C260.898 304.92 265.479 308.829 254.187 313.82C242.895 318.811 219.418 349.386 219.418 349.386" stroke="#333333" stroke-width="1.5" stroke-linecap="round" stroke-linejoin="round"/>
<path d="M346.238 173.172C346.238 173.172 374.117 146.174 381.518 165.781C388.919 185.388 383.791 226.872 356.197 232.278C328.603 237.685 341.121 213.812 341.121 213.812" stroke="#333333" stroke-width="1.5" stroke-linecap="round" stroke-linejoin="round"/>
<path d="M222.702 105.498C222.702 105.498 236.184 103.656 242.288 108.279C248.392 112.901 257.411 125.331 267.157 128.254" stroke="#333333" stroke-width="1.5" stroke-linecap="round" stroke-linejoin="round"/>
<path d="M234.482 96.1103C234.482 96.1103 251.307 97.3699 256.186 105.141C261.064 112.913 271.547 112.913 271.547 112.913" stroke="#333333" stroke-width="1.5" stroke-linecap="round" stroke-linejoin="round"/>
<path d="M218.204 287.024C218.204 287.024 238.349 294.498 243.418 290.102C248.487 285.705 249.582 283.946 249.582 283.946" stroke="#333333" stroke-width="1.5" stroke-linecap="round" stroke-linejoin="round"/>
<path d="M240.551 291.48C240.551 291.48 257.495 305.918 270.25 308.116C283.006 310.315 304.948 317.813 328.115 309.293" stroke="#333333" stroke-width="1.5" stroke-linecap="round" stroke-linejoin="round"/>
<path d="M427.901 258.695C427.901 258.695 441.775 270.827 438.491 293.405C438.491 293.405 426.366 291.765 412.599 305.193C398.831 318.621 381.459 333.011 359.826 339.238C338.194 345.465 308.482 392.593 308.482 392.593L296.512 340.676" stroke="#333333" stroke-width="1.5" stroke-linecap="round" stroke-linejoin="round"/>
<path d="M246.441 364.395L229.913 383.752" stroke="#333333" stroke-width="1.5" stroke-linecap="round" stroke-linejoin="round"/>
<path d="M438.491 293.417C438.491 293.417 433.446 294.011 457.398 309.435C481.351 324.86 506.065 367.389 506.065 367.389C506.065 367.389 531.565 401.256 506.065 510.045C480.566 618.835 456.625 607.261 456.625 635.032C456.625 662.802 445.035 684.406 445.035 684.406" stroke="#333333" stroke-width="1.5" stroke-linecap="round" stroke-linejoin="round"/>
<path d="M269.548 547.465C269.548 547.465 273.368 565.04 276.819 573.596C284.184 591.86 308.708 595.996 321.107 580.69C330.876 568.641 336.207 545.528 325.783 501.704C300.771 396.538 252.926 413.127 252.926 413.127C252.926 413.127 237.897 415.123 247.607 424.083" stroke="#333333" stroke-width="1.5" stroke-linecap="round" stroke-linejoin="round"/>
<path d="M322.654 578.611L464.871 484.033" stroke="#333333" stroke-width="1.5" stroke-linecap="round" stroke-linejoin="round"/>
<path d="M140.98 190.022C140.98 190.022 137.85 202.571 134.923 212.636C131.996 222.701 131.02 243.163 123.547 252.575C116.075 261.986 105.259 302.65 105.259 302.65C105.259 302.65 76.0823 328.127 46.4894 291.48L42.5865 283.946C42.5865 283.946 42.3367 208.417 47.8697 205.268" stroke="#333333" stroke-width="1.5" stroke-linecap="round" stroke-linejoin="round"/>
<path d="M79.3188 240.561C79.3188 240.561 80.6158 228.868 90.0518 216.854C99.4877 204.84 99.0593 195.726 99.0593 195.726" stroke="#333333" stroke-width="1.5" stroke-linecap="round" stroke-linejoin="round"/>
<path d="M122.976 192.482C122.976 192.482 125.987 216.997 122.976 230.401" stroke="#333333" stroke-width="1.5" stroke-linecap="round" stroke-linejoin="round"/>
<path d="M42.5508 276.959C42.5508 276.959 30.9255 284.196 36.6846 296.34C42.4437 308.485 56.7345 322.317 72.2984 324.871C87.8623 327.426 102.796 319.976 105.247 318.478C107.698 316.981 111.113 310.231 105.247 302.638" stroke="#333333" stroke-width="1.5" stroke-linecap="round" stroke-linejoin="round"/>
<path d="M102.546 319.892C102.546 319.892 106.425 399.414 101.094 409.42C95.7633 419.425 86.8033 435.61 86.8033 435.61" stroke="#333333" stroke-width="1.5" stroke-linecap="round" stroke-linejoin="round"/>
<path d="M36.6846 296.34C36.6846 296.34 9.81665 432.722 9.81665 452.115C9.81665 471.509 23.0959 487.67 36.6846 489.82C50.2733 491.971 79.3188 493.587 79.3188 493.587L103.617 495.001" stroke="#333333" stroke-width="1.5" stroke-linecap="round" stroke-linejoin="round"/>
<path d="M111.958 507.906C111.958 507.906 93.7523 537.091 95.3468 550.745C96.9413 564.399 74.0357 593.179 74.0357 604.991V642.268" stroke="#333333" stroke-width="1.5" stroke-linecap="round" stroke-linejoin="round"/>
<path d="M137.35 530.698C137.35 530.698 115.052 562.188 116.158 571.778C117.265 581.368 96.5724 615.698 97.3101 625.656" stroke="#333333" stroke-width="1.5" stroke-linecap="round" stroke-linejoin="round"/>
<path d="M244.656 417.286C244.656 417.286 249.32 406.294 284.636 394.97" stroke="#333333" stroke-width="1.5" stroke-linecap="round" stroke-linejoin="round"/>
<path d="M130.318 377.751C130.318 377.751 113.326 375.101 103.617 389.943" stroke="#333333" stroke-width="1.5" stroke-linecap="round" stroke-linejoin="round"/>
<path d="M101.082 409.42C101.082 409.42 116.372 470.463 101.082 501.121C85.7919 531.78 74.0357 493.599 74.0357 493.599" stroke="#333333" stroke-width="1.5" stroke-linecap="round" stroke-linejoin="round"/>
<path d="M91.2773 512.624L121.929 505.47" stroke="#333333" stroke-width="1.5" stroke-linecap="round" stroke-linejoin="round"/>
<path d="M240.003 140.993C240.003 140.993 257.019 145.793 259.625 154.872C262.231 163.951 244.739 151.628 242.442 154.872" stroke="#333333" stroke-width="1.5" stroke-linecap="round" stroke-linejoin="round"/>
<path d="M242.442 162.323C242.442 162.323 251.7 162.953 255.579 166.47C259.458 169.987 255.936 167.349 250.819 169.286C245.703 171.223 242.442 170.522 242.442 170.522" stroke="#333333" stroke-width="1.5" stroke-linecap="round" stroke-linejoin="round"/>
<path d="M263.635 168.324C263.635 168.324 269.406 168.288 272.773 170.035C276.141 171.782 277.89 170.653 277.89 170.653" stroke="#333333" stroke-width="1.5" stroke-linecap="round" stroke-linejoin="round"/>
<path d="M350.843 184.509C350.843 184.509 358.779 198.186 350.843 204.733" stroke="#333333" stroke-width="1.5" stroke-linecap="round" stroke-linejoin="round"/>
<path d="M357.197 178.163C357.197 178.163 361.456 162.394 371.487 164.093C381.518 165.793 378.639 186.101 378.639 186.101C378.639 186.101 375.854 201.169 370.702 204.733C365.55 208.298 357.994 206.718 353.437 209.487" stroke="#333333" stroke-width="1.5" stroke-linecap="round" stroke-linejoin="round"/>
<path d="M68.1457 124.071C73.6906 127.529 71.6083 133.839 71.6083 133.839C71.6083 133.839 65.6945 137.107 60.4589 137.036C57.0082 136.988 53.8549 135.491 52.8673 130.643C52.784 130.239 52.7245 129.823 52.665 129.371C52.665 129.371 62.5888 120.613 68.1337 124.071H68.1457Z" stroke="#333333" stroke-width="1.5" stroke-linecap="round" stroke-linejoin="round"/>
<path d="M92.5862 133.839C92.5862 133.839 96.977 118.534 101.356 118.308C105.735 118.082 110.03 119.449 110.03 119.449" stroke="#333333" stroke-width="1.5" stroke-linecap="round" stroke-linejoin="round"/>
<path d="M71.6083 133.839C71.6083 133.839 84.9471 140.886 91.2416 134.421C91.5986 134.053 91.7533 133.542 91.7057 133.031C91.4201 129.953 89.9208 119.057 83.3764 119.449C75.761 119.912 70.7753 126.638 70.7753 126.638" stroke="#333333" stroke-width="1.5" stroke-linecap="round" stroke-linejoin="round"/>
<path d="M265.634 45.8093C265.634 45.8093 265.181 34.3659 271.559 34.1044C277.937 33.843 287.266 25.7982 287.266 25.7982L302.652 24.289C302.652 24.289 319.965 13.7844 323.582 13.7131C327.199 13.6418 329.876 9.14996 329.876 9.14996" stroke="#333333" stroke-width="1.5" stroke-miterlimit="10"/>
</svg>
