<svg width="326" height="246" viewBox="0 0 326 246" fill="none" xmlns="http://www.w3.org/2000/svg">
<path d="M134.986 201.958C131.656 201.958 129.49 201.124 128.532 199.467C126.642 196.198 129.807 190.464 137.94 182.422L138.623 183.123C131.069 190.593 127.784 196.222 129.374 198.972C130.381 200.712 133.376 201.335 138.037 200.774C142.665 200.218 148.797 198.559 156.264 195.845C171.637 190.256 190.925 180.829 210.573 169.3C230.22 157.771 247.875 145.521 260.285 134.808C262.669 132.749 264.832 130.769 266.715 128.923C269.186 126.558 271.466 123.998 273.533 121.268C276.317 117.461 277.256 114.528 276.25 112.789C274.57 109.883 267.51 110.156 256.37 113.559L256.087 112.619C268.039 108.968 275.106 108.859 277.093 112.294C278.327 114.429 277.394 117.644 274.319 121.85C272.22 124.624 269.905 127.225 267.395 129.627C265.498 131.488 263.319 133.482 260.92 135.553C248.466 146.305 230.76 158.591 211.063 170.149C191.366 181.707 172.022 191.161 156.596 196.769C149.059 199.509 142.854 201.185 138.153 201.75C137.102 201.882 136.045 201.951 134.986 201.958Z" fill="#333333"/>
<path d="M245.897 191.149C242.02 191.149 237.772 191.002 233.151 190.71C209.25 189.193 178.291 183.922 145.977 175.866C113.664 167.811 83.8552 157.934 62.0435 148.055C51.4183 143.242 43.2635 138.686 37.806 134.514C32.0278 130.098 29.5004 126.248 30.2936 123.072C31.8391 116.885 45.5235 115.532 56.7312 115.486L56.735 116.385C41.3439 116.449 32.2639 118.901 31.1675 123.29C29.771 128.88 41.1605 137.608 62.4154 147.235C84.1792 157.093 113.933 166.951 146.196 174.994C178.458 183.036 209.36 188.299 233.208 189.812C256.498 191.29 270.657 188.931 272.053 183.34C273.213 178.699 265.569 171.861 250.532 164.087L250.946 163.288C261.872 168.937 274.556 177.039 272.927 183.558C272.134 186.734 268.092 188.946 260.914 190.133C256.823 190.809 251.797 191.149 245.897 191.149Z" fill="#333333"/>
<path d="M205.318 242.371C205.227 242.322 205.143 242.254 205.069 242.173C204.812 241.888 204.768 241.467 204.95 241.132L206.128 238.955L203.962 236.677C203.678 236.38 203.631 235.925 203.844 235.573C204.057 235.219 204.485 235.053 204.881 235.168L207.729 235.997L208.931 233.774C209.117 233.43 209.503 233.239 209.893 233.306C210.278 233.368 210.577 233.676 210.639 234.07L211.059 236.888L213.935 237.698C214.308 237.789 214.584 238.134 214.598 238.527C214.619 238.917 214.389 239.281 214.026 239.423L211.698 240.353L212.104 243.034C212.165 243.438 211.951 243.833 211.58 244.003C211.209 244.174 210.779 244.08 210.509 243.772L208.487 241.451L206.089 242.41C205.835 242.515 205.549 242.492 205.317 242.366L205.318 242.371ZM207.616 237.872L207.907 238.176C208.182 238.461 208.236 238.891 208.047 239.24L207.756 239.777L208.413 239.519C208.773 239.376 209.185 239.47 209.442 239.768L209.831 240.209L209.784 239.916C209.723 239.493 209.957 239.087 210.351 238.929L210.852 238.73L210 238.486C209.648 238.398 209.399 238.098 209.344 237.745L209.238 237.045L208.983 237.517C208.777 237.898 208.341 238.08 207.924 237.961L207.616 237.872Z" fill="#333333"/>
<path d="M4.55179 177.495C4.43828 177.495 4.32477 177.472 4.2146 177.427C3.84737 177.272 3.607 176.866 3.607 176.423V173.513L0.642439 172.38C0.238484 172.228 -0.0219159 171.789 0.00145334 171.307C0.0248226 170.826 0.325287 170.424 0.739257 170.318L3.607 169.591V166.62C3.607 166.165 3.86073 165.756 4.23797 165.605C4.60187 165.464 5.03587 165.589 5.28625 165.949L7.18918 168.64L10.2238 167.867C10.6278 167.753 11.0384 167.965 11.2454 168.367C11.4557 168.765 11.4123 169.273 11.1386 169.621L9.39591 171.857L11.1686 174.369C11.4357 174.744 11.4457 175.278 11.1953 175.665C10.9483 176.063 10.4976 176.214 10.1003 176.04L7.09904 174.771L5.25621 177.128C5.07593 177.363 4.81553 177.488 4.54845 177.488L4.55179 177.495ZM4.45163 171.573L4.85225 171.728C5.23617 171.876 5.49324 172.281 5.49324 172.743V173.596L6.11419 172.8C6.37125 172.467 6.78189 172.346 7.15246 172.509L7.54973 172.675L7.42287 172.493C7.13576 172.084 7.14578 171.504 7.45292 171.114L7.78343 170.686L7.02893 170.879C6.67839 170.985 6.31116 170.826 6.08415 170.504L5.49324 169.674V170.455C5.49324 170.955 5.1861 171.391 4.75544 171.501L4.45163 171.58V171.573Z" fill="#333333"/>
<path d="M289.518 72.9321C289.615 72.8761 289.727 72.8388 289.846 72.8205C290.265 72.7616 290.704 73.0028 290.938 73.408L292.54 76.1825L295.828 75.6532C296.271 75.5802 296.741 75.8401 296.971 76.2885C297.202 76.7368 297.139 77.2585 296.818 77.572L294.59 79.7417L296.067 82.2999C296.305 82.7119 296.289 83.216 296.022 83.5531C295.76 83.8919 295.305 83.9856 294.884 83.7891L291.944 82.419L289.475 84.7876C289.156 85.0768 288.681 85.1086 288.286 84.8601C287.888 84.6048 287.662 84.1219 287.727 83.6675L288.142 80.7268L285.216 79.3807C284.782 79.1826 284.498 78.7192 284.509 78.2411C284.526 77.7647 284.816 77.3773 285.27 77.3077L288.724 76.7096L289.065 73.6695C289.098 73.3483 289.273 73.0827 289.522 72.939L289.518 72.9321ZM292.793 78.3804L292.338 78.4552C291.912 78.5228 291.466 78.2903 291.224 77.8714L290.77 77.0851L290.673 77.9056C290.627 78.3443 290.33 78.6713 289.922 78.7422L289.108 78.8822L289.601 79.1109C290.076 79.331 290.37 79.8617 290.295 80.3765L290.21 80.9795L290.927 80.2864C291.208 80.0372 291.613 79.9681 291.985 80.1425L292.737 80.4914L292.426 79.9523C292.164 79.499 292.215 78.9429 292.549 78.6173L292.791 78.377L292.793 78.3804Z" fill="#333333"/>
<path d="M39.2669 11.873C39.1882 11.8061 39.1217 11.7199 39.0698 11.6215C38.8917 11.273 38.9723 10.8095 39.2592 10.4722L41.2214 8.16559L39.7603 5.45459C39.5649 5.08644 39.6527 4.58966 39.9787 4.24129C40.3047 3.89292 40.7837 3.77816 41.1567 3.95746L43.7428 5.20646L45.5542 3.07701C45.8459 2.73401 46.2954 2.58426 46.6729 2.70834C47.0529 2.82956 47.2727 3.19884 47.2236 3.63009L46.9001 6.65566L49.7342 8.05155C50.0875 8.22401 50.2611 8.64263 50.1533 9.06824C50.048 9.50089 49.6902 9.85672 49.2698 9.94743L46.5519 10.5421L46.2478 13.5449C46.2062 13.9873 45.883 14.3873 45.4555 14.5361C45.0354 14.6812 44.6015 14.5387 44.4037 14.1734L42.8367 11.3379L40.0533 12.0296C39.7601 12.1053 39.4734 12.0388 39.2718 11.8673L39.2669 11.873ZM43.0907 7.22838L43.2909 7.59577C43.4788 7.94775 43.4031 8.42034 43.1089 8.7662L42.5521 9.42075L43.3048 9.23829C43.7056 9.1358 44.0784 9.2854 44.2687 9.62462L44.6369 10.2827L44.6856 9.78712C44.7367 9.29856 45.1161 8.86751 45.5927 8.76551L46.1573 8.6398L45.328 8.23486C45.0212 8.07738 44.8456 7.73586 44.8851 7.35564L44.9665 6.58244L44.5799 7.03691C44.259 7.41421 43.7532 7.55051 43.3655 7.36362L43.0883 7.23124L43.0907 7.22838Z" fill="#333333"/>
<path d="M104.942 199.959L83.2534 186.866C83.1433 186.801 83.0246 186.775 82.8973 186.789L57.1451 190.842C56.9696 190.887 56.8164 191.019 56.7647 191.257C56.7217 191.454 56.7973 191.678 56.9866 191.761L66.1088 197.269L63.3238 208.352C63.2979 208.471 63.3031 208.638 63.4046 208.743C63.5284 208.935 66.4871 213.434 74.323 215.14C74.7188 215.226 75.1146 215.312 75.5189 215.358C84.1929 216.832 89.7912 214.154 90.0631 214.047C90.1991 213.994 90.3127 213.853 90.3385 213.734L92.9652 202.617L104.775 200.918C104.99 200.882 105.143 200.749 105.195 200.512C105.207 200.266 105.132 200.042 104.942 199.959ZM89.4094 213.242C88.3132 213.708 83.1246 215.646 75.6861 214.4C68.2957 213.123 65.0013 209.215 64.3562 208.37L66.9897 197.793L78.235 204.592C78.2746 204.601 78.3452 204.658 78.3847 204.666C78.4243 204.675 78.5035 204.692 78.5516 204.661L91.9069 202.718L89.4094 213.242ZM78.6001 203.677L58.673 191.63L82.8884 187.781L103.256 200.09L78.6001 203.677Z" fill="#333333"/>
<path d="M99.6764 215.393L99.685 215.354C99.7986 215.213 99.9208 215.032 100.043 214.852C100.444 214.151 100.537 213.343 100.367 212.601C100.166 211.811 99.7152 211.215 99.0459 210.863C98.9754 210.806 98.8962 210.789 98.8566 210.78L101.301 201.074C101.361 200.797 101.206 200.556 100.938 200.456L80.9178 195.311C80.6408 195.251 80.3998 195.406 80.3 195.674C80.2397 195.951 80.3945 196.192 80.6629 196.292L100.208 201.333L97.8982 210.613C96.8262 210.587 95.7041 211.172 95.1377 212.25C94.7366 212.951 94.6435 213.759 94.8137 214.501C94.9117 214.812 95.0097 215.124 95.2041 215.374L91.006 227.807C90.9716 227.965 90.9767 228.132 91.0782 228.237C91.1401 228.333 91.2502 228.399 91.369 228.425C91.4085 228.433 91.4085 228.433 91.4481 228.442L97.7839 228.66C98.03 228.672 98.2795 228.478 98.2916 228.232L99.6764 215.393ZM95.9653 212.638C96.4405 211.788 97.3216 211.358 98.1131 211.53C98.2714 211.564 98.4211 211.638 98.5312 211.704C98.9407 211.917 99.2675 212.32 99.3621 212.838C99.4962 213.365 99.4238 213.888 99.1449 214.407C98.5957 215.407 97.429 215.816 96.5394 215.333C96.1299 215.119 95.8031 214.716 95.7086 214.198C95.614 213.68 95.6951 213.118 95.9653 212.638ZM92.1246 227.428L95.9628 216.077C95.9938 216.126 96.0729 216.143 96.1039 216.191C96.3241 216.322 96.553 216.413 96.7904 216.465C97.384 216.594 98.0207 216.525 98.5818 216.233L97.3402 227.652L92.1246 227.428Z" fill="#333333"/>
<path fill-rule="evenodd" clip-rule="evenodd" d="M214.82 24.2753C217.431 24.9824 219.003 27.5682 218.33 30.0508C217.658 32.5334 214.996 33.9726 212.385 33.2655C209.774 32.5583 208.202 29.9726 208.875 27.49C209.547 25.0074 212.209 23.5681 214.82 24.2753ZM218.961 30.2215C219.723 27.4079 217.942 24.4774 214.982 23.6759C212.023 22.8745 209.006 24.5057 208.244 27.3193C207.482 30.1328 209.264 33.0634 212.223 33.8648C215.182 34.6663 218.199 33.0351 218.961 30.2215Z" fill="#333333" stroke="#333333" stroke-width="0.568895" stroke-linecap="round" stroke-linejoin="round"/>
<path fill-rule="evenodd" clip-rule="evenodd" d="M216.072 32.9773C215.898 32.9301 215.72 33.0261 215.675 33.1916L213.89 39.7844L211.584 36.9727C211.494 36.8625 211.34 36.8207 211.206 36.8703L207.796 38.1341L209.582 31.5413C209.627 31.3758 209.522 31.2034 209.348 31.1563C209.174 31.1091 208.996 31.2051 208.951 31.3706L207.004 38.5628C206.973 38.6763 207.012 38.7983 207.105 38.878C207.198 38.9577 207.329 38.9813 207.443 38.9391L211.229 37.5358L213.789 40.6577C213.866 40.7516 213.991 40.7972 214.111 40.7754C214.232 40.7535 214.327 40.668 214.358 40.5545L216.306 33.3623C216.351 33.1968 216.246 33.0244 216.072 32.9773Z" fill="#333333" stroke="#333333" stroke-width="0.568895" stroke-linecap="round" stroke-linejoin="round"/>
<path fill-rule="evenodd" clip-rule="evenodd" d="M234.66 17.64C236.335 18.0936 237.354 19.7694 236.922 21.362L232.594 37.3446C232.386 38.1129 231.865 38.7628 231.147 39.1513C230.428 39.5399 229.571 39.6352 228.763 39.4163L220.357 37.1401C220.183 37.0929 220.006 37.1889 219.961 37.3544C219.916 37.5199 220.021 37.6923 220.195 37.7394L228.6 40.0157C229.576 40.2798 230.611 40.1648 231.478 39.6959C232.345 39.227 232.973 38.4426 233.224 37.5154L237.553 21.5327C238.074 19.6091 236.846 17.5886 234.822 17.0407L211.288 10.6671C210.313 10.403 209.278 10.518 208.411 10.9869C207.543 11.4558 206.915 12.2402 206.664 13.1674L202.336 29.1503C202.17 29.7636 202.177 30.4119 202.356 31.0301C202.535 31.6483 202.88 32.2147 203.355 32.6725C203.483 32.7961 203.69 32.7992 203.815 32.6794C203.941 32.5596 203.939 32.3624 203.811 32.2388C203.417 31.8595 203.132 31.3902 202.983 30.878C202.835 30.3657 202.829 29.8286 202.966 29.3205L207.294 13.3381C207.502 12.5698 208.023 11.9199 208.742 11.5314C209.46 11.1429 210.318 11.0476 211.126 11.2664L234.66 17.64Z" fill="#333333" stroke="#333333" stroke-width="0.568895" stroke-linecap="round" stroke-linejoin="round"/>
<path fill-rule="evenodd" clip-rule="evenodd" d="M231.644 23.3635C231.689 23.198 231.584 23.0256 231.41 22.9785L211.238 17.5154C211.064 17.4682 210.886 17.5642 210.841 17.7297C210.797 17.8952 210.901 18.0676 211.075 18.1147L231.248 23.5778C231.422 23.6249 231.599 23.529 231.644 23.3635Z" fill="#333333" stroke="#333333" stroke-width="0.568895" stroke-linecap="round" stroke-linejoin="round"/>
<path fill-rule="evenodd" clip-rule="evenodd" d="M230.345 28.1583C230.39 27.9928 230.286 27.8204 230.111 27.7732L225.068 26.4075C224.894 26.3603 224.717 26.4563 224.672 26.6218C224.627 26.7873 224.732 26.9597 224.906 27.0068L229.949 28.3726C230.123 28.4197 230.301 28.3238 230.345 28.1583Z" fill="#333333" stroke="#333333" stroke-width="0.568895" stroke-linecap="round" stroke-linejoin="round"/>
<path fill-rule="evenodd" clip-rule="evenodd" d="M229.047 32.9531C229.092 32.7876 228.987 32.6152 228.813 32.568L225.451 31.6575C225.277 31.6104 225.099 31.7063 225.055 31.8718C225.01 32.0373 225.115 32.2097 225.289 32.2569L228.651 33.1674C228.825 33.2145 229.002 33.1186 229.047 32.9531Z" fill="#333333" stroke="#333333" stroke-width="0.568895" stroke-linecap="round" stroke-linejoin="round"/>
<g clip-path="url(#clip0_0_1786)">
<path d="M321.898 150.567L320.093 150.913C319.712 150.986 319.259 150.679 319.186 150.299C319.114 149.919 319.421 149.465 319.801 149.393L321.607 149.046C321.987 148.973 322.44 149.281 322.513 149.661C322.586 150.041 322.279 150.494 321.898 150.567ZM291.008 156.489L289.202 156.835C288.822 156.908 288.369 156.601 288.296 156.221C288.223 155.841 288.531 155.387 288.911 155.315L290.717 154.968C291.097 154.896 291.55 155.203 291.623 155.583C291.696 155.963 291.483 156.398 291.008 156.489ZM313.924 141.355C313.734 141.391 313.526 141.333 313.318 141.274C312.978 141.044 312.887 140.568 313.117 140.229L314.116 138.756C314.346 138.416 314.822 138.325 315.161 138.556C315.501 138.786 315.592 139.261 315.362 139.601L314.363 141.074C314.286 141.187 314.114 141.319 313.924 141.355ZM293.204 145.327C293.014 145.364 292.806 145.305 292.597 145.247L291.125 144.248C290.767 143.922 290.676 143.447 290.906 143.107C291.137 142.767 291.612 142.676 291.952 142.907L293.424 143.906C293.877 144.213 293.968 144.688 293.738 145.028C293.566 145.159 293.394 145.291 293.204 145.327ZM302.762 139.159C302.382 139.232 301.929 138.925 301.856 138.544L301.51 136.739C301.437 136.358 301.745 135.905 302.125 135.832C302.505 135.76 302.958 136.067 303.031 136.447L303.377 138.253C303.468 138.728 303.143 139.086 302.762 139.159Z" fill="#333333"/>
<path d="M314.117 148.018C313.069 146.15 311.524 144.771 309.576 143.863C307.628 142.956 305.505 142.673 303.414 143.074C301.323 143.475 299.454 144.523 297.98 146.086C296.506 147.65 295.599 149.598 295.298 151.626C295.015 153.75 295.416 155.841 296.369 157.727C297.154 159.252 298.491 160.572 299.963 161.571C301.531 162.552 302.737 163.7 303.083 165.506C303.229 166.266 303.279 167.045 303.615 167.769C303.951 168.493 304.441 168.99 305.12 169.451C306.14 170.143 307.276 170.417 308.512 170.181C309.652 169.962 310.702 169.268 311.393 168.249C311.854 167.569 312.107 166.831 312.169 166.129C312.291 165.219 311.841 164.418 311.754 163.449C311.54 161.815 312.293 160.094 313.347 158.907C314.382 157.625 315.023 155.827 315.206 154.215C315.566 151.978 315.165 149.887 314.117 148.018ZM310.224 167.29C309.84 167.857 309.324 168.251 308.487 168.51C307.537 168.692 306.418 168.513 305.779 167.748C305.158 167.079 304.976 166.129 304.83 165.368C304.794 165.178 304.542 163.354 304.257 163.409C306.348 163.008 308.344 162.625 310.435 162.224C310.296 163.039 310.442 163.8 310.606 164.655C310.675 165.529 310.762 166.497 310.224 167.29ZM313.766 153.899C313.524 155.72 312.847 157.328 311.622 158.646C311.622 158.646 311.527 158.665 311.545 158.76C311.161 159.326 310.89 159.969 310.619 160.612L303.205 162.034C302.811 161.518 302.226 161.039 301.66 160.655L301.547 160.578C299.921 159.806 298.697 158.562 297.799 156.961C296.9 155.359 296.667 153.63 296.91 151.81C297.152 149.99 297.942 148.459 299.168 147.14C300.393 145.821 302.013 145.018 303.723 144.69C305.434 144.362 307.254 144.604 308.862 145.281C310.489 146.053 311.807 147.279 312.687 148.785C313.681 150.368 314.009 152.079 313.766 153.899Z" fill="#333333"/>
</g>
<path d="M127.603 126.47H119.329V141.014H99.2873V126.47H69.3273V111.568L100.572 65.8823H119.329V111.311H127.603V126.47ZM99.2873 111.311V102.574C99.2873 100.93 99.3387 98.7201 99.4415 95.9451C99.5785 93.1358 99.6813 91.6627 99.7498 91.5256H99.1845C98.0197 94.1636 96.7007 96.6303 95.2275 98.9257L86.9024 111.311H99.2873ZM177.605 141.014H156.998V101.238C156.998 96.4076 157.1 91.9881 157.306 87.9798C156.038 89.5214 154.462 91.1316 152.578 92.8104L144.047 99.8507L133.513 86.9006L159.31 65.8823H177.605V141.014ZM248.831 103.551C248.831 116.843 246.604 126.59 242.15 132.791C237.696 138.958 230.878 142.041 221.697 142.041C212.721 142.041 205.955 138.821 201.398 132.38C196.842 125.905 194.563 116.295 194.563 103.551C194.563 90.1895 196.79 80.3913 201.244 74.156C205.698 67.9208 212.515 64.8031 221.697 64.8031C230.639 64.8031 237.388 68.0578 241.944 74.5671C246.535 81.0422 248.831 90.7034 248.831 103.551ZM214.759 103.551C214.759 112.047 215.29 117.888 216.352 121.075C217.414 124.261 219.196 125.854 221.697 125.854C224.232 125.854 226.014 124.209 227.041 120.92C228.103 117.631 228.634 111.842 228.634 103.551C228.634 95.2257 228.103 89.4015 227.041 86.0783C225.979 82.7209 224.198 81.0422 221.697 81.0422C219.196 81.0422 217.414 82.6524 216.352 85.8728C215.29 89.0932 214.759 94.9858 214.759 103.551Z" fill="#F1F1F1"/>
<path d="M133.747 51.2006C128.155 51.2006 123.605 46.5393 123.605 40.808C123.605 35.0768 128.156 30.3744 133.747 30.3744C139.339 30.3744 143.889 35.0542 143.889 40.808C143.889 46.5619 139.34 51.2006 133.747 51.2006ZM133.747 31.1237C128.562 31.1237 124.344 35.4674 124.344 40.808C124.344 46.1487 128.562 50.4513 133.747 50.4513C138.932 50.4513 143.151 46.1261 143.151 40.808C143.151 35.49 138.933 31.1227 133.747 31.1227V31.1237Z" fill="#333333" stroke="#333333" stroke-width="0.284447"/>
<path d="M124.665 44.9502C122.981 44.9502 121.663 44.7344 121.032 44.2205C120.68 43.9337 120.606 43.6079 120.606 43.3859C120.606 42.5009 121.565 41.6416 123.812 40.513C123.994 40.4236 124.216 40.4976 124.306 40.6837C124.396 40.8697 124.322 41.0938 124.139 41.1853C121.829 42.3447 121.344 43.021 121.344 43.3859C121.344 43.4208 121.344 43.5164 121.494 43.6387C122.476 44.4374 127.046 44.4939 133.587 43.021C141.572 41.175 145.989 38.6496 145.989 37.6094C145.989 37.2085 144.976 36.7768 142.75 36.7768C142.546 36.7768 142.381 36.6093 142.381 36.4027C142.381 36.1961 142.546 36.0286 142.75 36.0286C146.037 36.0286 146.727 36.8878 146.727 37.6094C146.727 39.6723 140.198 42.2594 133.748 43.7508C130.623 44.4559 127.221 44.9513 124.665 44.9513V44.9502Z" fill="#333333" stroke="#333333" stroke-width="0.284447"/>
<path d="M133.95 49.4121C132.628 49.4121 131.554 48.3123 131.554 46.9597C131.554 45.607 132.606 44.5072 133.95 44.5072C135.294 44.5072 136.346 45.607 136.346 46.9597C136.346 48.3123 135.249 49.4121 133.95 49.4121ZM133.95 45.2555C133.019 45.2555 132.291 46.0038 132.291 46.9597C132.291 47.9156 133.035 48.6638 133.95 48.6638C134.864 48.6638 135.609 47.8673 135.609 46.9597C135.609 46.0521 134.864 45.2555 133.95 45.2555Z" fill="#333333"/>
<path d="M134.518 35.4047C133.688 35.4047 133.013 34.714 133.013 33.866C133.013 33.018 133.687 32.3273 134.518 32.3273C135.348 32.3273 136.022 33.0324 136.022 33.866C136.022 34.6996 135.333 35.4047 134.518 35.4047ZM134.518 33.0766C134.095 33.0766 133.751 33.4312 133.751 33.866C133.751 34.3008 134.095 34.6554 134.518 34.6554C134.941 34.6554 135.285 34.2864 135.285 33.866C135.285 33.4456 134.927 33.0766 134.518 33.0766Z" fill="#333333"/>
<path d="M139.181 38.2723C138.441 38.2723 137.839 37.6752 137.839 36.9423C137.839 36.2094 138.453 35.5701 139.181 35.5701C139.908 35.5701 140.523 36.1981 140.523 36.9423C140.523 37.6865 139.92 38.2723 139.181 38.2723ZM139.181 36.3184C138.859 36.3184 138.576 36.6103 138.576 36.9423C138.576 37.2743 138.847 37.5241 139.181 37.5241C139.514 37.5241 139.785 37.263 139.785 36.9423C139.785 36.6216 139.503 36.3184 139.181 36.3184Z" fill="#333333"/>
<defs>
<clipPath id="clip0_0_1786">
<rect width="34.84" height="34.84" fill="white" transform="translate(285.016 139.112) rotate(-10.8526)"/>
</clipPath>
</defs>
</svg>
