<svg width="573" height="432" viewBox="0 0 573 432" fill="none" xmlns="http://www.w3.org/2000/svg">
<path d="M237.278 355C231.423 355 227.617 353.535 225.933 350.621C222.61 344.876 228.174 334.796 242.47 320.661L243.671 321.893C230.392 335.024 224.618 344.918 227.414 349.752C229.182 352.81 234.447 353.906 242.641 352.92C250.775 351.942 261.555 349.027 274.681 344.255C301.703 334.431 335.606 317.86 370.143 297.594C404.68 277.329 435.713 255.797 457.527 236.964C461.717 233.346 465.52 229.865 468.83 226.62C473.174 222.463 477.182 217.963 480.815 213.164C485.708 206.471 487.36 201.318 485.591 198.259C482.637 193.151 470.227 193.631 450.646 199.613L450.148 197.961C471.157 191.544 483.58 191.351 487.072 197.39C489.242 201.142 487.601 206.794 482.196 214.188C478.507 219.064 474.437 223.635 470.025 227.857C466.69 231.128 462.86 234.633 458.643 238.275C436.752 257.174 405.629 278.771 371.006 299.086C336.382 319.403 302.38 336.021 275.263 345.879C262.015 350.695 251.107 353.641 242.844 354.635C240.997 354.867 239.139 354.989 237.278 355V355Z" fill="#333333"/>
<path d="M432.236 336C425.422 336 417.954 335.743 409.831 335.228C367.819 332.563 313.4 323.297 256.598 309.137C199.797 294.977 147.4 277.615 109.06 260.249C90.3829 251.79 76.0485 243.782 66.4552 236.449C56.2985 228.685 51.8557 221.917 53.25 216.335C55.9666 205.46 80.021 203.081 99.7218 203L99.7285 204.582C72.6741 204.692 56.7133 209.003 54.7862 216.718C52.3314 226.545 72.3518 241.886 109.713 258.809C147.97 276.136 200.271 293.465 256.982 307.603C313.693 321.74 368.012 330.99 409.932 333.65C450.871 336.248 475.759 332.101 478.214 322.274C480.252 314.115 466.817 302.096 440.383 288.43L441.111 287.026C460.318 296.956 482.612 311.198 479.75 322.657C478.356 328.24 471.251 332.128 458.634 334.215C451.442 335.404 442.608 336 432.236 336Z" fill="#333333"/>
<path d="M360.907 426.038C360.747 425.951 360.598 425.832 360.468 425.691C360.018 425.189 359.94 424.449 360.259 423.86L362.33 420.033L358.523 416.029C358.025 415.508 357.942 414.707 358.315 414.089C358.691 413.466 359.442 413.175 360.139 413.378L365.144 414.833L367.258 410.927C367.585 410.322 368.264 409.986 368.948 410.104C369.625 410.212 370.151 410.755 370.26 411.447L370.999 416.4L376.054 417.824C376.709 417.985 377.194 418.59 377.22 419.282C377.256 419.966 376.851 420.606 376.213 420.855L372.122 422.491L372.836 427.204C372.942 427.914 372.566 428.608 371.914 428.907C371.262 429.207 370.505 429.043 370.031 428.502L366.477 424.422L362.263 426.107C361.815 426.29 361.313 426.252 360.904 426.03L360.907 426.038ZM364.947 418.13L365.458 418.665C365.941 419.165 366.036 419.921 365.703 420.535L365.193 421.479L366.348 421.026C366.981 420.774 367.704 420.939 368.156 421.462L368.839 422.238L368.757 421.723C368.65 420.98 369.062 420.266 369.754 419.989L370.634 419.638L369.137 419.209C368.517 419.055 368.08 418.527 367.984 417.907L367.798 416.676L367.349 417.506C366.987 418.175 366.22 418.496 365.488 418.287L364.947 418.13V418.13Z" fill="#333333"/>
<path d="M8.00111 312C7.80159 312 7.60206 311.96 7.4084 311.88C6.76288 311.607 6.34037 310.894 6.34037 310.115V305L1.12928 303.008C0.419206 302.742 -0.0385237 301.969 0.00255468 301.123C0.0436331 300.277 0.571788 299.571 1.29946 299.385L6.34037 298.106V292.884C6.34037 292.084 6.78636 291.365 7.44948 291.099C8.08913 290.852 8.85202 291.072 9.29214 291.705L12.6371 296.434L17.9714 295.075C18.6815 294.875 19.4033 295.248 19.7671 295.954C20.1368 296.654 20.0606 297.546 19.5793 298.159L16.5161 302.089L19.6322 306.505C20.1016 307.164 20.1192 308.103 19.6791 308.783C19.2449 309.482 18.4526 309.749 17.7543 309.442L12.4786 307.211L9.23933 311.354C8.92244 311.767 8.4647 311.987 7.99524 311.987L8.00111 312ZM7.82506 301.589L8.52926 301.862C9.20412 302.122 9.65598 302.835 9.65598 303.647V305.146L10.7475 303.747C11.1994 303.161 11.9212 302.948 12.5725 303.235L13.2709 303.528L13.0479 303.208C12.5432 302.489 12.5608 301.469 13.1007 300.783L13.6817 300.031L12.3554 300.37C11.7392 300.557 11.0937 300.277 10.6947 299.711L9.65598 298.252V299.624C9.65598 300.504 9.11609 301.27 8.35908 301.463L7.82506 301.603V301.589Z" fill="#333333"/>
<path d="M508.912 128.2C509.083 128.101 509.28 128.036 509.489 128.003C510.226 127.9 510.997 128.324 511.409 129.036L514.224 133.913L520.004 132.983C520.783 132.854 521.609 133.311 522.014 134.099C522.42 134.887 522.309 135.805 521.745 136.355L517.829 140.169L520.425 144.666C520.844 145.39 520.815 146.276 520.346 146.869C519.886 147.465 519.085 147.629 518.345 147.284L513.177 144.876L508.837 149.039C508.277 149.547 507.441 149.603 506.748 149.167C506.048 148.718 505.65 147.869 505.765 147.07L506.494 141.901L501.351 139.535C500.588 139.187 500.089 138.372 500.109 137.532C500.138 136.694 500.648 136.013 501.445 135.891L507.518 134.84L508.117 129.496C508.175 128.931 508.482 128.464 508.919 128.212L508.912 128.2ZM514.669 137.777L513.87 137.908C513.121 138.027 512.337 137.618 511.912 136.882L511.114 135.5L510.944 136.942C510.863 137.713 510.341 138.288 509.623 138.413L508.193 138.659L509.058 139.061C509.894 139.448 510.411 140.38 510.279 141.285L510.13 142.345L511.39 141.127C511.884 140.689 512.596 140.567 513.249 140.874L514.571 141.487L514.024 140.54C513.564 139.743 513.654 138.765 514.241 138.193L514.666 137.771L514.669 137.777Z" fill="#333333"/>
<path d="M69.0231 20.8703C68.8848 20.7527 68.7679 20.6012 68.6766 20.4283C68.3635 19.8156 68.5053 19.0009 69.0096 18.408L72.4586 14.3534L69.8903 9.58805C69.5469 8.94091 69.7013 8.06767 70.2743 7.45532C70.8474 6.84296 71.6894 6.64123 72.3449 6.95639L76.8907 9.15188L80.0748 5.40875C80.5876 4.80583 81.3777 4.54259 82.0413 4.7607C82.7092 4.97379 83.0956 5.62289 83.0094 6.38094L82.4407 11.6993L87.4224 14.153C88.0435 14.4561 88.3486 15.192 88.1591 15.9401C87.974 16.7006 87.3451 17.3261 86.6062 17.4855L81.8287 18.5309L81.2941 23.8091C81.221 24.5869 80.6528 25.2899 79.9014 25.5514C79.163 25.8066 78.4002 25.5561 78.0526 24.914L75.2981 19.9296L70.4054 21.1455C69.89 21.2786 69.386 21.1617 69.0317 20.8602L69.0231 20.8703ZM75.7445 12.706L76.0965 13.3518C76.4268 13.9705 76.2937 14.8012 75.7766 15.4092L74.7978 16.5597L76.1209 16.239C76.8254 16.0589 77.4807 16.3218 77.8151 16.9181L78.4624 18.0749L78.548 17.2037C78.6379 16.345 79.3048 15.5873 80.1426 15.408L81.135 15.187L79.6772 14.4752C79.138 14.1984 78.8293 13.598 78.8987 12.9297L79.0418 11.5706L78.3623 12.3694C77.7981 13.0326 76.909 13.2722 76.2276 12.9437L75.7403 12.711L75.7445 12.706Z" fill="#333333"/>
<path d="M184.467 351.487L146.342 328.472C146.149 328.357 145.94 328.312 145.716 328.336L100.449 335.461C100.141 335.539 99.8715 335.772 99.7806 336.19C99.7049 336.537 99.8379 336.931 100.171 337.076L116.206 346.759L111.31 366.24C111.265 366.449 111.274 366.742 111.452 366.927C111.67 367.265 116.871 375.173 130.645 378.171C131.34 378.322 132.036 378.474 132.747 378.556C147.994 381.145 157.834 376.438 158.312 376.251C158.551 376.157 158.751 375.909 158.796 375.7L163.414 356.158L184.173 353.172C184.551 353.108 184.821 352.875 184.911 352.458C184.933 352.026 184.8 351.632 184.467 351.487ZM157.163 374.835C155.236 375.654 146.116 379.061 133.04 376.871C120.05 374.627 114.259 367.756 113.125 366.271L117.754 347.679L137.521 359.631C137.591 359.646 137.715 359.746 137.784 359.761C137.854 359.776 137.993 359.806 138.078 359.752L161.553 356.336L157.163 374.835ZM138.163 358.022L103.135 336.847L145.701 330.081L181.503 351.716L138.163 358.022Z" fill="#333333"/>
<path d="M175.211 378.617L175.226 378.548C175.425 378.3 175.64 377.982 175.855 377.665C176.56 376.434 176.724 375.012 176.425 373.708C176.071 372.32 175.279 371.273 174.102 370.653C173.978 370.553 173.839 370.523 173.77 370.508L178.066 353.446C178.172 352.959 177.9 352.536 177.428 352.36L142.237 343.317C141.75 343.211 141.326 343.483 141.151 343.955C141.045 344.442 141.317 344.865 141.789 345.041L176.145 353.902L172.085 370.214C170.201 370.168 168.228 371.196 167.233 373.092C166.528 374.323 166.364 375.745 166.663 377.048C166.835 377.596 167.008 378.144 167.349 378.582L159.97 400.437C159.909 400.716 159.918 401.009 160.097 401.194C160.206 401.363 160.399 401.478 160.608 401.523C160.677 401.538 160.677 401.538 160.747 401.554L171.884 401.937C172.317 401.959 172.755 401.617 172.776 401.184L175.211 378.617ZM168.687 373.773C169.522 372.279 171.071 371.523 172.463 371.826C172.741 371.887 173.004 372.017 173.198 372.132C173.917 372.507 174.492 373.215 174.658 374.125C174.894 375.051 174.767 375.971 174.276 376.884C173.311 378.641 171.26 379.36 169.696 378.51C168.977 378.135 168.402 377.427 168.236 376.516C168.07 375.606 168.212 374.617 168.687 373.773ZM161.936 399.772L168.683 379.82C168.737 379.904 168.876 379.935 168.931 380.019C169.318 380.249 169.72 380.41 170.138 380.501C171.181 380.728 172.3 380.607 173.286 380.093L171.104 400.165L161.936 399.772Z" fill="#333333"/>
<path fill-rule="evenodd" clip-rule="evenodd" d="M377.609 42.671C382.199 43.914 384.962 48.4593 383.78 52.8231C382.598 57.187 377.919 59.717 373.329 58.4739C368.74 57.2309 365.977 52.6856 367.159 48.3218C368.341 43.9579 373.019 41.4279 377.609 42.671ZM384.888 53.1232C386.227 48.1775 383.096 43.0262 377.895 41.6174C372.693 40.2087 367.39 43.0759 366.051 48.0217C364.711 52.9674 367.842 58.1187 373.044 59.5275C378.246 60.9362 383.549 58.0689 384.888 53.1232Z" fill="#333333" stroke="#333333" stroke-linecap="round" stroke-linejoin="round"/>
<path fill-rule="evenodd" clip-rule="evenodd" d="M379.81 57.9674C379.504 57.8845 379.192 58.0532 379.113 58.3441L375.975 69.9329L371.921 64.9905C371.762 64.7967 371.492 64.7233 371.257 64.8105L365.263 67.0321L368.402 55.4432C368.48 55.1523 368.296 54.8493 367.99 54.7664C367.684 54.6835 367.372 54.8522 367.294 55.1431L363.87 67.7855C363.816 67.985 363.885 68.1995 364.048 68.3396C364.212 68.4797 364.442 68.5212 364.642 68.447L371.297 65.9804L375.797 71.4679C375.932 71.6331 376.152 71.7132 376.364 71.6748C376.575 71.6364 376.743 71.4861 376.797 71.2866L380.221 58.6442C380.3 58.3533 380.116 58.0503 379.81 57.9674Z" fill="#333333" stroke="#333333" stroke-linecap="round" stroke-linejoin="round"/>
<path fill-rule="evenodd" clip-rule="evenodd" d="M412.484 31.0076C415.429 31.805 417.219 34.7507 416.461 37.5501L408.852 65.6443C408.487 66.9948 407.572 68.1371 406.309 68.8201C405.046 69.503 403.538 69.6706 402.118 69.2859L387.343 65.2847C387.037 65.2018 386.725 65.3705 386.646 65.6614C386.568 65.9523 386.752 66.2553 387.058 66.3382L401.832 70.3394C403.547 70.8037 405.366 70.6015 406.89 69.7772C408.415 68.953 409.519 67.5743 409.96 65.9444L417.569 37.8502C418.485 34.4689 416.326 30.9172 412.769 29.9541L371.401 18.7506C369.687 18.2863 367.867 18.4886 366.343 19.3128C364.819 20.137 363.714 21.5158 363.273 23.1457L355.664 51.2404C355.373 52.3184 355.386 53.4579 355.701 54.5446C356.015 55.6313 356.621 56.6269 357.456 57.4316C357.682 57.6488 358.044 57.6543 358.265 57.4438C358.487 57.2332 358.483 56.8865 358.258 56.6693C357.565 56.0025 357.063 55.1775 356.803 54.2772C356.542 53.3768 356.532 52.4326 356.773 51.5394L364.381 23.4458C364.747 22.0953 365.662 20.9529 366.925 20.27C368.188 19.587 369.695 19.4195 371.116 19.8041L412.484 31.0076Z" fill="#333333" stroke="#333333" stroke-linecap="round" stroke-linejoin="round"/>
<path fill-rule="evenodd" clip-rule="evenodd" d="M407.183 41.0683C407.261 40.7773 407.077 40.4743 406.771 40.3915L371.312 30.7885C371.006 30.7056 370.695 30.8743 370.616 31.1652C370.537 31.4562 370.721 31.7592 371.027 31.842L406.486 41.445C406.792 41.5279 407.104 41.3592 407.183 41.0683Z" fill="#333333" stroke="#333333" stroke-linecap="round" stroke-linejoin="round"/>
<path fill-rule="evenodd" clip-rule="evenodd" d="M404.9 49.4965C404.979 49.2056 404.795 48.9025 404.489 48.8197L395.624 46.4189C395.318 46.3361 395.006 46.5047 394.927 46.7957C394.848 47.0866 395.033 47.3896 395.339 47.4725L404.203 49.8732C404.509 49.9561 404.821 49.7874 404.9 49.4965Z" fill="#333333" stroke="#333333" stroke-linecap="round" stroke-linejoin="round"/>
<path fill-rule="evenodd" clip-rule="evenodd" d="M402.617 57.9247C402.696 57.6338 402.512 57.3308 402.206 57.2479L396.296 55.6474C395.99 55.5645 395.678 55.7332 395.6 56.0241C395.521 56.3151 395.705 56.6181 396.011 56.7009L401.921 58.3014C402.227 58.3843 402.539 58.2156 402.617 57.9247Z" fill="#333333" stroke="#333333" stroke-linecap="round" stroke-linejoin="round"/>
<g clip-path="url(#clip0_8420_240951)">
<path d="M565.831 264.666L562.657 265.275C561.989 265.403 561.192 264.862 561.064 264.194C560.936 263.526 561.476 262.729 562.144 262.601L565.319 261.993C565.987 261.865 566.784 262.405 566.912 263.073C567.04 263.741 566.5 264.538 565.831 264.666ZM511.533 275.076L508.358 275.684C507.69 275.812 506.894 275.272 506.765 274.604C506.637 273.936 507.177 273.139 507.846 273.011L511.02 272.402C511.688 272.274 512.485 272.815 512.613 273.483C512.741 274.151 512.368 274.916 511.533 275.076ZM551.814 248.473C551.48 248.537 551.114 248.434 550.748 248.331C550.151 247.926 549.99 247.09 550.396 246.493L552.151 243.905C552.556 243.307 553.392 243.147 553.989 243.552C554.586 243.958 554.746 244.793 554.341 245.39L552.586 247.979C552.451 248.178 552.149 248.409 551.814 248.473ZM515.393 255.455C515.058 255.519 514.692 255.416 514.326 255.313L511.738 253.558C511.108 252.986 510.948 252.15 511.353 251.553C511.758 250.956 512.594 250.796 513.191 251.201L515.779 252.956C516.576 253.496 516.736 254.332 516.331 254.929C516.029 255.16 515.727 255.391 515.393 255.455ZM532.194 244.613C531.526 244.741 530.729 244.201 530.601 243.533L529.993 240.358C529.865 239.69 530.405 238.893 531.073 238.765C531.741 238.637 532.538 239.177 532.666 239.846L533.275 243.02C533.435 243.855 532.862 244.485 532.194 244.613Z" fill="#333333"/>
<path d="M552.153 260.186C550.311 256.901 547.595 254.478 544.171 252.882C540.747 251.287 537.014 250.79 533.339 251.495C529.663 252.199 526.379 254.041 523.788 256.79C521.197 259.538 519.602 262.962 519.073 266.528C518.576 270.26 519.28 273.936 520.956 277.252C522.335 279.932 524.686 282.253 527.274 284.009C530.029 285.732 532.149 287.751 532.757 290.925C533.013 292.262 533.103 293.631 533.693 294.903C534.283 296.176 535.144 297.05 536.338 297.86C538.13 299.076 540.128 299.559 542.3 299.142C544.305 298.758 546.15 297.538 547.365 295.746C548.175 294.552 548.62 293.254 548.73 292.021C548.942 290.421 548.153 289.013 548 287.31C547.622 284.438 548.948 281.413 550.799 279.326C552.619 277.071 553.745 273.911 554.068 271.078C554.7 267.146 553.995 263.47 552.153 260.186ZM545.31 294.062C544.635 295.057 543.729 295.751 542.257 296.206C540.586 296.526 538.62 296.21 537.497 294.867C536.405 293.69 536.085 292.02 535.829 290.683C535.764 290.349 535.323 287.143 534.822 287.239C538.497 286.534 542.006 285.861 545.681 285.157C545.437 286.589 545.693 287.926 545.981 289.43C546.102 290.965 546.255 292.668 545.31 294.062ZM551.537 270.524C551.111 273.723 549.921 276.549 547.767 278.868C547.767 278.868 547.6 278.9 547.632 279.067C546.957 280.062 546.48 281.193 546.004 282.323L532.973 284.822C532.279 283.915 531.252 283.073 530.256 282.398L530.057 282.263C527.199 280.905 525.048 278.72 523.469 275.905C521.89 273.089 521.48 270.05 521.906 266.851C522.332 263.651 523.721 260.96 525.875 258.641C528.029 256.323 530.876 254.911 533.883 254.335C536.891 253.758 540.09 254.184 542.916 255.374C545.775 256.732 548.093 258.886 549.64 261.534C551.386 264.317 551.963 267.324 551.537 270.524Z" fill="#333333"/>
</g>
<path d="M224.3 223.436H209.756V249H174.527V223.436H121.863V197.24L176.785 116.935H209.756V196.788H224.3V223.436ZM174.527 196.788V181.432C174.527 178.541 174.617 174.657 174.798 169.779C175.039 164.841 175.219 162.251 175.34 162.01H174.346C172.299 166.647 169.98 170.983 167.391 175.018L152.757 196.788H174.527ZM312.193 249H275.97V179.083C275.97 170.592 276.15 162.823 276.512 155.777C274.283 158.487 271.513 161.318 268.201 164.269L253.206 176.644L234.688 153.88L280.035 116.935H312.193V249ZM437.393 183.148C437.393 206.514 433.479 223.647 425.65 234.547C417.821 245.387 405.837 250.807 389.698 250.807C373.92 250.807 362.026 245.146 354.016 233.824C346.007 222.442 342.002 205.55 342.002 183.148C342.002 159.662 345.917 142.438 353.745 131.478C361.574 120.518 373.558 115.038 389.698 115.038C405.415 115.038 417.279 120.759 425.288 132.201C433.358 143.583 437.393 160.565 437.393 183.148ZM377.503 183.148C377.503 198.083 378.436 208.351 380.303 213.951C382.17 219.552 385.301 222.352 389.698 222.352C394.154 222.352 397.286 219.461 399.092 213.68C400.959 207.899 401.892 197.722 401.892 183.148C401.892 168.514 400.959 158.277 399.092 152.435C397.225 146.533 394.094 143.583 389.698 143.583C385.301 143.583 382.17 146.413 380.303 152.074C378.436 157.735 377.503 168.093 377.503 183.148Z" fill="#F1F1F1"/>
<path d="M235.1 90C225.27 90 217.273 81.8064 217.273 71.732C217.273 61.6577 225.272 53.3918 235.1 53.3918C244.929 53.3918 252.927 61.6179 252.927 71.732C252.927 81.8461 244.93 90 235.1 90ZM235.1 54.709C225.985 54.709 218.571 62.3442 218.571 71.732C218.571 81.1198 225.985 88.6828 235.1 88.6828C244.215 88.6828 251.629 81.0801 251.629 71.732C251.629 62.384 244.217 54.7072 235.1 54.7072V54.709Z" fill="#333333" stroke="#333333" stroke-width="0.5"/>
<path d="M219.135 79.0133C216.175 79.0133 213.859 78.6339 212.749 77.7305C212.13 77.2264 212 76.6537 212 76.2634C212 74.7078 213.686 73.1974 217.636 71.2136C217.957 71.0564 218.346 71.1865 218.505 71.5135C218.663 71.8405 218.532 72.2344 218.211 72.3952C214.15 74.4332 213.298 75.622 213.298 76.2634C213.298 76.3249 213.298 76.4929 213.561 76.7079C215.288 78.1117 223.32 78.2111 234.819 75.622C248.854 72.3771 256.619 67.938 256.619 66.1096C256.619 65.4049 254.837 64.6461 250.924 64.6461C250.567 64.6461 250.276 64.3516 250.276 63.9885C250.276 63.6253 250.567 63.3308 250.924 63.3308C256.703 63.3308 257.915 64.8412 257.915 66.1096C257.915 69.7357 246.44 74.2833 235.102 76.9048C229.608 78.1442 223.628 79.0151 219.135 79.0151V79.0133Z" fill="#333333" stroke="#333333" stroke-width="0.5"/>
<path d="M235.456 86.8561C233.133 86.8561 231.244 84.9229 231.244 82.5453C231.244 80.1676 233.094 78.2344 235.456 78.2344C237.818 78.2344 239.668 80.1676 239.668 82.5453C239.668 84.9229 237.74 86.8561 235.456 86.8561V86.8561ZM235.456 79.5497C233.82 79.5497 232.54 80.865 232.54 82.5453C232.54 84.2255 233.849 85.5408 235.456 85.5408C237.064 85.5408 238.372 84.1406 238.372 82.5453C238.372 80.9499 237.064 79.5497 235.456 79.5497V79.5497Z" fill="#333333"/>
<path d="M236.455 62.2341C234.997 62.2341 233.809 61.02 233.809 59.5294C233.809 58.0388 234.995 56.8247 236.455 56.8247C237.915 56.8247 239.098 58.0641 239.098 59.5294C239.098 60.9947 237.888 62.2341 236.455 62.2341ZM236.455 58.1418C235.711 58.1418 235.107 58.7651 235.107 59.5294C235.107 60.2936 235.711 60.917 236.455 60.917C237.199 60.917 237.802 60.2683 237.802 59.5294C237.802 58.7904 237.174 58.1418 236.455 58.1418Z" fill="#333333"/>
<path d="M244.651 67.2748C243.351 67.2748 242.292 66.2251 242.292 64.9369C242.292 63.6487 243.373 62.5249 244.651 62.5249C245.929 62.5249 247.01 63.6288 247.01 64.9369C247.01 66.245 245.95 67.2748 244.651 67.2748ZM244.651 63.8402C244.085 63.8402 243.588 64.3533 243.588 64.9369C243.588 65.5205 244.065 65.9595 244.651 65.9595C245.237 65.9595 245.714 65.5006 245.714 64.9369C245.714 64.3732 245.217 63.8402 244.651 63.8402V63.8402Z" fill="#333333"/>
<defs>
<clipPath id="clip0_8420_240951">
<rect width="61.2416" height="61.2416" fill="white" transform="translate(501 244.531) rotate(-10.8526)"/>
</clipPath>
</defs>
</svg>
