<svg width="530" height="465" viewBox="0 0 530 465" fill="none" xmlns="http://www.w3.org/2000/svg">
<path d="M233.105 111.282C240.709 111.282 247.558 113.063 253.653 116.623C259.808 120.123 264.576 125.102 267.955 131.559C271.395 138.016 273.115 145.469 273.115 153.917C273.115 168.702 268.649 180.047 259.718 187.952C250.847 195.858 237.39 199.81 219.346 199.81C203.897 199.81 191.285 197.427 181.509 192.659V163.331C186.759 165.745 192.673 167.736 199.251 169.305C205.889 170.874 211.591 171.659 216.359 171.659C222.997 171.659 228.096 170.271 231.657 167.495C235.217 164.659 236.997 160.495 236.997 155.003C236.997 149.934 235.187 145.981 231.566 143.145C227.945 140.309 222.454 138.891 215.092 138.891C209.479 138.891 203.415 139.947 196.897 142.059L183.772 135.542L188.75 65.6605H264.244V95.4414H219.165L217.536 112.912C222.243 112.007 225.592 111.524 227.583 111.463C229.575 111.343 231.415 111.282 233.105 111.282ZM383.729 132.011C383.729 155.426 379.807 172.594 371.962 183.517C364.117 194.379 352.108 199.81 335.935 199.81C320.124 199.81 308.206 194.138 300.18 182.793C292.154 171.387 288.141 154.46 288.141 132.011C288.141 108.476 292.063 91.2172 299.908 80.2342C307.753 69.2511 319.762 63.7596 335.935 63.7596C351.685 63.7596 363.574 69.4925 371.6 80.9583C379.686 92.3638 383.729 109.381 383.729 132.011ZM323.715 132.011C323.715 146.977 324.65 157.266 326.521 162.878C328.392 168.491 331.53 171.297 335.935 171.297C340.401 171.297 343.539 168.4 345.349 162.607C347.22 156.814 348.155 146.615 348.155 132.011C348.155 117.347 347.22 107.088 345.349 101.235C343.478 95.3208 340.34 92.3638 335.935 92.3638C331.53 92.3638 328.392 95.2001 326.521 100.873C324.65 106.545 323.715 116.925 323.715 132.011ZM492.353 132.011C492.353 155.426 488.43 172.594 480.585 183.517C472.74 194.379 460.731 199.81 444.558 199.81C428.748 199.81 416.829 194.138 408.803 182.793C400.777 171.387 396.764 154.46 396.764 132.011C396.764 108.476 400.687 91.2172 408.532 80.2342C416.377 69.2511 428.386 63.7596 444.558 63.7596C460.309 63.7596 472.197 69.4925 480.223 80.9583C488.309 92.3638 492.353 109.381 492.353 132.011ZM432.338 132.011C432.338 146.977 433.274 157.266 435.144 162.878C437.015 168.491 440.153 171.297 444.558 171.297C449.024 171.297 452.162 168.4 453.972 162.607C455.843 156.814 456.779 146.615 456.779 132.011C456.779 117.347 455.843 107.088 453.972 101.235C452.102 95.3208 448.964 92.3638 444.558 92.3638C440.153 92.3638 437.015 95.2001 435.144 100.873C433.274 106.545 432.338 116.925 432.338 132.011Z" fill="#F1F1F1"/>
<path d="M2.83788 135.86C1.11927 138.15 0.416885 141.301 1.50783 144.037C2.49416 146.511 4.57144 148.371 7.20166 148.617C10.1009 148.878 12.4023 146.542 13.6128 144.068C14.3451 142.561 14.6589 140.948 14.3451 139.288C14.106 137.997 13.3737 136.752 12.4173 135.891C9.9066 133.601 6.15555 133.447 3.37588 135.322C2.71833 135.768 2.38955 136.706 2.83788 137.428C3.25633 138.104 4.18288 138.458 4.88527 137.981C5.13933 137.812 5.39338 137.658 5.66238 137.52C5.7371 137.489 5.81183 137.459 5.88655 137.413C6.06588 137.305 5.52789 137.551 5.84172 137.443C5.99116 137.397 6.14061 137.336 6.29005 137.29C6.52916 137.213 6.87288 137.213 7.08211 137.105C7.06716 137.105 6.69355 137.151 6.94761 137.121C7.00738 137.121 7.06716 137.121 7.12694 137.105C7.29133 137.105 7.44077 137.09 7.60516 137.09C7.73966 137.09 7.85922 137.09 7.99372 137.09C8.06844 137.09 8.50182 137.136 8.21788 137.105C7.93394 137.074 8.36733 137.136 8.44205 137.151C8.57655 137.182 8.71105 137.213 8.84555 137.259C8.98005 137.305 9.11455 137.336 9.2341 137.397C9.27894 137.413 9.33872 137.443 9.38355 137.459C9.05477 137.382 9.14444 137.351 9.24905 137.397C9.48816 137.52 9.74222 137.643 9.96638 137.797C10.071 137.858 10.1607 137.935 10.2653 138.012C10.4147 138.12 10.0262 137.797 10.1457 137.92C10.1905 137.966 10.2503 138.012 10.2952 138.058C10.4894 138.227 10.6538 138.427 10.8182 138.611C11.0424 138.873 10.6239 138.319 10.8481 138.657C10.9228 138.765 10.9826 138.857 11.0424 138.965C11.1022 139.072 11.1619 139.18 11.2068 139.288C11.2217 139.334 11.2516 139.395 11.2815 139.441C11.0573 139.103 11.2068 139.242 11.2516 139.38C11.3413 139.61 11.4011 139.856 11.4459 140.102C11.5206 140.533 11.4309 139.764 11.4608 140.21C11.4608 140.348 11.4758 140.502 11.4758 140.655C11.4758 140.794 11.4758 140.932 11.4608 141.055C11.4459 141.409 11.5206 140.717 11.4608 141.147C11.401 141.455 11.3263 141.762 11.2217 142.054C11.1918 142.131 11.1619 142.223 11.132 142.3C11.0723 142.469 11.0424 142.346 11.1619 142.223C11.0723 142.315 11.0125 142.561 10.9527 142.669C10.7734 143.007 10.5791 143.314 10.3699 143.622C10.2802 143.76 10.1905 143.914 10.0859 144.052C10.071 144.083 9.99627 144.206 9.96638 144.221C10.0411 144.19 10.1607 143.991 10.0262 144.144C9.83188 144.375 9.63761 144.605 9.41344 144.805C9.36861 144.851 9.03983 145.143 9.24905 144.959C9.45827 144.775 9.11455 145.036 9.06972 145.082C8.98005 145.143 8.89039 145.189 8.80072 145.251C8.74094 145.282 8.30755 145.497 8.57655 145.374C8.84555 145.251 8.48688 145.405 8.41216 145.42C8.30755 145.451 8.20294 145.481 8.09833 145.512C8.00866 145.528 7.87416 145.528 7.7845 145.574C8.02361 145.451 8.12821 145.543 7.97877 145.543C7.90405 145.543 7.84427 145.543 7.76955 145.558C7.56033 145.558 7.35111 145.558 7.14188 145.543C6.87288 145.543 7.48561 145.604 7.30627 145.558C7.2465 145.558 7.18672 145.543 7.14188 145.528C7.02233 145.497 6.91772 145.481 6.8131 145.435C6.72344 145.405 6.63377 145.374 6.5441 145.343C6.48433 145.328 6.43949 145.297 6.37971 145.282C6.20038 145.22 6.75333 145.466 6.51421 145.343C6.31994 145.236 6.11072 145.143 5.93138 145.02C5.84172 144.959 5.75205 144.897 5.66238 144.836C5.34855 144.621 5.88655 145.051 5.66238 144.836C5.48305 144.682 5.31866 144.513 5.15427 144.344C5.0646 144.252 4.98988 144.16 4.91516 144.052C4.76572 143.883 5.12438 144.36 4.91516 144.052C4.76572 143.837 4.63121 143.622 4.51166 143.391C4.45188 143.268 4.39211 143.161 4.34728 143.038C4.24266 142.823 4.40705 143.176 4.40705 143.191C4.37716 143.115 4.34727 143.038 4.31739 142.961C4.21277 142.684 4.13805 142.392 4.07827 142.1C4.04839 141.962 4.03344 141.824 4.00355 141.685C4.10816 142.177 4.00355 141.747 4.00355 141.593C3.9886 141.27 3.9886 140.963 4.00355 140.64C4.00355 140.579 4.0185 140.517 4.0185 140.471C4.03344 140.84 3.98861 140.686 4.0185 140.517C4.04838 140.363 4.07827 140.21 4.10816 140.071C4.18288 139.749 4.31738 139.441 4.40705 139.119C4.46683 138.903 4.24266 139.472 4.39211 139.165C4.43694 139.072 4.48177 138.98 4.52661 138.888C4.60133 138.734 4.691 138.581 4.76572 138.427C4.96 138.073 5.18416 137.735 5.43822 137.413C5.91644 136.767 5.55777 135.66 4.90022 135.307C4.10816 134.877 3.36094 135.169 2.85283 135.86H2.83788Z" fill="#333333"/>
<path d="M148.53 181.568C147.131 183.3 146.563 185.697 147.452 187.762C148.282 189.688 150.002 191.115 152.232 191.309C154.622 191.517 156.546 189.743 157.551 187.845C158.164 186.681 158.426 185.42 158.149 184.131C157.945 183.147 157.333 182.191 156.546 181.526C154.462 179.78 151.372 179.628 149.055 181.069C148.414 181.471 148.093 182.316 148.53 182.967C148.938 183.577 149.842 183.896 150.527 183.466C150.731 183.341 150.935 183.231 151.139 183.134C151.197 183.106 151.256 183.078 151.314 183.05C151.489 182.967 150.949 183.175 151.212 183.092C151.328 183.05 151.445 183.009 151.562 182.981C151.707 182.94 152.042 182.801 152.188 182.843C152.188 182.843 151.78 182.884 152.013 182.87C152.057 182.87 152.101 182.87 152.159 182.87C152.29 182.87 152.407 182.856 152.538 182.856C152.64 182.856 152.742 182.856 152.844 182.856C152.917 182.856 153.296 182.898 152.99 182.856C152.684 182.815 153.048 182.87 153.121 182.884C153.223 182.912 153.34 182.926 153.442 182.967C153.544 183.009 153.646 183.023 153.748 183.064C154.068 183.175 153.5 182.953 153.704 183.037C153.908 183.12 154.083 183.217 154.272 183.328C154.36 183.383 154.433 183.438 154.505 183.48C154.651 183.563 154.243 183.272 154.36 183.369C154.403 183.397 154.447 183.438 154.476 183.466C154.622 183.591 154.768 183.729 154.899 183.868C155.103 184.076 154.68 183.577 154.884 183.854C154.943 183.923 154.986 184.006 155.045 184.076C155.103 184.145 155.132 184.228 155.176 184.311C155.336 184.602 155.059 184.006 155.176 184.311C155.249 184.478 155.292 184.658 155.336 184.838C155.409 185.184 155.307 184.478 155.336 184.838C155.336 184.949 155.336 185.046 155.336 185.157C155.336 185.254 155.336 185.351 155.336 185.448C155.336 185.503 155.307 185.669 155.336 185.434C155.38 185.17 155.336 185.406 155.336 185.448C155.292 185.669 155.234 185.891 155.147 186.113C155.103 186.237 154.914 186.542 155.132 186.182C155.074 186.293 155.03 186.404 154.957 186.514C154.826 186.764 154.666 186.986 154.491 187.221C154.418 187.332 154.345 187.429 154.272 187.54C154.243 187.581 154.214 187.623 154.185 187.665C154.389 187.36 154.331 187.484 154.272 187.554C154.112 187.72 153.952 187.886 153.777 188.039C153.718 188.08 153.442 188.302 153.675 188.136C153.908 187.969 153.616 188.177 153.558 188.205C153.485 188.247 153.412 188.288 153.34 188.33C153.281 188.357 152.902 188.524 153.194 188.413C153.485 188.302 153.165 188.413 153.092 188.44C153.004 188.468 152.931 188.482 152.844 188.51C152.757 188.537 152.669 188.537 152.596 188.551C153.063 188.427 152.844 188.524 152.655 188.537C152.494 188.537 152.334 188.537 152.159 188.524C151.926 188.524 152.523 188.579 152.363 188.551C152.319 188.551 152.276 188.537 152.232 188.524C152.145 188.51 152.057 188.482 151.97 188.468C151.897 188.454 151.824 188.427 151.766 188.399C151.722 188.385 151.678 188.371 151.634 188.357C151.474 188.302 152.013 188.524 151.809 188.427C151.649 188.343 151.489 188.274 151.343 188.191C151.27 188.15 151.197 188.108 151.139 188.053C150.862 187.872 151.401 188.274 151.183 188.08C151.051 187.969 150.906 187.845 150.789 187.72C150.716 187.651 150.658 187.581 150.6 187.512C150.454 187.36 150.833 187.817 150.643 187.568C150.527 187.415 150.425 187.249 150.323 187.083C150.279 186.999 150.235 186.916 150.192 186.819C150.104 186.639 150.264 186.986 150.264 186.986C150.264 186.944 150.206 186.861 150.192 186.819C150.119 186.611 150.046 186.404 150.002 186.196C149.973 186.099 149.958 186.002 149.944 185.891C150.046 186.39 149.958 186.03 149.944 185.891C149.929 185.655 149.944 185.42 149.944 185.198C149.944 185.157 149.944 185.115 149.944 185.073C149.929 185.503 149.915 185.295 149.944 185.184C149.958 185.073 149.988 184.963 150.017 184.852C150.075 184.616 150.177 184.381 150.25 184.145C150.308 183.979 150.09 184.478 150.206 184.242C150.235 184.173 150.279 184.103 150.308 184.034C150.367 183.923 150.439 183.812 150.498 183.702C150.658 183.438 150.833 183.203 151.022 182.953C151.241 182.69 151.256 182.191 151.168 181.886C151.081 181.568 150.818 181.221 150.498 181.055C150.162 180.889 149.754 180.806 149.375 180.917C148.997 181.027 148.749 181.249 148.501 181.554L148.53 181.568Z" fill="#333333"/>
<path d="M519.246 216.392C517.847 218.125 517.278 220.522 518.167 222.586C518.998 224.512 520.718 225.939 522.948 226.133C525.338 226.341 527.261 224.568 528.267 222.669C528.879 221.505 529.141 220.245 528.864 218.956C528.66 217.972 528.048 217.016 527.261 216.351C525.177 214.605 522.088 214.453 519.77 215.894C519.129 216.295 518.809 217.141 519.246 217.792C519.654 218.402 520.557 218.72 521.242 218.291C521.446 218.166 521.65 218.055 521.854 217.958C521.913 217.931 521.971 217.903 522.029 217.875C522.204 217.792 521.665 218 521.927 217.917C522.044 217.875 522.161 217.834 522.277 217.806C522.423 217.764 522.758 217.626 522.904 217.667C522.904 217.667 522.496 217.709 522.729 217.695C522.773 217.695 522.816 217.695 522.875 217.695C523.006 217.695 523.122 217.681 523.254 217.681C523.356 217.681 523.458 217.681 523.56 217.681C523.632 217.681 524.011 217.723 523.705 217.681C523.399 217.64 523.764 217.695 523.837 217.709C523.939 217.737 524.055 217.75 524.157 217.792C524.259 217.834 524.361 217.847 524.463 217.889C524.784 218 524.215 217.778 524.419 217.861C524.624 217.944 524.798 218.041 524.988 218.152C525.075 218.208 525.148 218.263 525.221 218.305C525.367 218.388 524.959 218.097 525.075 218.194C525.119 218.222 525.163 218.263 525.192 218.291C525.338 218.416 525.483 218.554 525.615 218.693C525.819 218.9 525.396 218.402 525.6 218.679C525.658 218.748 525.702 218.831 525.76 218.9C525.819 218.97 525.848 219.053 525.891 219.136C526.052 219.427 525.775 218.831 525.891 219.136C525.964 219.302 526.008 219.482 526.052 219.663C526.125 220.009 526.023 219.302 526.052 219.663C526.052 219.773 526.052 219.87 526.052 219.981C526.052 220.078 526.052 220.175 526.052 220.272C526.052 220.328 526.023 220.494 526.052 220.258C526.095 219.995 526.052 220.231 526.052 220.272C526.008 220.494 525.95 220.716 525.862 220.937C525.819 221.062 525.629 221.367 525.848 221.007C525.789 221.117 525.746 221.228 525.673 221.339C525.542 221.589 525.381 221.81 525.206 222.046C525.134 222.157 525.061 222.254 524.988 222.365C524.959 222.406 524.93 222.448 524.9 222.489C525.119 222.184 525.046 222.309 524.988 222.378C524.828 222.545 524.667 222.711 524.492 222.863C524.434 222.905 524.157 223.127 524.39 222.96C524.624 222.794 524.332 223.002 524.274 223.03C524.201 223.071 524.128 223.113 524.055 223.154C523.997 223.182 523.618 223.348 523.909 223.237C524.201 223.127 523.88 223.237 523.807 223.265C523.72 223.293 523.647 223.307 523.56 223.334C523.472 223.362 523.385 223.362 523.312 223.376C523.778 223.251 523.56 223.348 523.37 223.362C523.21 223.362 523.05 223.362 522.875 223.348C522.641 223.348 523.239 223.404 523.079 223.376C523.035 223.376 522.991 223.362 522.948 223.348C522.86 223.334 522.773 223.307 522.685 223.293C522.612 223.279 522.539 223.251 522.481 223.224C522.437 223.21 522.394 223.196 522.35 223.182C522.19 223.127 522.729 223.348 522.525 223.251C522.365 223.168 522.204 223.099 522.058 223.016C521.986 222.974 521.913 222.919 521.854 222.877C521.68 222.766 522.029 223.002 522.015 223.002C521.971 222.988 521.942 222.946 521.898 222.919C521.752 222.808 521.621 222.683 521.505 222.559C521.432 222.489 521.374 222.42 521.315 222.351C521.17 222.198 521.548 222.656 521.359 222.406C521.242 222.254 521.14 222.087 521.038 221.921C520.995 221.838 520.951 221.755 520.907 221.658C520.82 221.478 520.98 221.824 520.98 221.824C520.98 221.783 520.922 221.699 520.907 221.658C520.834 221.45 520.761 221.242 520.718 221.034C520.689 220.937 520.674 220.84 520.659 220.73C520.761 221.228 520.674 220.868 520.659 220.73C520.645 220.494 520.659 220.258 520.659 220.037C520.659 219.995 520.659 219.954 520.659 219.912C520.645 220.342 520.63 220.134 520.659 220.023C520.674 219.912 520.703 219.801 520.732 219.69C520.791 219.455 520.893 219.219 520.965 218.984C521.024 218.817 520.805 219.316 520.922 219.081C520.951 219.011 520.995 218.942 521.024 218.873C521.082 218.762 521.155 218.651 521.213 218.54C521.374 218.277 521.548 218.041 521.738 217.792C521.956 217.529 521.971 217.03 521.884 216.725C521.796 216.406 521.534 216.06 521.213 215.894C520.878 215.727 520.47 215.644 520.091 215.755C519.712 215.866 519.464 216.088 519.217 216.392H519.246Z" fill="#333333"/>
<path d="M322.634 445.611C322.472 440.449 323.753 435.213 324.946 430.227H322.104C323.488 433.624 324.578 437.125 325.506 440.669C325.8 441.787 325.962 442.934 326.183 444.067C326.389 445.111 326.551 446.199 327.435 446.876C328.068 447.361 329.084 446.979 329.452 446.347C329.894 445.582 329.555 444.817 328.922 444.332C328.995 444.39 329.511 444.773 329.422 444.92C329.437 444.876 329.349 444.685 329.334 444.64C329.275 444.449 329.231 444.258 329.187 444.052C329.069 443.552 328.981 443.037 328.878 442.537C328.657 441.346 328.421 440.184 328.112 439.007C327.243 435.757 326.212 432.55 324.946 429.432C324.696 428.815 324.225 428.359 323.533 428.359C322.899 428.359 322.266 428.815 322.119 429.432C321.471 432.153 320.867 434.874 320.411 437.639C319.954 440.405 319.601 442.934 319.689 445.596C319.748 447.479 322.693 447.494 322.634 445.596V445.611Z" fill="#333333"/>
<path d="M327.803 447.038C331.822 447.744 335.798 446.773 339.833 446.758L339.096 444.023C335.71 446.376 333.015 449.641 329.481 451.627C327.832 452.553 329.319 455.098 330.968 454.171C332.824 453.127 334.458 451.7 336.063 450.318C336.873 449.626 337.668 448.92 338.478 448.214C338.876 447.876 339.273 447.553 339.671 447.229C339.744 447.17 339.833 447.097 339.906 447.038C340.024 446.95 339.818 447.097 340.009 446.95C340.201 446.802 340.377 446.685 340.569 446.552C341.114 446.17 341.423 445.552 341.246 444.89C341.07 444.273 340.466 443.802 339.833 443.817C336.122 443.831 332.235 444.832 328.583 444.199C327.803 444.067 326.993 444.405 326.772 445.229C326.581 445.935 327.008 446.905 327.803 447.038Z" fill="#333333"/>
<path d="M329.098 454.318C330.6 457.745 333.501 460.393 334.767 463.923L336.578 462.113C334.296 461.613 332.47 459.687 330.424 458.525C329.511 458.01 328.657 457.48 327.817 456.877C326.978 456.274 326.08 455.568 325.108 455.068C324.401 454.701 323.503 454.892 323.091 455.598C322.708 456.26 322.914 457.245 323.621 457.613C324.578 458.113 325.447 458.789 326.33 459.422C327.214 460.054 328.141 460.613 329.098 461.172C331.307 462.466 333.221 464.408 335.798 464.967C336.814 465.187 338.007 464.276 337.609 463.158C336.917 461.202 335.842 459.466 334.664 457.775C333.56 456.186 332.411 454.627 331.646 452.847C331.322 452.127 330.262 451.95 329.628 452.318C328.878 452.759 328.774 453.598 329.098 454.333V454.318Z" fill="#333333"/>
<path d="M320.382 444.199C316.73 444.832 312.857 443.832 309.132 443.817C308.484 443.817 307.88 444.273 307.718 444.891C307.542 445.552 307.851 446.17 308.396 446.553C308.484 446.611 308.587 446.685 308.675 446.744C308.867 446.876 308.528 446.626 308.72 446.773C308.896 446.906 309.073 447.053 309.235 447.2C309.603 447.523 309.971 447.847 310.325 448.185C311.12 448.935 311.9 449.715 312.681 450.48C314.168 451.936 315.714 453.451 317.54 454.48C319.189 455.422 320.676 452.877 319.027 451.936C317.378 450.994 315.949 449.568 314.506 448.126C313.063 446.685 311.591 445.17 309.898 443.993L309.161 446.729C313.196 446.744 317.172 447.7 321.191 447.009C321.972 446.876 322.413 445.905 322.222 445.199C322.001 444.376 321.191 444.038 320.411 444.17L320.382 444.199Z" fill="#333333"/>
<path d="M317.319 452.833C316.538 454.612 315.405 456.186 314.3 457.76C313.122 459.451 312.047 461.187 311.355 463.143C310.958 464.261 312.151 465.173 313.167 464.952C315.699 464.408 317.584 462.54 319.734 461.246C320.647 460.687 321.545 460.187 322.399 459.525C323.253 458.863 324.063 458.142 325.108 457.598C325.815 457.23 326.021 456.245 325.638 455.583C325.226 454.862 324.328 454.686 323.621 455.054C322.634 455.568 321.766 456.319 320.882 456.995C320.19 457.539 319.248 458.098 318.394 458.598C317.363 459.201 316.421 459.937 315.434 460.613C314.448 461.29 313.505 461.864 312.386 462.099L314.197 463.908C315.464 460.378 318.364 457.716 319.866 454.304C320.19 453.583 320.087 452.73 319.336 452.289C318.718 451.921 317.643 452.083 317.319 452.818V452.833Z" fill="#333333"/>
<path d="M444.783 98.5174C444.621 93.3549 445.902 88.1188 447.095 83.1328H444.253C445.608 86.4862 446.697 89.9279 447.61 93.4284C447.905 94.5462 448.067 95.664 448.287 96.7819C448.449 97.5908 448.567 99.0028 449.274 99.547C449.907 100.032 450.746 100.165 451.35 99.547C451.851 99.0469 451.983 97.9585 451.35 97.4731C451.35 97.4731 451.6 98.0467 451.497 97.6643C451.453 97.4878 451.394 97.2966 451.35 97.1201C451.218 96.5907 451.129 96.0612 451.026 95.5317C450.805 94.355 450.584 93.2078 450.275 92.0606C449.392 88.766 448.361 85.5008 447.065 82.3386C446.815 81.7208 446.344 81.2649 445.652 81.2649C445.019 81.2649 444.385 81.7208 444.238 82.3386C443.59 85.0596 442.987 87.7805 442.53 90.5457C442.074 93.3108 441.72 95.8405 441.809 98.5027C441.868 100.385 444.812 100.4 444.754 98.5027L444.783 98.5174Z" fill="#333333"/>
<path d="M449.951 99.944C453.971 100.635 457.947 99.6793 461.981 99.6646L461.245 96.9289C457.858 99.2822 455.164 102.547 451.63 104.533C449.981 105.46 451.468 108.004 453.117 107.077C454.972 106.033 456.607 104.606 458.212 103.224C459.022 102.533 459.817 101.827 460.627 101.121C461.024 100.782 461.422 100.459 461.819 100.135C461.893 100.076 461.981 100.003 462.055 99.944C462.173 99.8558 461.967 100.003 462.158 99.8558C462.335 99.7234 462.526 99.5911 462.717 99.4587C463.262 99.0763 463.571 98.4585 463.395 97.7967C463.218 97.1789 462.614 96.7083 461.981 96.723C458.271 96.7377 454.383 97.7378 450.732 97.1054C449.951 96.973 449.141 97.3113 448.921 98.135C448.729 98.8409 449.156 99.8117 449.951 99.944Z" fill="#333333"/>
<path d="M451.232 107.225C452.734 110.652 455.635 113.299 456.901 116.829L458.712 115.02C456.43 114.52 454.604 112.593 452.558 111.431C451.645 110.916 450.791 110.387 449.951 109.784C449.112 109.181 448.214 108.475 447.242 107.975C446.535 107.607 445.637 107.798 445.225 108.504C444.842 109.166 445.048 110.152 445.755 110.519C446.712 111.019 447.581 111.696 448.464 112.328C449.348 112.961 450.275 113.52 451.232 114.079C453.441 115.373 455.355 117.314 457.932 117.873C458.948 118.094 460.141 117.182 459.743 116.064C459.051 114.108 457.976 112.373 456.798 110.681C455.694 109.093 454.545 107.534 453.765 105.754C453.441 105.033 452.381 104.857 451.748 105.224C450.997 105.666 450.894 106.504 451.218 107.239L451.232 107.225Z" fill="#333333"/>
<path d="M442.515 97.1056C438.864 97.738 434.991 96.7379 431.266 96.7231C430.618 96.7231 430.014 97.1791 429.852 97.7968C429.676 98.4587 429.985 99.0764 430.53 99.4588C430.618 99.5177 430.721 99.5912 430.809 99.65C431.001 99.7824 430.662 99.5324 430.854 99.6795C431.03 99.8118 431.207 99.9589 431.369 100.106C431.737 100.43 432.105 100.753 432.459 101.091C433.254 101.842 434.034 102.621 434.814 103.386C436.302 104.842 437.848 106.357 439.674 107.401C441.323 108.342 442.81 105.798 441.161 104.857C439.512 103.915 438.083 102.489 436.64 101.047C435.197 99.6059 433.725 98.091 432.032 96.9143L431.295 99.65C435.33 99.6648 439.305 100.621 443.325 99.9295C444.106 99.7971 444.547 98.8264 444.356 98.1204C444.135 97.2968 443.325 96.9585 442.545 97.0908L442.515 97.1056Z" fill="#333333"/>
<path d="M439.468 105.739C438.687 107.519 437.553 109.093 436.449 110.666C435.271 112.358 434.196 114.093 433.504 116.05C433.107 117.167 434.299 118.079 435.315 117.859C437.848 117.314 439.733 115.447 441.882 114.152C442.795 113.593 443.693 113.093 444.547 112.431C445.402 111.77 446.211 111.049 447.257 110.505C447.964 110.137 448.17 109.152 447.787 108.49C447.375 107.769 446.476 107.592 445.77 107.96C444.783 108.475 443.914 109.225 443.031 109.902C442.339 110.446 441.396 111.005 440.542 111.505C439.512 112.108 438.569 112.843 437.583 113.52C436.596 114.196 435.654 114.77 434.535 115.005L436.346 116.814C437.612 113.284 440.513 110.622 442.015 107.21C442.339 106.489 442.236 105.636 441.485 105.195C440.866 104.827 439.791 104.989 439.468 105.725V105.739Z" fill="#333333"/>
<path d="M183.925 58.6189C183.91 58.06 183.925 57.4864 183.984 56.9275C184.043 56.2509 184.102 55.8832 184.22 55.1919C184.441 53.927 184.706 52.6622 185.015 51.412H182.88C183.542 53.0299 184.058 54.6919 184.499 56.3686C184.764 57.3981 184.691 58.8542 185.604 59.5602C186.075 59.9279 186.841 59.6338 187.12 59.1631C187.459 58.5895 187.194 58.0159 186.723 57.6482C186.796 57.707 187.209 58.0159 187.15 58.163C187.15 58.1335 187.106 58.06 187.106 58.0306C187.076 57.9423 187.061 57.8394 187.032 57.7511C186.973 57.5158 186.929 57.2658 186.885 57.0304C186.782 56.4568 186.664 55.9126 186.517 55.3537C186.104 53.8094 185.618 52.2797 185.015 50.8089C184.823 50.353 184.47 50 183.955 50C183.483 50 182.998 50.3383 182.894 50.8089C182.585 52.1032 182.305 53.3976 182.085 54.7066C181.864 56.0156 181.687 57.2952 181.731 58.6042C181.746 59.1925 182.232 59.7073 182.836 59.7073C183.439 59.7073 183.955 59.2072 183.94 58.6042L183.925 58.6189Z" fill="#333333"/>
<path d="M185.869 59.6925C187.827 60.0308 189.741 59.5896 191.7 59.5749L191.14 57.5157C190.301 58.1041 189.535 58.7953 188.755 59.4719C188.372 59.8102 187.974 60.1338 187.577 60.4573C187.371 60.6191 187.695 60.3691 187.577 60.4573C187.518 60.5015 187.474 60.5309 187.415 60.575C187.327 60.6485 187.223 60.7074 187.135 60.7809C186.944 60.9133 186.767 61.031 186.561 61.1339C186.06 61.4134 185.839 62.1488 186.163 62.6488C186.487 63.1489 187.135 63.3548 187.68 63.0459C188.593 62.5312 189.388 61.8252 190.183 61.1486C190.566 60.8103 190.949 60.4868 191.332 60.1485C191.523 59.9867 191.7 59.8249 191.891 59.6778C191.935 59.6484 191.965 59.619 192.009 59.5896C192.112 59.5013 191.818 59.7219 191.98 59.619C192.068 59.5601 192.156 59.4866 192.245 59.4278C192.642 59.163 192.907 58.663 192.745 58.1776C192.598 57.7216 192.186 57.3687 191.685 57.3687C190.787 57.3687 189.889 57.4863 188.99 57.5599C188.534 57.604 188.063 57.6334 187.606 57.6334C187.385 57.6334 187.165 57.6334 186.958 57.6187C186.841 57.6187 186.723 57.604 186.59 57.5893C186.458 57.5746 186.473 57.5893 186.62 57.5893C186.561 57.5893 186.502 57.5746 186.443 57.5599C185.869 57.4569 185.221 57.7069 185.088 58.3247C184.971 58.8542 185.25 59.5749 185.854 59.6778L185.869 59.6925Z" fill="#333333"/>
<path d="M186.237 62.9726C186.59 63.7962 187.12 64.5169 187.621 65.2376C187.871 65.6053 188.122 65.973 188.357 66.3554C188.475 66.5466 188.578 66.7525 188.681 66.9437C188.74 67.0467 188.784 67.1644 188.828 67.2673C188.725 67.0173 188.873 67.385 188.887 67.4291L190.242 66.076C190.11 66.0465 189.977 66.0024 189.844 65.9583C189.594 65.8848 189.977 66.0318 189.844 65.9583C189.786 65.9289 189.712 65.8995 189.653 65.87C189.388 65.7377 189.138 65.5759 188.902 65.4141C188.416 65.0758 187.945 64.7081 187.43 64.414C187.003 64.1639 186.59 63.9139 186.193 63.6344C185.795 63.355 185.368 63.002 184.912 62.7667C184.396 62.5019 183.69 62.6196 183.395 63.1638C183.13 63.6638 183.248 64.3845 183.793 64.6787C184.249 64.914 184.661 65.2376 185.074 65.5465C185.486 65.8553 185.942 66.1054 186.384 66.3701C187.474 67.0026 188.401 67.9439 189.668 68.2086C190.065 68.2969 190.448 68.2086 190.743 67.9292C191.008 67.6644 191.155 67.2232 191.022 66.8555C190.684 65.8848 190.168 65.0317 189.579 64.208C189.049 63.4579 188.505 62.7078 188.136 61.8695C187.901 61.34 187.091 61.1782 186.62 61.4724C186.075 61.8253 185.972 62.4137 186.222 62.9873L186.237 62.9726Z" fill="#333333"/>
<path d="M182.335 57.5599C182.335 57.5599 182.217 57.5746 182.158 57.5893C182.306 57.5746 182.32 57.5746 182.188 57.5893C182.07 57.5893 181.952 57.6187 181.82 57.6187C181.599 57.6187 181.378 57.6334 181.172 57.6334C180.715 57.6334 180.244 57.604 179.788 57.5599C178.889 57.4863 178.006 57.3687 177.093 57.3687C176.622 57.3687 176.136 57.7069 176.033 58.1776C175.915 58.6777 176.121 59.1336 176.534 59.4278C176.578 59.4572 176.622 59.4866 176.666 59.516C176.784 59.5896 176.489 59.3689 176.607 59.4719C176.695 59.5454 176.769 59.6043 176.857 59.6778C177.034 59.8249 177.211 59.9867 177.373 60.1485C177.756 60.5015 178.124 60.8692 178.492 61.2369C179.228 61.9576 179.994 62.693 180.877 63.2077C181.378 63.4872 182.114 63.3401 182.394 62.8106C182.674 62.2811 182.541 61.6046 181.996 61.2957C181.805 61.1927 181.628 61.0751 181.466 60.9427C181.304 60.8103 181.584 61.0457 181.466 60.9427C181.422 60.9133 181.378 60.8839 181.348 60.8397C181.26 60.7662 181.157 60.6927 181.069 60.6044C180.671 60.2661 180.303 59.8984 179.92 59.5307C179.199 58.8247 178.477 58.0893 177.653 57.501L177.093 59.5601C179.051 59.5601 180.966 60.0161 182.924 59.6778C183.498 59.5749 183.866 58.8542 183.69 58.3247C183.483 57.7069 182.939 57.4422 182.335 57.5599Z" fill="#333333"/>
<path d="M180.656 61.8547C180.288 62.693 179.743 63.4432 179.213 64.1933C178.624 65.0316 178.124 65.8847 177.77 66.8554C177.638 67.2231 177.785 67.6644 178.05 67.9291C178.345 68.2233 178.727 68.2968 179.125 68.2086C180.362 67.9438 181.289 67.0466 182.335 66.3995C182.777 66.1347 183.189 65.8994 183.601 65.5905C183.763 65.4729 183.925 65.3405 184.087 65.2228C184.308 65.0463 183.896 65.3699 184.117 65.1934C184.175 65.1493 184.22 65.1199 184.279 65.0757C184.47 64.9287 184.676 64.7963 184.897 64.6786C185.412 64.4139 185.604 63.6491 185.295 63.1637C184.956 62.6342 184.337 62.4871 183.778 62.7666C183.277 63.0313 182.836 63.4137 182.394 63.752C182.232 63.8844 182.497 63.6785 182.394 63.752C182.335 63.7961 182.291 63.8256 182.232 63.8697C182.129 63.9432 182.026 64.0168 181.923 64.0903C181.716 64.2227 181.496 64.3256 181.289 64.458C180.804 64.7375 180.347 65.0905 179.876 65.414C179.64 65.5758 179.39 65.7376 179.14 65.87C179.081 65.8994 179.007 65.9288 178.948 65.9582C178.757 66.0465 179.066 65.9141 178.948 65.9582C178.801 66.0024 178.669 66.0465 178.521 66.0759L179.876 67.429C179.876 67.429 180.038 67.0172 179.935 67.2672C179.979 67.1643 180.038 67.0466 180.082 66.9437C180.185 66.7378 180.303 66.5318 180.421 66.3259C180.642 65.9435 180.892 65.5905 181.142 65.2375C181.658 64.5021 182.173 63.7814 182.526 62.9578C182.762 62.4283 182.703 61.7517 182.129 61.4429C181.658 61.1928 180.862 61.2811 180.612 61.84L180.656 61.8547Z" fill="#333333"/>
<path d="M520.467 355.908C520.453 355.349 520.467 354.775 520.526 354.216C520.585 353.54 520.644 353.172 520.762 352.481C520.983 351.216 521.248 349.951 521.557 348.701H519.422C520.07 350.289 520.585 351.937 521.027 353.599C521.159 354.128 521.248 354.658 521.351 355.202C521.439 355.673 521.528 356.379 521.925 356.702C522.396 357.07 523.03 357.158 523.486 356.702C523.869 356.32 523.957 355.511 523.486 355.143C523.501 355.143 523.722 355.628 523.663 355.408C523.648 355.32 523.619 355.231 523.589 355.143C523.53 354.893 523.486 354.643 523.442 354.393C523.339 353.834 523.236 353.29 523.088 352.746C522.676 351.172 522.176 349.628 521.557 348.127C521.366 347.671 521.012 347.318 520.497 347.318C520.026 347.318 519.54 347.657 519.437 348.127C519.128 349.422 518.848 350.716 518.627 352.025C518.406 353.334 518.229 354.614 518.273 355.923C518.288 356.511 518.774 357.026 519.378 357.026C519.982 357.026 520.497 356.526 520.482 355.923L520.467 355.908Z" fill="#333333"/>
<path d="M522.411 356.982C524.369 357.32 526.284 356.879 528.242 356.864L527.682 354.805C526.843 355.393 526.077 356.084 525.297 356.761C524.914 357.099 524.517 357.423 524.119 357.746C523.913 357.908 524.237 357.658 524.119 357.746C524.06 357.791 524.016 357.82 523.957 357.864C523.869 357.938 523.766 357.996 523.677 358.07C523.486 358.202 523.309 358.32 523.103 358.423C522.602 358.702 522.382 359.438 522.706 359.938C523.029 360.438 523.677 360.644 524.222 360.335C525.135 359.82 525.93 359.114 526.725 358.438C527.108 358.099 527.491 357.776 527.874 357.438C528.065 357.276 528.242 357.114 528.433 356.967C528.478 356.937 528.507 356.908 528.551 356.879C528.654 356.79 528.36 357.011 528.522 356.908C528.61 356.849 528.698 356.776 528.787 356.717C529.184 356.452 529.449 355.952 529.287 355.467C529.125 354.981 528.728 354.658 528.227 354.658C527.329 354.658 526.431 354.775 525.533 354.849C525.076 354.893 524.605 354.922 524.148 354.922C523.928 354.922 523.707 354.922 523.501 354.908C523.383 354.908 523.265 354.893 523.133 354.878C523 354.864 523.015 354.878 523.162 354.878C523.103 354.878 523.044 354.864 522.985 354.849C522.411 354.746 521.763 354.996 521.631 355.614C521.513 356.143 521.793 356.864 522.396 356.967L522.411 356.982Z" fill="#333333"/>
<path d="M522.779 360.261C523.133 361.085 523.663 361.806 524.163 362.541C524.414 362.909 524.664 363.277 524.899 363.659C525.017 363.85 525.12 364.056 525.223 364.247C525.282 364.35 525.326 364.468 525.371 364.571C525.268 364.321 525.415 364.689 525.43 364.733L526.784 363.379C526.652 363.35 526.519 363.306 526.387 363.262C526.136 363.188 526.519 363.335 526.387 363.262C526.328 363.232 526.254 363.203 526.195 363.174C525.93 363.041 525.68 362.879 525.444 362.718C524.958 362.379 524.487 362.012 523.972 361.717C523.545 361.467 523.133 361.217 522.735 360.938C522.337 360.659 521.91 360.32 521.454 360.085C520.939 359.82 520.232 359.938 519.937 360.482C519.672 360.982 519.79 361.703 520.335 361.997C520.791 362.232 521.204 362.556 521.616 362.85C522.028 363.144 522.485 363.409 522.926 363.674C524.016 364.306 524.944 365.247 526.21 365.512C526.608 365.6 526.99 365.512 527.285 365.233C527.55 364.968 527.697 364.527 527.565 364.159C527.226 363.188 526.711 362.335 526.122 361.497C525.592 360.747 525.047 359.997 524.679 359.158C524.443 358.629 523.633 358.467 523.162 358.761C522.617 359.114 522.514 359.702 522.764 360.276L522.779 360.261Z" fill="#333333"/>
<path d="M518.877 354.849C518.877 354.849 518.759 354.864 518.7 354.878C518.848 354.864 518.862 354.864 518.73 354.878C518.612 354.878 518.494 354.908 518.362 354.908C518.141 354.908 517.92 354.922 517.714 354.922C517.257 354.922 516.786 354.893 516.33 354.849C515.432 354.775 514.533 354.658 513.635 354.658C513.164 354.658 512.678 354.996 512.575 355.467C512.457 355.967 512.663 356.423 513.076 356.717C513.12 356.746 513.164 356.776 513.208 356.805C513.238 356.835 513.37 356.893 513.238 356.82C513.09 356.732 513.252 356.835 513.296 356.864C513.341 356.893 513.37 356.923 513.414 356.952C513.591 357.099 513.768 357.261 513.93 357.423C514.313 357.776 514.681 358.144 515.049 358.511C515.785 359.232 516.536 359.967 517.434 360.482C517.935 360.762 518.671 360.614 518.951 360.085C519.23 359.555 519.098 358.879 518.553 358.57C518.362 358.467 518.185 358.349 518.023 358.217C517.861 358.085 518.141 358.32 518.023 358.217C517.979 358.188 517.935 358.158 517.905 358.114C517.817 358.041 517.714 357.967 517.625 357.879C517.228 357.54 516.86 357.173 516.477 356.805C515.755 356.099 515.034 355.364 514.209 354.775L513.65 356.834C515.608 356.834 517.522 357.29 519.481 356.952C520.055 356.849 520.423 356.129 520.246 355.599C520.04 354.981 519.496 354.717 518.892 354.834L518.877 354.849Z" fill="#333333"/>
<path d="M517.184 359.144C516.816 359.982 516.271 360.732 515.741 361.482C515.152 362.321 514.651 363.174 514.298 364.144C514.165 364.512 514.313 364.953 514.578 365.218C514.872 365.512 515.255 365.586 515.652 365.497C516.889 365.233 517.817 364.336 518.862 363.688C519.304 363.424 519.716 363.188 520.129 362.879C520.291 362.762 520.453 362.629 520.615 362.512C520.836 362.335 520.423 362.659 520.644 362.482C520.703 362.438 520.747 362.409 520.806 362.365C520.997 362.218 521.204 362.085 521.425 361.968C521.94 361.703 522.131 360.938 521.822 360.453C521.483 359.923 520.865 359.776 520.305 360.055C519.805 360.32 519.363 360.703 518.921 361.041C518.759 361.173 519.024 360.967 518.921 361.041C518.862 361.085 518.818 361.114 518.759 361.159C518.656 361.232 518.553 361.306 518.45 361.379C518.244 361.512 518.023 361.615 517.817 361.732C517.331 362.026 516.875 362.365 516.403 362.688C516.168 362.85 515.918 363.012 515.667 363.144C515.608 363.174 515.535 363.203 515.476 363.232C515.284 363.321 515.594 363.188 515.476 363.232C515.329 363.277 515.196 363.321 515.049 363.35L516.403 364.703C516.403 364.703 516.565 364.291 516.462 364.541C516.506 364.438 516.565 364.321 516.61 364.218C516.713 364.012 516.83 363.806 516.948 363.6C517.169 363.218 517.419 362.865 517.67 362.512C518.185 361.776 518.7 361.056 519.054 360.232C519.289 359.702 519.231 359.026 518.656 358.717C518.185 358.467 517.39 358.555 517.14 359.114L517.184 359.144Z" fill="#333333"/>
<path d="M50.6267 228.757C48.6836 271.672 46.7406 314.587 44.7976 357.502C44.7342 358.856 46.8462 358.856 46.9096 357.502C48.8526 314.587 50.7745 271.693 52.7386 228.778C52.802 227.424 50.69 227.424 50.6267 228.778V228.757Z" fill="#333333"/>
<path d="M265.458 238.507C263.515 281.422 261.572 324.338 259.65 367.253C259.587 368.607 261.699 368.607 261.762 367.253C263.705 324.338 265.648 281.422 267.57 238.507C267.633 237.154 265.521 237.154 265.458 238.507Z" fill="#333333"/>
<path d="M66.8889 223.046C116.668 225.309 166.469 227.551 216.249 229.814C230.378 230.449 244.507 231.104 258.636 231.739C259.988 231.802 259.988 229.687 258.636 229.624C208.857 227.361 159.056 225.098 109.276 222.856C95.1473 222.221 81.0181 221.565 66.8889 220.931C65.5373 220.867 65.5373 222.982 66.8889 223.046Z" fill="#333333"/>
<path d="M60.3207 368.141C110.1 370.405 159.901 372.668 209.68 374.91C223.809 375.544 237.939 376.2 252.068 376.834C253.42 376.898 253.42 374.783 252.068 374.719C202.288 372.456 152.488 370.214 102.708 367.951C88.579 367.317 74.4499 366.661 60.3207 366.026C58.969 365.963 58.969 368.078 60.3207 368.141Z" fill="#333333"/>
<path d="M68.4307 220.973C65.2838 220.825 62.1581 220.339 58.9901 220.423C56.7936 220.487 54.4071 220.783 52.7809 222.432C50.0564 225.161 50.8379 229.772 51.1758 233.198C51.3025 234.531 53.4145 234.552 53.2878 233.198C53.1188 231.443 52.9076 229.666 52.971 227.889C53.0132 226.493 53.2455 224.949 54.2804 223.913C55.6743 222.517 57.9341 222.517 59.7504 222.517C62.6438 222.517 65.5373 222.94 68.4307 223.067C69.7824 223.13 69.7824 221.015 68.4307 220.952V220.973Z" fill="#333333"/>
<path d="M250.695 231.337C253.588 231.464 256.482 231.295 259.354 231.57C261.149 231.739 263.409 231.95 264.655 233.473C265.542 234.552 265.648 236.054 265.585 237.407C265.521 239.163 265.141 240.897 264.803 242.61C264.55 243.943 266.577 244.514 266.831 243.182C267.38 240.326 268.225 237.069 267.337 234.171C266.197 230.554 262.564 229.73 259.206 229.455C256.376 229.222 253.525 229.37 250.695 229.243C249.343 229.18 249.343 231.295 250.695 231.358V231.337Z" fill="#333333"/>
<path d="M61.9047 365.095C59.0112 364.969 56.1178 365.138 53.2455 364.884C51.4503 364.715 49.1905 364.503 47.9444 362.98C47.0574 361.902 46.9518 360.4 47.0152 359.046C47.0785 357.291 47.4587 355.556 47.7755 353.843C48.0289 352.511 46.0014 351.94 45.748 353.272C45.1989 356.149 44.3541 359.406 45.2622 362.282C46.4027 365.899 50.0353 366.703 53.3934 366.999C56.2234 367.253 59.0746 367.084 61.9047 367.211C63.2563 367.274 63.2563 365.159 61.9047 365.095Z" fill="#333333"/>
<path d="M244.19 375.481C247.337 375.629 250.463 376.136 253.631 376.031C255.827 375.967 258.214 375.671 259.84 374.021C262.564 371.293 261.783 366.682 261.445 363.234C261.318 361.902 259.206 361.881 259.333 363.234C259.502 364.99 259.713 366.767 259.65 368.543C259.608 369.939 259.354 371.483 258.34 372.52C256.947 373.916 254.687 373.916 252.87 373.916C249.977 373.916 247.084 373.493 244.19 373.345C242.838 373.281 242.838 375.396 244.19 375.46V375.481Z" fill="#333333"/>
<path d="M53.7946 245.36C108.326 247.835 162.858 250.309 217.389 252.784C232.785 253.482 248.203 254.18 263.599 254.878C264.951 254.942 264.951 252.826 263.599 252.763C209.068 250.288 154.536 247.814 100.005 245.339C84.6085 244.641 69.191 243.943 53.7946 243.245C52.443 243.182 52.443 245.297 53.7946 245.36Z" fill="#333333"/>
<path d="M49.2539 345.446C103.785 347.921 158.317 350.396 212.848 352.87C228.245 353.568 243.662 354.266 259.059 354.964C260.41 355.028 260.41 352.913 259.059 352.849C204.527 350.374 149.996 347.9 95.4641 345.425C80.0677 344.727 64.6502 344.029 49.2539 343.331C47.9022 343.268 47.9022 345.383 49.2539 345.446Z" fill="#333333"/>
<path d="M134.029 372.139C133.733 378.78 133.438 385.4 133.121 392.042C133.057 393.395 135.169 393.395 135.233 392.042C135.529 385.4 135.824 378.78 136.141 372.139C136.204 370.785 134.092 370.785 134.029 372.139Z" fill="#333333"/>
<path d="M168.856 374.698C168.623 379.711 168.391 384.703 168.18 389.715C168.116 391.069 170.228 391.069 170.292 389.715C170.524 384.703 170.735 379.711 170.968 374.698C171.031 373.344 168.919 373.344 168.856 374.698Z" fill="#333333"/>
<path d="M136.141 392.867C146.785 393.353 157.43 393.84 168.074 394.305C169.426 394.368 169.426 392.253 168.074 392.19C157.43 391.703 146.785 391.217 136.141 390.752C134.789 390.688 134.789 392.803 136.141 392.867Z" fill="#333333"/>
<path d="M115.338 390.942C140.64 392.084 165.962 393.247 191.264 394.39C192.615 394.453 192.615 392.338 191.264 392.274C165.962 391.132 140.64 389.99 115.338 388.827C113.986 388.763 113.986 390.878 115.338 390.942Z" fill="#333333"/>
<path d="M114.599 390.223C114.409 394.474 114.219 398.704 114.028 402.956C113.965 404.309 116.077 404.309 116.14 402.956C116.331 398.704 116.521 394.474 116.711 390.223C116.774 388.869 114.662 388.869 114.599 390.223Z" fill="#333333"/>
<path d="M117.006 404.754C141.886 405.875 166.765 407.017 191.623 408.138C192.974 408.201 192.974 406.086 191.623 406.023C166.744 404.902 141.864 403.76 117.006 402.639C115.655 402.575 115.655 404.69 117.006 404.754Z" fill="#333333"/>
<path d="M191.158 394.03C190.968 398.387 190.778 402.744 190.567 407.08C190.503 408.434 192.615 408.434 192.679 407.08C192.869 402.723 193.08 398.366 193.27 394.03C193.334 392.676 191.222 392.676 191.158 394.03Z" fill="#333333"/>
<path d="M380.814 309.574C372.852 300.352 362.651 292.548 356.907 281.57C353.697 275.458 353.042 269.028 357.73 263.423C361.595 258.791 367.699 256.21 373.676 257.564C384.679 260.039 393.486 270.255 400.815 278.186C408.925 286.964 420.499 297.751 413.255 310.653C409.411 317.485 402.547 322.646 394.627 319.536C388.037 316.956 382.863 311.224 378.174 306.148C377.245 305.154 375.767 306.634 376.675 307.65C384.658 316.3 397.562 329.075 409.326 318.796C414.754 314.079 418.429 307.078 417.478 299.781C416.528 292.484 411.839 287.027 407.066 281.888C398.492 272.708 389.769 261.583 377.815 256.697C372.197 254.391 366.178 254.603 360.941 257.881C355.703 261.16 351.521 267.251 352.113 273.702C352.788 281.021 357.794 287.641 362.398 293.034C367.741 299.316 373.929 304.836 379.315 311.076C380.202 312.112 381.701 310.611 380.814 309.574Z" fill="#333333"/>
<path d="M356.273 264.756C365.841 269.028 375.429 275.056 381.892 283.453C382.715 284.511 384.553 283.453 383.708 282.395C377.013 273.681 367.277 267.357 357.329 262.937C356.104 262.387 355.027 264.206 356.273 264.756Z" fill="#333333"/>
<path d="M366.347 293.352C372.008 291.85 377.562 289.587 382.082 285.801C386.601 282.015 389.474 276.769 390.678 271.016C390.952 269.684 388.925 269.113 388.65 270.445C387.51 275.881 384.87 280.703 380.582 284.278C376.295 287.852 371.057 289.883 365.777 291.3C364.468 291.638 365.017 293.69 366.347 293.331V293.352Z" fill="#333333"/>
<path d="M412.389 315.645C415.514 316.364 416.718 319.494 418.809 321.609C420.9 323.724 423.456 325.691 426.138 327.13C431.059 329.795 436.613 330.81 442.147 330.091C453.044 328.653 462.274 322.011 468.589 313.212C482.971 293.182 483.014 266.744 476.403 243.88C469.37 219.471 454.945 197.094 436.191 180.067C419.168 164.606 397.922 152.74 374.943 149.462C351.965 146.183 327.698 152.338 310.633 168.138C302.122 176.027 295.49 186.624 294.308 198.342C293.125 210.059 297.898 220.91 306.473 228.355C314.139 235.017 325.227 239.649 335.365 236.35C342.588 234.002 349.135 227.657 348.755 219.598C348.058 204.941 329.831 195.042 316.842 200.351C307.803 204.052 302.27 213.761 299.038 222.496C295.005 233.452 294.012 245.445 294.392 257.035C294.751 267.738 296.483 278.186 298.891 288.593C299.989 293.415 301.868 300.247 299.038 304.815C296.039 309.659 288.816 308.115 284.191 307.396C278.32 306.486 272.322 306.127 266.767 303.842C265.521 303.314 264.972 305.365 266.197 305.873C271.561 308.094 277.369 308.496 283.051 309.342C287.127 309.955 291.478 310.865 295.554 309.744C305.121 307.121 302.481 294.769 300.834 287.662C296.082 267.294 293.674 244.641 300.559 224.442C303.558 215.664 309.091 205.279 318.384 201.98C325.523 199.441 333.485 201.641 339.187 206.379C344.129 210.482 348.079 217.166 346.136 223.765C343.306 233.283 331.542 236.625 322.84 234.637C312.217 232.204 302.671 224.061 298.595 213.93C294.181 202.91 296.441 190.939 302.544 181.04C314.646 161.454 338.87 151.027 361.258 150.646C383.645 150.266 404.68 158.959 422.442 171.649C441.534 185.313 456.93 203.989 467.005 225.182C477.417 247.116 482.845 273.554 474.481 297.032C470.975 306.867 465.125 316.427 456.339 322.35C446.603 328.906 433.994 330.429 424.11 323.365C421.618 321.588 419.654 319.515 417.795 317.083C416.444 315.306 415.092 314.058 412.853 313.53C411.523 313.212 410.974 315.264 412.283 315.56L412.389 315.645Z" fill="#333333"/>
<path d="M114.574 276.48C105.113 285.152 95.7989 293.993 86.3372 302.665C85.3235 303.595 86.823 305.076 87.8367 304.166C97.2984 295.495 106.612 286.654 116.074 277.982C117.088 277.072 115.588 275.57 114.574 276.48Z" fill="#FF9900"/>
<path d="M89.5686 276.839C98.2066 286.336 106.676 295.981 115.335 305.457C116.243 306.472 117.742 304.97 116.834 303.955C108.196 294.458 99.7272 284.813 91.0681 275.338C90.1599 274.322 88.6604 275.824 89.5686 276.839Z" fill="#FF9900"/>
<path d="M219.498 281.239C210.036 289.911 200.722 298.752 191.261 307.403C190.247 308.333 191.746 309.814 192.76 308.904C202.222 300.232 211.515 291.391 220.997 282.741C222.011 281.831 220.512 280.329 219.498 281.239Z" fill="#FF9900"/>
<path d="M194.492 281.598C203.13 291.074 211.599 300.74 220.258 310.216C221.166 311.231 222.666 309.729 221.758 308.714C213.12 299.217 204.651 289.572 195.992 280.097C195.083 279.082 193.584 280.583 194.492 281.598Z" fill="#FF9900"/>
<path d="M116.074 326.629C142.453 327.834 168.853 329.019 195.231 330.224C196.583 330.288 196.583 328.173 195.231 328.109C168.853 326.904 142.453 325.719 116.074 324.514C114.722 324.45 114.722 326.565 116.074 326.629Z" fill="#FF9900"/>
</svg>
