<svg xmlns="http://www.w3.org/2000/svg" width="103" height="103" viewBox="0 0 103 103" fill="none">
    <g clip-path="url(#clip0_3716_155387)">
        <path d="M59.938 13.1227V30.1437C59.938 31.2723 60.3863 32.3547 61.1843 33.1527C61.9823 33.9507 63.0647 34.399 64.1933 34.399H81.2143" stroke="#9B9DA0" stroke-width="3.19145" stroke-linecap="round" stroke-linejoin="round"/>
        <path d="M21.6406 34.399V21.6332C21.6406 19.3761 22.5373 17.2114 24.1333 15.6154C25.7293 14.0193 27.894 13.1227 30.1512 13.1227H59.938L81.2144 34.399V81.2069C81.2144 83.4641 80.3177 85.6288 78.7217 87.2248C77.1257 88.8208 74.961 89.7175 72.7038 89.7175H51.4275" stroke="#9B9DA0" stroke-width="3.19145" stroke-linecap="round" stroke-linejoin="round"/>
        <path d="M20.5767 68.4412L13.13 93.9728L28.0234 86.3133L42.9169 93.9728L35.4702 68.4412" stroke="#9B9DA0" stroke-width="3.19145" stroke-linecap="round" stroke-linejoin="round"/>
        <path d="M28.0234 70.5689C36.2489 70.5689 42.9169 63.9008 42.9169 55.6754C42.9169 47.45 36.2489 40.782 28.0234 40.782C19.798 40.782 13.13 47.45 13.13 55.6754C13.13 63.9008 19.798 70.5689 28.0234 70.5689Z" stroke="#FF9900" stroke-width="3.19145" stroke-linecap="round" stroke-linejoin="round"/>
        <path d="M27.7327 49.099C29.3048 49.099 30.5446 49.4176 31.4519 50.0547C32.3661 50.685 32.8232 51.5715 32.8232 52.7143C32.8232 53.6631 32.5358 54.47 31.9609 55.1349C31.3861 55.7998 30.5792 56.2569 29.5403 56.5062V56.5685C30.7662 56.7209 31.6943 57.0949 32.3245 57.6905C32.9548 58.2792 33.2699 59.0757 33.2699 60.08C33.2699 61.5344 32.7401 62.6772 31.6804 63.5083C30.6138 64.3117 29.1005 64.7134 27.1405 64.7134C25.4852 64.7134 24.0238 64.4398 22.7564 63.8927V61.1604C24.0862 61.8322 25.4333 62.1681 26.7977 62.1681C27.8643 62.1681 28.6469 61.9881 29.1455 61.6279C29.6511 61.2608 29.9039 60.7033 29.9039 59.9553C29.9039 59.2073 29.6165 58.6844 29.0417 58.3866C28.4668 58.0819 27.5353 57.9295 26.2471 57.9295H25.0939V55.4673H26.2678C27.466 55.4673 28.3318 55.3115 28.865 54.9998C29.3983 54.6882 29.665 54.1618 29.665 53.4207C29.665 52.271 28.9447 51.6962 27.5041 51.6962C26.4791 51.6962 25.3986 52.0667 24.2628 52.8078L22.7772 50.595C24.1624 49.5976 25.8142 49.099 27.7327 49.099Z" fill="#FF9900"/>
    </g>
    <defs>
        <clipPath id="clip0_3716_155387">
            <rect width="102.126" height="102.126" fill="white" transform="translate(0.364258 0.356934)"/>
        </clipPath>
    </defs>
</svg>
