<svg width="103" height="103" viewBox="0 0 103 103" fill="none" xmlns="http://www.w3.org/2000/svg">
<g clip-path="url(#clip0_3716_155379)">
<path d="M59.938 13.1227V30.1437C59.938 31.2723 60.3864 32.3547 61.1844 33.1527C61.9824 33.9507 63.0647 34.399 64.1933 34.399H81.2144" stroke="#9B9DA0" stroke-width="3.19145" stroke-linecap="round" stroke-linejoin="round"/>
<path d="M21.6406 34.399V21.6332C21.6406 19.3761 22.5373 17.2114 24.1333 15.6154C25.7293 14.0193 27.894 13.1227 30.1512 13.1227H59.938L81.2144 34.399V81.2069C81.2144 83.4641 80.3177 85.6288 78.7217 87.2248C77.1257 88.8208 74.961 89.7175 72.7038 89.7175H51.4275" stroke="#9B9DA0" stroke-width="3.19145" stroke-linecap="round" stroke-linejoin="round"/>
<path d="M20.5768 68.4412L13.1301 93.9728L28.0236 86.3133L42.917 93.9728L35.4703 68.4412" stroke="#9B9DA0" stroke-width="3.19145" stroke-linecap="round" stroke-linejoin="round"/>
<path d="M28.0236 70.5689C36.249 70.5689 42.917 63.9008 42.917 55.6754C42.917 47.45 36.249 40.782 28.0236 40.782C19.7981 40.782 13.1301 47.45 13.1301 55.6754C13.1301 63.9008 19.7981 70.5689 28.0236 70.5689Z" stroke="#FF9900" stroke-width="3.19145" stroke-linecap="round" stroke-linejoin="round"/>
<path d="M30.735 64.5056H27.5249V55.7167L27.5561 54.283L27.608 52.6935C27.0747 53.2268 26.7042 53.5766 26.4964 53.7428L24.7511 55.1453L23.2031 53.213L28.0963 49.3171H30.735V64.5056Z" fill="#FF9900"/>
</g>
<defs>
<clipPath id="clip0_3716_155379">
<rect width="102.126" height="102.126" fill="white" transform="translate(0.364319 0.356934)"/>
</clipPath>
</defs>
</svg>
