<svg xmlns="http://www.w3.org/2000/svg" width="103" height="103" viewBox="0 0 103 103" fill="none">
    <g clip-path="url(#clip0_3716_155383)">
        <path d="M59.938 13.1227V30.1437C59.938 31.2723 60.3864 32.3547 61.1844 33.1527C61.9824 33.9507 63.0647 34.399 64.1933 34.399H81.2144" stroke="#9B9DA0" stroke-width="3.19145" stroke-linecap="round" stroke-linejoin="round"/>
        <path d="M21.6406 34.399V21.6332C21.6406 19.3761 22.5373 17.2114 24.1333 15.6154C25.7293 14.0193 27.894 13.1227 30.1512 13.1227H59.938L81.2144 34.399V81.2069C81.2144 83.4641 80.3177 85.6288 78.7217 87.2248C77.1257 88.8208 74.961 89.7175 72.7038 89.7175H51.4275" stroke="#9B9DA0" stroke-width="3.19145" stroke-linecap="round" stroke-linejoin="round"/>
        <path d="M20.5768 68.4412L13.1301 93.9728L28.0236 86.3133L42.917 93.9728L35.4703 68.4412" stroke="#9B9DA0" stroke-width="3.19145" stroke-linecap="round" stroke-linejoin="round"/>
        <path d="M28.0236 70.5689C36.249 70.5689 42.917 63.9008 42.917 55.6754C42.917 47.45 36.249 40.782 28.0236 40.782C19.7981 40.782 13.1301 47.45 13.1301 55.6754C13.1301 63.9008 19.7981 70.5689 28.0236 70.5689Z" stroke="#FF9900" stroke-width="3.19145" stroke-linecap="round" stroke-linejoin="round"/>
        <path d="M28.2521 49.099C29.6304 49.099 30.7627 49.4799 31.6493 50.2417C32.5427 51.0036 32.9894 51.9767 32.9894 53.161C32.9894 53.1749 32.9894 53.1922 32.9894 53.213C32.9894 53.9125 32.8682 54.567 32.6258 55.1764C32.3834 55.779 32.0094 56.3989 31.5038 57.036C31.0051 57.6663 30.0875 58.5944 28.7508 59.8203L26.7977 61.6591V61.8045H33.4154V64.5056H22.798V62.272L26.6107 58.4178C27.7396 57.2681 28.4772 56.4681 28.8235 56.0179C29.1698 55.5678 29.4191 55.1557 29.5715 54.7817C29.7239 54.4007 29.8 54.0025 29.8 53.587C29.8 52.9913 29.6338 52.5411 29.3014 52.2364C28.9759 51.9317 28.5257 51.7793 27.9508 51.7793C26.905 51.7793 25.7553 52.2987 24.5017 53.3376L22.7564 51.2702C23.5183 50.6261 24.1381 50.1759 24.616 49.9197C25.6341 49.3725 26.8219 49.099 28.1794 49.099C28.2071 49.099 28.2313 49.099 28.2521 49.099Z" fill="#FF9900"/>
    </g>
    <defs>
        <clipPath id="clip0_3716_155383">
            <rect width="102.126" height="102.126" fill="white" transform="translate(0.364319 0.356934)"/>
        </clipPath>
    </defs>
</svg>
