<svg width="104" height="104" viewBox="0 0 104 104" fill="none" xmlns="http://www.w3.org/2000/svg">
<path fill-rule="evenodd" clip-rule="evenodd" d="M14.7989 55.2413C15.2028 54.4398 16.1799 54.1175 16.9814 54.5213C27.8433 59.9947 39.837 62.8458 52.0001 62.8458C64.1632 62.8458 76.1569 59.9947 87.0189 54.5213C87.8203 54.1175 88.7974 54.4398 89.2013 55.2413C89.6051 56.0427 89.2828 57.0198 88.4814 57.4237C77.1658 63.1257 64.6711 66.0958 52.0001 66.0958C39.3291 66.0958 26.8345 63.1257 15.5189 57.4237C14.7174 57.0198 14.3951 56.0427 14.7989 55.2413Z" fill="#FF9900"/>
<path fill-rule="evenodd" clip-rule="evenodd" d="M24.1944 33.7639C20.7043 33.7639 17.875 36.5932 17.875 40.0834V75.8334C17.875 79.3235 20.7043 82.1528 24.1944 82.1528H79.8056C83.2957 82.1528 86.125 79.3235 86.125 75.8334V40.0834C86.125 36.5932 83.2957 33.7639 79.8056 33.7639H24.1944ZM14.625 40.0834C14.625 34.7983 18.9094 30.5139 24.1944 30.5139H79.8056C85.0906 30.5139 89.375 34.7983 89.375 40.0834V75.8334C89.375 81.1184 85.0906 85.4028 79.8056 85.4028H24.1944C18.9094 85.4028 14.625 81.1184 14.625 75.8334V40.0834Z" fill="#9B9DA0"/>
<path fill-rule="evenodd" clip-rule="evenodd" d="M44.0555 17.8735C42.3795 17.8735 40.7721 18.5393 39.587 19.7245C38.4019 20.9096 37.7361 22.517 37.7361 24.193V32.1374C37.7361 33.0349 37.0085 33.7624 36.1111 33.7624C35.2136 33.7624 34.4861 33.0349 34.4861 32.1374V24.193C34.4861 21.655 35.4943 19.221 37.2889 17.4264C39.0835 15.6317 41.5176 14.6235 44.0555 14.6235H59.9444C62.4824 14.6235 64.9164 15.6317 66.711 17.4264C68.5057 19.221 69.5139 21.655 69.5139 24.193V32.1374C69.5139 33.0349 68.7863 33.7624 67.8889 33.7624C66.9914 33.7624 66.2639 33.0349 66.2639 32.1374V24.193C66.2639 22.517 65.5981 20.9096 64.4129 19.7245C63.2278 18.5393 61.6204 17.8735 59.9444 17.8735H44.0555Z" fill="#9B9DA0"/>
<path fill-rule="evenodd" clip-rule="evenodd" d="M52 50.3735C52.8975 50.3735 53.625 51.1011 53.625 51.9985V52.0383C53.625 52.9357 52.8975 53.6633 52 53.6633C51.1025 53.6633 50.375 52.9357 50.375 52.0383V51.9985C50.375 51.1011 51.1025 50.3735 52 50.3735Z" fill="#FF9900"/>
</svg>
