<svg width="80" height="80" viewBox="0 0 80 80" fill="none" xmlns="http://www.w3.org/2000/svg">
<path d="M27.6022 15.9885H21.6136C20.0253 15.9885 18.5021 16.6195 17.379 17.7425C16.2559 18.8656 15.625 20.3888 15.625 21.9771V57.9086C15.625 59.4969 16.2559 61.0201 17.379 62.1432C18.5021 63.2662 20.0253 63.8972 21.6136 63.8972H38.672" stroke="#58595B" stroke-width="2.02234" stroke-linecap="round" stroke-linejoin="round"/>
<path d="M57.5455 36.9486V21.9771C57.5455 20.3888 56.9146 18.8656 55.7915 17.7425C54.6684 16.6195 53.1452 15.9885 51.5569 15.9885H45.5684" stroke="#58595B" stroke-width="2.02234" stroke-linecap="round" stroke-linejoin="round"/>
<path d="M39.5797 10H33.5911C30.2837 10 27.6025 12.6812 27.6025 15.9886C27.6025 19.296 30.2837 21.9772 33.5911 21.9772H39.5797C42.8871 21.9772 45.5683 19.296 45.5683 15.9886C45.5683 12.6812 42.8871 10 39.5797 10Z" stroke="#58595B" stroke-width="2.02234" stroke-linecap="round" stroke-linejoin="round"/>
<path d="M27.6025 33.9543H39.5797" stroke="#58595B" stroke-width="2.02234" stroke-linecap="round" stroke-linejoin="round"/>
<path d="M27.6025 45.9314H36.5854" stroke="#58595B" stroke-width="2.02234" stroke-linecap="round" stroke-linejoin="round"/>
<g clip-path="url(#clip0_13550_1749)">
<path d="M63.1988 52.5274H68.7267C69.4598 52.5274 70.1628 52.8186 70.6811 53.3369C71.1995 53.8553 71.4907 54.5583 71.4907 55.2913C71.4907 56.0244 71.1995 56.7274 70.6811 57.2458C70.1628 57.7641 69.4598 58.0553 68.7267 58.0553H63.1988L57.6709 67.7292H53.5249L56.2889 58.0553H50.761L47.997 60.8193H43.8511L46.615 55.2913L43.8511 49.7634H47.997L50.761 52.5274H56.2889L53.5249 42.8535H57.6709L63.1988 52.5274Z" stroke="#FF9900" stroke-width="2.02234" stroke-linecap="round" stroke-linejoin="round"/>
</g>
<defs>
<clipPath id="clip0_13550_1749">
<rect width="33.1675" height="33.1675" fill="white" transform="translate(41.0869 38.7075)"/>
</clipPath>
</defs>
</svg>
