<svg width="80" height="80" viewBox="0 0 80 80" fill="none" xmlns="http://www.w3.org/2000/svg">
<g clip-path="url(#clip0_13550_1499)">
<g clip-path="url(#clip1_13550_1499)">
<path d="M40.3125 48.0469C48.8557 48.0469 55.7812 41.1213 55.7812 32.5781C55.7812 24.035 48.8557 17.1094 40.3125 17.1094C31.7693 17.1094 24.8438 24.035 24.8438 32.5781C24.8438 41.1213 31.7693 48.0469 40.3125 48.0469Z" stroke="#58595B" stroke-width="2" stroke-linecap="round" stroke-linejoin="round"/>
<path d="M40.3174 48.0554L49.083 63.2379L53.203 54.9053L62.4793 55.5036L53.7137 40.321" stroke="#58595B" stroke-width="2" stroke-linecap="round" stroke-linejoin="round"/>
<path d="M26.9111 40.321L18.1455 55.5036L27.4218 54.9053L31.5418 63.2379L40.3075 48.0554" stroke="#58595B" stroke-width="2" stroke-linecap="round" stroke-linejoin="round"/>
<path d="M46.0853 26.5366L46.0852 26.5366L46.0821 26.5399L36.6505 36.3723L34.5233 34.1243C34.2009 33.7298 33.5669 33.6444 33.1587 34.0433C32.7663 34.3692 32.684 35.0074 33.0858 35.4158L35.8598 38.4418C36.0501 38.71 36.3847 38.7743 36.5899 38.7743C36.8662 38.7743 37.1192 38.7047 37.3012 38.5217L37.3013 38.5217L37.3047 38.5181L47.4504 27.9015C47.6398 27.7102 47.7438 27.4702 47.7438 27.22C47.7438 26.969 47.6391 26.7282 47.4485 26.5366C47.258 26.3451 47.0178 26.2393 46.7669 26.2393C46.516 26.2393 46.2759 26.3451 46.0853 26.5366Z" fill="#FF9900" stroke="#FF9900" stroke-width="0.5"/>
</g>
</g>
<defs>
<clipPath id="clip0_13550_1499">
<rect width="72.5" height="72.5" fill="white" transform="translate(3.75 3.75)"/>
</clipPath>
<clipPath id="clip1_13550_1499">
<rect width="61.875" height="61.875" fill="white" transform="translate(9.375 9.375)"/>
</clipPath>
</defs>
</svg>
