<svg width="81" height="80" viewBox="0 0 81 80" fill="none" xmlns="http://www.w3.org/2000/svg">
<path d="M13.525 44.6875C21.8125 48.8636 30.9635 51.0389 40.2438 51.0389C49.524 51.0389 58.675 48.8636 66.9625 44.6875" stroke="#FF9900" stroke-width="2" stroke-linecap="round" stroke-linejoin="round"/>
<path d="M61.025 26.875H19.4625C16.1833 26.875 13.525 29.5333 13.525 32.8125V59.5312C13.525 62.8104 16.1833 65.4688 19.4625 65.4688H61.025C64.3042 65.4688 66.9625 62.8104 66.9625 59.5312V32.8125C66.9625 29.5333 64.3042 26.875 61.025 26.875Z" stroke="#58595B" stroke-width="2" stroke-linecap="round" stroke-linejoin="round"/>
<path d="M28.3688 26.875V20.9375C28.3688 19.3628 28.9943 17.8526 30.1078 16.7391C31.2213 15.6256 32.7316 15 34.3063 15H46.1813C47.756 15 49.2662 15.6256 50.3797 16.7391C51.4932 17.8526 52.1188 19.3628 52.1188 20.9375V26.875" stroke="#58595B" stroke-width="2" stroke-linecap="round" stroke-linejoin="round"/>
<path d="M40.2438 41.7188V41.7479" stroke="#FF9900" stroke-width="2" stroke-linecap="round" stroke-linejoin="round"/>
</svg>
