<svg width="80" height="80" viewBox="0 0 80 80" fill="none" xmlns="http://www.w3.org/2000/svg">
<path d="M45.3586 16.1035V26.7417C45.3586 27.447 45.6388 28.1235 46.1376 28.6223C46.6364 29.121 47.3128 29.4012 48.0182 29.4012H58.6563" stroke="#58595B" stroke-width="2" stroke-linecap="round" stroke-linejoin="round"/>
<path d="M21.4226 29.4012V21.4226C21.4226 20.0119 21.983 18.659 22.9805 17.6614C23.9781 16.6639 25.331 16.1035 26.7417 16.1035H45.3585L58.6562 29.4012V58.6562C58.6562 60.0669 58.0958 61.4198 57.0983 62.4173C56.1008 63.4149 54.7478 63.9753 53.3371 63.9753H40.0394" stroke="#58595B" stroke-width="2" stroke-linecap="round" stroke-linejoin="round"/>
<path d="M20.9375 51.25L16.25 66.875L25.625 62.1875L35 66.875L30.3125 51.25" stroke="#58595B" stroke-width="2" stroke-linecap="round" stroke-linejoin="round"/>
<path d="M25.4119 52.0074C30.5528 52.0074 34.7203 47.8399 34.7203 42.699C34.7203 37.5581 30.5528 33.3906 25.4119 33.3906C20.271 33.3906 16.1035 37.5581 16.1035 42.699C16.1035 47.8399 20.271 52.0074 25.4119 52.0074Z" stroke="#FF9900" stroke-width="2" stroke-linecap="round" stroke-linejoin="round"/>
<path d="M25.1211 37.3623C26.1556 37.3623 26.9714 37.5719 27.5684 37.9912C28.1699 38.4059 28.4707 38.9893 28.4707 39.7412C28.4707 40.3656 28.2816 40.8965 27.9033 41.334C27.5251 41.7715 26.9941 42.0723 26.3105 42.2363V42.2773C27.1172 42.3776 27.7279 42.6237 28.1426 43.0156C28.5573 43.403 28.7646 43.9271 28.7646 44.5879C28.7646 45.5449 28.416 46.2969 27.7188 46.8438C27.0169 47.3724 26.0212 47.6367 24.7314 47.6367C23.6423 47.6367 22.6807 47.4567 21.8467 47.0967V45.2988C22.7217 45.7409 23.6081 45.9619 24.5059 45.9619C25.2077 45.9619 25.7227 45.8434 26.0508 45.6064C26.3835 45.3649 26.5498 44.998 26.5498 44.5059C26.5498 44.0137 26.3607 43.6696 25.9824 43.4736C25.6042 43.2731 24.9912 43.1729 24.1436 43.1729H23.3848V41.5527H24.1572C24.9456 41.5527 25.5153 41.4502 25.8662 41.2451C26.2171 41.04 26.3926 40.6937 26.3926 40.2061C26.3926 39.4495 25.9186 39.0713 24.9707 39.0713C24.2962 39.0713 23.5853 39.3151 22.8379 39.8027L21.8604 38.3467C22.7718 37.6904 23.8587 37.3623 25.1211 37.3623Z" fill="#FF9900"/>
</svg>
